<?xml version="1.0" standalone="no"?>
<!DOCTYPE svg PUBLIC "-//W3C//DTD SVG 1.1//EN" "http://www.w3.org/Graphics/SVG/1.1/DTD/svg11.dtd" >
<svg>
<metadata>
Created by FontForge 20090914 at Wed Aug 28 19:20:12 2013
 By www-data
Copyright (c) 2012 by Julia Martinez Diana, Antipixel. All rights reserved.
</metadata>
<defs>
<font id="AracneUltraCondensedLight" horiz-adv-x="244" >
  <font-face 
    font-family="Aracne Ultra Condensed Light"
    font-weight="300"
    font-stretch="ultra-condensed"
    units-per-em="1000"
    panose-1="2 0 5 8 0 0 0 2 0 4"
    ascent="800"
    descent="-200"
    x-height="673"
    cap-height="681"
    bbox="-80 -173.003 322.004 880.004"
    underline-thickness="73"
    underline-position="-71"
    unicode-range="U+0020-U+F002"
  />
<missing-glyph horiz-adv-x="500" 
 />
    <glyph glyph-name=".notdef" horiz-adv-x="500" 
 />
    <glyph glyph-name="space" unicode=" " horiz-adv-x="101" 
 />
    <glyph glyph-name="space" unicode="&#xa0;" horiz-adv-x="101" 
 />
    <glyph glyph-name="exclam" unicode="!" horiz-adv-x="80" 
d="M7 692l1.99902 -0.00195312c2.66699 0 5.33398 -6.33301 8.00098 -19c-1.33301 -40 -2 -71.333 -2 -94v-39c0 -1.33301 -0.666992 -2 -2 -2l2 -3v-2c0 -1.33301 -0.666992 -2 -2 -2l2 -4c0 -1.33301 -0.666992 -2 -2 -2l2 -9v-5c0 -3.33301 -0.666992 -6 -2 -8
c1.33301 -2 2 -3.66699 2 -5h-2c0 -1.33301 0.666992 -2 2 -2l-2 -19v-2c0 -10 0.666992 -21 2 -33c-1.33301 -4.66699 -2 -9.66699 -2 -15l2 -9h-2c1.33301 -2 2 -3.66699 2 -5s-0.666992 -2 -2 -2l2 -10v-14l2 -19h-2l2 -4v-11c0 -0.666992 -0.666992 -1 -2 -1
c0 -1.33301 0.666992 -2 2 -2c-1.33301 -14 -2.66602 -21 -3.99902 -21c2.66699 -4 4 -7.66699 4 -11v-61c0 -2.66699 0.666992 -5 2 -7c-1.33301 -2 -2 -4.66699 -2 -8v-9l2 -9h-2c0 -1.33301 0.666992 -2 2 -2l-2 -9v-22l2 -12l-2 -3c1.33301 -2.66699 2 -4.66699 2 -6
s-0.666992 -2 -2 -2c3.33301 -24 5 -40.667 5 -50v-11c0 -2.66699 -0.666992 -5 -2 -7c0 -1.33301 0.666992 -2 2 -2c-1.33301 -12 -3 -18 -5 -18h-2c-2 0 -4 1.66699 -6 5v6c0 1.33301 0.666992 2 2 2l-2 3v2c0 1.33301 0.666992 2 2 2l-2 4v9c0 28 -1 45.333 -3 52
c0 1.33301 0.333008 2 1 2l-1 9v5c0 1.33301 0.333008 2 1 2l-1 4v59c0 1.33301 0.333008 2 1 2c-2 7.33301 -3 23.333 -3 48v22l-2 11l2 4l-2 11h2c0 1.33301 -0.666992 2 -2 2c1.33301 11.333 2.66602 17 3.99902 17l-2 3v11c0 5.33301 -0.666992 12.333 -2 21
c0 1.33301 0.666992 2 2 2l-2 9v5c0 10 0.666992 22 2 36l-2 3l2 11v2l-2 13h2l-2 4v11c0 8.66699 -0.666992 22.334 -2 41.001h2c0 1.33301 -0.666992 2 -2 2c2.66699 8.66699 4 14.667 4 18l-2 26h2l-2 4v9c0 4 0.666992 9.66699 2 17c0 0.666992 -0.666992 1 -2 1l2 13
v19c0 6 0.666992 12 2 18c-1.33301 4.66699 -2 10.334 -2 17.001v9c0 2.66699 1 4 3 4zM19.999 21.998h6c2 0 3.66699 -1.66699 5 -5v-2c0 -6.66699 -2.33301 -11.667 -7 -15h-13c-2.66699 0 -4 1.33301 -4 4v11c2 4.66699 6.33301 7 13 7z" />
    <glyph glyph-name="quotedbl" unicode="&#x22;" horiz-adv-x="133" 
d="M6 767h1c2 0 4 -1.66699 6 -5v-17c0 -1.33301 -0.666992 -2 -2 -2l2 -4v-1l-2 -12c1.33301 -2 2 -3.66699 2 -5h-2l2 -4v-15l2 -9h-2l2 -4v-35l2 -18h-2l2 -4v-2c0 -1.33301 -0.666992 -2 -2 -2l2 -3c0 -1.33301 -0.666992 -2 -2 -2l2 -4v-9l2 -19l-8 -7h-2
c-1.33301 0 -3 3.66699 -5 11c0 1.33301 0.666992 3.33301 2 6c-1.33301 13.333 -2 25 -2 35v11l-2 9h2l-2 4v24c0 1.33301 0.666992 2 2 2l-2 3v23l-2 9h2l-2 4v13c0 4 0.666992 9.33301 2 16c-1.33301 2 -2 5 -2 9zM56 767h1c2 0 4 -1.66699 6 -5v-17
c0 -1.33301 -0.666992 -2 -2 -2l2 -4v-1l-2 -12c1.33301 -2 2 -3.66699 2 -5h-2l2 -4v-15l2 -9h-2l2 -4v-35l2 -18h-2l2 -4v-2c0 -1.33301 -0.666992 -2 -2 -2l2 -3c0 -1.33301 -0.666992 -2 -2 -2l2 -4v-9l2 -19l-8 -7h-2c-1.33301 0 -3 3.66699 -5 11
c0 1.33301 0.666992 3.33301 2 6c-1.33301 13.333 -2 25 -2 35v11l-2 9h2l-2 4v24c0 1.33301 0.666992 2 2 2l-2 3v23l-2 9h2l-2 4v13c0 4 0.666992 9.33301 2 16c-1.33301 2 -2 5 -2 9z" />
    <glyph glyph-name="numbersign" unicode="#" horiz-adv-x="440" 
d="M234 699c2 0 4.6709 -2.33594 8.00391 -7.00293v-6c0 -1.33301 -0.666992 -2 -2 -2c0 -1.33301 0.666992 -2 2 -2l-2 -14v-31c0 -3.33301 -0.666992 -6 -2 -8c0 -1.33301 0.666992 -2 2 -2l-2 -10c0 -2.66699 0.666992 -4 2 -4l-2 -11
c-2.66699 -60.667 -4 -95.334 -4 -104.001v-55l2 -3c2.66699 0.666992 4.66699 1 6 1c6.66699 -0.666992 10.667 -1 12 -1c2 0.666992 4.66699 1 8 1v-1c9.33301 2 20.333 3 33 3l10 -2v2c6 -1.33301 9 -3 9 -5v-4c0 -2 -1.66699 -4 -5 -6c-2 0 -8.66699 0.666992 -20 2
c-0.666992 0 -4.66699 -0.666992 -12 -2c-1.33301 0 -2 0.666992 -2 2l-13 -2h-30c1.33301 -2.66699 2 -4.66699 2 -6c-1.33301 -24 -2 -39 -2 -45h-1c0.666992 -2.66699 1 -4.66699 1 -6s-0.333008 -2 -1 -2c0 -2.66699 0.333008 -4 1 -4c-0.666992 -20.667 -1 -33 -1 -37
c0.666992 -44 1 -68.667 1 -74c18 1.33301 31.333 2 40 2h41c0 2.66699 0.333008 4 1 4c4 -0.666992 6.66699 -4 8 -10l-9 -6c-1.33301 0 -2 0.666992 -2 2l-14 -2h-8c-1.33301 0 -2 0.666992 -2 2l-4 -2l-4 2c-1.33301 0 -2 -0.666992 -2 -2c-1.33301 0 -3 0.666992 -5 2
c-26.667 -2.66699 -41 -4.66699 -43 -6c0 -1.33301 0.666992 -2 2 -2l-2 -9v-47c0 -1.33301 -0.666992 -2 -2 -2l2 -4v-51c0 -1.33301 -0.666992 -2 -2 -2l2 -4v-8c0 -1.33301 -0.666992 -2 -2 -2l2 -4l-2 -3c0 -1.33301 0.666992 -3.33301 2 -6
c0 -2.66699 -0.666992 -4 -2 -4l2 -20v-37c0 -1.33301 -0.666992 -2 -2 -2l2 -4c0 -1.33301 -0.666992 -2 -2 -2c0 -1.33301 0.666992 -2 2 -2c-1.33301 -14 -3.33301 -21 -6 -21h-4c-2.66699 0 -4 1.33301 -4 4v15c0 1.33301 0.666992 2 2 2l-2 4c0 1.33301 0.666992 2 2 2
c0 1.33301 -0.666992 2 -2 2l2 10v111c0 3.33301 0.666992 6 2 8c-1.33301 2.66699 -2 5.33398 -2 8.00098v27c0 1.33301 0.666992 2 2 2l-2 4v39c-6.66699 0 -10 0.666992 -10 2l-4 -2h-92l-9 2c0 -2.66699 -0.666992 -4 -2 -4l2 -4v-9c0 -1.33301 -0.666992 -2 -2 -2
c1.33301 -2.66699 2 -4.66699 2 -6l-2 -4c0 -1.33301 0.666992 -2 2 -2c0 -1.33301 -0.666992 -3.33301 -2 -6c3.33301 -61.333 5 -95.666 5 -102.999v-10c0 -3.33301 0.666992 -6 2 -8c0 -1.33301 -0.666992 -2 -2 -2l4 -43h-2c2.66699 -5.33301 4 -12.333 4 -21v-10
l-2 -10h-5c-4.66699 0 -9.33398 50.667 -14.001 152h2c-1.33301 9.33301 -2.66602 14 -3.99902 14c1.33301 2.66699 2 4.66699 2 6s-0.666992 3.33301 -2 6l2 10c0 4.66699 -0.666992 10.334 -2 17.001c1.33301 8 2 17 2 27v6c0 2.66699 -1.33301 4 -4 4h-12l-10 -2v2l-3 -2
h-4c-12 0 -23.333 -1.33301 -34 -4c-2 1.33301 -3.66699 2 -5 2c-2.66699 -1.33301 -5.33398 -2 -8.00098 -2l-4 6v2c0 4.66699 26.667 8 80 10c0 -1.33301 0.666992 -2 2 -2c1.33301 4 2.66602 6 3.99902 6c0 1.33301 -0.666992 2 -2 2l2 19v8c0 1.33301 0.666992 2 2 2
c0 1.33301 -0.666992 2 -2 2l2 8l-2 10h2c0 1.33301 -0.666992 2 -2 2l2 13v49l2 12c-1.33301 2 -2 4.66699 -2 8c0 2 0.666992 9.66699 2 23c-1.33301 2.66699 -2 4.66699 -2 6c1.33301 2.66699 2 4.66699 2 6h-8c-4 0 -6 -0.666992 -6 -2l-10 2h-21
c-10.667 0 -24.334 -0.666992 -41.001 -2c-6.66699 1.33301 -10 4 -10 8l4 7c17.333 -0.666992 30.333 -1 39 -1h21c3.33301 0 6 -0.666992 8 -2c2.66699 1.33301 5.33398 2 8.00098 2l14 -2l2 3v20c0 2.66699 0.666992 5.33398 2 8.00098l-2 4c0 1.33301 0.666992 2 2 2
l-2 9l2 10c-1.33301 5.33301 -2 10 -2 14h2c0 1.33301 -0.666992 2 -2 2c1.33301 12.667 2 22.334 2 29.001v10c0 19.333 -0.666992 37.666 -2 54.999c1.33301 7.33301 2 17.666 2 30.999l-2 14c1.33301 6.66699 2 14.334 2 23.001v2l-4 6c2.66699 0 4 1.33301 4 4l-2 4
c1.33301 2 2 3.66699 2 5h6l7 -5l-2 -24v-12c0 -1.33301 -0.666992 -2 -2 -2l2 -3v-4c0 -8 -0.666992 -12.667 -2 -14c1.33301 -8 2.66602 -30.667 3.99902 -68h-2c0 -1.33301 0.666992 -2 2 -2l-2 -14v-4c0 -4 0.666992 -6 2 -6l-2 -10v-43c0 -2.66699 0.666992 -5 2 -7
c-1.33301 -2.66699 -2 -5.33398 -2 -8.00098v-27h12c1.33301 0 2 -0.666992 2 -2l4 2h94l4 97c-1.33301 2.66699 -2 4.66699 -2 6c1.33301 17.333 2.66602 27 3.99902 29c-1.33301 2.66699 -2 4.66699 -2 6h2l-2 4c0.666992 20.667 2 31 4 31l-2 4c0 4 0.666992 6 2 6l-2 10
v12c0 1.33301 0.666992 2 2 2c0 1.33301 -0.666992 2 -2 2c0.666992 12.667 2 19 4 19l-2 4v6c0 2.66699 0.666992 5.33398 2 8.00098c-1.33301 2 -2 4.33301 -2 7c0 2 1.66699 4 5 6zM105.004 427.997l2.00293 -10v-20c0 -22 -1 -33 -3 -33l1 -4v-9
c0 -1.33301 -0.333008 -2 -1 -2l1 -4v-39c0 -1.33301 -0.333008 -2 -1 -2l1 -4v-4c0 -1.33301 -0.333008 -2 -1 -2c0 -1.33301 0.333008 -2 1 -2c-0.666992 -15.333 -1 -26.333 -1 -33v-8l13 2c13.333 -1.33301 21.333 -2 24 -2c9.33301 1.33301 14.333 2 15 2l10 -2l4 2
c1.33301 0 2 -0.666992 2 -2l19 2h10c1.33301 0 2 -0.666992 2 -2l4 2h6l4 -2c1.33301 19.333 2.66602 30.333 3.99902 33c-1.33301 2.66699 -2 5.33398 -2 8.00098h2l-2 4c0 5.33301 0.666992 8 2 8c-1.33301 6.66699 -2 11.667 -2 15c0 7.33301 0.666992 18.666 2 33.999
c0 1.33301 -0.666992 2 -2 2l2 9v22c0 6 0.666992 12.333 2 19c-1.33301 5.33301 -2 11.333 -2 18v4h-6c-7.33301 0 -12 -0.666992 -14 -2c-6.66699 1.33301 -12.334 2 -17.001 2l-24 -2v2c-1.33301 0 -2 -0.666992 -2 -2c-12.667 1.33301 -22.334 2 -29.001 2h-24z" />
    <glyph glyph-name="dollar" unicode="$" horiz-adv-x="217" 
d="M80 728l4.99902 -11.0049l-5 -24c0 -8.66699 6.66699 -15.667 20 -21c14 -12.667 23.333 -26 28 -40c-1.33301 -15.333 -3.33301 -23 -6 -23c-5.33301 0 -9.66602 10.667 -12.999 32c-6.66699 10.667 -16 19.334 -28 26.001h-1v-32c0 -11.333 -0.666992 -27.333 -2 -48
l2 -4c-2.66699 -5.33301 -4 -13.333 -4 -24v-9c0 -1.33301 -0.666992 -2 -2 -2c0 -1.33301 0.666992 -2 2 -2c0 -2 -0.666992 -3 -2 -3l2 -19v-11c0 -1.33301 -0.666992 -2 -2 -2l2 -3v-61c0 -4.66699 0.666992 -10.334 2 -17.001c0 -1.33301 -0.666992 -2 -2 -2l2 -9v-26
c0 -1.33301 -0.666992 -2 -2 -2l2 -4v-11c0 -7.33301 5 -28.666 15 -63.999h-2c4.66699 -14.667 13.334 -53 26.001 -115h-2c3.33301 -5.33301 7.66602 -25.666 12.999 -60.999h-2c3.33301 -15.333 5.66602 -32 6.99902 -50c0 -41.333 -10.333 -67.333 -31 -78
c-5.33301 -5.33301 -12.333 -9 -21 -11l2 -4v-14c0 -3.33301 -0.666992 -6 -2 -8c1.33301 -2 2 -4.33301 2 -7s-1 -4 -3 -4h-6l-6 4l2 22v11c-13.333 0 -29.333 8.66699 -48 26c-8.66699 8.66699 -16 33.334 -22 74.001h2l-2 4v5c0 16.667 3 26.667 9 30c2 0 4 -2 6 -6v-3
c0 -8.66699 -1.33301 -13 -4 -13c2.66699 -19.333 4.66699 -30.666 6 -33.999l-2 -3c7.33301 -28 18.333 -47.333 33 -58c10.667 -4.66699 18 -7 22 -7l-2 4c0 4.66699 0.666992 7 2 7c-2 24 -3 47.333 -3 70l1 11c-0.666992 6.66699 -1 13 -1 19v15
c0 2.66699 -0.666992 5 -2 7l2 4c-1.33301 2 -2 3.66699 -2 5h2l-2 4v7c0 1.33301 0.666992 2 2 2l-2 4v92c0 1.33301 0.666992 2 2 2l-2 4l2 4c-1.33301 2 -2 4.33301 -2 7h2c0 1.33301 -0.666992 2 -2 2c1.33301 12 2 21.333 2 28v14l-2 10h2l-2 3v23
c-23.333 90.667 -38.666 163.334 -45.999 218.001v4l1 18l-1 26c0 39.333 14.667 59 44 59h5v21c0 14.667 4 22 12 22zM32.999 627.995l0.00195312 -20.0029c0 -3.33301 -0.666992 -6 -2 -8c1.33301 -1.33301 2.66602 -9.33301 3.99902 -24h-2
c1.33301 -2 2.66602 -7.66699 3.99902 -17h-2c4 -14.667 7.66699 -33.667 11 -57c4.66699 -12 8 -26 10 -42h-2c4.66699 -9.33301 7 -18.666 7 -27.999h2v20c0 4.66699 -0.666992 10.334 -2 17.001c1.33301 2 2 4.33301 2 7s-0.666992 4 -2 4l2 13v46
c0 2.66699 -0.666992 5 -2 7c1.33301 2.66699 2 5.33398 2 8.00098v26c0 1.33301 0.666992 2 2 2l-2 3l2 10c0 0.666992 -0.666992 1 -2 1l2 10v18c0 1.33301 0.666992 2 2 2l-2 4c0 8.66699 0.666992 22 2 40l-4 2c-20 0 -30 -14.667 -30 -44zM78.001 299.992
l-0.000976562 -4.99707c0 -1.33301 0.666992 -3.33301 2 -6c-1.33301 -2 -2 -3.66699 -2 -5l2 -17l-2 -9c0 -1.33301 0.666992 -2 2 -2l-2 -9v-26c0 -2.66699 0.666992 -5.33398 2 -8.00098c-1.33301 -2 -2 -4.33301 -2 -7v-26c0 -2.66699 0.666992 -5 2 -7
c-1.33301 -2 -2 -4.66699 -2 -8c1.33301 -6 2 -9.66699 2 -11l-2 -3c1.33301 -2.66699 2 -5.33398 2 -8.00098l-2 -4c1.33301 -2 2 -4.33301 2 -7c0 -2 -1.33301 -5.66699 -4 -11c2.66699 -0.666992 4 -2 4 -4v-31c0 -1.33301 -0.666992 -2 -2 -2l3 -22l-1 -4l3 -37
c-1.33301 -2 -2 -4.33301 -2 -7h2c8.66699 0 19.334 11.667 32.001 35c2 11.333 3 20.666 3 27.999v1c-2 36 -5 61.333 -9 76l2 4l-31 142h-2z" />
    <glyph glyph-name="percent" unicode="%" horiz-adv-x="290" 
d="M158 214c-8.66699 -0.666992 -15.668 6.99902 -21.001 22.999v9l-1 3l1 2l-2 2c2 3.33301 2.66699 6.66602 2 9.99902v5l-2 2c1.33301 0.666992 4.33301 8.33398 9 23.001c5.33301 6 11.666 9.33301 18.999 10h3c6 0.666992 11.667 -8 17 -26l1 -7
c0.666992 -11.333 0.333984 -17 -0.999023 -17c0 -1.33301 0.333008 -1.66602 1 -0.999023c1.33301 -18 -6 -30.333 -22 -37c-1.33301 -0.666992 -2.66602 -1 -3.99902 -1zM175.999 251.999l-2.00195 2c1.33301 7.33301 1.66602 13.333 0.999023 18
c-3.33301 15.333 -6.66602 23 -9.99902 23h-3c-9.33301 -1.33301 -14.666 -10 -15.999 -26v-11l1 -13c0 -0.666992 -0.333008 -1 -1 -1l1 -2c0.666992 -2.66699 0.333984 -4 -0.999023 -4c2.66699 -11.333 5.66699 -17 9 -17l5 1c6.66699 0.666992 12 10.667 16 30z
M41.9971 424.999c8.66699 0 15.332 -8.33203 19.999 -24.999c-1.33301 -5.33301 -2 -8.33301 -2 -9l2 -2l-2 -3l2 -2c-2 -2.66699 -3 -5.66699 -3 -9v-6l1 -2c-1.33301 0 -5 -7.33301 -11 -22c-5.33301 -5.33301 -11.666 -8 -18.999 -8h-3c-6 0 -11 9.33301 -15 28v6
c0 12 1 18 3 18c0 0.666992 -0.666992 1 -2 1c0 17.333 8.33301 28.666 25 33.999c2 0.666992 3.33301 1 4 1zM21.9951 389l0.999023 -3c-2 -7.33301 -3 -13 -3 -17c2 -16 5 -24 9 -24h2c9.33301 0 15.333 8 18 24c1.33301 4 2 8 2 12v12c0 0.666992 0.333008 1 1 1l-1 3
c0 2 0.333008 3 1 3c-1.33301 11.333 -3.66602 17 -6.99902 17h-5c-6.66699 0 -12.667 -9.33301 -18 -28zM171.994 688c5.33301 -1.33301 8.99805 -4.33496 10.998 -9.00195c-10.667 -25.333 -21.667 -61.666 -33 -108.999l-4 -4c1.33301 -2 2 -3.66699 2 -5
c-13.333 -60.667 -27.666 -133.667 -42.999 -219c-13.333 -44.667 -29.666 -105.667 -48.999 -183c-5.33301 -10 -8.66602 -15 -9.99902 -15c0 -1.33301 0.666992 -2 2 -2c-6 -25.333 -10.333 -38.666 -13 -39.999c1.33301 -2.66699 2 -4.66699 2 -6
c-2.66699 -6 -4.66699 -9 -6 -9l2 -4c-13.333 -55.333 -22.333 -83 -27 -83h-4l-2 4v7c4.66699 11.333 10.334 29.333 17.001 54h2l-2 3c8.66699 35.333 14.667 54 18 56c0 1.33301 -0.666992 2 -2 2l24 83c3.33301 12 6.66602 20.667 9.99902 26l-2 4
c8.66699 36 14.667 58 18 66c0 1.33301 0.666992 2 2 2l-2 4c3.33301 0 6.66602 12.333 9.99902 37c0.666992 0 2.33398 3.66699 5.00098 11l-2 4c3.33301 13.333 6 20 8 20l-2 4c3.33301 26.667 7 40 11 40l-2 4l9 41l-2 3c1.33301 4 2.66602 6 3.99902 6
c0 1.33301 -0.666992 2 -2 2c12.667 60 28.667 126 48 198c0 2 1.33301 4.33301 4 7z" />
    <glyph glyph-name="ampersand" unicode="&#x26;" horiz-adv-x="283" 
d="M111 658c24 0 40.665 -14.332 49.998 -42.999c2.66699 -12.667 4 -21.334 4 -26.001v-27c0 -9.33301 -16 -60 -48 -152c0 -6 -6.33301 -23.333 -19 -52l17 -53l-2 -4l61 -187c11.333 13.333 20 26.333 26 39h4c2.66699 0 4.33398 -4.33301 5.00098 -13
c0 -1.33301 -9.33301 -15.666 -28 -42.999c7.33301 -29.333 12.333 -45.333 15 -48c0 -1.33301 -0.666992 -2 -2 -2c7.33301 -14.667 11 -27.334 11 -38.001v-4c0 -2.66699 -1 -4 -3 -4c-4.66699 0 -14 28.333 -28 85h-2l-46 -57c-28.667 -26 -52 -39 -70 -39
c-24.667 0 -42 20.333 -52 61c-1.33301 4 -2.66602 21.333 -3.99902 52c2 28 4 42 6 42l-2 4c8.66699 41.333 22 82 40 122h2l-2 4c2 4 4.66699 7.66699 8 11l-2 4c18 32.667 30.333 58 37 76c-16 58 -24 100.333 -24 127v17c0 2.66699 -0.666992 5 -2 7
c2.66699 7.33301 4 23.333 4 48v2c0 1.33301 0.666992 2 2 2c0 1.33301 -0.666992 2 -2 2c8 58 23.333 87 46 87zM77.998 599.001c0 -1.33301 0.666992 -2 2 -2c-5.33301 -29.333 -8 -58.333 -8 -87h-2l2 -4v-7c0 -24 7 -64 21 -120h3c7.33301 31.333 24.666 83 51.999 155
c4 19.333 6 34 6 44l-2 4c0 1.33301 0.666992 2 2 2l-4 22h2c-9.33301 26 -21.666 39 -36.999 39h-4c-11.333 0 -22.333 -15.333 -33 -46zM8.99805 114.001c0 -1.33301 0.666992 -2.00098 2 -2.00098l-2 -9v-6l2 -9h-2l2 -4v-7c4.66699 -50.667 20.667 -76 48 -76
c16 4 35.667 17 59 39c16.667 18 33 38.333 49 61h1c-19.333 56 -37 111 -53 165c1.33301 0 2 0.666992 2 2c-6 6 -14 31.667 -24 77c-20.667 -27.333 -44.334 -81.666 -71.001 -162.999c-3.33301 -13.333 -7.66602 -36 -12.999 -68z" />
    <glyph glyph-name="quotesingle" unicode="'" horiz-adv-x="86" 
d="M6 767h1c2 0 4 -1.66699 6 -5v-17c0 -1.33301 -0.666992 -2 -2 -2l2 -4v-1l-2 -12c1.33301 -2 2 -3.66699 2 -5h-2l2 -4v-15l2 -9h-2l2 -4v-35l2 -18h-2l2 -4v-2c0 -1.33301 -0.666992 -2 -2 -2l2 -3c0 -1.33301 -0.666992 -2 -2 -2l2 -4v-9l2 -19l-8 -7h-2
c-1.33301 0 -3 3.66699 -5 11c0 1.33301 0.666992 3.33301 2 6c-1.33301 13.333 -2 25 -2 35v11l-2 9h2l-2 4v24c0 1.33301 0.666992 2 2 2l-2 3v23l-2 9h2l-2 4v13c0 4 0.666992 9.33301 2 16c-1.33301 2 -2 5 -2 9z" />
    <glyph glyph-name="parenleft" unicode="(" horiz-adv-x="140" 
d="M44 688l2.00098 -3.00098c-1.33301 -25.333 -5.66602 -53.333 -12.999 -84l2 -3c-8.66699 -45.333 -14.667 -92.333 -18 -141c1.33301 -2 2 -4.33301 2 -7v-10c0 -1.33301 -0.666992 -2 -2 -2l2 -3v-2c0 -8.66699 -1.33301 -13 -4 -13c0 -1.33301 0.666992 -2 2 -2
l-4 -31c0 -1.33301 0.666992 -2 2 -2l-2 -11c0 -10 -0.666992 -28 -2 -54l2 -4l-2 -3c5.33301 -58.667 14.666 -121 27.999 -187c12.667 -62.667 22 -99.667 28 -111v-11c0 -2.66699 -1.33301 -4 -4 -4c-8.66699 0 -16 27 -22 81c-10 33.333 -20 77.333 -30 132h2
c-2 4 -4 10.667 -6 20l2 4c-6 38 -9 67.667 -9 89v1c0 1.33301 0.666992 2 2 2l-2 4l2 7c0 1.33301 -0.666992 2 -2 2l4 37l-2 4c1.33301 10 2.66602 15 3.99902 15c0 1.33301 -0.666992 2 -2 2l2 18v8c0 0.666992 0.333008 1 1 1c0 1.33301 -0.333008 2 -1 2
c0.666992 6.66699 1 11.667 1 15c0 50.667 7 108 21 172c0 1.33301 -0.666992 2 -2 2c4.66699 30.667 9.66699 52.334 15 65.001c-1.33301 0 -2 0.666992 -2 2z" />
    <glyph glyph-name="parenright" unicode=")" horiz-adv-x="140" 
d="M28 685c0 -1.33301 -0.666016 -1.99902 -1.99902 -1.99902c4.66699 -12.667 9.66699 -34.334 15 -65.001c-1.33301 0 -2 -0.666992 -2 -2c13.333 -64 20 -121.333 20 -172c0 -3.33301 0.666992 -8.33301 2 -15c-1.33301 0 -2 -0.666992 -2 -2c1.33301 0 2 -0.333008 2 -1
v-8l2 -18c-1.33301 0 -2 -0.666992 -2 -2c1.33301 0 2.66602 -5 3.99902 -15l-2 -4l4 -37c-1.33301 0 -2 -0.666992 -2 -2l2 -7l-2 -4c1.33301 0 2 -0.666992 2 -2v-1c0 -21.333 -3.33301 -51 -10 -89l2 -4c-1.33301 -9.33301 -3 -16 -5 -20h2
c-10 -54.667 -20 -98.667 -30 -132c-6.66699 -54 -14 -81 -22 -81c-2.66699 -0 -4 1.33301 -4 4v11c6 11.333 15.333 48.333 28 111c13.333 66 22.666 128.333 27.999 187l-2 3l2 4c-1.33301 26 -2 44 -2 54l-2 11c1.33301 0 2 0.666992 2 2l-4 31c1.33301 0 2 0.666992 2 2
c-2.66699 0 -4 4.33301 -4 13v2l2 3c-1.33301 0 -2 0.666992 -2 2v10c0 2.66699 0.666992 5 2 7c-4 48.667 -10.333 95.667 -19 141l2 3c-7.33301 30.667 -11.666 58.667 -12.999 84l2 3z" />
    <glyph glyph-name="asterisk" unicode="*" horiz-adv-x="263" 
d="M97 763l2.99805 0.00195312c3.33301 -0.666992 5 -2.33398 5 -5.00098v-8c-20 -33.333 -30 -55.666 -30 -66.999h14c5.33301 0 8 1 8 3l14 -3h27c3.33301 0 5 -1.66699 5 -5c0 -8.66699 -2.66699 -13.667 -8 -15c-14 3.33301 -25 5 -33 5
c-21.333 -0.666992 -32 -3.33398 -32 -8.00098l38 -61v-5c0 -2.66699 -3.66699 -6.33398 -11 -11.001c-3.33301 0 -15 20.667 -35 62c-3.33301 0 -11.666 -14.667 -24.999 -44l3 -5v-2c-9.33301 -14 -14.666 -21 -15.999 -21h-3c-3.33301 0 -5 1.66699 -5 5v3l2 13
c-1.33301 0 -2 0.666992 -2 2c4 0 14.667 22.333 32 67c-16 0 -26.667 0.666992 -32 2c-3.33301 -1.33301 -8 -2 -14 -2c-12.667 2 -19 5.33301 -19 10v5c0 4.66699 3.66699 7.33398 11 8.00098c6 -3.33301 11.333 -5 16 -5h8c4 0 7.66699 0.666992 11 2
c3.33301 -1.33301 6 -2 8 -2c-20 36 -33.333 58.333 -40 67v7c0 3.33301 1.66699 5 5 5h3c10.667 -10.667 27.667 -36.334 51 -77.001h3c12 36 22 56.667 30 62l-3 5c3.33301 8 7 12.333 11 13z" />
    <glyph glyph-name="plus" unicode="+" horiz-adv-x="287" 
d="M67 424l2.99805 -10.001c0 -1.33301 -0.666992 -3 -2 -5c1.33301 -12.667 2 -22.667 2 -30v-5c0 -3.33301 0.666992 -6 2 -8c-1.33301 -2 -2 -4.33301 -2 -7v-2l10 -2c0.666992 0 1 0.666992 1 2l10 -2h5l22 2l4 -6c-3.33301 -6 -8.33301 -9 -15 -9h-2l-11 2
c-0.666992 0 -1 -0.666992 -1 -2l-10 2h-11l2 -9h-2l2 -4c-1.33301 -16.667 -2 -27 -2 -31l2 -10c-2.66699 0 -4 -1.66699 -4 -5l-3 2c0 -2.66699 -1.33301 -4 -4 -4l-6 4l4 31c-1.33301 8 -2 16.667 -2 26c-31.333 -1.33301 -49.666 -2 -54.999 -2l-4 6v5l2 4l22 -2h13
l22 2c-1.33301 10.667 -2 17.334 -2 20.001h2l-2 4v22c0 1.33301 0.666992 2 2 2l-3 9c0.666992 6.66699 4.33398 10 11.001 10z" />
    <glyph glyph-name="comma" unicode="," horiz-adv-x="108" 
d="M20 43c11.333 0 17.002 -14 17.002 -42v-6c0 -12 -5.66699 -31 -17 -57c-2 -6 -6.33301 -11 -13 -15h-1c-2 0 -4 2 -6 6v1c7.33301 8.66699 11.666 16.667 12.999 24c3.33301 0 7.66602 10 12.999 30c-1.33301 13.333 -3.33301 20 -6 20l-11 -1
c0 0.666992 -2.33301 3.66699 -7 9v2c3.33301 19.333 9.33301 29 18 29z" />
    <glyph glyph-name="hyphen" unicode="-" horiz-adv-x="251" 
d="M100 344c1.33301 0 2 -0.665039 2 -1.99805l9 2h2c2.66699 -0.666992 4 -2 4 -4c4.66699 0.666992 7 2 7 4l9 -2c15.333 1.33301 24 2 26 2c1.33301 -2.66699 2 -4.66699 2 -6c-2.66699 -5.33301 -5 -8.33301 -7 -9c-2 0 -8.33301 0.666992 -19 2
c-2.66699 -1.33301 -4.33398 -2 -5.00098 -2v2l-4 -2c-6.66699 1.33301 -11.667 2 -15 2l-9 -2v2c-2 -1.33301 -18 -3.33301 -48 -6c-1.33301 0 -2 0.666992 -2 2l-13 -2h-30l-9 2v4c0 1.33301 2.33301 3.66602 7 6.99902h4c2.66699 0 5.33398 -0.666992 8.00098 -2
c2 1.33301 4.33301 2 7 2v-2c1.33301 0 2 0.666992 2 2c1.33301 0 3 -0.666992 5 -2c24 1.33301 40 2.66602 48 3.99902v-2z" />
    <glyph glyph-name="hyphen" unicode="&#xad;" horiz-adv-x="251" 
d="M100 344c1.33301 0 2 -0.665039 2 -1.99805l9 2h2c2.66699 -0.666992 4 -2 4 -4c4.66699 0.666992 7 2 7 4l9 -2c15.333 1.33301 24 2 26 2c1.33301 -2.66699 2 -4.66699 2 -6c-2.66699 -5.33301 -5 -8.33301 -7 -9c-2 0 -8.33301 0.666992 -19 2
c-2.66699 -1.33301 -4.33398 -2 -5.00098 -2v2l-4 -2c-6.66699 1.33301 -11.667 2 -15 2l-9 -2v2c-2 -1.33301 -18 -3.33301 -48 -6c-1.33301 0 -2 0.666992 -2 2l-13 -2h-30l-9 2v4c0 1.33301 2.33301 3.66602 7 6.99902h4c2.66699 0 5.33398 -0.666992 8.00098 -2
c2 1.33301 4.33301 2 7 2v-2c1.33301 0 2 0.666992 2 2c1.33301 0 3 -0.666992 5 -2c24 1.33301 40 2.66602 48 3.99902v-2z" />
    <glyph glyph-name="period" unicode="." horiz-adv-x="104" 
d="M17 39h3c2.66699 0 6 -4.33301 10 -13c-2 -17.333 -6.33301 -26 -13 -26h-8c-4.66699 0 -7.66699 8 -9 24c0 8 5.66699 13 17 15z" />
    <glyph glyph-name="slash" unicode="/" horiz-adv-x="234" 
d="M172 688c5.33301 -1.33301 8.99805 -4.33496 10.998 -9.00195c-10.667 -25.333 -21.667 -61.666 -33 -108.999l-4 -4c1.33301 -2 2 -3.66699 2 -5c-13.333 -60.667 -27.666 -133.667 -42.999 -219c-13.333 -44.667 -29.666 -105.667 -48.999 -183
c-5.33301 -10 -8.66602 -15 -9.99902 -15c0 -1.33301 0.666992 -2 2 -2c-6 -25.333 -10.333 -38.666 -13 -39.999c1.33301 -2.66699 2 -4.66699 2 -6c-2.66699 -6 -4.66699 -9 -6 -9l2 -4c-13.333 -55.333 -22.333 -83 -27 -83h-4l-2 4v7
c4.66699 11.333 10.334 29.333 17.001 54h2l-2 3c8.66699 35.333 14.667 54 18 56c0 1.33301 -0.666992 2 -2 2l24 83c3.33301 12 6.66602 20.667 9.99902 26l-2 4c8.66699 36 14.667 58 18 66c0 1.33301 0.666992 2 2 2l-2 4c3.33301 0 6.66602 12.333 9.99902 37
c0.666992 0 2.33398 3.66699 5.00098 11l-2 4c3.33301 13.333 6 20 8 20l-2 4c3.33301 26.667 7 40 11 40l-2 4l9 41l-2 3c1.33301 4 2.66602 6 3.99902 6c0 1.33301 -0.666992 2 -2 2c12.667 60 28.667 126 48 198c0 2 1.33301 4.33301 4 7z" />
    <glyph glyph-name="zero" unicode="0" horiz-adv-x="224" 
d="M74 686l4.99902 -0.00292969c1.33301 0 2 -0.666992 2 -2l4 2h2c11.333 -2 22 -9.66699 32 -23c19.333 -32 31.333 -62 36 -90v-2h-2c2.66699 -6.66699 4 -20 4 -40v-19c0 -0.666992 -0.666992 -1 -2 -1l2 -4v-6c0 -2.66699 -0.666992 -5 -2 -7
c0 -1.33301 0.666992 -2 2 -2l-2 -14v-22c0 -1.33301 -0.666992 -2 -2 -2l2 -4v-45c0 -1.33301 -0.666992 -2 -2 -2c1.33301 -2.66699 2 -4.66699 2 -6s-0.666992 -2 -2 -2l2 -9v-19l-2 -11c0 -1.33301 0.666992 -2 2 -2l-2 -13v-6c0 -7.33301 0.666992 -11.666 2 -12.999
l-4 -57c1.33301 -6 2 -14 2 -24v-11c0 -3.33301 -0.666992 -6 -2 -8l2 -4l-2 -9l2 -13c-1.33301 -11.333 -2.66602 -17 -3.99902 -17c0 -1.33301 0.666992 -2 2 -2c-1.33301 -15.333 -3.33301 -26.666 -6 -33.999c1.33301 -2.66699 2 -5.33398 2 -8.00098
s-0.666992 -5 -2 -7l2 -4c-5.33301 -44.667 -14 -78.667 -26 -102c-12 -21.333 -27.333 -32 -46 -32h-9c-18.667 6.66699 -33.667 23.667 -45 51l-4 13h2c-6 26.667 -11 63.334 -15 110.001c-1.33301 0 -2 2.33301 -2 7l2 17c-1.33301 2.66699 -2 4.66699 -2 6h2
c-1.33301 2 -2 3.66699 -2 5s0.666992 2 2 2c-2.66699 14.667 -4 39.334 -4 74.001v56c0 36.667 2 62.667 6 78c0 1.33301 -0.666992 2 -2 2l2 18v12c0 1.33301 0.666992 2 2 2c0 1.33301 -0.666992 2 -2 2c4 40 7.66699 64.333 11 73l-2 4l2 9l-2 12h2
c0 0.666992 -0.666992 1 -2 1l2 10v26c0 1.33301 0.666992 2 2 2c0 1.33301 -0.666992 2 -2 2c0 37.333 12.667 69.333 38 96c8 4 14.333 6 19 6zM31.999 606.997l2.00098 -4.00195c-2.66699 -4.66699 -4 -9.66699 -4 -15v-42c0 -13.333 -1.33301 -25 -4 -35
c0 -1.33301 0.666992 -2 2 -2c-4.66699 -32 -7 -53 -7 -63v-9c0 -1.33301 -0.666992 -2 -2 -2l2 -4c0 -5.33301 -1.33301 -11.666 -4 -18.999c0 -0.666992 0.666992 -1 2 -1c-1.33301 -11.333 -2.66602 -18.333 -3.99902 -21l2 -8c-2.66699 -22 -4 -40.667 -4 -56h-2l2 -4
v-51c0 -1.33301 -0.666992 -2 -2 -2l2 -4v-13l2 -11c-1.33301 -2 -2 -4.66699 -2 -8l2 -3c0 -1.33301 -0.666992 -2 -2 -2c2 -19.333 3.33301 -30.666 4 -33.999c0 -1.33301 -0.666992 -2 -2 -2c5.33301 -81.333 13.666 -135.333 24.999 -162c12 -18 23.333 -27 34 -27
c26.667 0 46.667 32.667 60 98c-1.33301 2.66699 -2 5.33398 -2 8.00098h2c0 1.33301 -0.666992 2 -2 2c2 22.667 4 34 6 34c0 1.33301 -0.666992 2 -2 2c0 5.33301 1.66699 27.333 5 66c0 6 -0.333008 12 -1 18c1.33301 31.333 2.33301 48.333 3 51
c-1.33301 7.33301 -2 13 -2 17v2c0 16.667 0.666992 30.667 2 42c-1.33301 10.667 -2 18.667 -2 24s0.666992 16.666 2 33.999c-1.33301 12.667 -2 22.667 -2 30l2 17c0 1.33301 -0.666992 2 -2 2c1.33301 10.667 2.66602 36.667 3.99902 78c-2.66699 12 -4 24.333 -4 37v10
l-3 13h2c-18 56.667 -36.333 85 -55 85h-10c-16 0 -30.333 -22 -43 -66z" />
    <glyph glyph-name="one" unicode="1" horiz-adv-x="154" 
d="M61 696l4 -0.000976562c5.33301 -5.33301 8.33301 -8 9 -8c-1.33301 -18.667 -2.66602 -28 -3.99902 -28l2 -9v-15c0 -6 -1.33301 -9 -4 -9c2.66699 -4.66699 4 -9 4 -13c0 -6 -1.33301 -9 -4 -9l4 -11c-1.33301 -34 -2 -62.333 -2 -85v-48
c0 -1.33301 -0.666992 -2 -2 -2l2 -4v-2c0 -1.33301 -0.666992 -2 -2 -2l2 -3c0 -1.33301 -0.666992 -2 -2 -2l2 -9v-6c0 -2.66699 -0.666992 -5 -2 -7c1.33301 -2.66699 2 -4.66699 2 -6h-2c0 -1.33301 0.666992 -2 2 -2l-2 -18v-2c0 -10.667 0.666992 -21.667 2 -33
c-1.33301 -5.33301 -2 -10.333 -2 -15l2 -9h-2c1.33301 -2.66699 2 -4.66699 2 -6s-0.666992 -2 -2 -2l2 -9v-15l2 -18h-2l2 -4v-4c0 -1.33301 -0.666992 -2 -2 -2l2 -3v-2c0 -1.33301 -0.666992 -2 -2 -2c0 -1.33301 0.666992 -2 2 -2c-0.666992 -13.333 -2 -20 -4 -20
c2.66699 -4 4 -7.66699 4 -11v-58l2 -11c-1.33301 -2 -2 -5 -2 -9v-7l2 -10h-2c0 -1.33301 0.666992 -2 2 -2l-2 -9v-22l2 -11l-2 -4c1.33301 -2 2 -3.66699 2 -5s-0.666992 -2 -2 -2c4 -24.667 6 -41.334 6 -50.001v-11c0 -2.66699 -0.666992 -5.33398 -2 -8.00098
c0 -0.666992 0.666992 -1 2 -1c-1.33301 -12.667 -3.33301 -19 -6 -19h-2c-1.33301 0 -3 2 -5 6v5c0 1.33301 0.666992 2 2 2l-2 4v2c0 0.666992 0.666992 1 2 1l-2 4v9c0 28 -1.33301 45.333 -4 52c0 1.33301 0.666992 2 2 2l-2 9v6c0 1.33301 0.666992 2 2 2l-2 3v60
c0 0.666992 0.666992 1 2 1c-2.66699 7.33301 -4 23.333 -4 48v23l-2 11l2 3l-2 12h2c0 0.666992 -0.666992 1 -2 1c1.33301 11.333 2.66602 17 3.99902 17l-2 4v11c0 5.33301 -0.666992 12 -2 20c0 1.33301 0.666992 2 2 2l-2 9v6c0 10 0.666992 21.667 2 35l-2 4l2 11v2
l-2 13h2l-2 3v11c0 8.66699 -0.333008 22.334 -1 41.001h1c0 1.33301 -0.333008 2 -1 2c2 9.33301 3 15.333 3 18l-2 26h2l-2 4v9c0 4.66699 0.666992 10.334 2 17.001c0 1.33301 -0.666992 2 -2 2l2 13v18c0 6 0.666992 12.333 2 19l-4 29h2c0 1.33301 -0.666992 2 -2 2
l2 9v34h-2c-7.33301 -22 -13.333 -42.333 -18 -61c-12 -21.333 -20 -40.666 -24 -57.999c-4.66699 -3.33301 -9 -5 -13 -5l-2 4v1c0 3.33301 0.666992 6 2 8c-1.33301 2 -2 3.66699 -2 5l4 -2c16 38 30.667 75 44 111c0 1.33301 -0.666992 2 -2 2
c5.33301 20.667 10.333 32 15 34z" />
    <glyph glyph-name="two" unicode="2" horiz-adv-x="227" 
d="M94 690l3.99902 0.000976562c29.333 -20 44 -39.667 44 -59c1.33301 0 2 -1.33301 2 -4c0 -70.667 -9.66699 -144.667 -29 -222c-2.66699 -12 -5.33398 -18 -8.00098 -18c1.33301 -2.66699 2 -4.66699 2 -6l-18 -65h-2l2 -3c-31.333 -142 -56.666 -241.333 -75.999 -298
c2 -1.33301 3.66699 -2 5 -2l4 2c6 -1.33301 9 -2.66602 9 -3.99902l4 2h17l9 2v-2c6 2.66699 17 4 33 4h8c24.667 -0.666992 37 -3.33398 37 -8.00098v-2c-4 -2.66699 -6 -5 -6 -7c-12 1.33301 -21.333 2 -28 2h-5c-1.33301 0 -2 0.666992 -2 2l-4 -2
c-30 -1.33301 -54 -2 -72 -2c-16 0 -24 3 -24 9c6 23.333 12.333 43 19 59c4.66699 18.667 8.33398 28 11.001 28c0 1.33301 -0.666992 2 -2 2c17.333 66 39.333 160.333 66 283c2 0 6.33301 18 13 54c4.66699 6 11 37.333 19 94c1.33301 0 2.66602 4.33301 3.99902 13
c0 1.33301 -0.666992 2 -2 2l2 9v41c0 1.33301 0.333008 2 1 2c0 1.33301 -0.333008 2 -1 2c0.666992 9.33301 1.66699 14 3 14c-3.33301 23.333 -8.66602 39 -15.999 47c-4.66699 6 -9.66699 9 -15 9c0 1.33301 -3 3.66602 -9 6.99902h-6
c-18.667 0 -31.667 -19.667 -39 -59c-2.66699 -23.333 -5.66699 -35 -9 -35h-4c-2.66699 0 -4 1.33301 -4 4v3c0 1.33301 0.666992 2 2 2l-2 4c7.33301 64 28.333 96 63 96z" />
    <glyph glyph-name="three" unicode="3" horiz-adv-x="227" 
d="M64 689l14.998 0.000976562c13.333 -2 27 -12.333 41 -31c15.333 -20.667 23 -43.334 23 -68.001c1.33301 0 2 -0.666992 2 -2c-3.33301 -39.333 -6 -65.666 -8 -78.999l2 -4c-7.33301 -34.667 -16.333 -63.667 -27 -87c-2 0 -7 -5.33301 -15 -16
c4 0 12.333 -7.66699 25 -23c9.33301 0 20.333 -20.667 33 -62h-2c8.66699 -18.667 13 -42.334 13 -71.001v-4c0 -3.33301 0.666992 -6 2 -8c-1.33301 -2 -2 -4.66699 -2 -8v-13c0 -1.33301 -0.666992 -2 -2 -2c1.33301 -2.66699 2 -4.66699 2 -6
c0 -35.333 -11.667 -87 -35 -155c-18 -40 -40.333 -60 -67 -60h-12c-34.667 17.333 -52 49 -52 95c2 5.33301 4 8 6 8h4c2 0 4.33301 -2 7 -6v-16c3.33301 -27.333 9.33301 -46 18 -56c7.33301 -6.66699 15 -11 23 -13c37.333 0 65 43.667 83 131c0 4.66699 2.66699 19 8 43
c0 1.33301 -0.666992 2 -2 2c2.66699 12 4 29.333 4 52v12c0 6.66699 -0.666992 17.667 -2 33h2c-4 10 -6 16.333 -6 19h2c-1.33301 12.667 -4 19 -8 19l2 4c-5.33301 20 -12.333 35.667 -21 47c-21.333 19.333 -35.666 29 -42.999 29l-33 -4c-3.33301 4 -5 7 -5 9
c2 0 6.33301 4 13 12h2c2.66699 0 10.334 -1.33301 23.001 -4c23.333 15.333 35 34 35 56l6 6c0 1.33301 -0.666992 2 -2 2c5.33301 29.333 9.33301 55.333 12 78c-1.33301 2 -2 3.66699 -2 5l5 2c0 1.33301 -1 2 -3 2c0 1.33301 1 3.33301 3 6c0 58 -17.333 95.333 -52 112
c-2.66699 0 -4 0.666992 -4 2c-16 0 -28.667 -9.66699 -38 -29h-6c0 2.66699 -1.33301 6 -4 10c8.66699 20.667 21 31 37 31z" />
    <glyph glyph-name="four" unicode="4" horiz-adv-x="196" 
d="M91 683c13.333 -0.666992 20 -7.33008 20 -19.9971c0 -4 -0.666992 -6 -2 -6l2 -9v-15c0 -0.666992 -0.666992 -1 -2 -1c0 -1.33301 0.666992 -2 2 -2l-2 -13v-45c0 -2.66699 0.666992 -5 2 -7c-1.33301 -2 -2 -4.33301 -2 -7v-10l2 -9h-2l2 -4
c0 -0.666992 -0.666992 -1 -2 -1c0 -1.33301 0.666992 -2 2 -2l-2 -13c0 -2.66699 0.666992 -5.33398 2 -8.00098l-2 -3c0 -1.33301 0.666992 -2 2 -2l-2 -13v-13c0 -1.33301 -0.666992 -2 -2 -2c1.33301 -2.66699 2 -4.66699 2 -6l-2 -9c0 -1.33301 0.666992 -3 2 -5
c-1.33301 -10.667 -2 -19.334 -2 -26.001v-11c0 -1.33301 -0.666992 -2 -2 -2l2 -4v-20c0 -1.33301 -0.666992 -2 -2 -2c0 -1.33301 0.666992 -2 2 -2c-1.33301 -14.667 -2 -25 -2 -31v-26c0 -1.33301 -0.333008 -2 -1 -2l1 -4v-11c0 -10 -0.333008 -21.667 -1 -35
c0 -1.33301 0.333008 -2 1 -2l-1 -13v-33c0 -6.66699 -0.666992 -12.334 -2 -17.001c1.33301 -6.66699 2 -12.667 2 -18v-10c0 -18.667 0.333008 -44.334 1 -77.001h-1l1 -4v-46l2 -9h-2c2.66699 -8 4 -17.333 4 -28h-2l2 -4c0 -3.33301 -0.666992 -5 -2 -5l2 -10l-13 -9
l-2 11c1.33301 6.66699 2 12.334 2 17.001l-2 9h2l-2 4c-0.666992 38.667 -1.66699 59.667 -3 63c1.33301 2 2 5 2 9l-2 4c1.33301 2 2 3.66699 2 5l-2 9c0 1.33301 0.666992 2 2 2l-2 9v4c0 4 0.666992 6 2 6l-2 9v39l-2 9h2l-2 4l2 11c-1.33301 2 -2 3.66699 -2 5h2
c0 1.33301 -0.666992 2 -2 2l2 13v21c0 0.666992 0.666992 1 2 1l-2 4c1.33301 10.667 2 19.334 2 26.001v2c-1.33301 0 -3.33301 -0.666992 -6 -2c-2.66699 0 -28 2 -76 6h-5c-4 0.666992 -6 4.33398 -6 11.001c22 69.333 38 132.666 48 189.999c11.333 48 18 72 20 72
c0 1.33301 -0.333008 2 -1 2c8.66699 49.333 16.667 85.666 24 108.999zM94 652.004c0 -10 -3.66895 -26 -11.002 -48c1.33301 -2.66699 2 -4.66699 2 -6c0 -4.66699 -8 -37.334 -24 -98.001h-2c0 -1.33301 0.666992 -2 2 -2c-12 -68 -23 -111.667 -33 -131l2 -4
c-2.66699 -4 -7 -18 -13 -42h-2l2 -4v-2l-2 -3h7c4.66699 0 15.334 -1.33301 32.001 -4c2.66699 0 5 0.666992 7 2c6.66699 -1.33301 12.334 -2 17.001 -2h11c2.66699 0 4 1.33301 4 4v14c0 4 0.333008 7.33301 1 10l-1 11v3c0 5.33301 0.333008 10.333 1 15l-1 8
c0.666992 16 1 30 1 42v6c0 2.66699 0.666992 5 2 7c-1.33301 2 -2 4.33301 -2 7v2c0 1.33301 0.666992 2 2 2c0 1.33301 -0.666992 2 -2 2l2 19v27l2 11l-2 4l2 4c0 1.33301 -0.666992 2 -2 2c0.666992 8.66699 2 13 4 13l-2 3v21l-2 13h2l-2 3v43
c0 1.33301 0.666992 2 2 2l-2 3v24c0 1.33301 0.666992 2 2 2c-1.33301 0.666992 -2 6.33398 -2 17.001h-2z" />
    <glyph glyph-name="five" unicode="5" horiz-adv-x="238" 
d="M120 682l2.00098 -4v-2c0 -4.66699 -6 -8.33398 -18 -11.001v2l-4 -2h-9c-6.66699 0 -14.334 -1 -23.001 -3c-10.667 0.666992 -17.334 1 -20.001 1c-14.667 -0.666992 -25.667 -1 -33 -1v-2c-1.33301 -16 -2 -29 -2 -39v-8c0 -6 0.666992 -11.333 2 -16
c-1.33301 -6.66699 -2 -13 -2 -19v-37l2 -11l-2 -3c2.66699 -42.667 4 -76 4 -100h2c6.66699 0.666992 12 1 16 1h13c18.667 0 40.334 -12.333 65.001 -37c22 -39.333 33 -64 33 -74l-2 -3c5.33301 -20 8 -30.667 8 -32h-2l2 -3c0 -1.33301 -0.666992 -2 -2 -2
c4.66699 -32.667 7 -58 7 -76v-7c0 -27.333 -1.66699 -47.333 -5 -60c0 -1.33301 0.666992 -2 2 -2c-1.33301 -8 -2.66602 -12 -3.99902 -12l2 -4c-12.667 -45.333 -27 -80 -43 -104c-14 -14.667 -28.667 -22 -44 -22c-14.667 3.33301 -28.334 11.333 -41.001 24
c0 2 -3 7 -9 15v2c0 2 2.33301 4.33301 7 7h6c2.66699 -12.667 10 -23 22 -31c11.333 -2 17 -4 17 -6c16.667 4 29.334 13.333 38.001 28c21.333 43.333 32 71.666 32 84.999c2.66699 0 4 1.33301 4 4v9c2 28 3 42.667 3 44v24c0 15.333 -2.33301 44.333 -7 87h2
c-4.66699 32 -12 58 -22 78c-16 29.333 -31.667 44 -47 44c-10 8 -21.667 12 -35 12c-10.667 -2 -21 -7 -31 -15l-4 11c2.66699 5.33301 4 15 4 29v67l-2 11c0 1.33301 0.666992 2 2 2l-2 18v28c0 2.66699 0.666992 5.33398 2 8.00098c-1.33301 2 -2 3.66699 -2 5
c0 6.66699 -0.666992 24 -2 52c0 0.666992 0.666992 8.66699 2 24c-1.33301 4.66699 -2 10.334 -2 17.001c2.66699 0 4 1 4 3c14.667 -0.666992 25.667 -1 33 -1c3.33301 0 8.33301 0.333008 15 1l7 -1c29.333 2 49.666 4.33301 60.999 7z" />
    <glyph glyph-name="six" unicode="6" horiz-adv-x="265" 
d="M122 675l3.99902 -0.00195312c2.66699 0 4.33398 -3 5.00098 -9c-34.667 -42 -58.667 -91.333 -72 -148l-18 -63l2 -4c-10 -28 -19.333 -72.333 -28 -133v-7c10 16 27.333 29 52 39c4 0 9.33301 0.666992 16 2c14.667 -2 22 -4 22 -6c1.33301 0 2 0.666992 2 2
c26 -7.33301 39 -17.333 39 -30c6 -3.33301 13.333 -18.666 22 -45.999c4.66699 -4.66699 11.667 -31.667 21 -81c1.33301 0 2 -0.666992 2 -2v-4c0 -13.333 0.333008 -24.333 1 -33c0 -25.333 -7.33301 -58 -22 -98c-7.33301 -9.33301 -18.333 -25 -33 -47
c-2.66699 -3.33301 -12 -5.66602 -28 -6.99902v2l-4 -2l-3 2c-1.33301 0 -2 -0.666992 -2 -2c-21.333 4.66699 -33 9.66699 -35 15c-13.333 11.333 -28.333 31.666 -45 60.999c-8.66699 32 -13 56 -13 72l2 4c-4.66699 15.333 -7 36.666 -7 63.999v21
c0 4.66699 -0.666992 11.334 -2 20.001c2.66699 4.66699 4 11.667 4 21v40c0 1.33301 0.666992 2 2 2l-2 4c2 2.66699 4.33301 14.334 7 35.001l-2 4l11 44c0 1.33301 -0.333008 2 -1 2c20.667 86.667 36 142 46 166c6 19.333 14.667 37.333 26 54
c10.667 22.667 21 38 31 46zM12.999 267.998v-13c0 -10.667 -0.666992 -23 -2 -37l2 -11c0 -1.33301 -0.666992 -2 -2 -2l6 -44h-2c6 -52 15.333 -86 28 -102c18.667 -30.667 39 -46 61 -46c20 0 33.333 10 40 30c14 13.333 23.333 33 28 59l6 26l-2 3
c2 6.66699 3.66699 16 5 28c-0.666992 2 -1.66699 10.667 -3 26h1c-18 101.333 -43.667 152 -77 152h-19c-21.333 0 -41 -11.667 -59 -35c-4 -10 -7.66699 -21.333 -11 -34z" />
    <glyph glyph-name="seven" unicode="7" horiz-adv-x="206" 
d="M24 681l31.999 0.000976562l11 -2l3 2c1.33301 0 3.33301 -0.666992 6 -2c12.667 1.33301 22.334 2 29.001 2h4c1.33301 0 2 -0.666992 2 -2c1.33301 0 2 0.666992 2 2c14.667 -1.33301 22 -3.33301 22 -6v-2c0 -0.666992 -0.666992 -1 -2 -1
c0 -1.33301 0.666992 -2 2 -2c-6 -32 -9 -64 -9 -96h-2c1.33301 -2.66699 2 -4.66699 2 -6c0 -4.66699 -5 -56.334 -15 -155.001v-4c0 -1.33301 -0.666992 -2 -2 -2c0 -1.33301 0.666992 -2 2 -2c-0.666992 -7.33301 -2 -11 -4 -11l2 -4
c-1.33301 -20 -2.66602 -30.333 -3.99902 -31l2 -4c-9.33301 -60.667 -17.333 -116 -24 -166l2 -4c-2.66699 -4 -4 -7 -4 -9c0 -1.33301 0.666992 -2 2 -2l-11 -72c0 -1.33301 0.666992 -2 2 -2c-4 -19.333 -6 -30.333 -6 -33l2 -4c-2 -3.33301 -6.33301 -24.333 -13 -63h-7
l-4 2c0 12 3.66699 36.667 11 74h2l-2 4c4 33.333 8.33301 63.333 13 90c0 1.33301 -0.666992 2 -2 2c5.33301 30 8 47.333 8 52v7c0 1.33301 0.666992 2 2 2c0 1.33301 -0.666992 2 -2 2c8.66699 64 14.667 104 18 120l-1 4c2 4 3 7.66699 3 11v13
c0.666992 20.667 2 31 4 31c0 1.33301 -0.666992 2 -2 2l13 113h2l-2 4c0 1.33301 0.666992 2 2 2c0 1.33301 -0.666992 2 -2 2l4 31l-2 4l2 3c0 1.33301 -0.666992 3.33301 -2 6c1.33301 15.333 2.66602 24 3.99902 26c0 1.33301 -0.666992 2 -2 2l3 29l-1 4
c0.666992 11.333 1.66699 17 3 17c-0.666992 4.66699 -1.66699 7 -3 7c-12.667 0 -45 0.666992 -97 2l-9 -2v2l-4 -2h-1c-2 0 -4 2 -6 6c0 4 8 7 24 9z" />
    <glyph glyph-name="eight" unicode="8" horiz-adv-x="213" 
d="M65 692c15.333 0 30.0039 -14 44.0039 -42c5.33301 -26.667 9.33301 -51.667 12 -75l-2 -10c0 -4.66699 0.666992 -10.334 2 -17.001c0 -28 -8.33301 -73.333 -25 -136c-6.66699 -16.667 -16.334 -37 -29.001 -61c28.667 -82 48 -145.333 58 -190h-2
c3.33301 -7.33301 7 -24.666 11 -51.999h-2c1.33301 -11.333 2.66602 -17 3.99902 -17c0 -48 -13.333 -78 -40 -90c-12.667 0 -21 -0.666992 -25 -2c-5.33301 1.33301 -10.333 2 -15 2h-8c-32 21.333 -48 44.333 -48 69v11c0 3.33301 0.666992 6 2 8
c-1.33301 2 -2 4.66699 -2 8h2c0 1.33301 -0.666992 2 -2 2c0 58 17.333 138.333 52 241l2 8c0 4.66699 -4.66699 20.667 -14 48l-25 120h2c-7.33301 28.667 -11 60 -11 94c1.33301 22.667 9.66602 44 24.999 64c13.333 11.333 24.666 17 33.999 17zM17.0039 611l2 -3.00098
v-6c0 -4 -0.666992 -6 -2 -6c0 -30.667 13.333 -104 40 -220c1.33301 0 2 -1.33301 2 -4h4l17 36c19.333 58.667 29 107.334 29 146.001v21l-2 13h2l-2 4c0 1.33301 0.666992 2 2 2c-9.33301 55.333 -23.333 83 -42 83h-10c-25.333 -16 -38 -38 -38 -66h-2zM59.0039 332.999
l-0.000976562 -10.999c-32 -84.667 -48 -168.334 -48 -251.001c10 -37.333 28.667 -56 56 -56h4c29.333 0 44 10.333 44 31c3.33301 4 6 18.667 8 44c-1.33301 20.667 -2.66602 34 -3.99902 40h2c-6 13.333 -11.333 37 -16 71c-28 82 -42 126 -42 132h-4z" />
    <glyph glyph-name="nine" unicode="9" horiz-adv-x="210" 
d="M115 688l2.00098 0.00292969c3.33301 0 5.66602 -6.66699 6.99902 -20c-1.33301 -2.66699 -2 -4.66699 -2 -6c1.33301 0 2 -0.666992 2 -2l-4 -1c1.33301 -7.33301 2.66602 -11 3.99902 -11l-2 -13c0 -32 -1.33301 -63 -4 -93l2 -4c-1.33301 -14.667 -2.33301 -22 -3 -22
c0 -1.33301 0.333008 -2 1 -2c-2 -20.667 -3 -33 -3 -37c0 -4.66699 0.666992 -15.667 2 -33c-1.33301 -23.333 -2 -48.666 -2 -75.999h-2l2 -4v-11c0 -0.666992 -0.666992 -1 -2 -1l2 -4v-22c0 -1.33301 -0.666992 -2 -2 -2c0 -1.33301 0.666992 -2 2 -2l-2 -19v-29l-2 -11
c1.33301 -2.66699 2 -5.33398 2 -8.00098c0 -6 -1.33301 -15.667 -4 -29c0 -1.33301 0.666992 -2 2 -2l-6 -45l2 -3c0 -1.33301 -0.666992 -5 -2 -11c0 -1.33301 0.666992 -3.33301 2 -6c-3.33301 -36.667 -5.66602 -55 -6.99902 -55l2 -4v-11
c0 -1.33301 -0.666992 -2 -2 -2c0 -1.33301 0.666992 -2 2 -2c-1.33301 -6.66699 -2 -10.334 -2 -11.001s0.666992 -4.33398 2 -11.001c-1.33301 -2.66699 -2 -4.66699 -2 -6c0 -0.666992 0.666992 -1 2 -1c0 -1.33301 -0.666992 -3.33301 -2 -6
c1.33301 -26 2.66602 -41.333 3.99902 -46c-2.66699 -0.666992 -4 -2 -4 -4c-7.33301 2.66699 -11 5 -11 7c0 3.33301 0.666992 19.666 2 48.999l-2 7l2 4l-2 3c1.33301 2.66699 2 4.66699 2 6l-2 4c1.33301 2 2 3.66699 2 5s-0.666992 2 -2 2l2 9v13
c0 1.33301 0.666992 2 2 2c0 1.33301 -0.666992 2 -2 2c1.33301 22.667 3 40.667 5 54c-1.33301 2 -2 3.66699 -2 5l2 4c0 1.33301 -0.666992 2 -2 2c2.66699 20.667 4 38.334 4 53.001h2l-2 4l2 9c0 1.33301 -0.666992 2 -2 2l2 9v24l2 11c0 1.33301 -0.666992 2 -2 2l2 13
v26c0 1.33301 0.666992 2 2 2l-2 4v22l2 13c-16.667 -5.33301 -26.667 -8 -30 -8h-9c-19.333 0 -36.666 20.667 -51.999 62c-3.33301 6 -7.66602 24.333 -12.999 55c1.33301 28 5 57 11 87c24 55.333 43.667 88.666 59 99.999c11.333 8.66699 25.666 14.667 42.999 18
c0 1.33301 0.666992 2 2 2zM11.001 503.003l2.00098 -3c-1.33301 -6.66699 -2 -10.667 -2 -12c1.33301 -10 2.66602 -16 3.99902 -18l-2 -4c14 -59.333 32 -89 54 -89h11c17.333 5.33301 26 10.333 26 15v37c0 1.33301 0.333008 2 1 2l-1 4v39c0 0.666992 0.333008 1 1 1
l-1 4c0 4 1 17 3 39l-2 7l2 4l-2 8c2.66699 15.333 4 28 4 38v10c0 0.666992 0.666992 1 2 1l-2 4c1.33301 11.333 2 18.333 2 21l-2 12c2.66699 15.333 4.66699 23 6 23l-2 3v23h-2c-31.333 0 -60.333 -37.667 -87 -113c-4.66699 -16 -9 -34.667 -13 -56z" />
    <glyph glyph-name="colon" unicode=":" horiz-adv-x="100" 
d="M17 39h3c2.66699 0 6 -4.33301 10 -13c-2 -17.333 -6.33301 -26 -13 -26h-8c-4.66699 0 -7.66699 8 -9 24c0 8 5.66699 13 17 15zM17 363h3c2.66699 0 6 -4.33301 10 -13c-2 -17.333 -6.33301 -26 -13 -26h-8c-4.66699 0 -7.66699 8 -9 24c0 8 5.66699 13 17 15z" />
    <glyph glyph-name="semicolon" unicode=";" horiz-adv-x="124" 
d="M20 43c11.333 0 17.002 -14 17.002 -42v-6c0 -12 -5.66699 -31 -17 -57c-2 -6 -6.33301 -11 -13 -15h-1c-2 0 -4 2 -6 6v1c7.33301 8.66699 11.666 16.667 12.999 24c3.33301 0 7.66602 10 12.999 30c-1.33301 13.333 -3.33301 20 -6 20l-11 -1
c0 0.666992 -2.33301 3.66699 -7 9v2c3.33301 19.333 9.33301 29 18 29zM17.002 363h3c2.66699 0 6 -4.33301 10 -13c-2 -17.333 -6.33301 -26 -13 -26h-8c-4.66699 0 -7.66699 8 -9 24c0 8 5.66699 13 17 15z" />
    <glyph glyph-name="semicolon" unicode="&#x37e;" horiz-adv-x="124" 
d="M20 43c11.333 0 17.002 -14 17.002 -42v-6c0 -12 -5.66699 -31 -17 -57c-2 -6 -6.33301 -11 -13 -15h-1c-2 0 -4 2 -6 6v1c7.33301 8.66699 11.666 16.667 12.999 24c3.33301 0 7.66602 10 12.999 30c-1.33301 13.333 -3.33301 20 -6 20l-11 -1
c0 0.666992 -2.33301 3.66699 -7 9v2c3.33301 19.333 9.33301 29 18 29zM17.002 363h3c2.66699 0 6 -4.33301 10 -13c-2 -17.333 -6.33301 -26 -13 -26h-8c-4.66699 0 -7.66699 8 -9 24c0 8 5.66699 13 17 15z" />
    <glyph glyph-name="less" unicode="&#x3c;" horiz-adv-x="171" 
d="M65 402c1.33301 0 2.99902 -1.66699 4.99902 -5v-2c0 -4.66699 -17.667 -30 -53 -76c26.667 -14.667 48 -29 64 -43l-5 -7c-4 0.666992 -19 10 -45 28c-17.333 8.66699 -27.666 14.667 -30.999 18v4c14 15.333 34.333 42.333 61 81z" />
    <glyph glyph-name="equal" unicode="=" horiz-adv-x="279" 
d="M87 397l9 -2.00098h34c2.66699 0 5 0.666992 7 2c6.66699 -2.66699 19.667 -4 39 -4h7c2.66699 0 5.33398 0.666992 8.00098 2c4.66699 -2 7 -4 7 -6c0 -1.33301 -3 -4.33301 -9 -9h-8c-2 0 -3 1.33301 -3 4c-1.33301 0 -3.33301 -0.666992 -6 -2
c-40 1.33301 -69.667 2 -89 2l-9 -2v2l-4 -2h-13c-9.33301 0 -26 -1.33301 -50 -4l-3 6c1.33301 4.66699 6.66602 7 15.999 7h15c1.33301 0 2 -0.666992 2 -2l4 2c1.33301 0 2 -0.666992 2 -2c4 2.66699 18.667 5.33398 44 8.00098zM98 290.999l-0.000976562 -1.99902
c1.33301 0 2 0.666992 2 2l9 -2c19.333 0 45.333 -0.333008 78 -1c0 0.666992 0.666992 1 2 1c2 -4 3 -7.66699 3 -11l-7 -9c-6.66699 3.33301 -21 5.66602 -43 6.99902l-3 -1c-16 2 -25.333 3 -28 3c-50 -1.33301 -79.667 -3 -89 -5v2l-3 -2h-12
c-1.33301 0 -3.66602 2.33301 -6.99902 7v2c0 2 2 4 6 6h11c1.33301 0 2 -0.666992 2 -2l3 2h24l4 -2c0.666992 2 2 3 4 3v-1l3 1h2c1.33301 0 2 -0.333008 2 -1l4 1h5c6.66699 0 16 0.666992 28 2z" />
    <glyph glyph-name="greater" unicode="&#x3e;" horiz-adv-x="161" 
d="M4 403c19.333 -17.333 29.668 -29.666 31.001 -36.999c3.33301 0 14 -8 32 -24c4.66699 0 7 -2.33301 7 -7c-2 -14 -12 -29 -30 -45c-2 -4 -10 -14.333 -24 -31c0 -2.66699 -3 -4 -9 -4h-2c-2 0 -3 1.33301 -3 4v2c11.333 16 22.333 28.667 33 38c0 2 5 9 15 21l5 7v6
c-32.667 23.333 -52.334 44.666 -59.001 63.999v2c0.666992 2.66699 2 4 4 4z" />
    <glyph glyph-name="question" unicode="?" horiz-adv-x="203" 
d="M52 689h24.001c8.66699 0 19.667 -8.66699 33 -26c14.667 -19.333 22 -47.666 22 -84.999s-8.66699 -72.666 -26 -105.999c-22 -90 -33 -142.333 -33 -157c-2 -10 -3.66699 -15 -5 -15c0 -0.666992 0.333008 -1 1 -1c-6 -38 -9 -71.333 -9 -100v-71
c-1.33301 -3.33301 -5 -5 -11 -5l-2 3v17c0 1.33301 0.666992 2 2 2l-2 4c1.33301 10 2 18.667 2 26l-2 7h2c0 1.33301 -0.666992 2 -2 2c2 40.667 4.66699 61 8 61l-2 13c0.666992 10 2 15 4 15c0 0.666992 -0.666992 1 -2 1c0 18 9 69.333 27 154l12 46
c9.33301 17.333 16 36 20 56c2 7.33301 4.33301 20.333 7 39l-2 3c0 1.33301 0.666992 2 2 2c0 1.33301 -0.666992 2 -2 2c1.33301 8.66699 2.66602 13 3.99902 13c-2.66699 4.66699 -4 9.66699 -4 15v3l2 4c-1.33301 0 -5.66602 11.667 -12.999 35
c-14 20 -25.667 30 -35 30h-16c-16.667 0 -30.334 -19 -41.001 -57c0 -6 -1.33301 -16 -4 -30c0 -1.33301 0.666992 -2 2 -2l-2 -9v-2c0 -4.66699 0.666992 -10.334 2 -17.001l-2 -3c1.33301 -2.66699 2 -5.33398 2 -8.00098v-2c0 -1.33301 -2 -3 -6 -5
c-2 0 -4.33301 7.33301 -7 22c0 1.33301 0.666992 2 2 2l-2 9c-0 57.333 14.333 95 43 113c2 1.33301 5 2 9 2zM52.001 26c6 -2 9 -6.33301 9 -13v-7c0 -2 -1.66699 -4 -5 -6h-6c-2 -0 -4.33301 2.33301 -7 7v6c0 6.66699 3 11 9 13z" />
    <glyph glyph-name="at" unicode="@" horiz-adv-x="298" 
d="M106 500l1.99902 -0.000976562c26 -3.33301 50 -14.333 72 -33l16 -39h-1c3.33301 -9.33301 10 -53 20 -131h-2c2 -14.667 4 -22 6 -22l-2 -8c0 -4.66699 0.666992 -20 2 -46c0 -38.667 -10 -65.667 -30 -81c-5.33301 -11.333 -12 -17 -20 -17h-4
c-6 0 -12.667 2.33301 -20 7c-4.66699 -9.33301 -12.334 -14 -23.001 -14l-33 18c-14.667 32.667 -22 69.667 -22 111c-1.33301 0 -2 5 -2 15h2c0 1.33301 -0.666992 2 -2 2c0 36.667 6.33301 58.667 19 66l14 8l4 -2c2.66699 1.33301 4.66699 2 6 2
c15.333 0 26.333 -15.333 33 -46v-2c0 -1.33301 -0.666992 -2 -2 -2c2.66699 -12 4 -28.667 4 -50v-35c0 -4.66699 0.666992 -10.334 2 -17.001c-1.33301 -1.33301 -2 -5.66602 -2 -12.999c4 -23.333 9.33301 -35 16 -35h10c26 22 39 47.333 39 76l-2 4
c1.33301 10 2.33301 16 3 18c-0.666992 27.333 -3 54 -7 80h2l-8 44h2c-10 74 -22.333 111 -37 111c-21.333 11.333 -39 17.333 -53 18v-1l-4 1h-6c-33.333 0 -56 -28.667 -68 -86c-2.66699 -4 -5 -14 -7 -30v-15c0 -1.33301 -0.666992 -2 -2 -2
c0 -1.33301 0.666992 -2 2 -2c-1.33301 -10.667 -2.66602 -17.334 -3.99902 -20.001c1.33301 -2 2 -4.33301 2 -7c0 -1.33301 -0.666992 -2 -2 -2l2 -4c-1.33301 -15.333 -2.66602 -24 -3.99902 -26l2 -11v-18c0 -1.33301 -0.666992 -2 -2 -2c0 -1.33301 0.666992 -2 2 -2
l-2 -19v-83l2 -18h-2c0.666992 -3.33301 2 -11 4 -23c0 -0.666992 -0.666992 -1 -2 -1c1.33301 -16 2.66602 -25.333 3.99902 -28c0 -1.33301 -0.666992 -2 -2 -2l-3 -21h-2c2.66699 -5.33301 5.33398 -19 8.00098 -41h-2l3 -18c-0.666992 -2.66699 -1 -4.66699 -1 -6
c0.666992 -6.66699 1 -11.667 1 -15h-1c2 -4 3 -8.66699 3 -14h-2c4 -35.333 12.667 -68.666 26 -99.999c10 -12.667 22 -22 36 -28h1c27.333 0 46 21.667 56 65l-2 3l2 12c0 0.666992 -0.666992 1 -2 1c2.66699 12 4 28.667 4 50v4c0 20.667 -2 37.334 -6 50.001l9 6
c2.66699 -3.33301 4.66699 -9 6 -17l-2 -4l4 -24h-2l2 -4v-5c0 -1.33301 -0.666992 -2 -2 -2l2 -4v-14c-2.66699 -44.667 -7 -75.667 -13 -93c-4 -8 -10.333 -14.667 -19 -20c-8 -11.333 -17 -17 -27 -17h-6c-12 0 -28 10 -48 30c-20.667 42 -31 97.333 -31 166
c-2 16 -4 25.333 -6 28c0 1.33301 0.666992 3 2 5c1.33301 7.33301 0.333008 33.666 -3 78.999h2l-2 4v44l-2 9h2c0 1.33301 -0.666992 2 -2 2c1.33301 32.667 2 58.667 2 78v20c0 1.33301 0.666992 2 2 2c0 1.33301 -0.666992 2 -2 2l2 9v22
c0 2.66699 0.666992 5.33398 2 8.00098c0 0.666992 -0.666992 1 -2 1c0 33.333 8.66699 72.333 26 117c17.333 29.333 41.333 44 72 44zM75.999 289.999c0 -1.33301 0.666992 -2 2 -2l-2 -10c0 -16.667 1.33301 -34.334 4 -53.001h-2c6 -60 19.667 -91.667 41 -95
c2 0 3 -0.333008 3 -1c4.66699 0 9 3.66699 13 11l-1 3c0 1.33301 0.333008 2 1 2l-3 13c1.33301 6.66699 2 12.334 2 17.001v9c0 1.33301 0.333008 2 1 2l-1 4v38c0 3.33301 -0.666992 6 -2 8c1.33301 2 2 3.66699 2 5s-0.666992 6.33301 -2 15c0 1.33301 0.666992 2 2 2
c-2 44.667 -10.333 67 -25 67c-18 0 -29 -11.667 -33 -35z" />
    <glyph glyph-name="A" unicode="A" horiz-adv-x="241" 
d="M87 688l6.99902 -12.998c0 -8.66699 2 -22.334 6 -41.001v-17c0 -2.66699 0.666992 -5.33398 2 -8.00098l-2 -3c1.33301 -2.66699 2 -4.66699 2 -6c0 -2.66699 -0.666992 -4 -2 -4c8 -78.667 16.333 -149.334 25 -212.001c0 -1.33301 -0.666992 -2 -2 -2
c12 -82.667 18 -129.667 18 -141h-2l36 -220c-1.33301 -8.66699 -3 -13 -5 -13h-2c-4.66699 0 -10 24.333 -16 73l-17 98h2l-2 4c0 1.33301 0.666992 2 2 2c-1.33301 12.667 -5.33301 34 -12 64c1.33301 2.66699 2 4.66699 2 6c-1.33301 14 -3.33301 24.667 -6 32
c0 1.33301 0.666992 2 2 2l-7 52h-14c-19.333 0 -36 -1.66699 -50 -5v-2c-6.66699 -84.667 -13.667 -142 -21 -172l2 -4c-6 -33.333 -10 -50 -12 -50l2 -4c-0.666992 -16.667 -2.66699 -25 -6 -25l2 -4c-1.33301 -26.667 -3.33301 -42.667 -6 -48l2 -8
c-2 -12.667 -4.33301 -19 -7 -19h-2c-2 0 -4 2 -6 6v15c0 1.33301 0.666992 2 2 2c0 1.33301 -0.666992 2 -2 2l12 68l-2 3c3.33301 16.667 6.33301 34.667 9 54h2l-2 4c6.66699 37.333 13.667 90 21 158c0 1.33301 -0.333008 2 -1 2c0.666992 20.667 2.33398 31 5.00098 31
l-2 4l2 4c0 1.33301 -0.666992 2 -2 2l2 19v14c0 1.33301 0.666992 2 2 2l-2 3v2c0 1.33301 0.666992 2 2 2c0 1.33301 -0.666992 2 -2 2c2 24.667 4 37 6 37c0 1.33301 -0.666992 2 -2 2c4 37.333 7.33301 60.333 10 69c0 1.33301 -0.666992 2 -2 2
c4 30.667 7.66699 54.334 11 71.001l-1 4c0 4 1 9.33301 3 16c0 1.33301 -0.666992 2 -2 2c5.33301 56.667 10 85 14 85c2.66699 0.666992 4.66699 1 6 1zM78.999 611.002l2.00098 -4c-5.33301 -41.333 -9.33301 -67 -12 -77c0 -1.33301 0.666992 -2 2 -2
c-2.66699 -18 -4.33398 -27 -5.00098 -27l1 -3c-1.33301 -26 -3 -39 -5 -39c0 -1.33301 0.666992 -2 2 -2c-1.33301 -8.66699 -2.66602 -13 -3.99902 -13c0 -1.33301 0.666992 -2 2 -2c-2.66699 -20 -5.33398 -51 -8.00098 -93c10 4 21 6 33 6h25l4 2l-6 33l2 7
c-2.66699 6 -6.66699 27.333 -12 64c1.33301 2 2 4.66699 2 8l-4 5v16c0 4.66699 -1.66699 20 -5 46h1c-4.66699 22.667 -7 55 -7 97c-2 0 -4.66699 -7.33301 -8 -22z" />
    <glyph glyph-name="B" unicode="B" horiz-adv-x="185" 
d="M33 692l-0.00195312 -1.99902c1.33301 0 2 0.666992 2 2c24 0 46.333 -18 67 -54c0 -3.33301 2.66699 -17.333 8 -42h-2c2 -11.333 4 -25.333 6 -42c-4.66699 -64 -12.667 -111.667 -24 -143c-9.33301 -20 -24.666 -38.333 -45.999 -55c37.333 -34 56 -61 56 -81
c5.33301 0 13 -36.667 23 -110h-2l2 -4v-7c0 -48 -11 -86 -33 -114c-28 -27.333 -49.667 -44 -65 -50h-8c-3.33301 6.66699 -5.66602 10 -6.99902 10h-2c0.666992 18 2 27 4 27l-2 3c1.33301 2.66699 2 4.66699 2 6s-0.666992 2 -2 2c1.33301 15.333 2.33301 23 3 23l-1 4
v44l-2 14h2c0 1.33301 -0.666992 2 -2 2l2 13v21c0 3.33301 0.333008 6 1 8c0 1.33301 -0.333008 2 -1 2l1 10c0 2.66699 -0.333008 5 -1 7l1 10l-1 9h1l-1 4l1 10c0 1.33301 -0.333008 3.33301 -1 6c0.666992 8.66699 1 15.667 1 21v23c0 1.33301 0.666992 2 2 2l-2 4v17
c0 1.33301 0.666992 2 2 2l-2 4v2c0 1.33301 0.666992 2 2 2l-2 4v36c0 7.33301 0.666992 16.333 2 27l-2 4c0 2.66699 0.666992 4 2 4c-1.33301 19.333 -2 33.333 -2 42v50c0 2.66699 -0.333008 5.33398 -1 8.00098c0.666992 2 1 4.33301 1 7v16l-1 9h1l-1 4v39
c0 7.33301 -0.666992 17.666 -2 30.999c0 1.33301 0.666992 2 2 2c0 3.33301 -2 14 -6 32v2c0 19.333 -1.33301 34.666 -4 45.999c1.33301 0 2 0.666992 2 2l-4 2c0 14 7 21 21 21zM14.998 675.001l0.000976562 -17l2 -10h-2l2 -4v-2c0 -18 1.33301 -34 4 -48h-2
c0 -1.33301 0.666992 -2 2 -2c1.33301 -25.333 2 -44.666 2 -57.999v-5c0 -3.33301 -0.666992 -6 -2 -8c1.33301 -2.66699 2 -4.66699 2 -6h-2l2 -4v-19l2 -13h-2l2 -4c0 -1.33301 -0.666992 -2 -2 -2l2 -4c0 -2.66699 -0.666992 -5.33398 -2 -8.00098l2 -3
c-1.33301 -2.66699 -2 -4.66699 -2 -6s0.666992 -2 2 -2c0 -1.33301 -0.666992 -3.33301 -2 -6c2.66699 -27.333 4 -43.333 4 -48h-2l2 -4v-27c26 15.333 42.667 32 50 50l15 52c0 1.33301 -0.666992 2 -2 2c4 21.333 6.66699 40 8 56c-1.33301 2 -2 4.66699 -2 8v3
c0 1.33301 0.666992 2 2 2c0 1.33301 -0.666992 2 -2 2c1.33301 14 2.66602 21 3.99902 21l-2 4v8c0 13.333 -3.66699 36.333 -11 69c-21.333 24.667 -38 37 -50 37c-2.66699 -1.33301 -4.66699 -2 -6 -2l-4 2c-5.33301 -2.66699 -9.33301 -4 -12 -4zM26.999 346.001
l-1.99805 -9.99805l2 -13h-2c0 -1.33301 0.666992 -2 2 -2l-2 -10v-25c0 -3.33301 -0.666992 -5 -2 -5l2 -10v-114c0 -2.66699 -0.666992 -5 -2 -7c1.33301 -2.66699 2 -4.66699 2 -6h-2l2 -4v-2c0 -2.66699 -0.666992 -5.33398 -2 -8.00098c0 -0.666992 0.666992 -1 2 -1
l-2 -20v-11c0 -1.33301 -0.666992 -2 -2 -2c1.33301 -2.66699 2.66602 -8.33398 3.99902 -17.001l-2 -4c0 -1.33301 0.666992 -2 2 -2l-2 -14v-34l-2 -20c59.333 28 89 74.333 89 139v10c0 0.666992 0.666992 1 2 1c-1.33301 2.66699 -2 4.66699 -2 6
c0 28 -5.33301 60.667 -16 98c-6.66699 28.667 -19.334 52 -38.001 70c-13.333 11.333 -22.333 17 -27 17h-2z" />
    <glyph glyph-name="C" unicode="C" horiz-adv-x="227" 
d="M77 687l6 -0.00195312c34 -2.66699 51 -15 51 -37v-12c0 -2 -1.33301 -3 -4 -3h-2c-2.66699 0 -4.33398 6.33301 -5.00098 19c-10.667 14.667 -22.667 22 -36 22c-30 0 -52.667 -25.667 -68 -77c0 -1.33301 0.666992 -2 2 -2c-1.33301 -12.667 -2.66602 -19 -3.99902 -19
c0 -1.33301 0.666992 -2 2 -2c-2.66699 -12.667 -4 -32.667 -4 -60v-6c0 -1.33301 -0.666992 -2 -2 -2c0 -0.666992 0.666992 -1 2 -1l-2 -10v-21c0 -2 -1.33301 -3 -4 -3c2.66699 -4.66699 4 -8 4 -10h-2c0 -1.33301 0.666992 -2 2 -2l-2 -22l2 -14l-2 -11
c1.33301 -2 2 -4.33301 2 -7h-2l2 -4v-11l-4 -6l6 -21l-2 -4c1.33301 -2 2 -3.66699 2 -5h-2c1.33301 -2.66699 2 -4.66699 2 -6c0 -6 0.666992 -29.333 2 -70l2 -3l-2 -4l2 -12c0 -0.666992 -0.666992 -1 -2 -1l4 -34c0 -1.33301 -0.666992 -2 -2 -2l11 -96h-2l8 -55h-2
c8.66699 -46.667 22.334 -70 41.001 -70c22.667 0 41.667 19.667 57 59h6c0.666992 -6.66699 1 -10.667 1 -12c-6.66699 -24.667 -19.667 -42.667 -39 -54c-6 -4 -15.333 -6 -28 -6h-6c-17.333 0 -32.333 25 -45 75c0 1.33301 0.666992 2 2 2c-2.66699 18 -4 37.667 -4 59v5
c-4 13.333 -6 21 -6 23h2l-2 4v13c0 2.66699 -0.666992 5.33398 -2 8.00098l2 3c-1.33301 14 -3 22.333 -5 25v15c0 1.33301 0.333008 2 1 2c-0.666992 1.33301 -1.66699 8.66602 -3 21.999h2c-1.33301 2.66699 -2 4.66699 -2 6c0 34.667 -2 92.334 -6 173.001l2 4
c-1.33301 2.66699 -2 4.66699 -2 6c1.33301 22.667 2 37 2 43h2l-2 4v2c0 1.33301 0.666992 2 2 2l-2 4v13c0 1.33301 0.666992 2 2 2l-2 3l2 14l-2 3c1.33301 2.66699 2 5.33398 2 8.00098c0 4 -0.666992 6 -2 6c3.33301 47.333 9 79.333 17 96c12 19.333 24 35 36 47
c11.333 3.33301 18.666 5 21.999 5z" />
    <glyph glyph-name="D" unicode="D" horiz-adv-x="206" 
d="M15 693l4.00098 -0.00390625c14 -6 39 -50.333 75 -133c5.33301 -18.667 14 -60 26 -124h-2c11.333 -59.333 17 -101.333 17 -126c0 -1.33301 -0.666992 -2 -2 -2l2 -3v-8c0 -1.33301 -0.666992 -2 -2 -2l2 -3v-26c0 -80 -14.667 -146.667 -44 -200
c-24.667 -37.333 -49.334 -62.666 -74.001 -75.999c0 2 -2.66699 4 -8 6c0 -4 -1 -6 -3 -6c-4 0.666992 -6 5.66699 -6 15v16c0 1.33301 0.666992 2 2 2c0 1.33301 -0.666992 2 -2 2l2 9c0 3.33301 -0.666992 6 -2 8l2 4c0 0.666992 -0.666992 2.33398 -2 5.00098
c2.66699 10.667 4 20 4 28l-2 7c1.33301 2.66699 2 4.66699 2 6s-0.666992 2 -2 2l2 9v4c0 14 0.666992 23.667 2 29c-1.33301 12 -2 23.667 -2 35c0 10 0.666992 27.333 2 52c-1.33301 2 -2 4.66699 -2 8h2l-2 3v6c0 1.33301 0.666992 2 2 2l-2 3c0 1.33301 0.666992 2 2 2
l-2 4v9c0 2.66699 0.666992 5.33398 2 8.00098c-1.33301 2 -2 4.33301 -2 7s0.666992 5 2 7c-1.33301 2.66699 -2 4.66699 -2 6h2l-2 4l2 3c-1.33301 2.66699 -2 4.66699 -2 6h2l-2 4c0 0.666992 0.666992 1 2 1l-2 13v15c0 1.33301 0.666992 2 2 2l-2 4v3
c0 1.33301 0.666992 2 2 2l-2 4v4c0 0.666992 0.666992 1 2 1l-2 4v9c0 27.333 1 41 3 41l-1 4v76c0 1.33301 0.333008 2 1 2l-1 3v9c0 1.33301 0.333008 2 1 2c0 1.33301 -0.333008 2 -1 2l1 9v2c0 4 -0.333008 7.33301 -1 10l1 11v20c0 2.66699 0.666992 5 2 7
c-1.33301 2.66699 -2 5.33398 -2 8.00098v3l2 12c-1.33301 1.33301 -2 5 -2 11l2 3l-2 4l2 13l-2 4c0 1.33301 0.666992 2 2 2l-2 9v15c0 0.666992 0.666992 1 2 1l-2 4c1.33301 13.333 2 25 2 35zM20.001 668.996c0 -2.66699 -0.334961 -3.99805 -1.00195 -3.99805l1 -7
c-0.666992 -6.66699 -1 -10.334 -1 -11.001c0 -1.33301 0.333008 -2 1 -2l-1 -9v-37c0 -1.33301 -0.666992 -2 -2 -2l2 -4v-91c0 -0.666992 -0.666992 -1 -2 -1l2 -4v-11c0 -1.33301 -0.666992 -2 -2 -2c0 -1.33301 0.666992 -2 2 -2l-2 -9c0 -2.66699 0.666992 -4 2 -4
l-2 -13v-42l-2 -11c1.33301 -2.66699 2 -6 2 -10c0 -1.33301 -0.666992 -2 -2 -2c1.33301 -2 2 -3.66699 2 -5l-2 -4l2 -3l-2 -4c1.33301 -2 2 -4.66699 2 -8h-2c0 -0.666992 0.666992 -1 2 -1l-2 -10l2 -7h-2l2 -4v-46l2 -9h-2c0 -1.33301 0.666992 -2 2 -2l-2 -9v-48
c0 -4 0.666992 -6 2 -6l-2 -9v-43c0 -11.333 0.666992 -23 2 -35c-1.33301 -5.33301 -2 -15.333 -2 -30v-5c0 -1.33301 -0.666992 -2 -2 -2c0 -1.33301 0.666992 -2 2 -2l-2 -9v-30c0 -1.33301 -0.666992 -2 -2 -2c1.33301 -2 2 -3.66699 2 -5
c0 -2.66699 -0.666992 -4 -2 -4l2 -13v-9c0 -2.66699 -0.666992 -5 -2 -7c1.33301 -2.66699 2 -4.66699 2 -6h-2c1.33301 -2 2 -5.66699 2 -11h2c0 1.33301 10.333 10.666 31 27.999c30.667 37.333 46.667 62.666 48 75.999c5.33301 16 9 24.333 11 25l-2 4
c3.33301 10 5.33301 15 6 15l-2 4c4.66699 0 9 32.667 13 98h2l-2 3c0 1.33301 0.666992 2 2 2l-2 13v24l-2 22h2l-2 4c0 15.333 -3 45 -9 89v7c-2.66699 2 -5 16.333 -7 43c-1.33301 0 -3.33301 5.66699 -6 17h2c-8.66699 40.667 -16 71.334 -22 92.001
c-3.33301 2.66699 -9.66602 15.667 -18.999 39c-19.333 36 -31.666 56.333 -36.999 61h-2z" />
    <glyph glyph-name="E" unicode="E" horiz-adv-x="185" 
d="M17 693l3.00098 0.00390625l6 -4h9c4 0 6 0.666992 6 2l9 -2h43c12 -2.66699 18 -5 18 -7v-4l-2 -4c-18 1.33301 -27.667 2.66602 -29 3.99902c-2.66699 -1.33301 -5.33398 -2 -8.00098 -2h-11c-2.66699 0 -5 0.666992 -7 2c-2.66699 -1.33301 -5.33398 -2 -8.00098 -2
h-2c-0.666992 0 -1 0.666992 -1 2l-4 -2h-17c0 -4.66699 -0.666992 -7 -2 -7c0 -1.33301 0.666992 -2 2 -2c0 -1.33301 -0.666992 -3.33301 -2 -6l2 -9c-4.66699 -36 -7 -56.333 -7 -61l2 -4l-2 -13c1.33301 -21.333 2 -33.666 2 -36.999c0 -1.33301 -0.666992 -2 -2 -2
l2 -9v-33c0 -2.66699 0.666992 -5.33398 2 -8.00098c-1.33301 -2 -2 -4.33301 -2 -7v-24l-2 -11c1.33301 -2 2 -5 2 -9v-4c0 -2.66699 -0.666992 -5 -2 -7l2 -4c0 -2.66699 -1.33301 -7.66699 -4 -15c1.33301 -2 2 -4.33301 2 -7c-1.33301 -9.33301 -2 -14.333 -2 -15l2 -4
l-2 -11v-15c0 -1.33301 -0.666992 -2 -2 -2l4 -7l4 2h62c2 0 4 -2 6 -6c0 -5.33301 -21.667 -8.33301 -65 -9c-2 1.33301 -5.66699 2 -11 2v-2c1.33301 -6.66699 2 -12.334 2 -17.001v-7c0 -10 -0.666992 -23 -2 -39c1.33301 -2 2 -3.66699 2 -5h-2l2 -4
c0 -4 -0.666992 -7 -2 -9c1.33301 -26.667 3.33301 -51.334 6 -74.001h-2l4 -10l-2 -11c1.33301 -11.333 2 -22.333 2 -33h-2c2 -4.66699 3 -11.334 3 -20.001v-11c0 -1.33301 -0.333008 -2 -1 -2l1 -4v-2c0 -1.33301 -0.333008 -2 -1 -2l1 -3
c0 -1.33301 -0.333008 -2 -1 -2c0 -1.33301 0.333008 -2 1 -2l-1 -9v-6l3 -5c0 -3.33301 -0.666992 -6 -2 -8l4 -31h50l11 2c5.33301 -1.33301 8 -2.66602 8 -3.99902l3 2h13c2 0 4 -2 6 -6v-5c-4 0 -6 -1.33301 -6 -4l-4 2h-3c-4 0 -6 -0.666992 -6 -2
c-13.333 1.33301 -20 2.66602 -20 3.99902l-4 -2h-9c-2.66699 0 -5 0.666992 -7 2c-2.66699 -1.33301 -12 -2.66602 -28 -3.99902c-2.66699 1.33301 -4.66699 2 -6 2c0 -2.66699 -1 -4 -3 -4c-4.66699 0 -8.66699 8.66699 -12 26c0 1.33301 0.666992 2 2 2l-2 9v9
c0 13.333 -0.333008 22.666 -1 27.999c0.666992 9.33301 1 19.666 1 30.999v26c0 3.33301 -0.333008 6 -1 8c0 1.33301 0.333008 2 1 2l-1 13v9c-2.66699 40 -4 61.667 -4 65v20c0 2.66699 -0.666992 5 -2 7c1.33301 2.66699 2 5.33398 2 8.00098v3l-2 10h2
c-1.33301 2 -2 3.66699 -2 5l2 4c-1.33301 2 -2 3.66699 -2 5h2c0 1.33301 -0.666992 2 -2 2l2 19v11l-2 9h2l-2 4v4c0 0.666992 0.666992 1 2 1c0 1.33301 -0.666992 2 -2 2l2 10v35l2 11c-1.33301 2 -2 3.66699 -2 5h2c0 1.33301 -0.666992 2 -2 2
c2.66699 12 4 28.667 4 50v24c0 1.33301 0.333008 2 1 2l-1 4c-1.33301 41.333 -2.66602 63.333 -3.99902 66c0 1.33301 0.666992 2 2 2l-2 9c0 33.333 2.33301 65 7 95c0 1.33301 -0.666992 2 -2 2c2 24.667 5.33301 37 10 37z" />
    <glyph glyph-name="F" unicode="F" horiz-adv-x="171" 
d="M19 691c23.333 -2.66699 44.0029 -3.99902 62.0029 -3.99902v2c6.66699 -1.33301 10 -5.66602 10 -12.999c-6.66699 -2 -10 -3.66699 -10 -5l-35 5c-2 0 -9.33301 -0.333008 -22 -1c-2.66699 0.666992 -4.33398 1 -5.00098 1l-4 -31c1.33301 -2.66699 2 -4.66699 2 -6
c-1.33301 -2 -2 -4.33301 -2 -7l2 -4c-1.33301 -2 -2 -3.66699 -2 -5c1.33301 -2.66699 2 -4.66699 2 -6h-2l2 -4v-22c0 -4.66699 0.666992 -11.334 2 -20.001l-2 -4c1.33301 -2 2 -3.66699 2 -5h-2l2 -4l-2 -11c1.33301 -2 2 -4.66699 2 -8h-2l2 -3v-30
c0 -2.66699 -0.666992 -5 -2 -7c1.33301 -2.66699 2 -4.66699 2 -6c-1.33301 -10.667 -2 -17.334 -2 -20.001l2 -4c0 -1.33301 -0.666992 -2 -2 -2l2 -13v-44c0 -1.33301 -0.666992 -2 -2 -2l2 -4v-20c7.33301 0 11 -1.33301 11 -4l3 2c1.33301 0 2 -0.666992 2 -2
c1.33301 0 2 0.666992 2 2c1.33301 0 3.33301 -0.666992 6 -2l9 2c19.333 -0.666992 29 -3.66699 29 -9v-2c-0.666992 -3.33301 -4.33398 -5 -11.001 -5c-9.33301 0 -14 1 -14 3l-4 -2h-26l-9 2v-9c0 -2.66699 0.666992 -5 2 -7l-2 -4c1.33301 -2 2 -4.33301 2 -7h-2
c1.33301 -2.66699 2 -4.66699 2 -6l-2 -7c1.33301 -2.66699 2 -4.66699 2 -6h-2c1.33301 -2 2.33301 -7.66699 3 -17l-1 -3c0.666992 -2.66699 1 -4.66699 1 -6l-1 -4c0.666992 -2 1 -4.33301 1 -7h-1c0 -1.33301 0.333008 -2 1 -2l-1 -7
c0 -2.66699 0.333008 -9.66699 1 -21l-1 -7c0.666992 -2 1 -4.33301 1 -7h-1l1 -4v-22c0 -1.33301 -0.333008 -2 -1 -2c0 -1.33301 0.333008 -2 1 -2c-0.666992 -7.33301 -1.66699 -11 -3 -11l2 -4v-29c0 -1.33301 -0.666992 -2 -2 -2c1.33301 -2.66699 2 -4.66699 2 -6
l-2 -3c1.33301 -2.66699 2 -5.33398 2 -8.00098h-2c0 -1.33301 0.666992 -2 2 -2c-1.33301 -8.66699 -2.66602 -13 -3.99902 -13l2 -3c0 -1.33301 -0.666992 -2 -2 -2c1.33301 -20 2.66602 -30 3.99902 -30l-2 -9v-22c0 -1.33301 -0.666992 -2 -2 -2l2 -4v-37l2 -13h-2
c0 -1.33301 0.666992 -2 2 -2c-1.33301 -13.333 -3.33301 -20 -6 -20c-4 1.33301 -7.66699 3.66602 -11 6.99902c0 6 0.666992 24.667 2 56c-1.33301 2 -2 3.66699 -2 5h2l-2 4v13c0 1.33301 0.666992 2 2 2c0 1.33301 -0.666992 2 -2 2l2 11l-2 13
c1.33301 6 2.66602 9 3.99902 9l-2 4l2 7c0 2.66699 -1.33301 7.66699 -4 15c1.33301 2 2 4.33301 2 7c0 1.33301 -0.666992 2 -2 2c2.66699 17.333 4 29 4 35l-2 4c1.33301 2 2 4.66699 2 8s-0.666992 5 -2 5l2 9v32c0 4 0.333008 9.33301 1 16l-1 4
c0.666992 2.66699 1 4.66699 1 6l-1 3l1 4l-1 11h1l-1 4v9c0 2.66699 0.333008 5.33398 1 8.00098c-0.666992 8 -1.66699 12 -3 12l2 10v2c0 6 -0.666992 15 -2 27h2l-2 4v15c0 6.66699 0.666992 16.334 2 29.001l-2 4l2 4l-2 13c0 2.66699 0.666992 5 2 7
c-1.33301 8.66699 -2 15.667 -2 21v14c0 1.33301 0.666992 2 2 2c0 1.33301 -0.666992 2 -2 2l2 9l-2 13h2c-1.33301 2.66699 -2 4.66699 -2 6l2 3c0 1.33301 -0.666992 2 -2 2l2 19c0 4 -1.33301 36.667 -4 98l-2 7h2l-2 4v28c0 1.33301 0.666992 2 2 2
c0 0.666992 -0.666992 1 -2 1c2 15.333 4.33301 23 7 23h2l4 -2z" />
    <glyph glyph-name="G" unicode="G" horiz-adv-x="220" 
d="M111 695l3.99902 -5.99902v-3c0 -2.66699 -5 -4.66699 -15 -6v2c-39.333 -6.66699 -59 -17.334 -59 -32.001c-2 -3.33301 -6.33301 -19.666 -13 -48.999l2 -4c-1.33301 -7.33301 -2.66602 -11 -3.99902 -11c0 -1.33301 0.666992 -2 2 -2
c-6 -40.667 -10.333 -102.334 -13 -185.001h-2c0.666992 -1.33301 2 -10 4 -26h-2l2 -4v-39l-2 -11c6 -52 9 -79 9 -81l-2 -4l8 -52l-2 -3c0 -1.33301 1.66699 -17.333 5 -48h-2l8 -41c0 -1.33301 -0.666992 -2 -2 -2l6 -31h-2c5.33301 -22.667 13.333 -37 24 -43l15 -9l3 2
l4 -2c23.333 12.667 35 26.667 35 42c4 2.66699 7.66699 20 11 52l-2 9c0 8.66699 1.33301 13 4 13l-2 10v11c0.666992 6 2 9 4 9l-2 4v33l2 13c-12.667 2 -19 3.66699 -19 5l-3 -1h-2c-1.33301 0 -2 0.333008 -2 1l-4 -1l-3 1l-10 -1v1l-3 -1h-2
c-2 0 -4.66699 2.33301 -8 7v4c0 2 4 3.66699 12 5c8 -1.33301 14.667 -2 20 -2h13l5 -3l2 3l4 -1l9 1c4 -4.66699 6 -8.33398 6 -11.001c-2.66699 -8 -4.66699 -17.667 -6 -29c1.33301 -11.333 2.66602 -17 3.99902 -17l-4 -26l4 -2
c-7.33301 -79.333 -19.666 -123 -36.999 -131c-8.66699 -6.66699 -18 -11 -28 -13c-16 0 -32.667 13 -50 39c0 1.33301 0.666992 2 2 2c-8 26 -14 58 -18 96v5c0 1.33301 0.333008 2 1 2c-3.33301 14 -5 29.667 -5 47h2l-4 9c0 1.33301 0.666992 2 2 2
c-2.66699 14 -4 24.333 -4 31h2l-2 4c0 1.33301 0.666992 2 2 2c-2 2.66699 -5 21.667 -9 57v39l-2 18h2l-2 4v4c0 12 -0.666992 30.333 -2 55h2l-2 4v11c0 1.33301 0.666992 2 2 2c-1.33301 2 -2 3.66699 -2 5l2 4c0 1.33301 -0.666992 2 -2 2
c2.66699 18.667 4.66699 28 6 28c0 1.33301 -0.666992 2 -2 2l2 18v15c0 1.33301 0.333008 2 1 2c0 1.33301 -0.333008 2 -1 2c2 49.333 8.66699 100.333 20 153c6.66699 16.667 16.667 27.334 30 32.001c18 6 36.333 9 55 9z" />
    <glyph glyph-name="H" unicode="H" horiz-adv-x="192" 
d="M22 691c-1.33301 0 -2.99707 -1.66699 -4.99707 -5v-17c-2.66699 -18 -4 -28 -4 -30c0 -13.333 1.33301 -28 4 -44h-2l2 -4v-7c0 -1.33301 -0.666992 -2 -2 -2l2 -4v-22c0 -2.66699 -0.666992 -5 -2 -7c1.33301 -2.66699 2 -5.33398 2 -8.00098
c0 -1.33301 -0.666992 -2 -2 -2l2 -3c0 -2.66699 -0.666992 -5.33398 -2 -8.00098c0 -0.666992 0.666992 -1 2 -1c-1.33301 -11.333 -2.66602 -17 -3.99902 -17l2 -4c0 -2.66699 -0.666992 -4 -2 -4l2 -18v-20c0 -1.33301 -0.666992 -2 -2 -2l2 -4v-20
c0 -12.667 0.666992 -31.334 2 -56.001c-1.33301 0 -2 -0.666992 -2 -2h24c1.33301 0 2 -0.333008 2 -1l3 1l4 -1l4 1c2 -0.666992 3.66699 -1 5 -1c2.66699 0 4 0.333008 4 1l13 -1h2c6 0 15.333 0.333008 28 1v21c0 4.66699 -0.666992 11.334 -2 20.001l2 4l-2 11v5
c0 1.33301 0.666992 2 2 2c0 1.33301 -0.666992 2 -2 2c1.33301 29.333 2.33301 44.666 3 45.999c-0.666992 6.66699 -1 13 -1 19c0 46 1.66699 76.667 5 92l-2 4c2.66699 7.33301 4 12.333 4 15c0 1.33301 -0.666992 2 -2 2c1.33301 16 2.66602 24 3.99902 24
c0 1.33301 -0.666992 2 -2 2l2 9l-2 9h2l-2 4v15c0 0.666992 0.666992 1 2 1c0 1.33301 -0.666992 2 -2 2l15 6c0 -4 0.666992 -6 2 -6l-2 -9v-24c0 -1.33301 -0.666992 -2 -2 -2c0 -1.33301 0.666992 -2 2 -2c-2.66699 0 -5.33398 -40.667 -8.00098 -122h-1l1 -3v-2
c0 -2.66699 -1 -4 -3 -4l2 -4v-13c0 -1.33301 -0.666992 -2 -2 -2l2 -3v-19c0 -4 -0.666992 -9.33301 -2 -16c0 -1.33301 0.666992 -2 2 -2l-2 -9v-4l2 -11l-2 -4l2 -4c-1.33301 -2 -2 -3.66699 -2 -5s0.666992 -3.33301 2 -6c0 -1.33301 -0.666992 -3 -2 -5l3 -37l-1 -4
c2 -36 3.66699 -71.667 5 -107l-2 -4l2 -11v-22c0 -1.33301 -0.666992 -2 -2 -2l2 -4v-2c0 -2.66699 -0.666992 -5 -2 -7l2 -4c0 -1.33301 -0.666992 -2 -2 -2l2 -18v-32c0 -2.66699 0.666992 -5 2 -7c-1.33301 -2 -2 -4.33301 -2 -7c0 -1.33301 0.666992 -2 2 -2l-2 -10
v-11c0 -2.66699 0.666992 -5 2 -7c-1.33301 -13.333 -2.66602 -20 -3.99902 -20l2 -4c1.33301 -43.333 3.33301 -74.666 6 -93.999l-6 -4h-5c-5.33301 10.667 -8 17.334 -8 20.001c2.66699 5.33301 4 9.66602 4 12.999c-1.33301 2 -2 4.66699 -2 8h2l-2 3v6
c0 1.33301 0.666992 2 2 2l-2 3v28l-2 13h2l-2 4v20c0 1.33301 0.666992 2 2 2l-2 4v29c0 2.66699 0.666992 5.33398 2 8.00098c0 1.33301 -0.666992 2 -2 2l2 11c-1.33301 21.333 -2 39.666 -2 54.999v13l4 6c-4 0.666992 -6 5.33398 -6 14.001v2c0 1.33301 0.666992 2 2 2
c-1.33301 2.66699 -2 4.66699 -2 6c0 2.66699 0.666992 5 2 7l-4 24c0 1.33301 0.666992 2 2 2l-2 9v2c0 2.66699 0.666992 5 2 7c0 1.33301 -0.666992 2 -2 2c0 1.33301 0.666992 3.33301 2 6c-1.33301 16 -2 29 -2 39l-1 3l-4 -1h-59
c-2.66699 0 -5.33398 -0.666992 -8.00098 -2c-2 1.33301 -4.33301 2 -7 2h-9c0 -9.33301 0.666992 -23.666 2 -42.999c0 -2.66699 -0.666992 -9.33398 -2 -20.001c2 -18 3 -37.333 3 -58v-5c0 -1.33301 -0.333008 -2 -1 -2l1 -4v-24l2 -13h-2l2 -3
c0 -13.333 1.33301 -34 4 -62c0 -0.666992 -0.666992 -1 -2 -1c1.33301 -12 2.66602 -19.667 3.99902 -23l-2 -3c0 -1.33301 0.666992 -2 2 -2l-2 -9v-28l2 -13h-2c0 -1.33301 0.666992 -2 2 -2l-2 -9c1.33301 -27.333 2 -42.333 2 -45l-9 -7
c-2.66699 5.33301 -5.33398 8.33301 -8.00098 9l2 10v16c0 1.33301 0.666992 2 2 2l-2 4c1.33301 19.333 2 31 2 35l-2 4l2 3c-1.33301 12.667 -2 22.667 -2 30c0 3.33301 0.666992 5 2 5l-2 10v3c0 11.333 -0.666992 27.333 -2 48c0 1.33301 0.666992 2 2 2l-2 10v16l-2 13
h2l-2 4v29l-2 12c0 0.666992 0.666992 1 2 1c-2 14.667 -3 32 -3 52v9c0 1.33301 0.333008 2 1 2c0 1.33301 -0.333008 2 -1 2c0 1.33301 0.333008 3.33301 1 6c-0.666992 28 -2.33398 42 -5.00098 42l2 13c-1.33301 34 -2 57.667 -2 71h2l-2 3c0 5.33301 0.666992 8 2 8
l-2 13v57c0 10 0.666992 23 2 39l-2 3c0 1.33301 0.666992 2 2 2l-2 13v11c0 1.33301 0.666992 2 2 2c-1.33301 2.66699 -2.66602 8.33398 -3.99902 17.001l2 4c-1.33301 6.66699 -2 12 -2 16v2c2.66699 18 4 28 4 30v22z" />
    <glyph glyph-name="I" unicode="I" horiz-adv-x="94" 
d="M19 678c0 -1.33301 0.334961 -2 1.00195 -2l-1 -22v-11c0 -41.333 -2 -76.333 -6 -105c0.666992 -4 1.16699 -8.16699 1.5 -12.5s0.5 -8.83301 0.5 -13.5v-2c0 -1.33301 -0.666992 -2 -2 -2l2 -4v-61l2 -11c0 -1.33301 -0.666992 -2 -2 -2l2 -13v-20
c0 -1.33301 -0.666992 -2 -2 -2l2 -4v-12c0 -1.33301 -0.666992 -2 -2 -2l2 -4v-20l2 -13h-2l2 -4c0 -1.33301 -0.666992 -2 -2 -2l2 -4v-11c0 -2 -0.166992 -4.33301 -0.5 -7s-0.833008 -5.66699 -1.5 -9c0 -1.33301 0.666992 -2 2 -2l-2 -9c0 -4 0.666992 -7.33301 2 -10
c-0.666992 -4 -1.16699 -7.66699 -1.5 -11s-0.5 -6.33301 -0.5 -9v-28c0 -2 0.666992 -4.33301 2 -7c-1.33301 -2.66699 -2 -5.33398 -2 -8.00098v-22c0 -2 0.666992 -4.33301 2 -7l-2 -4l1.5 -7.5c0.333008 -1.66699 0.5 -2.83398 0.5 -3.50098l-2 -7
c1.33301 -2.66699 2 -6 2 -10h-2l2 -3v-2l-4 -13c2.66699 -0.666992 4 -2 4 -4v-20c0 -1.33301 -0.666992 -2 -2 -2l2 -4v-2c0 -0.666992 -0.666992 -1 -2 -1l3 -23l-1 -3c0.666992 -20.667 1.66699 -32 3 -34c-1.33301 -2.66699 -2 -4.33398 -2 -5.00098
c0.666992 -11.333 1.16699 -20.166 1.5 -26.499s0.5 -10.5 0.5 -12.5l-2 -4c0.666992 -1.33301 -3 -0.666016 -11 2.00098v26c0 2.66699 -0.166992 5.66699 -0.5 9s-0.833008 7 -1.5 11c0 1.33301 0.666992 2 2 2c-2 20.667 -3 42.334 -3 65.001l1 11
c-0.666992 3.33301 -1 6.5 -1 9.5v9.5v18l-2 9h2l-2 4v2c0 3.33301 0.666992 5 2 5l-2 10v77c0 2.66699 0.666992 5.33398 2 8.00098c-1.33301 2.66699 -2 4.33398 -2 5.00098h2l-2 4v2c0 1.33301 0.666992 2 2 2l-2 3c0.666992 5.33301 1.16699 10 1.5 14
s0.5 7.33301 0.5 10l-2 6l2 4c-1.33301 21.333 -2.33301 38.166 -3 50.499s-1 20.166 -1 23.499c1.33301 7.33301 2.66602 11 3.99902 11c-3.33301 4 -5.33301 21.333 -6 52c0.666992 3.33301 1.16699 6.33301 1.5 9s0.5 5 0.5 7v93c0 1.33301 0.666992 2 2 2
c0 0.666992 -0.666992 1 -2 1l2 10c0 1.33301 -0.666992 2 -2 2l2 9v16c0 1.33301 0.666992 2 2 2c-1.33301 44 0.666992 66 6 66c5.33301 6.66699 7.66602 5.66699 6.99902 -3z" />
    <glyph glyph-name="J" unicode="J" horiz-adv-x="204" 
d="M94 687c0.666992 4.66699 3 6.33008 7 4.99707l4 -3c-4.66699 -15.333 -6.33398 -24.333 -5.00098 -27l-2 -4c1.33301 -2.66699 2 -5.33398 2 -8.00098l-2 -3l2 -4c-0.666992 -5.33301 -1.16699 -10.166 -1.5 -14.499s-0.5 -8.16602 -0.5 -11.499l2 -7h-2l2 -6
c0 -12.667 1.33301 -24.334 4 -35.001h-2c0 -1.33301 0.666992 -2 2 -2c0.666992 -11.333 1 -21.166 1 -29.499v-20.5v-31c0 -1.33301 -0.333008 -2 -1 -2l1 -4v-2c0 -3.33301 -0.333008 -5 -1 -5c1.33301 -16 2.33301 -25.333 3 -28l-2 -4
c2 -33.333 3.83301 -60.166 5.5 -80.499s3.16699 -34.166 4.5 -41.499l-2 -3l2 -6l-2 -9l2 -6h-2c0 -1.33301 0.666992 -2 2 -2c-1.33301 -9.33301 -2.66602 -14 -3.99902 -14l2 -4v-44c0 -2.66699 -0.666992 -5.33398 -2 -8.00098c0 -1.33301 0.666992 -2 2 -2
c-0.666992 -6 -1.16699 -11.167 -1.5 -15.5s-0.5 -8.16602 -0.5 -11.499v-28c0 -1.33301 -0.666992 -2 -2 -2c0 -1.33301 0.666992 -2 2 -2c-0.666992 -8.66699 -1.16699 -16 -1.5 -22s-0.5 -11 -0.5 -15v-26l2 -9h-2c0 -1.33301 0.666992 -2 2 -2
c0 -44 -7.33301 -72.333 -22 -85c-8.66699 -8.66699 -16.667 -13 -24 -13h-4c-23.333 0 -39.333 14.333 -48 43c-2.66699 3.33301 -4 6.33301 -4 9h2c-4.66699 8.66699 -7 19.667 -7 33h2c-2.66699 8 -4.66699 26.667 -6 56h9c3.33301 0 5.33301 -3.33301 6 -10
c0 -0.666992 -0.666992 -2.33398 -2 -5.00098c2.66699 -12.667 4 -23.667 4 -33h-2c6.66699 -52 19 -78 37 -78c0 -1.33301 2.33301 -2 7 -2c26 0 39 27.667 39 83l-2 30c1.33301 2.66699 2 5 2 7c0 1.33301 -0.666992 2 -2 2l2 13v15c0 2 -0.666992 4.33301 -2 7
c1.33301 2.66699 2 5.33398 2 8.00098v20c0 1.33301 0.666992 2 2 2l-2 4c0 0.666992 0.666992 1 2 1c0 1.33301 -0.666992 2 -2 2l2 13v17c0 1.33301 0.666992 2 2 2l-4 13l4 37c0 0.666992 -0.666992 1 -2 1l2 10v3c0 4 -0.666992 6 -2 6l2 6
c-0.666992 10.667 -1.16699 20 -1.5 28s-0.5 14.667 -0.5 20v3l-2 10h2l-2 3v10c0 3.33301 -0.166992 7.33301 -0.5 12s-0.833008 9.66699 -1.5 15l2 6c-1.33301 8 -2.33301 18.5 -3 31.5s-1 28.833 -1 47.5l-1 10h1l-1 3c0 1.33301 0.333008 2 1 2l-1 4v17
c0 6.66699 -2 38.667 -6 96h2l-2 3c0 20 2.33301 40.333 7 61z" />
    <glyph glyph-name="K" unicode="K" horiz-adv-x="213" 
d="M19 680c2 -4 3 -6.99121 3 -8.99121c-1.33301 -4 -2.33301 -6 -3 -6c0 -1.33301 0.333008 -2 1 -2c-0.666992 -10 -1.66699 -16 -3 -18c0 -1.33301 0.666992 -2 2 -2c-2 -10.667 -3.33301 -17.334 -4 -20.001l2 -11v-4c0 -2.66699 -1.33301 -4 -4 -4
c2.66699 -4.66699 4 -11.334 4 -20.001c0 -4 -0.666992 -8.33301 -2 -13l4 -43c-1.33301 -18.667 -2 -38.334 -2 -59.001v-18c0 -1.33301 -0.666992 -2 -2 -2l2 -4v-17c0 -1.33301 -1.33301 -8 -4 -20v-7c0 -8.66699 0.666992 -22.334 2 -41.001h2
c6.66699 12.667 11 19 13 19l-2 3c7.33301 16 26.333 74 57 174c12.667 30 25 69.667 37 119h8c3.33301 0 5 -2.66699 5 -8c-10 -41.333 -22.333 -78.333 -37 -111c0 -4.66699 -11.667 -42.334 -35 -113.001c-18.667 -66.667 -31.667 -100 -39 -100v-3
c17.333 -52 29.666 -96 36.999 -132l20 -77c0 -4 11.333 -40.667 34 -110c2 -8.66699 3 -15.334 3 -20.001l-3 -2c-1.33301 0 -2 0.666992 -2 2l-4 -2c-4 0 -9.33301 17.333 -16 52c-8.66699 15.333 -18.667 48.666 -30 99.999c-6 18 -11.667 40.333 -17 67l-26 87h-1
c0 -4 -0.666992 -8.33301 -2 -13c1.33301 -2.66699 2 -4.66699 2 -6h-2l2 -4v-14l1 -10h-1c0.666992 -2 1 -3.66699 1 -5l-1 -4c0 -1.33301 0.333008 -2 1 -2c0 -1.33301 -0.333008 -3 -1 -5c0.666992 -14 1 -26 1 -36v-7c0 -2.66699 0.666992 -5 2 -7
c-1.33301 -2.66699 -2 -5.33398 -2 -8.00098v-5c0 -2.66699 0.666992 -5.33398 2 -8.00098c0 -1.33301 -0.666992 -2 -2 -2l2 -11c-1.33301 -19.333 -2 -31 -2 -35l2 -16l-2 -12c0 -6 1.33301 -9 4 -9l-2 -9v-17l2 -9h-2l2 -4l-2 -11c0 -1.33301 0.666992 -2 2 -2l-2 -9v-29
c0 -2 -1.66699 -4 -5 -6h-4c-1.33301 0 -3.66602 2.33301 -6.99902 7c2 12 3 28.667 3 50v41c0 1.33301 0.666992 2 2 2c0 1.33301 -0.666992 2 -2 2l2 7l-2 13h2l-2 4v18c0 4 -0.666992 6 -2 6l2 7c-2 62 -3 104 -3 126c0 3.33301 -0.666992 8.33301 -2 15
c1.33301 2 2 3.66699 2 5l-4 50h2l-2 4c0 5.33301 -0.666992 24 -2 56c2.66699 24 4 41.667 4 53v9c0 1.33301 0.666992 2 2 2l-2 4v9c0 4 0.666992 6 2 6l-2 7c1.33301 30 2 46.667 2 50l-2 8c0 0.666992 0.666992 1 2 1c-2.66699 32 -4 55.667 -4 71h2
c0 1.33301 -0.666992 2 -2 2c1.33301 14.667 3 22 5 22l-1 3v4c0 17.333 4.33301 26 13 26z" />
    <glyph glyph-name="L" unicode="L" horiz-adv-x="171" 
d="M9 685c5.33301 -2 8.00098 -3.99902 8.00098 -5.99902v-9c0 -5.33301 0.666992 -10.333 2 -15c-2.66699 -13.333 -4 -34.333 -4 -63v-22c0 -2.66699 -0.666992 -5.33398 -2 -8.00098l2 -3l-2 -22l2 -4l-2 -4l2 -11c0 -1.33301 -0.666992 -2 -2 -2l2 -4v-16
c0 -2.66699 -0.666992 -5.33398 -2 -8.00098c0 -0.666992 0.666992 -1 2 -1c0 -1.33301 -0.666992 -3.33301 -2 -6l2 -13l-2 -22l4 -8c0 -2 -0.666992 -3 -2 -3l2 -19v-27c0 -7.33301 -0.666992 -16 -2 -26l2 -4c-1.33301 -2 -2 -4.33301 -2 -7
c1.33301 -2.66699 2 -4.66699 2 -6h-2c1.33301 -2 2.66602 -10 3.99902 -24l-2 -4c0 -1.33301 0.666992 -3 2 -5c-1.33301 -12.667 -2 -22.667 -2 -30v-5c0 -5.33301 0.666992 -12.333 2 -21l-4 -15c0 -0.666992 0.666992 -1 2 -1l-2 -10l4 -85h-2l2 -4v-3
c0 -1.33301 -0.666992 -2 -2 -2c0 -1.33301 0.666992 -2 2 -2l-2 -9l2 -17h-2c1.33301 -2 2 -3.66699 2 -5c0 -2.66699 -0.666992 -4 -2 -4l2 -13v-13c0 -2.66699 -0.666992 -5 -2 -7c1.33301 -2.66699 2 -5.33398 2 -8.00098v-2c0 -0.666992 -0.666992 -1 -2 -1l2 -4v-19
c0 -1.33301 -0.666992 -2 -2 -2l2 -3v-4c0 -1.33301 -0.666992 -2 -2 -2c1.33301 -2 2 -3.66699 2 -5h18l11 -2c1.33301 0 2 0.666992 2 2l13 -2h17l9 2v-2l29 5l4 -5v-4c0 -5.33301 -9.66699 -8.33301 -29 -9h-8c-1.33301 0 -2 0.666992 -2 2l-3 -2h-43
c-6 0 -15.333 -0.666992 -28 -2c-3.33301 7.33301 -5.66602 11 -6.99902 11c1.33301 14 2.66602 22 3.99902 24c-1.33301 2 -2 4.66699 -2 8h2c0 0.666992 -0.666992 1 -2 1c2 9.33301 3 15 3 17l-1 9l1 8c0 2 -1 7 -3 15c1.33301 4.66699 2 8.66699 2 12l-2 4
c0 1.33301 0.666992 2 2 2l-2 13v72c0 1.33301 0.666992 2 2 2l-2 4v22l-2 9h2c0 1.33301 -0.666992 2 -2 2l2 13v52c0 1.33301 0.666992 2 2 2c-1.33301 2 -2 3.66699 -2 5s0.666992 3.33301 2 6c0 1.33301 -0.666992 3 -2 5c0 2.66699 0.666992 5.33398 2 8.00098
c-2 20 -3.33301 31 -4 33l2 4c-1.33301 2 -2 3.66699 -2 5h2l-2 4l2 7c-1.33301 2.66699 -2 4.66699 -2 6h2l-2 4v3c0 1.33301 0.666992 2 2 2c0 1.33301 -0.666992 2 -2 2l2 9c0 1.33301 -0.666992 5 -2 11h2c0 1.33301 -0.666992 2 -2 2l2 13c0 2.66699 -0.666992 5 -2 7
c0 1.33301 0.666992 2 2 2l-2 19v24c0 2.66699 -0.666992 5 -2 7c1.33301 2 2 4.66699 2 8v9c0 5.33301 -0.666992 10.333 -2 15l2 9l-2 17c0 0.666992 0.666992 1 2 1l-2 10v3c-0 2 1.33301 9 4 21v57c0 8.66699 -0.666992 22.334 -2 41.001z" />
    <glyph glyph-name="M" unicode="M" horiz-adv-x="258" 
d="M7 682c5.33301 0 9.66699 -7.99902 13 -23.999c3.33301 -3.33301 11 -21.333 23 -54c16.667 -26.667 25 -44.334 25 -53.001v-6c5.33301 0 8 -3.66699 8 -11h4c11.333 10 32.666 53 63.999 129c3.33301 11.333 7 17.666 11 18.999h4c6 -5.33301 9 -11.666 9 -18.999
c-2 0 -3 -1 -3 -3v-8c0 -15.333 -2 -44.333 -6 -87c1.33301 -8 2 -14.667 2 -20h-2l2 -4c0 -1.33301 -0.666992 -2 -2 -2l4 -44c-1.33301 -4.66699 -2.66602 -7 -3.99902 -7c1.33301 -2.66699 2 -4.66699 2 -6c0 -4 -0.666992 -8.33301 -2 -13l2 -9
c-1.33301 -16.667 -2 -30.334 -2 -41.001c0 -1.33301 0.666992 -3 2 -5l-2 -4c1.33301 -8.66699 2 -16 2 -22l-2 -8c0 -0.666992 0.666992 -1 2 -1l-2 -10v-24c0 -1.33301 -0.666992 -2 -2 -2l2 -3v-6c0 -1.33301 -0.666992 -2 -2 -2c1.33301 -2 2 -3.66699 2 -5l-2 -4
c2.66699 -6 4 -10.333 4 -13c-1.33301 -6.66699 -2 -12.334 -2 -17.001l2 -7c0 -1.33301 -0.666992 -2 -2 -2l2 -9v-20c0 -3.33301 0.666992 -6 2 -8l-2 -4c1.33301 -45.333 3.33301 -77.333 6 -96h-2l2 -3v-39l1 -19h-1l1 -3v-13c0 -1.33301 -0.333008 -2 -1 -2l3 -8
c0 -1.33301 -0.666992 -3 -2 -5c2.66699 -24.667 4 -41.334 4 -50.001l-5 -4h-2c-5.33301 0 -8 8 -8 24h2c0 1.33301 -0.666992 2 -2 2l-3 100h1c-0.666992 2 -1 3.66699 -1 5c0 26.667 -1.33301 45.334 -4 56.001c1.33301 2.66699 2 4.66699 2 6
c0 0.666992 -0.666992 2.33398 -2 5.00098l2 7c-1.33301 22 -2.66602 33.333 -3.99902 34c1.33301 2 2 4.33301 2 7c0 3.33301 -0.666992 8.33301 -2 15l2 13c-1.33301 6.66699 -2 11.667 -2 15c0 1.33301 0.666992 2 2 2l-2 9v87c0 1.33301 0.666992 2 2 2l-2 3
c0 1.33301 0.666992 2 2 2l-2 4v7c0 4 0.666992 6 2 6l-2 9v39c0 2.66699 0.666992 5 2 7c-1.33301 2.66699 -2 5.33398 -2 8.00098h2l-2 3v8c0 1.33301 0.666992 2 2 2l-2 3l2 4c-1.33301 2 -2 4.33301 -2 7h2l-2 4v6c0 10 -0.666992 18 -2 24c1.33301 7.33301 2 16 2 26v5
c0 2.66699 0.666992 5.33398 2 8.00098l-2 3l2 10l-2 9c2.66699 14 4 28.667 4 44v2h-2c-10 -26 -20 -47 -30 -63c0 -13.333 -13 -36.666 -39 -69.999h-3c-4 4.66699 -12.667 22 -26 52c-23.333 50.667 -36.333 77.667 -39 81h-2l2 -4v-22c0 -1.33301 -0.666992 -2 -2 -2
c1.33301 -2 2 -3.66699 2 -5l2 -30l-2 -4l2 -3c0 -1.33301 -0.666992 -2 -2 -2l2 -9v-13c0 -1.33301 0.666992 -2 2 -2c-1.33301 -13.333 -2.66602 -20 -3.99902 -20c1.33301 -2.66699 2 -4.66699 2 -6l-2 -4c0 -1.33301 0.666992 -2 2 -2l-2 -13v-37
c0 -2.66699 0.666992 -5 2 -7l-2 -4c1.33301 -22.667 2.66602 -34.334 3.99902 -35.001c-1.33301 -10.667 -2 -19.334 -2 -26.001v-31c0 -1.33301 -0.666992 -2 -2 -2l2 -4v-5c0 -2.66699 -0.666992 -5.33398 -2 -8.00098c1.33301 -2 2 -4.33301 2 -7v-6l-2 -3l4 -2
c0 -1.33301 -0.666992 -3.33301 -2 -6c0.666992 -9.33301 2 -14 4 -14l-2 -10v-5l2 -11c0 -1.33301 -0.666992 -2 -2 -2l2 -13v-11c0 -1.33301 -0.666992 -2 -2 -2l3 -11l-1 -9c0 -8 1 -20 3 -36c0 -0.666992 -0.666992 -1 -2 -1l2 -10v-26c0 -2.66699 0.666992 -5 2 -7
c0 -1.33301 -0.666992 -2 -2 -2c4 -16 6 -39.333 6 -70h-2c2.66699 -5.33301 4 -9.66602 4 -12.999h-2l2 -4c0 -8 1 -31.333 3 -70l-3 -2h-2c-4.66699 0 -7.66699 8 -9 24l1 4c-1.33301 11.333 -2.33301 18.666 -3 21.999c0 1.33301 0.666992 2 2 2l-2 9v6
c-2.66699 73.333 -5.33398 119.333 -8.00098 138h2l-2 4v15c0 2.66699 -0.666992 5 -2 7c1.33301 2.66699 2 4.66699 2 6l-2 13h2l-3 18l1 4c-0.666992 2.66699 -1 4.66699 -1 6h1l-1 3v34l-2 12h2l-2 4v11c0 8.66699 -0.666992 13.667 -2 15
c1.33301 8.66699 2 15.334 2 20.001v49c0 2.66699 0.666992 5 2 7l-2 4c-1.33301 38 -2 62.667 -2 74c0 10 1.33301 24.667 4 44l-6 96h2l-2 4v4c0 4 0.666992 9.33301 2 16l-2 4c0.666992 8.66699 3 13 7 13z" />
    <glyph glyph-name="N" unicode="N" horiz-adv-x="241" 
d="M6 695h2.99902c10 -7.33301 20.333 -27 31 -59l122 -230h2l-2 9v34c0 4.66699 -0.666992 8 -2 10l2 11v27c0 0.666992 0.666992 1 2 1c-2.66699 5.33301 -4 12.333 -4 21v4c0 1.33301 0.666992 2 2 2l-3 23l1 7c-0.666992 10.667 -1 19 -1 25h1
c-0.666992 2 -1 3.66699 -1 5c0 3.33301 0.333008 6 1 8c-0.666992 6.66699 -1 12.334 -1 17.001v4c0 0.666992 0.333008 1 1 1c0 1.33301 -0.333008 2 -1 2l1 19v2c-2 21.333 -3 33.333 -3 36v8c0 1.33301 1.66699 3 5 5c2 0 6 -4.33301 12 -13l-2 -9
c0 -1.33301 0.666992 -3.33301 2 -6c0 -1.33301 -0.666992 -2 -2 -2l2 -9c-1.33301 -28.667 -2 -50.334 -2 -65.001l2 -9l-2 -4c1.33301 -2 2 -4.33301 2 -7c0 -1.33301 -0.666992 -2 -2 -2l2 -4c1.33301 -34.667 2 -63.667 2 -87v-4c0 -1.33301 -0.666992 -2 -2 -2l2 -3
v-14c0 -4.66699 0.333008 -9.66699 1 -15l-3 -22c0 -6 0.666992 -14.333 2 -25c-1.33301 -25.333 -2 -48 -2 -68c1.33301 -8.66699 2 -13.667 2 -15h-2l2 -4v-7c0 -1.33301 -0.666992 -2 -2 -2c0 -1.33301 0.666992 -2 2 -2l-2 -19v-15c0 -5.33301 0.666992 -10.333 2 -15
l-4 -36l2 -4l-2 -4l2 -11c0 -1.33301 -0.666992 -2 -2 -2l2 -4v-9c0 -1.33301 -0.666992 -2 -2 -2l2 -4v-19c0 -0.666992 -0.666992 -1 -2 -1l2 -4v-21c0 -2.66699 -0.666992 -5 -2 -7c1.33301 -2.66699 2 -5.33398 2 -8.00098v-4c0 -1.33301 -0.666992 -2 -2 -2
c0 -1.33301 0.666992 -2 2 -2c-2.66699 -24 -4 -45.333 -4 -64l-2 -4c0 -0.666992 0.666992 -1 2 -1c-0.666992 -16.667 -3.33398 -25 -8.00098 -25h-3c-4 0 -6 10 -6 30c2.66699 0 4 1.33301 4 4v21c0 1.33301 0.666992 2 2 2c0 1.33301 -0.666992 2 -2 2
c1.33301 12 3 21.333 5 28c-1.33301 4 -2.33301 6 -3 6l1 13v2l-1 13h1c0 1.33301 -0.333008 2 -1 2l1 9v57c0 1.33301 0.666992 2 2 2l-2 3v84c0 0.666992 0.666992 1 2 1l-2 4v2c0 1.33301 0.666992 2 2 2l-2 4v66c0 1.33301 0.666992 2 2 2l-2 4c1.33301 8 2 14.667 2 20
c-25.333 38 -58 96.667 -98 176c-17.333 25.333 -33.666 60 -48.999 104h-2v-21c0 -1.33301 -0.666992 -2 -2 -2l2 -4v-30c0 -1.33301 -0.666992 -2 -2 -2l2 -4v-9c0 -28.667 1.33301 -46.334 4 -53.001c0 -1.33301 -0.666992 -2 -2 -2l2 -9v-6
c0 -1.33301 -0.666992 -2 -2 -2l2 -4v-60c0 -1.33301 -0.666992 -2 -2 -2c2.66699 -7.33301 4 -23.666 4 -48.999v-23l2 -11l-2 -4l2 -11h-2c0 -1.33301 0.666992 -2 2 -2c-1.33301 -11.333 -2.66602 -17 -3.99902 -17l2 -4v-11c0 -5.33301 0.666992 -12.333 2 -21
c0 -1.33301 -0.666992 -2 -2 -2l2 -9v-6c0 -10 -0.666992 -22 -2 -36l2 -3l-2 -12v-2l2 -13h-2l2 -4v-11c0 -8.66699 0.666992 -22.667 2 -42h-2c0 -0.666992 0.666992 -1 2 -1c-2.66699 -9.33301 -4 -15.666 -4 -18.999l2 -27h-2l2 -3v-10
c0 -4.66699 -0.666992 -10.334 -2 -17.001c0 -1.33301 0.666992 -2 2 -2l-2 -13v-19c0 -6 -0.666992 -12.333 -2 -19c1.33301 -4.66699 2 -10.334 2 -17.001v-9c0 -2.66699 -1.33301 -4 -4 -4h-2c-2 0 -4.33301 6.33301 -7 19c1.33301 34.667 2 63.667 2 87v49
c0 1.33301 0.333008 2 1 2l-1 3v2c0 1.33301 0.333008 2 1 2l-1 4c0 1.33301 0.333008 2 1 2l-1 9v6c0 2.66699 0.333008 5.33398 1 8.00098c-0.666992 2 -1 3.66699 -1 5h1c0 1.33301 -0.333008 2 -1 2l1 19v2c0 10.667 -0.333008 22 -1 34
c0.666992 4.66699 1 9.66699 1 15l-1 9h1c-0.666992 2.66699 -1 4.66699 -1 6s0.333008 2 1 2l-1 9v16l-2 18h2l-2 4v12c0 0.666992 0.666992 1 2 1c0 1.33301 -0.666992 2 -2 2c0.666992 14 1.66699 21 3 21c-2 4 -3 7.66699 -3 11v63c0 2.66699 -0.666992 5 -2 7
c1.33301 2.66699 2 5.33398 2 8.00098v9l-2 10h2c0 1.33301 -0.666992 2 -2 2l2 9v23l-2 11l2 4c-1.33301 2 -2 3.66699 -2 5s0.666992 2 2 2c-4 24.667 -6 41.667 -6 51v12c0 2.66699 0.666992 5 2 7c-1.33301 2 -2 4.66699 -2 8l2 3l-2 4
c1.33301 5.33301 2 9.66602 2 12.999l-2 4c1.33301 2.66699 2 5.33398 2 8.00098s-0.666992 5 -2 7c0 1.33301 0.666992 2 2 2l-2 13v23c0 2 2 4 6 6z" />
    <glyph glyph-name="O" unicode="O" horiz-adv-x="241" 
d="M89 704c27.333 0 48.333 -51.668 63 -155.001h-2c2 -4.66699 4.33301 -27.667 7 -69h-2c0 -1.33301 0.666992 -2 2 -2c-1.33301 -12.667 -2.33301 -20.667 -3 -24l3 -7c0 -1.33301 -0.666992 -2 -2 -2l6 -29h-2l2 -4c0 -1.33301 -0.666992 -2 -2 -2l2 -9v-11l-2 -4
c2.66699 -0.666992 4 -2 4 -4c-1.33301 -6.66699 -2 -10.334 -2 -11.001l2 -7c-1.33301 -2.66699 -2 -4.66699 -2 -6c1.33301 -2 2 -3.66699 2 -5s-0.666992 -2 -2 -2l2 -13v-9c0 -1.33301 -0.666992 -2 -2 -2l2 -4c0 -1.33301 -0.666992 -2 -2 -2l2 -9v-6
c0 -0.666992 -0.666992 -1 -2 -1l2 -4v-2c0 -1.33301 -0.666992 -2 -2 -2l2 -4v-22l2 -11c-1.33301 -2 -2 -3.66699 -2 -5s0.666992 -2 2 -2l-2 -13v-22c0 -1.33301 -0.666992 -2 -2 -2l2 -4c0 -1.33301 -0.666992 -2 -2 -2c0 -1.33301 0.666992 -2 2 -2l-2 -9v-18
c0 -1.33301 -0.666992 -2 -2 -2l2 -4c0 -1.33301 -0.666992 -2 -2 -2c0 -1.33301 0.666992 -2 2 -2c-2 -26 -4 -39 -6 -39c0 -0.666992 0.666992 -1 2 -1l-2 -10v-11c0 -43.333 -14 -78.333 -42 -105c-16 -8.66699 -27.667 -13.667 -35 -15
c-25.333 0 -41.333 9.33301 -48 28c-9.33301 10 -17.333 41.333 -24 94c0 1.33301 0.333008 2 1 2l-1 9c-1.33301 30 -2 46.667 -2 50h2l-2 4l2 11c0 1.33301 -0.666992 2 -2 2c0 1.33301 0.666992 3 2 5l-4 56h2l-2 4v37c0 0.666992 0.666992 1 2 1l-2 4v28
c0 10 0.666992 21.667 2 35c0 1.33301 -0.666992 2 -2 2l2 9v6c0 4 -0.666992 9.33301 -2 16c1.33301 2.66699 2 4.66699 2 6c-1.33301 2 -2 4.33301 -2 7h2c0 1.33301 -0.666992 2 -2 2c0 1.33301 0.666992 3.33301 2 6c-2.66699 16 -4 32 -4 48v11
c0 1.33301 0.666992 2 2 2l-2 3v2c0 2.66699 0.666992 5.33398 2 8.00098l-2 3c8 84.667 16.667 137.334 26 158.001c17.333 36.667 38.333 55 63 55zM33 629.999l1.99707 -3.99609c-4 -13.333 -7 -20 -9 -20l2 -4c-5.33301 -32.667 -9 -50.334 -11 -53.001
c0 -1.33301 0.666992 -2 2 -2l-2 -9v-2l2 -4c-2.66699 0 -4.66699 -5.66699 -6 -17c0 -0.666992 0.666992 -1 2 -1l-2 -13v-32c0 -1.33301 -0.666992 -2 -2 -2l2 -3v-13l2 -13h-2l2 -4v-13c0 -4.66699 0.666992 -10.334 2 -17.001c-1.33301 -2 -2 -3.66699 -2 -5
c1.33301 0 2 -0.666992 2 -2l-4 -2l2 -4v-27c0 -1.33301 -0.666992 -2 -2 -2l2 -4v-13c0 -1.33301 -0.666992 -2 -2 -2l2 -3v-32c0 -1.33301 -0.666992 -2 -2 -2c0.666992 -4.66699 2 -7 4 -7l-2 -9v-2c0 -2.66699 0.666992 -5.33398 2 -8.00098l-2 -3
c1.33301 -6.66699 2 -12.334 2 -17.001v-2c0 -1.33301 -0.666992 -2 -2 -2c1.33301 -2.66699 2.66602 -8 3.99902 -16h-2c0 -1.33301 0.666992 -2 2 -2l-2 -7l2 -10h-2c0 -1.33301 0.666992 -2 2 -2l-2 -9c1.33301 -2 2 -3.66699 2 -5h-2l2 -4
c0 -2.66699 -0.666992 -5 -2 -7c0 -1.33301 0.666992 -2 2 -2l-2 -13c0 -35.333 3.66699 -73 11 -113l-2 -4c4.66699 -18.667 13.334 -36.334 26.001 -53.001l4 1c8.66699 -3.33301 16.667 -5 24 -5c20.667 8 34.667 19 42 33c17.333 34 26 97.667 26 191v11
c0 1.33301 0.666992 2 2 2c0 0.666992 -0.666992 1 -2 1l2 10v44c0 2.66699 0.666992 5.33398 2 8.00098c-1.33301 2 -2 3.66699 -2 5h2l-2 4v2c0 0.666992 0.666992 1 2 1l-2 4v22c0 21.333 -1.33301 38 -4 50h2c-1.33301 3.33301 -3.66602 27.333 -6.99902 72
c0.666992 2.66699 1 4.66699 1 6s-0.333008 2 -1 2l1 9v19c0 0.666992 0.666992 1 2 1l-2 4v2c0 13.333 -1.66699 26.333 -5 39h2c-10.667 66 -23 112.333 -37 139c-9.33301 0.666992 -15.666 1.66699 -18.999 3c-9.33301 0 -22.666 -12.333 -39.999 -37
c0 -6.66699 -3.33301 -14 -10 -22z" />
    <glyph glyph-name="P" unicode="P" horiz-adv-x="196" 
d="M17 705c1.33301 -2.66699 1.99805 -4.6709 1.99805 -6.00391c29.333 0 54 -18.333 74 -55c14.667 -34 26.334 -75.333 35.001 -124c0 -2.66699 -0.666992 -4 -2 -4l2 -18v-15c0 -34.667 -2 -63.667 -6 -87c0 -1.33301 0.666992 -2 2 -2
c0 -15.333 -7.33301 -40.666 -22 -75.999c-21.333 -30.667 -40.666 -46 -57.999 -46l-27 -11v-15c0 -1.33301 -0.666992 -2 -2 -2l2 -3v-23c0 -4 0.666992 -7 2 -9l-2 -11v-9c0 -4 0.666992 -7.33301 2 -10l-2 -11c0 -4 0.666992 -9.33301 2 -16l-2 -4
c0 -1.33301 0.666992 -2 2 -2c-1.33301 -12 -2 -21.333 -2 -28v-24c0 -2.66699 -0.666992 -5 -2 -7c1.33301 -2 2 -4.33301 2 -7v-2c0 -5.33301 -0.666992 -8 -2 -8l2 -13v-22l-2 -11l2 -4c-1.33301 -13.333 -3.33301 -20 -6 -20c0 2 -1.66699 4 -5 6l-4 -2
c0 4.66699 -0.666992 7 -2 7l2 9v6c0 14 0.666992 24 2 30c-1.33301 11.333 -2 23 -2 35v7c0.666992 24.667 2 37 4 37l-2 9v10c0 4.66699 0.666992 7 2 7l-2 13v131c0 1.33301 0.666992 2 2 2c-1.33301 2.66699 -2 4.66699 -2 6c0 3.33301 0.666992 5 2 5l-2 19v27
c0 1.33301 0.666992 2 2 2l-2 4v2c0 1.33301 0.666992 2 2 2l-2 3v4c0 2.66699 0.666992 5.33398 2 8.00098l-2 3l2 4c-1.33301 4.66699 -2 9 -2 13l2 4c-1.33301 2 -2 4.33301 -2 7v7c0 1.33301 0.666992 2 2 2l-2 4v46c0 12.667 0.666992 31.334 2 56.001h1l-1 3v61
c0 3.33301 -0.666992 6 -2 8c0 1.33301 0.666992 2 2 2c0 1.33301 -0.666992 7.33301 -2 18c1.33301 32 3 49.333 5 52l-2 4v9c0 1.33301 0.666992 2 2 2l-2 3c0.666992 2.66699 4 5.33398 10 8.00098zM19.998 684.996l-0.00195312 -2.00098
c0 -15.333 -1 -29.666 -3 -42.999l2 -4l-2 -3c1.33301 -2.66699 2 -4.66699 2 -6l-2 -4l2 -3c0 -1.33301 -0.666992 -2 -2 -2l2 -9v-39c0 -1.33301 -0.666992 -2 -2 -2l2 -4v-27c0 -1.33301 -0.666992 -2 -2 -2l2 -4v-7c0 -1.33301 -0.666992 -2 -2 -2l2 -4v-6
c0 -2.66699 -0.666992 -5 -2 -7c0 -1.33301 0.666992 -2 2 -2l-2 -9v-33c0 -5.33301 0.666992 -12.333 2 -21c-1.33301 -2 -2 -3.66699 -2 -5c1.33301 -8 2 -16 2 -24v-6c0 -1.33301 -0.666992 -2 -2 -2l2 -3v-13c0 -4.66699 -0.666992 -8 -2 -10l2 -11v-20
c0 -2.66699 -0.666992 -5 -2 -7c1.33301 -2.66699 2 -4.66699 2 -6h-2l2 -4v-5c0 -1.33301 -0.666992 -2 -2 -2l2 -4c0 -1.33301 -0.666992 -2 -2 -2l2 -3l-2 -11c0 -1.33301 0.666992 -2 2 -2l-2 -10v-12h2c32.667 10 49 18 49 24c12.667 6.66699 24 25 34 55
c4 18.667 6.33301 28 7 28c0 1.33301 -0.666992 2 -2 2l6 48c0 1.33301 -0.666992 2 -2 2c2.66699 14 4 33.667 4 59l-2 4c0 0.666992 0.666992 1 2 1c-2 18 -4.66699 33.667 -8 47h2c-3.33301 8 -7.66602 24.667 -12.999 50c-19.333 58 -42.666 87 -69.999 87h-6z" />
    <glyph glyph-name="Q" unicode="Q" horiz-adv-x="234" 
d="M87 682c37.333 0 61.334 -29.6631 72.001 -88.9961c1.33301 -10 2.66602 -16 3.99902 -18l-2 -4c1.33301 -6.66699 2 -11.667 2 -15l-2 -3c1.33301 -2.66699 2 -5.33398 2 -8.00098h-2c1.33301 -2 2 -3.66699 2 -5c-2.66699 -4 -4 -7.66699 -4 -11l2 -10h-2l4 -18l-2 -4
c1.33301 -16.667 2 -28.334 2 -35.001l-2 -7c1.33301 -2.66699 2 -4.66699 2 -6h-2c1.33301 -2 2 -3.66699 2 -5l-2 -4c1.33301 -2 2 -4.66699 2 -8h-2l2 -3v-32c0 -2.66699 0.666992 -5 2 -7c-1.33301 -2 -2 -4.33301 -2 -7v-28c0 -2.66699 0.666992 -5.33398 2 -8.00098
c-1.33301 -2 -2 -4.33301 -2 -7v-4c0 -2.66699 0.666992 -5 2 -7l-2 -4l2 -4c-1.33301 -2 -2 -4.33301 -2 -7l2 -4c0 -0.666992 -0.666992 -1 -2 -1l2 -13v-8c0 -1.33301 -0.666992 -2 -2 -2c0 -1.33301 0.666992 -2 2 -2l-2 -12c0 -30 -1.33301 -58.667 -4 -86
c0 -0.666992 0.666992 -1 2 -1c-2.66699 -22.667 -4.66699 -34 -6 -34l2 -9v-6c0 -4.66699 -0.666992 -11.334 -2 -20.001c0 -1.33301 0.666992 -2 2 -2c-1.33301 -26 -3 -40 -5 -42l2 -4c-6.66699 -24.667 -13.667 -39.334 -21 -44.001
c8.66699 -31.333 14.334 -50 17.001 -56c-1.33301 -2 -2 -3.66699 -2 -5c4 0 9 -13.667 15 -41l-4 -2h-5c-10 12.667 -15 24.334 -15 35.001c-2 1.33301 -7.66699 20 -17 56h-2c0 -2.66699 -6 -6.33398 -18 -11.001v-2l-4 2h-9c-24 0 -44.333 11.667 -61 35
c-12.667 39.333 -21.334 86 -26.001 140c0 1.33301 0.666992 2 2 2c-1.33301 6.66699 -2 11.667 -2 15c0 6.66699 0.666992 17 2 31c-1.33301 2.66699 -2 4.66699 -2 6c1.33301 2 2 4.33301 2 7l-2 8c1.33301 2 2 3.66699 2 5c-1.33301 2.66699 -2 4.66699 -2 6
s0.666992 2 2 2l-2 13v20c0 1.33301 0.666992 2 2 2l-2 4v16c0 2.66699 -0.666992 5.33398 -2 8.00098l2 3c-1.33301 12.667 -2 22 -2 28h2l-2 4v7c0 1.33301 0.666992 2 2 2c-1.33301 2.66699 -2 4.66699 -2 6l2 13l-2 3l2 4c0 1.33301 -0.666992 2 -2 2
c1.33301 33.333 3.33301 61 6 83c0 1.33301 -0.666992 2 -2 2c7.33301 83.333 19 141.333 35 174c11.333 20.667 27.333 31 48 31zM80.001 669.004l-20.998 -11.001c-11.333 -18 -22.333 -49.333 -33 -94l2 -4l-2 -4c0 -0.666992 0.666992 -1 2 -1
c-5.33301 -35.333 -9 -58.333 -11 -69l2 -4v-1c0 -1.33301 -0.666992 -2 -2 -2c0 -1.33301 0.666992 -2 2 -2c-2.66699 -17.333 -4.66699 -50 -6 -98c1.33301 -2.66699 2 -4.66699 2 -6h-2l2 -3v-43c0 -10 0.666992 -21.667 2 -35c-1.33301 -2.66699 -2 -4.66699 -2 -6
l2 -11l-2 -3l2 -4c-1.33301 -8.66699 -2 -16 -2 -22l2 -4c-1.33301 -2 -2 -4.33301 -2 -7v-2c0 -5.33301 0.666992 -8 2 -8l-2 -13v-18l2 -22h-2l7 -48h-2c12 -59.333 19.667 -89 23 -89c18.667 -14.667 34 -22 46 -22c9.33301 0.666992 18.666 3.66699 27.999 9
c-11.333 23.333 -21.333 49 -30 77c-4.66699 18 -7 28.667 -7 32v9c0 2 1.66699 4 5 6c5.33301 -2 8 -4 8 -6v-2c0 -1.33301 -0.666992 -2 -2 -2c12 -41.333 23.667 -75 35 -101c12 16 18 37 18 63h2l-2 3v6c0 1.33301 0.666992 2 2 2c0 1.33301 -0.666992 2 -2 2l2 9v11
c0 22 1.33301 40.333 4 55c-1.33301 2.66699 -2 4.66699 -2 6l4 2l-2 4c0 0.666992 0.666992 1 2 1c-1.33301 2.66699 -2 4.66699 -2 6c0 21.333 1.33301 38.666 4 51.999c-1.33301 2 -2 4.33301 -2 7v8c0 0.666992 0.666992 1 2 1l-2 4l2 4c-1.33301 2 -2 3.66699 -2 5
c1.33301 4.66699 2 7.33398 2 8.00098l-2 7c0 2.66699 0.666992 4 2 4c-1.33301 12 -2 21.333 -2 28v37c0 0.666992 0.666992 1 2 1l-2 4v13c0 12 -0.666992 26.667 -2 44l2 4c-1.33301 6.66699 -2 12.334 -2 17.001v7c0 8 0.666992 16 2 24
c-1.33301 4.66699 -2 9.66699 -2 15h2c0 1.33301 -0.666992 2 -2 2l4 31c-2.66699 0 -4 1.33301 -4 4v37c0 20 -7.33301 45.333 -22 76c-8.66699 13.333 -22.334 20 -41.001 20c-2.66699 -1.33301 -4.66699 -2 -6 -2c0 1.33301 -0.333008 2 -1 2z" />
    <glyph glyph-name="R" unicode="R" 
d="M24 688c28.667 -4.66699 47.666 -12.6689 56.999 -24.002c27.333 -32 41 -63.333 41 -94c2.66699 0 5.66699 -16.667 9 -50h-1l3 -8c-1.33301 -2 -2 -4.33301 -2 -7c1.33301 0 2 -0.666992 2 -2l-3 -2c0.666992 -2.66699 1.66699 -9.33398 3 -20.001
c0 -1.33301 -0.666992 -2 -2 -2l2 -9c0 -21.333 -1 -32 -3 -32c0 -0.666992 0.333008 -1 1 -1c0 -4.66699 -2.33301 -14 -7 -28c1.33301 -2.66699 2 -4.66699 2 -6c-2.66699 -1.33301 -9 -16.666 -19 -45.999c-2.66699 -0.666992 -10 -10.667 -22 -30
c-19.333 -14.667 -31.666 -22 -36.999 -22v-2c6.66699 -12.667 16 -35.334 28 -68.001c4 0 17 -34 39 -102c5.33301 -8 20 -41.333 44 -100c-1.33301 0 -2 -0.666992 -2 -2c2 0 6.33301 -8 13 -24c-2 -4.66699 -3.66699 -7 -5 -7c-7.33301 4 -11 7.66699 -11 11
c-8 20 -26.667 64.333 -56 133c-22 63.333 -43 115.333 -63 156l-18 -2c0 -5.33301 -0.666992 -8 -2 -8l2 -3l-2 -4c1.33301 -2.66699 2 -4.33398 2 -5.00098c0 -1.33301 -0.666992 -3.33301 -2 -6l2 -7c-1.33301 -12.667 -2 -22 -2 -28c0 -2.66699 0.666992 -4 2 -4l-2 -9
v-41c0 -2.66699 -0.666992 -5 -2 -7c1.33301 -2 2 -4.66699 2 -8v-13c0 -0.666992 -0.666992 -1 -2 -1c2.66699 -4.66699 4 -8.66699 4 -12v-49l2 -19h-2c2 -4 3 -7.66699 3 -11v-4l-1 -3c3.33301 0 5 -16.333 5 -49l-7 -5c0 2.66699 -2.66699 4 -8 4v3
c0 4.66699 -0.666992 10.334 -2 17.001c0 1.33301 0.666992 2 2 2c-2 20 -3 40.333 -3 61l1 4c-2 5.33301 -3 15 -3 29v61c0 2.66699 -0.666992 5.33398 -2 8.00098c0 0.666992 0.666992 1 2 1c0 1.33301 -0.666992 3.33301 -2 6c1.33301 16 2 29 2 39v9
c0 1.33301 0.666992 2 2 2l-2 4v11c0 1.33301 0.666992 2 2 2c-2.66699 4.66699 -4 8.33398 -4 11.001c1.33301 12.667 2 22.334 2 29.001c-2.66699 0 -4 1.33301 -4 4c4 4.66699 6 14.667 6 30c0 0.666992 -0.666992 4.33398 -2 11.001l3 2c0 0.666992 -0.333008 1 -1 1
l1 19v18c0 1.33301 0.666992 2 2 2l-2 4l2 30c0 0.666992 -0.666992 1 -2 1l2 10v37c0.666992 8.66699 2 13 4 13l-2 3v24c0 1.33301 0.666992 2 2 2l-2 4v11c0 1.33301 0.666992 2 2 2l-2 4l2 12l-2 10c0 1.33301 0.666992 2 2 2
c-1.33301 13.333 -2.66602 21.666 -3.99902 24.999l2 4l-2 9h2l-2 4v2c0 2.66699 0.666992 5 2 7c-1.33301 2.66699 -2 4.66699 -2 6l2 4l-2 3l2 11c0 3.33301 -0.666992 6 -2 8c1.33301 4.66699 2.66602 7 3.99902 7l-4 19c1.33301 12 6.33301 18 15 18zM25.999 672.998
l-2.00195 -9v-41c0 -2.66699 0.666992 -5 2 -7c-1.33301 -2 -2 -4.33301 -2 -7v-6c0 -2.66699 0.666992 -5 2 -7l-2 -4l2 -9l-2 -4l2 -11c0 -1.33301 -0.666992 -2 -2 -2l2 -4v-9c0 -1.33301 -0.666992 -2 -2 -2l4 -16c-1.33301 -12.667 -2.66602 -19 -3.99902 -19
c1.33301 -2 2 -3.66699 2 -5l-2 -4l2 -4l-2 -7c0 -1.33301 0.666992 -2 2 -2c-1.33301 -13.333 -2.66602 -20 -3.99902 -20l2 -4c0 -1.33301 -0.666992 -2 -2 -2l2 -4v-3c0 -1.33301 -0.666992 -2 -2 -2l2 -4c0 -1.33301 -0.666992 -2 -2 -2c0 -1.33301 0.666992 -2 2 -2
l-4 -51l2 -4c-1.33301 -4 -2.33301 -6 -3 -6c0.666992 -3.33301 1.66699 -5 3 -5c-2 -28.667 -3.66699 -43 -5 -43c0 -1.33301 0.666992 -2 2 -2l-2 -18v-7c1.33301 0 3 -0.666992 5 -2c32 8.66699 53.667 22.667 65 42c20 38 30 68.333 30 91h1l-1 4l1 3
c0 1.33301 -0.333008 2 -1 2l1 13v15c0 1.33301 0.666992 2 2 2l-2 3c0 78 -15.333 134.333 -46 169c-16 10.667 -31.333 16 -46 16z" />
    <glyph glyph-name="S" unicode="S" horiz-adv-x="210" 
d="M63 678l9.00293 -0.000976562c20.667 -6.66699 36 -17.667 46 -33l10 -20c-1.33301 -15.333 -3.33301 -23 -6 -23c-5.33301 0 -9.66602 10.667 -12.999 32c-13.333 19.333 -28 29 -44 29c0 1.33301 -1.33301 2 -4 2c-18.667 -2.66699 -28 -17.334 -28 -44.001v-20
c0 -3.33301 -0.666992 -6 -2 -8c1.33301 -1.33301 2.66602 -9.33301 3.99902 -24h-2c1.33301 -2 2.66602 -7.66699 3.99902 -17h-2c4 -14.667 7.66699 -33.667 11 -57c4.66699 -12 8 -26 10 -42h-2c3.33301 -7.33301 9.33301 -31 18 -71l21 -77h-2
c4.66699 -14.667 13.334 -53 26.001 -115h-2c3.33301 -5.33301 7.66602 -25.666 12.999 -60.999h-2c3.33301 -15.333 5.66602 -32 6.99902 -50c0 -42 -11.667 -69.333 -35 -82c-4.66699 -3.33301 -13.334 -5.66602 -26.001 -6.99902c-16 0 -33.667 10 -53 30
c-6.66699 10 -13 33.333 -19 70h2l-2 4v5c0 16.667 3 26.667 9 30c2 0 4 -2 6 -6v-3c0 -8.66699 -1.33301 -13 -4 -13c2.66699 -19.333 4.66699 -30.666 6 -33.999l-2 -3c7.33301 -28 18.333 -47.333 33 -58c10.667 -4.66699 18 -7 22 -7l10 2v-2c10 0 21.667 12.333 35 37
c2 11.333 3 20.666 3 27.999v1c-2 36 -5 61.333 -9 76l2 4c-24.667 116.667 -45.667 206 -63 268c-12 48.667 -21.667 100.667 -29 156l1 18l-1 26c0 39.333 14.667 59 44 59z" />
    <glyph glyph-name="T" unicode="T" horiz-adv-x="241" 
d="M-14 690l0.999023 -0.00195312l12 -2l3 2c12.667 -1.33301 19 -2.33301 19 -3c1.33301 0 2 0.333008 2 1c14.667 -2 22 -3.66699 22 -5l3 2h2c1.33301 0 2 -0.666992 2 -2l4 2h5c1.33301 0 2 -0.666992 2 -2c5.33301 2.66699 9 4 11 4c2.66699 -1.33301 4.66699 -2 6 -2
l4 2l9 -2c0.666992 0 3 0.666992 7 2c1.33301 0 2 -0.666992 2 -2l9 2h15c2.66699 0 5.33398 -0.666992 8.00098 -2c2 1.33301 4.33301 2 7 2s5 -0.666992 7 -2l4 2c11.333 -3.33301 17 -6.66602 17 -9.99902c-3.33301 -6 -9 -9 -17 -9c0 2.66699 -1.33301 4 -4 4
c-3.33301 0 -5 -0.666992 -5 -2l-9 2h-41l-9 -2c0 1.33301 -0.666992 2 -2 2c-2.66699 -6.66699 -4 -21 -4 -43v-15c4 -4.66699 6 -12 6 -22h-2c1.33301 -8.66699 2.33301 -13 3 -13l-1 -9c0 -5.33301 0.333008 -12 1 -20l-1 -4l1 -11v-11c0 -1.33301 -0.333008 -2 -1 -2
c2 -2.66699 3.66699 -15 5 -37c-1.33301 -2.66699 -2 -4.66699 -2 -6c1.33301 -2 2 -4.33301 2 -7h-2l2 -4v-2c0 -0.666992 -0.666992 -1 -2 -1l2 -4c0 -1.33301 -0.666992 -2 -2 -2l2 -4c0 -1.33301 -0.666992 -2 -2 -2l2 -3c0 -1.33301 -0.666992 -2 -2 -2l2 -4
c0 -1.33301 -0.666992 -2 -2 -2c0 -0.666992 0.666992 -1 2 -1l-2 -13v-2l2 -19h-2l2 -3c-3.33301 -34 -5 -57.667 -5 -71v-13l1 -22h-1c0 -1.33301 0.333008 -2 1 -2c-0.666992 -10.667 -1 -16.667 -1 -18c0.666992 -72.667 1 -118.334 1 -137.001l2 -4l-2 -4
c0 -1.33301 0.666992 -3 2 -5l-2 -9c1.33301 -7.33301 2 -12.333 2 -15h-2l2 -4c0 -1.33301 -0.666992 -2 -2 -2c0 -1.33301 0.666992 -2 2 -2l-3 -74c0.666992 -3.33301 1 -10.666 1 -21.999h-6c-3.33301 0 -5 3 -5 9c0 2.66699 -0.333008 4 -1 4l1 13v24l-1 13h1l-1 4v15
c0 0.666992 0.333008 1 1 1c0 1.33301 -0.333008 2 -1 2l1 10c0 3.33301 -0.333008 5 -1 5l1 9v24c0 20 -1 33 -3 39l2 4l-2 11v2c0 1.33301 0.666992 2 2 2l-2 3v45l2 11c-2.66699 4.66699 -4 9 -4 13h2c0 1.33301 -0.666992 2 -2 2c1.33301 64.667 3 118.334 5 161.001v24
c0 1.33301 0.666992 2 2 2l-2 3v35l-1 10h1l-1 3v10c0 2.66699 0.333008 5 1 7c0 1.33301 -0.333008 2 -1 2c0 1.33301 0.333008 3 1 5c0 3.33301 -1 12 -3 26h2l-4 15l2 9c-2.66699 30 -4.66699 61.667 -6 95c-2 0 -9.33301 -0.666992 -22 -2c-27.333 2 -41 3.66699 -41 5
l-3 -1c-12.667 2 -19 4.33301 -19 7v4c0 1.33301 2 3 6 5z" />
    <glyph glyph-name="U" unicode="U" horiz-adv-x="251" 
d="M13 695l2.00098 0.000976562l5 -6c-1.33301 -34 -3 -52.333 -5 -55l2 -4c0 -1.33301 -0.666992 -2 -2 -2l4 -42c-1.33301 -44 -2 -83.667 -2 -119v-2c0 -0.666992 -0.666992 -1 -2 -1c0 -1.33301 0.666992 -2 2 -2c-1.33301 -6.66699 -2 -10.334 -2 -11.001
c1.33301 -11.333 2 -18.333 2 -21h-2c1.33301 -7.33301 2.66602 -11 3.99902 -11l-2 -7c1.33301 -20 2 -31.667 2 -35l-2 -17c0 -1.33301 0.666992 -2 2 -2l-2 -9v-15c0 -1.33301 -0.666992 -2 -2 -2c1.33301 -2 2 -3.66699 2 -5c0 -8.66699 1.66699 -40.334 5 -95.001
l-2 -11c2.66699 0 4.66699 -4.33301 6 -13c0 -1.33301 -0.666992 -2 -2 -2l6 -31h-2c2 -4.66699 3 -11.334 3 -20.001h-1l1 -4c0 -1.33301 -0.333008 -2 -1 -2l1 -4l-1 -7c0.666992 -10 1.66699 -16 3 -18l-2 -4l2 -11v-4c0 -1.33301 -0.666992 -2 -2 -2
c2 -6.66699 4.66699 -26.334 8 -59.001c10.667 -23.333 24.667 -35 42 -35c6.66699 -1.33301 14.334 -2 23.001 -2c32 11.333 48 32.333 48 63c2 0 3.66699 8.66699 5 26h2l-2 3c2.66699 12.667 4 25 4 37v4c0 1.33301 0.666992 2 2 2l-2 4c0 1.33301 0.666992 2 2 2
c-1.33301 2 -2 3.66699 -2 5l2 4c0 1.33301 -0.666992 2 -2 2l2 9v20c0 2.66699 -0.666992 5.33398 -2 8.00098c1.33301 2 2 4.33301 2 7v24c0 2.66699 -0.666992 5.33398 -2 8.00098c0.666992 4.66699 2 12.667 4 24c0 0.666992 -0.666992 1 -2 1c0.666992 10 2 15 4 15
c-1.33301 2.66699 -2 4.66699 -2 6l2 3l-2 4l2 8c0 0.666992 -0.666992 1 -2 1l2 13v28c0 2.66699 -0.666992 5.33398 -2 8.00098c1.33301 2 2 4.33301 2 7v2c0 3.33301 -0.666992 5 -2 5l2 10v31l-2 9h2l-2 4l2 4l-4 20c1.33301 2.66699 2 4.66699 2 6
c-2.66699 0 -4 1 -4 3v4c0 1.33301 0.666992 2 2 2c-1.33301 2.66699 -3.33301 19.334 -6 50.001c0 1.33301 0.666992 2 2 2l-2 9v5l2 4c-2.66699 0 -4 1.33301 -4 4v9c0 1.33301 0.666992 2 2 2c-2 18 -3.66699 28.333 -5 31c1.33301 2.66699 2 4.66699 2 6
c-1.33301 14.667 -3.33301 22 -6 22l2 9c0 3.33301 -0.666992 8.33301 -2 15l4 32c0 0.666992 -0.666992 1 -2 1l2 10v18c0.666992 7.33301 2.33398 11 5.00098 11h4c4 0 6 -2.33301 6 -7c-1.33301 -13.333 -2.66602 -20 -3.99902 -20c0 -1.33301 0.666992 -2 2 -2l-4 -35
c1.33301 -10.667 2.66602 -28.667 3.99902 -54c0 -1.33301 -0.666992 -2 -2 -2l4 -37c-1.33301 -2.66699 -2 -4.33398 -2 -5.00098c2 -13.333 5.66699 -51 11 -113v-39c0 -1.33301 -0.666992 -2 -2 -2l2 -4v-15c0 -2.66699 0.666992 -5 2 -7l-4 -15l4 -16
c0 -1.33301 -0.666992 -2 -2 -2c0 -1.33301 0.666992 -3.33301 2 -6l-4 -48c0 -1.33301 0.666992 -2 2 -2l-2 -9v-55c0 -3.33301 -0.666992 -6 -2 -8c1.33301 -2 2 -4.33301 2 -7v-13c0 -1.33301 -0.666992 -2 -2 -2l2 -4c-0.666992 -18.667 -2 -28 -4 -28l2 -3l-2 -8l2 -3
c-10.667 -74 -21.667 -111 -33 -111c-6.66699 -8 -18 -13.667 -34 -17v2l-3 -2h-11c-36 5.33301 -54 15.333 -54 30c-8.66699 2.66699 -14.334 29 -17.001 79c0 1.33301 0.666992 2 2 2c-2 50.667 -7 97 -15 139c0 1.33301 0.666992 2 2 2l-5 55h2l-2 4v18
c0 6 0.666992 12.333 2 19c-1.33301 4.66699 -2 10 -2 16v10c0 1.33301 0.666992 2 2 2l-2 3v8c0 1.33301 0.666992 2 2 2l-2 3v4c0 1.33301 0.666992 2 2 2l-2 3c0 1.33301 0.666992 2 2 2c-2 4 -4 10.333 -6 19l2 9v20c0 3.33301 -0.666992 6 -2 8
c0 1.33301 0.666992 2 2 2l-2 9v2c0 2.66699 0.666992 5 2 7c0 1.33301 -0.666992 2 -2 2l2 13v22c0 1.33301 0.666992 2 2 2l-2 4c0 1.33301 0.666992 2 2 2c0 0.666992 -0.666992 1 -2 1c1.33301 17.333 2.66602 28 3.99902 32c0 1.33301 -0.666992 2 -2 2l2 9v2l-2 11
l2 4l-2 3c0 1.33301 0.666992 2 2 2l-4 43c2.66699 16.667 4 27 4 31c0 1.33301 -0.666992 2 -2 2l2 9v22c0 2 2.33301 4.66699 7 8zM181.001 269.001h6v-1c0 -2.66699 -1.33301 -4 -4 -4l-2 4v1z" />
    <glyph glyph-name="V" unicode="V" horiz-adv-x="265" 
d="M186 688l8.00293 -6.00293c0 -32 -12.333 -115.333 -37 -250c-4 -26 -7.33301 -43.333 -10 -52c0 -1.33301 0.666992 -2 2 -2c-10 -54 -17 -113.667 -21 -179c-2 -6.66699 -4.66699 -22.667 -8 -48v-8c0 -1.33301 -0.666992 -2 -2 -2l2 -4
c-2.66699 -8.66699 -4.66699 -13 -6 -13c0 -1.33301 0.666992 -2 2 -2c-2.66699 -16.667 -4.33398 -25 -5.00098 -25l1 -4c-4 -29.333 -6.33301 -44.333 -7 -45c0 -1.33301 0.666992 -2 2 -2c0 -12 -3.33301 -21.667 -10 -29l2 -4c0 -10 -4 -17.667 -12 -23
c-11.333 8 -17 19 -17 33c0 16.667 -2 41.334 -6 74.001h2c-2 4.66699 -4 13.667 -6 27h2c-1.33301 2.66699 -2 4.66699 -2 6c0 11.333 -2 34.333 -6 69c1.33301 2.66699 2 5.33398 2 8.00098c-10 60 -17.667 122 -23 186c2.66699 0 4 1.33301 4 4
c-2.66699 0 -4 1.33301 -4 4v14l-2 13h2l-2 4v8c0 1.33301 0.666992 2 2 2c-1.33301 4.66699 -3.33301 20 -6 46h2l-2 4v4c0 8.66699 -9 67 -27 175v7c0.666992 2.66699 2 4 4 4h4c2.66699 0 5.66699 -14 9 -42h-1c3.33301 -5.33301 9.66602 -43.666 18.999 -114.999v-4
c2.66699 -2.66699 4 -5 4 -7c4 -89.333 7 -138.666 9 -147.999h-1c0.666992 -2.66699 1 -4.66699 1 -6c0 -18 3.33301 -47.667 10 -89h-2c1.33301 -2 2.66602 -7.66699 3.99902 -17c-1.33301 -2.66699 -2 -4.66699 -2 -6c2.66699 -0.666992 4 -2 4 -4v-4
c0 -4 -0.666992 -7.33301 -2 -10c4 -17.333 7.33301 -40.333 10 -69l-2 -4c2.66699 -11.333 4 -18 4 -20l-2 -4c2 -8 4.66699 -23.333 8 -46l-2 -4c2 -12 4.33301 -33.333 7 -64c4.66699 0 9.33398 20.667 14.001 62c4 13.333 10.333 53.333 19 120
c5.33301 63.333 10.666 106.666 15.999 129.999l-2 8c2 5.33301 4 13.666 6 24.999c0 1.33301 -0.666992 2 -2 2c0 8.66699 10.333 68.667 31 180c0 22 2.66699 36.333 8 43l-2 4c4.66699 37.333 7.66699 56 9 56l-2 4c0 2.66699 0.666992 5.33398 2 8.00098
c0 1.33301 -0.666992 2 -2 2c1.33301 16.667 4 25 8 25z" />
    <glyph glyph-name="W" unicode="W" horiz-adv-x="293" 
d="M4 673l2 -0.000976562c3.33301 0 7 -12.333 11 -37l-2 -3c1.33301 -2.66699 2 -5.33398 2 -8.00098c0 -1.33301 -0.666992 -2 -2 -2l2 -3c0 -2.66699 -0.666992 -4 -2 -4c1.33301 -18.667 3 -36.667 5 -54h-1l1 -3c1.33301 -31.333 2.66602 -50 3.99902 -56h-2l2 -3v-2
c0 -14 1.33301 -25.667 4 -35h-2c1.33301 -2.66699 2.66602 -8.33398 3.99902 -17.001h-2c2 -4 3.66699 -14 5 -30h-2l2 -3v-6c0 -2.66699 -0.666992 -5 -2 -7c2.66699 -6 4 -14 4 -24v-6c0 -31.333 1.33301 -56.666 4 -75.999h-2l2 -4v-5c0 -8 1.33301 -16.667 4 -26h-2
c0 -1.33301 0.666992 -2 2 -2l3 -129h-2l4 -8c0 -2 -0.666992 -3 -2 -3c2 -24 4 -36 6 -36c0 -0.666992 -0.666992 -1 -2 -1l2 -10c0 -2.66699 -0.666992 -5 -2 -7c4 -6.66699 6 -14 6 -22c-1.33301 0 -2 -0.666992 -2 -2h3c8.66699 32.667 15.667 60.334 21 83.001l-2 4
c18.667 73.333 28 124.333 28 153l9 8h2l5 -4l-2 -7c17.333 -84 37.333 -155 60 -213h3c0 1.33301 -0.666992 2 -2 2l2 11c-1.33301 24.667 -2 46.334 -2 65.001v3c0 1.33301 0.666992 2 2 2c-1.33301 2.66699 -2 4.66699 -2 6l2 7c-1.33301 2.66699 -2 4.66699 -2 6l2 3
l-2 8c1.33301 17.333 2.66602 27 3.99902 29c0 1.33301 -0.666992 2 -2 2l2 9v2l-2 19h2c0 1.33301 -0.666992 2 -2 2c1.33301 53.333 3.33301 92.666 6 117.999l-2 4c2.66699 27.333 4 50.666 4 69.999h2l-2 4c0 1.33301 0.666992 2 2 2l-2 3c0 1.33301 0.666992 2 2 2
l-2 4c4.66699 44.667 7.66699 82.334 9 113.001h2c0 1.33301 -0.666992 2 -2 2l2 9v22c0 1.33301 0.666992 2 2 2c0 1.33301 -0.666992 2 -2 2l2 9v28c0 4 1 12.667 3 26c-0.666992 2 -1 3.66699 -1 5c4 2.66699 7.66699 4 11 4l1 -4v-4l-1 -11
c0 -0.666992 0.333008 -1 1 -1c-2 -10.667 -4.33301 -42.334 -7 -95.001h-2l2 -4c0 -0.666992 -0.666992 -1 -2 -1c0 -1.33301 0.666992 -2 2 -2l-4 -24l2 -4c-1.33301 -11.333 -2.33301 -18.666 -3 -21.999c0 -1.33301 0.333008 -2 1 -2c-3.33301 -14 -5 -33.667 -5 -59v-8
c0 -0.666992 -0.666992 -1 -2 -1c1.33301 -2.66699 2 -4.66699 2 -6c-2.66699 -34.667 -4 -55.667 -4 -63h-2c0 -1.33301 0.666992 -2 2 -2c-1.33301 -26 -2.66602 -44.333 -3.99902 -55c1.33301 -2.66699 2 -4.66699 2 -6c-1.33301 -2 -2 -3.66699 -2 -5l2 -4
c-1.33301 -2.66699 -2 -4.66699 -2 -6c0 -3.33301 0.666992 -5 2 -5l-2 -22v-30c0 -2.66699 0.666992 -5 2 -7c-1.33301 -2.66699 -2 -5.33398 -2 -8.00098c0 -2 0.666992 -3 2 -3c-1.33301 -15.333 -2.33301 -23 -3 -23c0 -1.33301 0.333008 -2 1 -2l-1 -7
c0.666992 -74 1 -116 1 -126l-1 -3c0.666992 0 1.66699 -12 3 -36l-7 -5c-4 0 -10.667 20.333 -20 61c-6.66699 12.667 -18.667 47.334 -36 104.001c-0.666992 0 -1 0.333008 -1 1v2c0 1.33301 0.333008 2 1 2c-8.66699 26.667 -14 45.667 -16 57
c-1.33301 0 -2 0.666992 -2 2l2 4c-1.33301 2.66699 -2 4.66699 -2 6h-2c-8.66699 -50.667 -21 -112 -37 -184c-9.33301 -38 -16 -57 -20 -57h-2l-9 7c0 -0.666992 -0.666992 -1 -2 -1c2 8.66699 3 13.334 3 14.001l-1 4l1 4c-2 31.333 -5 59 -9 83h2l-2 4v9
c0 1.33301 0.666992 2 2 2l-2 4c-1.33301 38.667 -2.66602 61.334 -3.99902 68.001l2 4l-2 3c1.33301 10.667 2 18.667 2 24l-2 8h2c-2 12 -5 41 -9 87h2l-2 3v32c0 22 -3.66699 65 -11 129h2c-1.33301 3.33301 -2.66602 9.66602 -3.99902 18.999h2l-2 4v11
c0 1.33301 0.666992 2 2 2c-2.66699 5.33301 -5.66699 36 -9 92l2 4l-2 11l2 4c-4 12.667 -6 25 -6 37z" />
    <glyph glyph-name="X" unicode="X" horiz-adv-x="258" 
d="M152 677l3.00098 0.000976562c2 0 4 -1.66699 6 -5c-7.33301 -18 -14.666 -41.667 -21.999 -71c-18.667 -52.667 -37.334 -130.334 -56.001 -233.001l2 -4l-2 -3l13 -71c2 -1.33301 5.66699 -13.666 11 -36.999h-2c2.66699 -4 4 -7 4 -9l-2 -3
c10 -30.667 17 -55.334 21 -74.001c1.33301 0 2 -0.666992 2 -2l-2 -4c2 0 4.33301 -7.33301 7 -22l9 -30h-2c4.66699 -13.333 9 -31 13 -53c-0.666992 0 -1 -0.666992 -1 -2c1.33301 0 6 -14.333 14 -43c-0.666992 0 -1 -0.666992 -1 -2c0.666992 0 1 -0.666992 1 -2l-3 -1
c-10.667 0 -17 12.667 -19 38c-6 38 -17 84.333 -33 139c-21.333 80 -32 126.333 -32 139v7c0 2.66699 -1 4 -3 4c-5.33301 -25.333 -9 -39.666 -11 -42.999l1 -3c-4.66699 -14 -12 -56 -22 -126c-13.333 -72.667 -25 -125.667 -35 -159l-4 -2
c-4.66699 5.33301 -7 8.33301 -7 9c16 50 35 145.667 57 287l15 61l-2 4l2 3c-8.66699 32.667 -18.334 79.667 -29.001 141h1c-4.66699 12.667 -17 68.667 -37 168l4 2h4c2.66699 0 6.33398 -8 11.001 -24c0 -1.33301 -0.666992 -2 -2 -2l2 -3v-2
c0 -1.33301 -0.666992 -2 -2 -2c17.333 -65.333 34.666 -147.333 51.999 -246h4v2c4.66699 36.667 10.667 66.667 18 90l-2 4c14.667 64 27 108.333 37 133c6 29.333 12.333 46.666 19 51.999z" />
    <glyph glyph-name="Y" unicode="Y" horiz-adv-x="241" 
d="M4 681l2.00293 -0.00195312c3.33301 0 8.66602 -18 15.999 -54c4 -4 15.333 -41 34 -111c9.33301 -19.333 19.666 -52.666 30.999 -99.999h2c14.667 80 33.667 156 57 228c2.66699 8.66699 4.66699 13 6 13c0 1.33301 -0.666992 2 -2 2c2.66699 13.333 5 20 7 20h4
c2.66699 -0.666992 4 -2 4 -4v-15c-28.667 -78 -49.667 -158.667 -63 -242c-3.33301 0 -6.33301 -24 -9 -72l1 -4l-1 -3c0.666992 -2.66699 1 -5.33398 1 -8.00098l-3 -2c1.33301 -2.66699 2.33301 -9.33398 3 -20.001h-1l1 -4c0 -2 -0.333008 -3 -1 -3l1 -13v-41
c0 -5.33301 -0.333008 -12 -1 -20l1 -4l-1 -4l1 -9l-1 -4l1 -3l-1 -4c0 -1.33301 0.333008 -2 1 -2l-1 -9v-8l1 -13h-1l1 -3l-1 -11c0 -1.33301 0.333008 -2 1 -2l-1 -10v-18c0 -1.33301 -0.666992 -2 -2 -2c0 -1.33301 0.666992 -2 2 -2l-2 -9v-28
c0 -4 -0.666992 -9.33301 -2 -16c0 -1.33301 0.666992 -2 2 -2l-2 -9c1.33301 -16 2 -24.667 2 -26h-2c0.666992 -3.33301 2 -11.333 4 -24c-1.33301 -2.66699 -2 -4.66699 -2 -6h-4c-3.33301 0 -7 1.33301 -11 4c1.33301 10.667 2.66602 16 3.99902 16l-2 4v7
c0 6 -0.666992 12.333 -2 19c1.33301 4.66699 2 10.334 2 17.001c0 0.666992 -0.666992 1 -2 1c2.66699 14 4 35 4 63l-2 4c1.33301 1.33301 2.33301 12 3 32l-1 18h1c0 1.33301 -0.333008 2 -1 2c1.33301 12.667 2.33301 20 3 22c-1.33301 2 -2 4.33301 -2 7h2l-2 4v21
c0 4.66699 -0.333008 9.33398 -1 14.001l3 32c-1.33301 4.66699 -2 9.66699 -2 15h2c0 0.666992 -0.666992 1 -2 1c-0.666992 29.333 -1 51 -1 65v21c0 0.666992 0.333008 1 1 1c-19.333 69.333 -39 135.333 -59 198c0 4 -3.66699 15.667 -11 35
c-7.33301 26.667 -11 45.334 -11 56.001z" />
    <glyph glyph-name="Z" unicode="Z" horiz-adv-x="238" 
d="M6 688c10 -2.66699 21 -4.00195 33 -4.00195c2.66699 0 7.66699 0.666992 15 2c12 -1.33301 18 -2.66602 18 -3.99902l4 2h65c2 0 3 -1.66699 3 -5c-1.33301 -2.66699 -2 -4.66699 -2 -6c2.66699 -1.33301 4.66699 -2 6 -2c-12 -56 -24.333 -125.667 -37 -209
c-26 -127.333 -42 -211 -48 -251c-23.333 -83.333 -38 -139.666 -44 -168.999c0 -1.33301 0.333008 -2 1 -2c-1.33301 -11.333 -3 -18.666 -5 -21.999c1.33301 0 2 -0.666992 2 -2l3 2c10 -3.33301 36 -5 78 -5h54c7.33301 -1.33301 11 -3.33301 11 -6v-4l-8 -7
c-12.667 1.33301 -20.667 2.66602 -24 3.99902l-3 -2l-4 2l-9 -2v2l-4 -2h-13c-2.66699 0 -5 0.666992 -7 2c-2.66699 -1.33301 -5.33398 -2 -8.00098 -2c-1.33301 0 -3 0.666992 -5 2c-1.33301 -0 -2 -0.666992 -2 -2l-9 2l-63 2c-1.33301 2 -2.66602 7.33301 -3.99902 16
c2 4.66699 5 22 9 52l26 81c0 1.33301 0.666992 2 2 2c0 1.33301 -0.666992 2 -2 2c17.333 76.667 26 120 26 130l32 151c2 14 3.66699 21 5 21c0 1.33301 -0.666992 2 -2 2c2.66699 13.333 5.33398 20.666 8.00098 21.999l-2 3c6 28.667 14.667 83.667 26 165
c3.33301 6.66699 5 13.334 5 20.001v2h-28c-0.666992 0 -1 0.666992 -1 2c-1.33301 0 -2 -0.666992 -2 -2c-1.33301 0 -5 0.666992 -11 2c-2 0 -10.667 -0.666992 -26 -2c-11.333 2.66699 -18.333 4 -21 4l-7 -2c-2 1.33301 -4.33301 2 -7 2
c-2.66699 -1.33301 -4.66699 -2 -6 -2v2c-2.66699 -1.33301 -4.33398 -2 -5.00098 -2c-12.667 1.33301 -19 4 -19 8v1c0 1.33301 2 3.33301 6 6z" />
    <glyph glyph-name="bracketleft" unicode="[" horiz-adv-x="185" 
d="M111 689l4 -5.00098v-4c0 -2 -2.66699 -4.33301 -8 -7c-2.66699 0 -5 0.666992 -7 2c-52 -4.66699 -79 -8 -81 -10c0 -1.33301 -0.666992 -2 -2 -2c0 -0.666992 0.666992 -1 2 -1c-1.33301 -18 -2 -28 -2 -30c0 -5.33301 0.666992 -33 2 -83
c0 -1.33301 -0.666992 -2 -2 -2l2 -9v-93l1 -11c-0.666992 -2 -1 -5 -1 -9v-8c0 -6 0.333008 -11.333 1 -16c-0.666992 -6.66699 -1 -13 -1 -19c0 -6.66699 0.333008 -12 1 -16c-0.666992 -8 -1.66699 -39 -3 -93l-2 -4c0 -0.666992 0.666992 -1 2 -1l-2 -19
c0 -10.667 -0.666992 -34.667 -2 -72h-2c0 -1.33301 0.666992 -2 2 -2l-2 -9c0 -1.33301 0.666992 -2 2 -2l-2 -9v-11c0 -4.66699 0.666992 -10.334 2 -17.001c0 -1.33301 -0.666992 -2 -2 -2c2.66699 -47.333 5.66699 -86.666 9 -117.999l4 -2h7
c18.667 -0.666992 28 -2 28 -4l4 2h42c2.66699 -0.666992 4 -2 4 -4v-3c-0.666992 -4 -5 -6 -13 -6c-16.667 0 -45.667 0.666992 -87 2l-3 5c0 6.66699 0.333008 12.334 1 17.001l-5 98h2l-2 4v37l-2 22c1.33301 0 2 0.666992 2 2h-2l2 4c1.33301 21.333 2 34 2 38h2l-2 4
c0 1.33301 0.666992 2 2 2l-2 4c0 1.33301 0.666992 2 2 2c0 0.666992 -0.666992 1 -2 1l2 10v22c0 4 0.333008 9.33301 1 16c0 1.33301 -0.333008 2 -1 2c0.666992 11.333 1.66699 17 3 17l-2 4v7c0 2.66699 0.666992 5 2 7c0 1.33301 -0.666992 2 -2 2l2 23v96
c0 4 -0.666992 7 -2 9l2 11v63c0 2.66699 -0.666992 5 -2 7l2 4c-1.33301 2 -2 4.33301 -2 7l2 4l-2 4c0 1.33301 0.666992 2 2 2l-2 9v30c0 15.333 -0.333008 34.333 -1 57l1 4c-0.666992 2 -1 4.33301 -1 7c0 16 5.33301 24 16 24l83 7h2z" />
    <glyph glyph-name="backslash" unicode="\" horiz-adv-x="251" 
d="M15 681c19.333 -72 35.3311 -137.998 47.998 -197.998c-1.33301 0 -2 -0.666992 -2 -2c1.33301 0 2.66602 -2 3.99902 -6l-2 -3l9 -41l-2 -4c4 0 7.66699 -13.333 11 -40l-2 -4c2 0 4.66699 -6.66699 8 -20l-2 -4c2.66699 -7.33301 4.33398 -11 5.00098 -11
c3.33301 -24.667 6.66602 -37 9.99902 -37l-2 -4c1.33301 0 2 -0.666992 2 -2c3.33301 -8 9.33301 -30 18 -66l-2 -4c3.33301 -5.33301 6.66602 -14 9.99902 -26l24 -83c-1.33301 0 -2 -0.666992 -2 -2c3.33301 -2 9.33301 -20.667 18 -56l-2 -3h2
c6.66699 -24.667 12.334 -42.667 17.001 -54v-7l-2 -4h-4c-4.66699 0 -13.667 27.667 -27 83l2 4c-1.33301 0 -3.33301 3 -6 9c0 1.33301 0.666992 3.33301 2 6c-2.66699 1.33301 -7 14.666 -13 39.999c1.33301 0 2 0.666992 2 2c-1.33301 0 -4.66602 5 -9.99902 15
c-19.333 77.333 -35.666 138.333 -48.999 183c-15.333 85.333 -29.666 158.333 -42.999 219c0 1.33301 0.666992 3 2 5l-4 4c-11.333 47.333 -22.333 83.666 -33 108.999c2 4.66699 5.66699 7.66699 11 9c2.66699 -2.66699 4 -5 4 -7z" />
    <glyph glyph-name="bracketright" unicode="]" horiz-adv-x="199" 
d="M7 687l2.00195 0.000976562l84 -7c10.667 0 16 -8 16 -24c0 -2.66699 -0.666992 -5 -2 -7l2 -4c-1.33301 -22.667 -2 -41.667 -2 -57v-30l-2 -9c1.33301 0 2 -0.666992 2 -2l-2 -4l2 -4c0 -2.66699 -0.666992 -5 -2 -7l2 -4c-1.33301 -2 -2 -4.33301 -2 -7v-63l2 -11
c-1.33301 -2 -2 -5 -2 -9v-96l2 -23c-1.33301 0 -2 -0.666992 -2 -2c1.33301 -2 2 -4.33301 2 -7v-7l-2 -4c1.33301 0 2.66602 -5.66699 3.99902 -17c-1.33301 0 -2 -0.666992 -2 -2c1.33301 -6.66699 2 -12 2 -16v-22l2 -10c-1.33301 0 -2 -0.333008 -2 -1
c1.33301 0 2 -0.666992 2 -2l-2 -4c1.33301 0 2 -0.666992 2 -2l-2 -4h2c0 -4 0.666992 -16.667 2 -38l2 -4h-2c0 -1.33301 0.666992 -2 2 -2l-2 -22v-37l-2 -4h2l-6 -98c1.33301 -4.66699 2 -10.334 2 -17.001l-4 -5c-40.667 -1.33301 -69.334 -2 -86.001 -2
c-8 0 -12.333 2 -13 6v3c0 2 1 3.33301 3 4h43l4 -2c0 2 9 3.33301 27 4h8l3 2c3.33301 31.333 6.66602 70.666 9.99902 117.999c-1.33301 0 -2 0.666992 -2 2c1.33301 6.66699 2 12.334 2 17.001v11l-2 9c1.33301 0 2 0.666992 2 2l-2 9c1.33301 0 2 0.666992 2 2h-2
c-1.33301 37.333 -2 61.333 -2 72l-2 19c1.33301 0 2 0.333008 2 1l-2 4c-1.33301 54 -2.66602 85 -3.99902 93c1.33301 4 2 9.33301 2 16c0 6 -0.666992 12.333 -2 19c1.33301 4.66699 2 10 2 16v8c0 4 -0.666992 7 -2 9l2 11v93l2 9c-1.33301 0 -2 0.666992 -2 2
c1.33301 50 2 77.667 2 83c0 2 -0.666992 12 -2 30c1.33301 0 2 0.333008 2 1c-1.33301 0 -2 0.666992 -2 2c-2 2 -29 5.33301 -81 10c-2 -1.33301 -4.66699 -2 -8 -2c-4.66699 2.66699 -7 5 -7 7v4l4 5z" />
    <glyph glyph-name="asciicircum" unicode="^" horiz-adv-x="150" 
d="M33 747c15.333 -47.333 30.333 -87.001 45 -119.001v-2c0 -2 -1.33301 -3 -4 -3h-2c-9.33301 6 -23.333 38.667 -42 98h-2c-1.33301 -18.667 -3.33301 -28 -6 -28l2 -4c0 -5.33301 -1.66699 -10.666 -5 -15.999l1 -4c0 -6 -1 -9 -3 -9l2 -4
c0 -2.66699 -2 -11.334 -6 -26.001v-5l-7 -6c-4 4 -6 7 -6 9c4.66699 8.66699 11 43.334 19 104.001c3.33301 10 8 15 14 15z" />
    <glyph glyph-name="underscore" unicode="_" horiz-adv-x="409" 
d="M290 -1l6.00098 -7c-2 0 -4.33301 -3 -7 -9l-13 2h-4l-9 -2v2c-2.66699 -1.33301 -4.66699 -2 -6 -2c-35.333 -0.666992 -53 -2 -53 -4l-10 2h-27c-4.66699 0 -10.334 0.666992 -17.001 2c-2.66699 -1.33301 -4.66699 -2 -6 -2v2l-3 -2h-8c-1.33301 0 -2 0.666992 -2 2
l-3 -2c-2 0 -12 0.666992 -30 2c-0.666992 0 -4.33398 -0.666992 -11.001 -2c-2 1.33301 -4.33301 2 -7 2s-4 -0.666992 -4 -2l-13 2h-19c-4.66699 0 -9.33398 -0.666992 -14.001 -2c-5.33301 1.33301 -10.333 2 -15 2h-11c-2.66699 0 -4 1 -4 3l6 10l9 -2h9
c4 0 6 0.666992 6 2l9 -2h20c1.33301 0 2 -0.666992 2 -2l4 2c2 0 3 -0.666992 3 -2l13 2h2c5.33301 0 12.333 -0.666992 21 -2l3 2l10 -2c10.667 1.33301 16.667 2 18 2l7 -2c2.66699 1.33301 6 2 10 2c1.33301 0 2 -0.666992 2 -2l3 2h2c1.33301 0 2 -0.666992 2 -2l4 2
h13c2.66699 0 5 -0.666992 7 -2c2 1.33301 4.33301 2 7 2h2c2.66699 0 5.33398 -0.666992 8.00098 -2c2.66699 0.666992 9.33398 2 20.001 4l9 -2c22.667 2.66699 35 4 37 4v-2z" />
    <glyph glyph-name="grave" unicode="`" horiz-adv-x="164" 
d="M4 743c5.33301 0 13.333 -14.666 24 -43.999c24 -36.667 47.333 -77.667 70 -123h2c-2 -4.66699 -4 -7 -6 -7h-1c-5.33301 0 -13 11.667 -23 35l-59 107c-7.33301 15.333 -11 24.666 -11 27.999c2.66699 0 4 1.33301 4 4z" />
    <glyph glyph-name="a" unicode="a" horiz-adv-x="241" 
d="M87 688l6.99902 -12.998c0 -8.66699 2 -22.334 6 -41.001v-17c0 -2.66699 0.666992 -5.33398 2 -8.00098l-2 -3c1.33301 -2.66699 2 -4.66699 2 -6c0 -2.66699 -0.666992 -4 -2 -4c8 -78.667 16.333 -149.334 25 -212.001c0 -1.33301 -0.666992 -2 -2 -2
c12 -82.667 18 -129.667 18 -141h-2l36 -220c-1.33301 -8.66699 -3 -13 -5 -13h-2c-4.66699 0 -10 24.333 -16 73l-17 98h2l-2 4c0 1.33301 0.666992 2 2 2c-1.33301 12.667 -5.33301 34 -12 64c1.33301 2.66699 2 4.66699 2 6c-1.33301 14 -3.33301 24.667 -6 32
c0 1.33301 0.666992 2 2 2l-7 52h-14c-19.333 0 -36 -1.66699 -50 -5v-2c-6.66699 -84.667 -13.667 -142 -21 -172l2 -4c-6 -33.333 -10 -50 -12 -50l2 -4c-0.666992 -16.667 -2.66699 -25 -6 -25l2 -4c-1.33301 -26.667 -3.33301 -42.667 -6 -48l2 -8
c-2 -12.667 -4.33301 -19 -7 -19h-2c-2 0 -4 2 -6 6v15c0 1.33301 0.666992 2 2 2c0 1.33301 -0.666992 2 -2 2l12 68l-2 3c3.33301 16.667 6.33301 34.667 9 54h2l-2 4c6.66699 37.333 13.667 90 21 158c0 1.33301 -0.333008 2 -1 2c0.666992 20.667 2.33398 31 5.00098 31
l-2 4l2 4c0 1.33301 -0.666992 2 -2 2l2 19v14c0 1.33301 0.666992 2 2 2l-2 3v2c0 1.33301 0.666992 2 2 2c0 1.33301 -0.666992 2 -2 2c2 24.667 4 37 6 37c0 1.33301 -0.666992 2 -2 2c4 37.333 7.33301 60.333 10 69c0 1.33301 -0.666992 2 -2 2
c4 30.667 7.66699 54.334 11 71.001l-1 4c0 4 1 9.33301 3 16c0 1.33301 -0.666992 2 -2 2c5.33301 56.667 10 85 14 85c2.66699 0.666992 4.66699 1 6 1zM78.999 611.002l2.00098 -4c-5.33301 -41.333 -9.33301 -67 -12 -77c0 -1.33301 0.666992 -2 2 -2
c-2.66699 -18 -4.33398 -27 -5.00098 -27l1 -3c-1.33301 -26 -3 -39 -5 -39c0 -1.33301 0.666992 -2 2 -2c-1.33301 -8.66699 -2.66602 -13 -3.99902 -13c0 -1.33301 0.666992 -2 2 -2c-2.66699 -20 -5.33398 -51 -8.00098 -93c10 4 21 6 33 6h25l4 2l-6 33l2 7
c-2.66699 6 -6.66699 27.333 -12 64c1.33301 2 2 4.66699 2 8l-4 5v16c0 4.66699 -1.66699 20 -5 46h1c-4.66699 22.667 -7 55 -7 97c-2 0 -4.66699 -7.33301 -8 -22z" />
    <glyph glyph-name="b" unicode="b" horiz-adv-x="185" 
d="M33 692l-0.00195312 -1.99902c1.33301 0 2 0.666992 2 2c24 0 46.333 -18 67 -54c0 -3.33301 2.66699 -17.333 8 -42h-2c2 -11.333 4 -25.333 6 -42c-4.66699 -64 -12.667 -111.667 -24 -143c-9.33301 -20 -24.666 -38.333 -45.999 -55c37.333 -34 56 -61 56 -81
c5.33301 0 13 -36.667 23 -110h-2l2 -4v-7c0 -48 -11 -86 -33 -114c-28 -27.333 -49.667 -44 -65 -50h-8c-3.33301 6.66699 -5.66602 10 -6.99902 10h-2c0.666992 18 2 27 4 27l-2 3c1.33301 2.66699 2 4.66699 2 6s-0.666992 2 -2 2c1.33301 15.333 2.33301 23 3 23l-1 4
v44l-2 14h2c0 1.33301 -0.666992 2 -2 2l2 13v21c0 3.33301 0.333008 6 1 8c0 1.33301 -0.333008 2 -1 2l1 10c0 2.66699 -0.333008 5 -1 7l1 10l-1 9h1l-1 4l1 10c0 1.33301 -0.333008 3.33301 -1 6c0.666992 8.66699 1 15.667 1 21v23c0 1.33301 0.666992 2 2 2l-2 4v17
c0 1.33301 0.666992 2 2 2l-2 4v2c0 1.33301 0.666992 2 2 2l-2 4v36c0 7.33301 0.666992 16.333 2 27l-2 4c0 2.66699 0.666992 4 2 4c-1.33301 19.333 -2 33.333 -2 42v50c0 2.66699 -0.333008 5.33398 -1 8.00098c0.666992 2 1 4.33301 1 7v16l-1 9h1l-1 4v39
c0 7.33301 -0.666992 17.666 -2 30.999c0 1.33301 0.666992 2 2 2c0 3.33301 -2 14 -6 32v2c0 19.333 -1.33301 34.666 -4 45.999c1.33301 0 2 0.666992 2 2l-4 2c0 14 7 21 21 21zM14.998 675.001l0.000976562 -17l2 -10h-2l2 -4v-2c0 -18 1.33301 -34 4 -48h-2
c0 -1.33301 0.666992 -2 2 -2c1.33301 -25.333 2 -44.666 2 -57.999v-5c0 -3.33301 -0.666992 -6 -2 -8c1.33301 -2.66699 2 -4.66699 2 -6h-2l2 -4v-19l2 -13h-2l2 -4c0 -1.33301 -0.666992 -2 -2 -2l2 -4c0 -2.66699 -0.666992 -5.33398 -2 -8.00098l2 -3
c-1.33301 -2.66699 -2 -4.66699 -2 -6s0.666992 -2 2 -2c0 -1.33301 -0.666992 -3.33301 -2 -6c2.66699 -27.333 4 -43.333 4 -48h-2l2 -4v-27c26 15.333 42.667 32 50 50l15 52c0 1.33301 -0.666992 2 -2 2c4 21.333 6.66699 40 8 56c-1.33301 2 -2 4.66699 -2 8v3
c0 1.33301 0.666992 2 2 2c0 1.33301 -0.666992 2 -2 2c1.33301 14 2.66602 21 3.99902 21l-2 4v8c0 13.333 -3.66699 36.333 -11 69c-21.333 24.667 -38 37 -50 37c-2.66699 -1.33301 -4.66699 -2 -6 -2l-4 2c-5.33301 -2.66699 -9.33301 -4 -12 -4zM26.999 346.001
l-1.99805 -9.99805l2 -13h-2c0 -1.33301 0.666992 -2 2 -2l-2 -10v-25c0 -3.33301 -0.666992 -5 -2 -5l2 -10v-114c0 -2.66699 -0.666992 -5 -2 -7c1.33301 -2.66699 2 -4.66699 2 -6h-2l2 -4v-2c0 -2.66699 -0.666992 -5.33398 -2 -8.00098c0 -0.666992 0.666992 -1 2 -1
l-2 -20v-11c0 -1.33301 -0.666992 -2 -2 -2c1.33301 -2.66699 2.66602 -8.33398 3.99902 -17.001l-2 -4c0 -1.33301 0.666992 -2 2 -2l-2 -14v-34l-2 -20c59.333 28 89 74.333 89 139v10c0 0.666992 0.666992 1 2 1c-1.33301 2.66699 -2 4.66699 -2 6
c0 28 -5.33301 60.667 -16 98c-6.66699 28.667 -19.334 52 -38.001 70c-13.333 11.333 -22.333 17 -27 17h-2z" />
    <glyph glyph-name="c" unicode="c" horiz-adv-x="227" 
d="M77 687l6 -0.00195312c34 -2.66699 51 -15 51 -37v-12c0 -2 -1.33301 -3 -4 -3h-2c-2.66699 0 -4.33398 6.33301 -5.00098 19c-10.667 14.667 -22.667 22 -36 22c-30 0 -52.667 -25.667 -68 -77c0 -1.33301 0.666992 -2 2 -2c-1.33301 -12.667 -2.66602 -19 -3.99902 -19
c0 -1.33301 0.666992 -2 2 -2c-2.66699 -12.667 -4 -32.667 -4 -60v-6c0 -1.33301 -0.666992 -2 -2 -2c0 -0.666992 0.666992 -1 2 -1l-2 -10v-21c0 -2 -1.33301 -3 -4 -3c2.66699 -4.66699 4 -8 4 -10h-2c0 -1.33301 0.666992 -2 2 -2l-2 -22l2 -14l-2 -11
c1.33301 -2 2 -4.33301 2 -7h-2l2 -4v-11l-4 -6l6 -21l-2 -4c1.33301 -2 2 -3.66699 2 -5h-2c1.33301 -2.66699 2 -4.66699 2 -6c0 -6 0.666992 -29.333 2 -70l2 -3l-2 -4l2 -12c0 -0.666992 -0.666992 -1 -2 -1l4 -34c0 -1.33301 -0.666992 -2 -2 -2l11 -96h-2l8 -55h-2
c8.66699 -46.667 22.334 -70 41.001 -70c22.667 0 41.667 19.667 57 59h6c0.666992 -6.66699 1 -10.667 1 -12c-6.66699 -24.667 -19.667 -42.667 -39 -54c-6 -4 -15.333 -6 -28 -6h-6c-17.333 0 -32.333 25 -45 75c0 1.33301 0.666992 2 2 2c-2.66699 18 -4 37.667 -4 59v5
c-4 13.333 -6 21 -6 23h2l-2 4v13c0 2.66699 -0.666992 5.33398 -2 8.00098l2 3c-1.33301 14 -3 22.333 -5 25v15c0 1.33301 0.333008 2 1 2c-0.666992 1.33301 -1.66699 8.66602 -3 21.999h2c-1.33301 2.66699 -2 4.66699 -2 6c0 34.667 -2 92.334 -6 173.001l2 4
c-1.33301 2.66699 -2 4.66699 -2 6c1.33301 22.667 2 37 2 43h2l-2 4v2c0 1.33301 0.666992 2 2 2l-2 4v13c0 1.33301 0.666992 2 2 2l-2 3l2 14l-2 3c1.33301 2.66699 2 5.33398 2 8.00098c0 4 -0.666992 6 -2 6c3.33301 47.333 9 79.333 17 96c12 19.333 24 35 36 47
c11.333 3.33301 18.666 5 21.999 5z" />
    <glyph glyph-name="d" unicode="d" horiz-adv-x="206" 
d="M15 693l4.00098 -0.00390625c14 -6 39 -50.333 75 -133c5.33301 -18.667 14 -60 26 -124h-2c11.333 -59.333 17 -101.333 17 -126c0 -1.33301 -0.666992 -2 -2 -2l2 -3v-8c0 -1.33301 -0.666992 -2 -2 -2l2 -3v-26c0 -80 -14.667 -146.667 -44 -200
c-24.667 -37.333 -49.334 -62.666 -74.001 -75.999c0 2 -2.66699 4 -8 6c0 -4 -1 -6 -3 -6c-4 0.666992 -6 5.66699 -6 15v16c0 1.33301 0.666992 2 2 2c0 1.33301 -0.666992 2 -2 2l2 9c0 3.33301 -0.666992 6 -2 8l2 4c0 0.666992 -0.666992 2.33398 -2 5.00098
c2.66699 10.667 4 20 4 28l-2 7c1.33301 2.66699 2 4.66699 2 6s-0.666992 2 -2 2l2 9v4c0 14 0.666992 23.667 2 29c-1.33301 12 -2 23.667 -2 35c0 10 0.666992 27.333 2 52c-1.33301 2 -2 4.66699 -2 8h2l-2 3v6c0 1.33301 0.666992 2 2 2l-2 3c0 1.33301 0.666992 2 2 2
l-2 4v9c0 2.66699 0.666992 5.33398 2 8.00098c-1.33301 2 -2 4.33301 -2 7s0.666992 5 2 7c-1.33301 2.66699 -2 4.66699 -2 6h2l-2 4l2 3c-1.33301 2.66699 -2 4.66699 -2 6h2l-2 4c0 0.666992 0.666992 1 2 1l-2 13v15c0 1.33301 0.666992 2 2 2l-2 4v3
c0 1.33301 0.666992 2 2 2l-2 4v4c0 0.666992 0.666992 1 2 1l-2 4v9c0 27.333 1 41 3 41l-1 4v76c0 1.33301 0.333008 2 1 2l-1 3v9c0 1.33301 0.333008 2 1 2c0 1.33301 -0.333008 2 -1 2l1 9v2c0 4 -0.333008 7.33301 -1 10l1 11v20c0 2.66699 0.666992 5 2 7
c-1.33301 2.66699 -2 5.33398 -2 8.00098v3l2 12c-1.33301 1.33301 -2 5 -2 11l2 3l-2 4l2 13l-2 4c0 1.33301 0.666992 2 2 2l-2 9v15c0 0.666992 0.666992 1 2 1l-2 4c1.33301 13.333 2 25 2 35zM20.001 668.996c0 -2.66699 -0.334961 -3.99805 -1.00195 -3.99805l1 -7
c-0.666992 -6.66699 -1 -10.334 -1 -11.001c0 -1.33301 0.333008 -2 1 -2l-1 -9v-37c0 -1.33301 -0.666992 -2 -2 -2l2 -4v-91c0 -0.666992 -0.666992 -1 -2 -1l2 -4v-11c0 -1.33301 -0.666992 -2 -2 -2c0 -1.33301 0.666992 -2 2 -2l-2 -9c0 -2.66699 0.666992 -4 2 -4
l-2 -13v-42l-2 -11c1.33301 -2.66699 2 -6 2 -10c0 -1.33301 -0.666992 -2 -2 -2c1.33301 -2 2 -3.66699 2 -5l-2 -4l2 -3l-2 -4c1.33301 -2 2 -4.66699 2 -8h-2c0 -0.666992 0.666992 -1 2 -1l-2 -10l2 -7h-2l2 -4v-46l2 -9h-2c0 -1.33301 0.666992 -2 2 -2l-2 -9v-48
c0 -4 0.666992 -6 2 -6l-2 -9v-43c0 -11.333 0.666992 -23 2 -35c-1.33301 -5.33301 -2 -15.333 -2 -30v-5c0 -1.33301 -0.666992 -2 -2 -2c0 -1.33301 0.666992 -2 2 -2l-2 -9v-30c0 -1.33301 -0.666992 -2 -2 -2c1.33301 -2 2 -3.66699 2 -5
c0 -2.66699 -0.666992 -4 -2 -4l2 -13v-9c0 -2.66699 -0.666992 -5 -2 -7c1.33301 -2.66699 2 -4.66699 2 -6h-2c1.33301 -2 2 -5.66699 2 -11h2c0 1.33301 10.333 10.666 31 27.999c30.667 37.333 46.667 62.666 48 75.999c5.33301 16 9 24.333 11 25l-2 4
c3.33301 10 5.33301 15 6 15l-2 4c4.66699 0 9 32.667 13 98h2l-2 3c0 1.33301 0.666992 2 2 2l-2 13v24l-2 22h2l-2 4c0 15.333 -3 45 -9 89v7c-2.66699 2 -5 16.333 -7 43c-1.33301 0 -3.33301 5.66699 -6 17h2c-8.66699 40.667 -16 71.334 -22 92.001
c-3.33301 2.66699 -9.66602 15.667 -18.999 39c-19.333 36 -31.666 56.333 -36.999 61h-2z" />
    <glyph glyph-name="e" unicode="e" horiz-adv-x="185" 
d="M17 693l3.00098 0.00390625l6 -4h9c4 0 6 0.666992 6 2l9 -2h43c12 -2.66699 18 -5 18 -7v-4l-2 -4c-18 1.33301 -27.667 2.66602 -29 3.99902c-2.66699 -1.33301 -5.33398 -2 -8.00098 -2h-11c-2.66699 0 -5 0.666992 -7 2c-2.66699 -1.33301 -5.33398 -2 -8.00098 -2
h-2c-0.666992 0 -1 0.666992 -1 2l-4 -2h-17c0 -4.66699 -0.666992 -7 -2 -7c0 -1.33301 0.666992 -2 2 -2c0 -1.33301 -0.666992 -3.33301 -2 -6l2 -9c-4.66699 -36 -7 -56.333 -7 -61l2 -4l-2 -13c1.33301 -21.333 2 -33.666 2 -36.999c0 -1.33301 -0.666992 -2 -2 -2
l2 -9v-33c0 -2.66699 0.666992 -5.33398 2 -8.00098c-1.33301 -2 -2 -4.33301 -2 -7v-24l-2 -11c1.33301 -2 2 -5 2 -9v-4c0 -2.66699 -0.666992 -5 -2 -7l2 -4c0 -2.66699 -1.33301 -7.66699 -4 -15c1.33301 -2 2 -4.33301 2 -7c-1.33301 -9.33301 -2 -14.333 -2 -15l2 -4
l-2 -11v-15c0 -1.33301 -0.666992 -2 -2 -2l4 -7l4 2h62c2 0 4 -2 6 -6c0 -5.33301 -21.667 -8.33301 -65 -9c-2 1.33301 -5.66699 2 -11 2v-2c1.33301 -6.66699 2 -12.334 2 -17.001v-7c0 -10 -0.666992 -23 -2 -39c1.33301 -2 2 -3.66699 2 -5h-2l2 -4
c0 -4 -0.666992 -7 -2 -9c1.33301 -26.667 3.33301 -51.334 6 -74.001h-2l4 -10l-2 -11c1.33301 -11.333 2 -22.333 2 -33h-2c2 -4.66699 3 -11.334 3 -20.001v-11c0 -1.33301 -0.333008 -2 -1 -2l1 -4v-2c0 -1.33301 -0.333008 -2 -1 -2l1 -3
c0 -1.33301 -0.333008 -2 -1 -2c0 -1.33301 0.333008 -2 1 -2l-1 -9v-6l3 -5c0 -3.33301 -0.666992 -6 -2 -8l4 -31h50l11 2c5.33301 -1.33301 8 -2.66602 8 -3.99902l3 2h13c2 0 4 -2 6 -6v-5c-4 0 -6 -1.33301 -6 -4l-4 2h-3c-4 0 -6 -0.666992 -6 -2
c-13.333 1.33301 -20 2.66602 -20 3.99902l-4 -2h-9c-2.66699 0 -5 0.666992 -7 2c-2.66699 -1.33301 -12 -2.66602 -28 -3.99902c-2.66699 1.33301 -4.66699 2 -6 2c0 -2.66699 -1 -4 -3 -4c-4.66699 0 -8.66699 8.66699 -12 26c0 1.33301 0.666992 2 2 2l-2 9v9
c0 13.333 -0.333008 22.666 -1 27.999c0.666992 9.33301 1 19.666 1 30.999v26c0 3.33301 -0.333008 6 -1 8c0 1.33301 0.333008 2 1 2l-1 13v9c-2.66699 40 -4 61.667 -4 65v20c0 2.66699 -0.666992 5 -2 7c1.33301 2.66699 2 5.33398 2 8.00098v3l-2 10h2
c-1.33301 2 -2 3.66699 -2 5l2 4c-1.33301 2 -2 3.66699 -2 5h2c0 1.33301 -0.666992 2 -2 2l2 19v11l-2 9h2l-2 4v4c0 0.666992 0.666992 1 2 1c0 1.33301 -0.666992 2 -2 2l2 10v35l2 11c-1.33301 2 -2 3.66699 -2 5h2c0 1.33301 -0.666992 2 -2 2
c2.66699 12 4 28.667 4 50v24c0 1.33301 0.333008 2 1 2l-1 4c-1.33301 41.333 -2.66602 63.333 -3.99902 66c0 1.33301 0.666992 2 2 2l-2 9c0 33.333 2.33301 65 7 95c0 1.33301 -0.666992 2 -2 2c2 24.667 5.33301 37 10 37z" />
    <glyph glyph-name="f" unicode="f" horiz-adv-x="171" 
d="M19 691c23.333 -2.66699 44.0029 -3.99902 62.0029 -3.99902v2c6.66699 -1.33301 10 -5.66602 10 -12.999c-6.66699 -2 -10 -3.66699 -10 -5l-35 5c-2 0 -9.33301 -0.333008 -22 -1c-2.66699 0.666992 -4.33398 1 -5.00098 1l-4 -31c1.33301 -2.66699 2 -4.66699 2 -6
c-1.33301 -2 -2 -4.33301 -2 -7l2 -4c-1.33301 -2 -2 -3.66699 -2 -5c1.33301 -2.66699 2 -4.66699 2 -6h-2l2 -4v-22c0 -4.66699 0.666992 -11.334 2 -20.001l-2 -4c1.33301 -2 2 -3.66699 2 -5h-2l2 -4l-2 -11c1.33301 -2 2 -4.66699 2 -8h-2l2 -3v-30
c0 -2.66699 -0.666992 -5 -2 -7c1.33301 -2.66699 2 -4.66699 2 -6c-1.33301 -10.667 -2 -17.334 -2 -20.001l2 -4c0 -1.33301 -0.666992 -2 -2 -2l2 -13v-44c0 -1.33301 -0.666992 -2 -2 -2l2 -4v-20c7.33301 0 11 -1.33301 11 -4l3 2c1.33301 0 2 -0.666992 2 -2
c1.33301 0 2 0.666992 2 2c1.33301 0 3.33301 -0.666992 6 -2l9 2c19.333 -0.666992 29 -3.66699 29 -9v-2c-0.666992 -3.33301 -4.33398 -5 -11.001 -5c-9.33301 0 -14 1 -14 3l-4 -2h-26l-9 2v-9c0 -2.66699 0.666992 -5 2 -7l-2 -4c1.33301 -2 2 -4.33301 2 -7h-2
c1.33301 -2.66699 2 -4.66699 2 -6l-2 -7c1.33301 -2.66699 2 -4.66699 2 -6h-2c1.33301 -2 2.33301 -7.66699 3 -17l-1 -3c0.666992 -2.66699 1 -4.66699 1 -6l-1 -4c0.666992 -2 1 -4.33301 1 -7h-1c0 -1.33301 0.333008 -2 1 -2l-1 -7
c0 -2.66699 0.333008 -9.66699 1 -21l-1 -7c0.666992 -2 1 -4.33301 1 -7h-1l1 -4v-22c0 -1.33301 -0.333008 -2 -1 -2c0 -1.33301 0.333008 -2 1 -2c-0.666992 -7.33301 -1.66699 -11 -3 -11l2 -4v-29c0 -1.33301 -0.666992 -2 -2 -2c1.33301 -2.66699 2 -4.66699 2 -6
l-2 -3c1.33301 -2.66699 2 -5.33398 2 -8.00098h-2c0 -1.33301 0.666992 -2 2 -2c-1.33301 -8.66699 -2.66602 -13 -3.99902 -13l2 -3c0 -1.33301 -0.666992 -2 -2 -2c1.33301 -20 2.66602 -30 3.99902 -30l-2 -9v-22c0 -1.33301 -0.666992 -2 -2 -2l2 -4v-37l2 -13h-2
c0 -1.33301 0.666992 -2 2 -2c-1.33301 -13.333 -3.33301 -20 -6 -20c-4 1.33301 -7.66699 3.66602 -11 6.99902c0 6 0.666992 24.667 2 56c-1.33301 2 -2 3.66699 -2 5h2l-2 4v13c0 1.33301 0.666992 2 2 2c0 1.33301 -0.666992 2 -2 2l2 11l-2 13
c1.33301 6 2.66602 9 3.99902 9l-2 4l2 7c0 2.66699 -1.33301 7.66699 -4 15c1.33301 2 2 4.33301 2 7c0 1.33301 -0.666992 2 -2 2c2.66699 17.333 4 29 4 35l-2 4c1.33301 2 2 4.66699 2 8s-0.666992 5 -2 5l2 9v32c0 4 0.333008 9.33301 1 16l-1 4
c0.666992 2.66699 1 4.66699 1 6l-1 3l1 4l-1 11h1l-1 4v9c0 2.66699 0.333008 5.33398 1 8.00098c-0.666992 8 -1.66699 12 -3 12l2 10v2c0 6 -0.666992 15 -2 27h2l-2 4v15c0 6.66699 0.666992 16.334 2 29.001l-2 4l2 4l-2 13c0 2.66699 0.666992 5 2 7
c-1.33301 8.66699 -2 15.667 -2 21v14c0 1.33301 0.666992 2 2 2c0 1.33301 -0.666992 2 -2 2l2 9l-2 13h2c-1.33301 2.66699 -2 4.66699 -2 6l2 3c0 1.33301 -0.666992 2 -2 2l2 19c0 4 -1.33301 36.667 -4 98l-2 7h2l-2 4v28c0 1.33301 0.666992 2 2 2
c0 0.666992 -0.666992 1 -2 1c2 15.333 4.33301 23 7 23h2l4 -2z" />
    <glyph glyph-name="g" unicode="g" horiz-adv-x="220" 
d="M111 695l3.99902 -5.99902v-3c0 -2.66699 -5 -4.66699 -15 -6v2c-39.333 -6.66699 -59 -17.334 -59 -32.001c-2 -3.33301 -6.33301 -19.666 -13 -48.999l2 -4c-1.33301 -7.33301 -2.66602 -11 -3.99902 -11c0 -1.33301 0.666992 -2 2 -2
c-6 -40.667 -10.333 -102.334 -13 -185.001h-2c0.666992 -1.33301 2 -10 4 -26h-2l2 -4v-39l-2 -11c6 -52 9 -79 9 -81l-2 -4l8 -52l-2 -3c0 -1.33301 1.66699 -17.333 5 -48h-2l8 -41c0 -1.33301 -0.666992 -2 -2 -2l6 -31h-2c5.33301 -22.667 13.333 -37 24 -43l15 -9l3 2
l4 -2c23.333 12.667 35 26.667 35 42c4 2.66699 7.66699 20 11 52l-2 9c0 8.66699 1.33301 13 4 13l-2 10v11c0.666992 6 2 9 4 9l-2 4v33l2 13c-12.667 2 -19 3.66699 -19 5l-3 -1h-2c-1.33301 0 -2 0.333008 -2 1l-4 -1l-3 1l-10 -1v1l-3 -1h-2
c-2 0 -4.66699 2.33301 -8 7v4c0 2 4 3.66699 12 5c8 -1.33301 14.667 -2 20 -2h13l5 -3l2 3l4 -1l9 1c4 -4.66699 6 -8.33398 6 -11.001c-2.66699 -8 -4.66699 -17.667 -6 -29c1.33301 -11.333 2.66602 -17 3.99902 -17l-4 -26l4 -2
c-7.33301 -79.333 -19.666 -123 -36.999 -131c-8.66699 -6.66699 -18 -11 -28 -13c-16 0 -32.667 13 -50 39c0 1.33301 0.666992 2 2 2c-8 26 -14 58 -18 96v5c0 1.33301 0.333008 2 1 2c-3.33301 14 -5 29.667 -5 47h2l-4 9c0 1.33301 0.666992 2 2 2
c-2.66699 14 -4 24.333 -4 31h2l-2 4c0 1.33301 0.666992 2 2 2c-2 2.66699 -5 21.667 -9 57v39l-2 18h2l-2 4v4c0 12 -0.666992 30.333 -2 55h2l-2 4v11c0 1.33301 0.666992 2 2 2c-1.33301 2 -2 3.66699 -2 5l2 4c0 1.33301 -0.666992 2 -2 2
c2.66699 18.667 4.66699 28 6 28c0 1.33301 -0.666992 2 -2 2l2 18v15c0 1.33301 0.333008 2 1 2c0 1.33301 -0.333008 2 -1 2c2 49.333 8.66699 100.333 20 153c6.66699 16.667 16.667 27.334 30 32.001c18 6 36.333 9 55 9z" />
    <glyph glyph-name="h" unicode="h" horiz-adv-x="192" 
d="M22 691c-1.33301 0 -2.99707 -1.66699 -4.99707 -5v-17c-2.66699 -18 -4 -28 -4 -30c0 -13.333 1.33301 -28 4 -44h-2l2 -4v-7c0 -1.33301 -0.666992 -2 -2 -2l2 -4v-22c0 -2.66699 -0.666992 -5 -2 -7c1.33301 -2.66699 2 -5.33398 2 -8.00098
c0 -1.33301 -0.666992 -2 -2 -2l2 -3c0 -2.66699 -0.666992 -5.33398 -2 -8.00098c0 -0.666992 0.666992 -1 2 -1c-1.33301 -11.333 -2.66602 -17 -3.99902 -17l2 -4c0 -2.66699 -0.666992 -4 -2 -4l2 -18v-20c0 -1.33301 -0.666992 -2 -2 -2l2 -4v-20
c0 -12.667 0.666992 -31.334 2 -56.001c-1.33301 0 -2 -0.666992 -2 -2h24c1.33301 0 2 -0.333008 2 -1l3 1l4 -1l4 1c2 -0.666992 3.66699 -1 5 -1c2.66699 0 4 0.333008 4 1l13 -1h2c6 0 15.333 0.333008 28 1v21c0 4.66699 -0.666992 11.334 -2 20.001l2 4l-2 11v5
c0 1.33301 0.666992 2 2 2c0 1.33301 -0.666992 2 -2 2c1.33301 29.333 2.33301 44.666 3 45.999c-0.666992 6.66699 -1 13 -1 19c0 46 1.66699 76.667 5 92l-2 4c2.66699 7.33301 4 12.333 4 15c0 1.33301 -0.666992 2 -2 2c1.33301 16 2.66602 24 3.99902 24
c0 1.33301 -0.666992 2 -2 2l2 9l-2 9h2l-2 4v15c0 0.666992 0.666992 1 2 1c0 1.33301 -0.666992 2 -2 2l15 6c0 -4 0.666992 -6 2 -6l-2 -9v-24c0 -1.33301 -0.666992 -2 -2 -2c0 -1.33301 0.666992 -2 2 -2c-2.66699 0 -5.33398 -40.667 -8.00098 -122h-1l1 -3v-2
c0 -2.66699 -1 -4 -3 -4l2 -4v-13c0 -1.33301 -0.666992 -2 -2 -2l2 -3v-19c0 -4 -0.666992 -9.33301 -2 -16c0 -1.33301 0.666992 -2 2 -2l-2 -9v-4l2 -11l-2 -4l2 -4c-1.33301 -2 -2 -3.66699 -2 -5s0.666992 -3.33301 2 -6c0 -1.33301 -0.666992 -3 -2 -5l3 -37l-1 -4
c2 -36 3.66699 -71.667 5 -107l-2 -4l2 -11v-22c0 -1.33301 -0.666992 -2 -2 -2l2 -4v-2c0 -2.66699 -0.666992 -5 -2 -7l2 -4c0 -1.33301 -0.666992 -2 -2 -2l2 -18v-32c0 -2.66699 0.666992 -5 2 -7c-1.33301 -2 -2 -4.33301 -2 -7c0 -1.33301 0.666992 -2 2 -2l-2 -10
v-11c0 -2.66699 0.666992 -5 2 -7c-1.33301 -13.333 -2.66602 -20 -3.99902 -20l2 -4c1.33301 -43.333 3.33301 -74.666 6 -93.999l-6 -4h-5c-5.33301 10.667 -8 17.334 -8 20.001c2.66699 5.33301 4 9.66602 4 12.999c-1.33301 2 -2 4.66699 -2 8h2l-2 3v6
c0 1.33301 0.666992 2 2 2l-2 3v28l-2 13h2l-2 4v20c0 1.33301 0.666992 2 2 2l-2 4v29c0 2.66699 0.666992 5.33398 2 8.00098c0 1.33301 -0.666992 2 -2 2l2 11c-1.33301 21.333 -2 39.666 -2 54.999v13l4 6c-4 0.666992 -6 5.33398 -6 14.001v2c0 1.33301 0.666992 2 2 2
c-1.33301 2.66699 -2 4.66699 -2 6c0 2.66699 0.666992 5 2 7l-4 24c0 1.33301 0.666992 2 2 2l-2 9v2c0 2.66699 0.666992 5 2 7c0 1.33301 -0.666992 2 -2 2c0 1.33301 0.666992 3.33301 2 6c-1.33301 16 -2 29 -2 39l-1 3l-4 -1h-59
c-2.66699 0 -5.33398 -0.666992 -8.00098 -2c-2 1.33301 -4.33301 2 -7 2h-9c0 -9.33301 0.666992 -23.666 2 -42.999c0 -2.66699 -0.666992 -9.33398 -2 -20.001c2 -18 3 -37.333 3 -58v-5c0 -1.33301 -0.333008 -2 -1 -2l1 -4v-24l2 -13h-2l2 -3
c0 -13.333 1.33301 -34 4 -62c0 -0.666992 -0.666992 -1 -2 -1c1.33301 -12 2.66602 -19.667 3.99902 -23l-2 -3c0 -1.33301 0.666992 -2 2 -2l-2 -9v-28l2 -13h-2c0 -1.33301 0.666992 -2 2 -2l-2 -9c1.33301 -27.333 2 -42.333 2 -45l-9 -7
c-2.66699 5.33301 -5.33398 8.33301 -8.00098 9l2 10v16c0 1.33301 0.666992 2 2 2l-2 4c1.33301 19.333 2 31 2 35l-2 4l2 3c-1.33301 12.667 -2 22.667 -2 30c0 3.33301 0.666992 5 2 5l-2 10v3c0 11.333 -0.666992 27.333 -2 48c0 1.33301 0.666992 2 2 2l-2 10v16l-2 13
h2l-2 4v29l-2 12c0 0.666992 0.666992 1 2 1c-2 14.667 -3 32 -3 52v9c0 1.33301 0.333008 2 1 2c0 1.33301 -0.333008 2 -1 2c0 1.33301 0.333008 3.33301 1 6c-0.666992 28 -2.33398 42 -5.00098 42l2 13c-1.33301 34 -2 57.667 -2 71h2l-2 3c0 5.33301 0.666992 8 2 8
l-2 13v57c0 10 0.666992 23 2 39l-2 3c0 1.33301 0.666992 2 2 2l-2 13v11c0 1.33301 0.666992 2 2 2c-1.33301 2.66699 -2.66602 8.33398 -3.99902 17.001l2 4c-1.33301 6.66699 -2 12 -2 16v2c2.66699 18 4 28 4 30v22z" />
    <glyph glyph-name="i" unicode="i" horiz-adv-x="94" 
d="M19 678c0 -1.33301 0.334961 -2 1.00195 -2l-1 -22v-11c0 -41.333 -2 -76.333 -6 -105c0.666992 -4 1.16699 -8.16699 1.5 -12.5s0.5 -8.83301 0.5 -13.5v-2c0 -1.33301 -0.666992 -2 -2 -2l2 -4v-61l2 -11c0 -1.33301 -0.666992 -2 -2 -2l2 -13v-20
c0 -1.33301 -0.666992 -2 -2 -2l2 -4v-12c0 -1.33301 -0.666992 -2 -2 -2l2 -4v-20l2 -13h-2l2 -4c0 -1.33301 -0.666992 -2 -2 -2l2 -4v-11c0 -2 -0.166992 -4.33301 -0.5 -7s-0.833008 -5.66699 -1.5 -9c0 -1.33301 0.666992 -2 2 -2l-2 -9c0 -4 0.666992 -7.33301 2 -10
c-0.666992 -4 -1.16699 -7.66699 -1.5 -11s-0.5 -6.33301 -0.5 -9v-28c0 -2 0.666992 -4.33301 2 -7c-1.33301 -2.66699 -2 -5.33398 -2 -8.00098v-22c0 -2 0.666992 -4.33301 2 -7l-2 -4l1.5 -7.5c0.333008 -1.66699 0.5 -2.83398 0.5 -3.50098l-2 -7
c1.33301 -2.66699 2 -6 2 -10h-2l2 -3v-2l-4 -13c2.66699 -0.666992 4 -2 4 -4v-20c0 -1.33301 -0.666992 -2 -2 -2l2 -4v-2c0 -0.666992 -0.666992 -1 -2 -1l3 -23l-1 -3c0.666992 -20.667 1.66699 -32 3 -34c-1.33301 -2.66699 -2 -4.33398 -2 -5.00098
c0.666992 -11.333 1.16699 -20.166 1.5 -26.499s0.5 -10.5 0.5 -12.5l-2 -4c0.666992 -1.33301 -3 -0.666016 -11 2.00098v26c0 2.66699 -0.166992 5.66699 -0.5 9s-0.833008 7 -1.5 11c0 1.33301 0.666992 2 2 2c-2 20.667 -3 42.334 -3 65.001l1 11
c-0.666992 3.33301 -1 6.5 -1 9.5v9.5v18l-2 9h2l-2 4v2c0 3.33301 0.666992 5 2 5l-2 10v77c0 2.66699 0.666992 5.33398 2 8.00098c-1.33301 2.66699 -2 4.33398 -2 5.00098h2l-2 4v2c0 1.33301 0.666992 2 2 2l-2 3c0.666992 5.33301 1.16699 10 1.5 14
s0.5 7.33301 0.5 10l-2 6l2 4c-1.33301 21.333 -2.33301 38.166 -3 50.499s-1 20.166 -1 23.499c1.33301 7.33301 2.66602 11 3.99902 11c-3.33301 4 -5.33301 21.333 -6 52c0.666992 3.33301 1.16699 6.33301 1.5 9s0.5 5 0.5 7v93c0 1.33301 0.666992 2 2 2
c0 0.666992 -0.666992 1 -2 1l2 10c0 1.33301 -0.666992 2 -2 2l2 9v16c0 1.33301 0.666992 2 2 2c-1.33301 44 0.666992 66 6 66c5.33301 6.66699 7.66602 5.66699 6.99902 -3z" />
    <glyph glyph-name="j" unicode="j" horiz-adv-x="204" 
d="M94 687c0.666992 4.66699 3 6.33008 7 4.99707l4 -3c-4.66699 -15.333 -6.33398 -24.333 -5.00098 -27l-2 -4c1.33301 -2.66699 2 -5.33398 2 -8.00098l-2 -3l2 -4c-0.666992 -5.33301 -1.16699 -10.166 -1.5 -14.499s-0.5 -8.16602 -0.5 -11.499l2 -7h-2l2 -6
c0 -12.667 1.33301 -24.334 4 -35.001h-2c0 -1.33301 0.666992 -2 2 -2c0.666992 -11.333 1 -21.166 1 -29.499v-20.5v-31c0 -1.33301 -0.333008 -2 -1 -2l1 -4v-2c0 -3.33301 -0.333008 -5 -1 -5c1.33301 -16 2.33301 -25.333 3 -28l-2 -4
c2 -33.333 3.83301 -60.166 5.5 -80.499s3.16699 -34.166 4.5 -41.499l-2 -3l2 -6l-2 -9l2 -6h-2c0 -1.33301 0.666992 -2 2 -2c-1.33301 -9.33301 -2.66602 -14 -3.99902 -14l2 -4v-44c0 -2.66699 -0.666992 -5.33398 -2 -8.00098c0 -1.33301 0.666992 -2 2 -2
c-0.666992 -6 -1.16699 -11.167 -1.5 -15.5s-0.5 -8.16602 -0.5 -11.499v-28c0 -1.33301 -0.666992 -2 -2 -2c0 -1.33301 0.666992 -2 2 -2c-0.666992 -8.66699 -1.16699 -16 -1.5 -22s-0.5 -11 -0.5 -15v-26l2 -9h-2c0 -1.33301 0.666992 -2 2 -2
c0 -44 -7.33301 -72.333 -22 -85c-8.66699 -8.66699 -16.667 -13 -24 -13h-4c-23.333 0 -39.333 14.333 -48 43c-2.66699 3.33301 -4 6.33301 -4 9h2c-4.66699 8.66699 -7 19.667 -7 33h2c-2.66699 8 -4.66699 26.667 -6 56h9c3.33301 0 5.33301 -3.33301 6 -10
c0 -0.666992 -0.666992 -2.33398 -2 -5.00098c2.66699 -12.667 4 -23.667 4 -33h-2c6.66699 -52 19 -78 37 -78c0 -1.33301 2.33301 -2 7 -2c26 0 39 27.667 39 83l-2 30c1.33301 2.66699 2 5 2 7c0 1.33301 -0.666992 2 -2 2l2 13v15c0 2 -0.666992 4.33301 -2 7
c1.33301 2.66699 2 5.33398 2 8.00098v20c0 1.33301 0.666992 2 2 2l-2 4c0 0.666992 0.666992 1 2 1c0 1.33301 -0.666992 2 -2 2l2 13v17c0 1.33301 0.666992 2 2 2l-4 13l4 37c0 0.666992 -0.666992 1 -2 1l2 10v3c0 4 -0.666992 6 -2 6l2 6
c-0.666992 10.667 -1.16699 20 -1.5 28s-0.5 14.667 -0.5 20v3l-2 10h2l-2 3v10c0 3.33301 -0.166992 7.33301 -0.5 12s-0.833008 9.66699 -1.5 15l2 6c-1.33301 8 -2.33301 18.5 -3 31.5s-1 28.833 -1 47.5l-1 10h1l-1 3c0 1.33301 0.333008 2 1 2l-1 4v17
c0 6.66699 -2 38.667 -6 96h2l-2 3c0 20 2.33301 40.333 7 61z" />
    <glyph glyph-name="k" unicode="k" horiz-adv-x="213" 
d="M19 680c2 -4 3 -6.99121 3 -8.99121c-1.33301 -4 -2.33301 -6 -3 -6c0 -1.33301 0.333008 -2 1 -2c-0.666992 -10 -1.66699 -16 -3 -18c0 -1.33301 0.666992 -2 2 -2c-2 -10.667 -3.33301 -17.334 -4 -20.001l2 -11v-4c0 -2.66699 -1.33301 -4 -4 -4
c2.66699 -4.66699 4 -11.334 4 -20.001c0 -4 -0.666992 -8.33301 -2 -13l4 -43c-1.33301 -18.667 -2 -38.334 -2 -59.001v-18c0 -1.33301 -0.666992 -2 -2 -2l2 -4v-17c0 -1.33301 -1.33301 -8 -4 -20v-7c0 -8.66699 0.666992 -22.334 2 -41.001h2
c6.66699 12.667 11 19 13 19l-2 3c7.33301 16 26.333 74 57 174c12.667 30 25 69.667 37 119h8c3.33301 0 5 -2.66699 5 -8c-10 -41.333 -22.333 -78.333 -37 -111c0 -4.66699 -11.667 -42.334 -35 -113.001c-18.667 -66.667 -31.667 -100 -39 -100v-3
c17.333 -52 29.666 -96 36.999 -132l20 -77c0 -4 11.333 -40.667 34 -110c2 -8.66699 3 -15.334 3 -20.001l-3 -2c-1.33301 0 -2 0.666992 -2 2l-4 -2c-4 0 -9.33301 17.333 -16 52c-8.66699 15.333 -18.667 48.666 -30 99.999c-6 18 -11.667 40.333 -17 67l-26 87h-1
c0 -4 -0.666992 -8.33301 -2 -13c1.33301 -2.66699 2 -4.66699 2 -6h-2l2 -4v-14l1 -10h-1c0.666992 -2 1 -3.66699 1 -5l-1 -4c0 -1.33301 0.333008 -2 1 -2c0 -1.33301 -0.333008 -3 -1 -5c0.666992 -14 1 -26 1 -36v-7c0 -2.66699 0.666992 -5 2 -7
c-1.33301 -2.66699 -2 -5.33398 -2 -8.00098v-5c0 -2.66699 0.666992 -5.33398 2 -8.00098c0 -1.33301 -0.666992 -2 -2 -2l2 -11c-1.33301 -19.333 -2 -31 -2 -35l2 -16l-2 -12c0 -6 1.33301 -9 4 -9l-2 -9v-17l2 -9h-2l2 -4l-2 -11c0 -1.33301 0.666992 -2 2 -2l-2 -9v-29
c0 -2 -1.66699 -4 -5 -6h-4c-1.33301 0 -3.66602 2.33301 -6.99902 7c2 12 3 28.667 3 50v41c0 1.33301 0.666992 2 2 2c0 1.33301 -0.666992 2 -2 2l2 7l-2 13h2l-2 4v18c0 4 -0.666992 6 -2 6l2 7c-2 62 -3 104 -3 126c0 3.33301 -0.666992 8.33301 -2 15
c1.33301 2 2 3.66699 2 5l-4 50h2l-2 4c0 5.33301 -0.666992 24 -2 56c2.66699 24 4 41.667 4 53v9c0 1.33301 0.666992 2 2 2l-2 4v9c0 4 0.666992 6 2 6l-2 7c1.33301 30 2 46.667 2 50l-2 8c0 0.666992 0.666992 1 2 1c-2.66699 32 -4 55.667 -4 71h2
c0 1.33301 -0.666992 2 -2 2c1.33301 14.667 3 22 5 22l-1 3v4c0 17.333 4.33301 26 13 26z" />
    <glyph glyph-name="l" unicode="l" horiz-adv-x="171" 
d="M9 685c5.33301 -2 8.00098 -3.99902 8.00098 -5.99902v-9c0 -5.33301 0.666992 -10.333 2 -15c-2.66699 -13.333 -4 -34.333 -4 -63v-22c0 -2.66699 -0.666992 -5.33398 -2 -8.00098l2 -3l-2 -22l2 -4l-2 -4l2 -11c0 -1.33301 -0.666992 -2 -2 -2l2 -4v-16
c0 -2.66699 -0.666992 -5.33398 -2 -8.00098c0 -0.666992 0.666992 -1 2 -1c0 -1.33301 -0.666992 -3.33301 -2 -6l2 -13l-2 -22l4 -8c0 -2 -0.666992 -3 -2 -3l2 -19v-27c0 -7.33301 -0.666992 -16 -2 -26l2 -4c-1.33301 -2 -2 -4.33301 -2 -7
c1.33301 -2.66699 2 -4.66699 2 -6h-2c1.33301 -2 2.66602 -10 3.99902 -24l-2 -4c0 -1.33301 0.666992 -3 2 -5c-1.33301 -12.667 -2 -22.667 -2 -30v-5c0 -5.33301 0.666992 -12.333 2 -21l-4 -15c0 -0.666992 0.666992 -1 2 -1l-2 -10l4 -85h-2l2 -4v-3
c0 -1.33301 -0.666992 -2 -2 -2c0 -1.33301 0.666992 -2 2 -2l-2 -9l2 -17h-2c1.33301 -2 2 -3.66699 2 -5c0 -2.66699 -0.666992 -4 -2 -4l2 -13v-13c0 -2.66699 -0.666992 -5 -2 -7c1.33301 -2.66699 2 -5.33398 2 -8.00098v-2c0 -0.666992 -0.666992 -1 -2 -1l2 -4v-19
c0 -1.33301 -0.666992 -2 -2 -2l2 -3v-4c0 -1.33301 -0.666992 -2 -2 -2c1.33301 -2 2 -3.66699 2 -5h18l11 -2c1.33301 0 2 0.666992 2 2l13 -2h17l9 2v-2l29 5l4 -5v-4c0 -5.33301 -9.66699 -8.33301 -29 -9h-8c-1.33301 0 -2 0.666992 -2 2l-3 -2h-43
c-6 0 -15.333 -0.666992 -28 -2c-3.33301 7.33301 -5.66602 11 -6.99902 11c1.33301 14 2.66602 22 3.99902 24c-1.33301 2 -2 4.66699 -2 8h2c0 0.666992 -0.666992 1 -2 1c2 9.33301 3 15 3 17l-1 9l1 8c0 2 -1 7 -3 15c1.33301 4.66699 2 8.66699 2 12l-2 4
c0 1.33301 0.666992 2 2 2l-2 13v72c0 1.33301 0.666992 2 2 2l-2 4v22l-2 9h2c0 1.33301 -0.666992 2 -2 2l2 13v52c0 1.33301 0.666992 2 2 2c-1.33301 2 -2 3.66699 -2 5s0.666992 3.33301 2 6c0 1.33301 -0.666992 3 -2 5c0 2.66699 0.666992 5.33398 2 8.00098
c-2 20 -3.33301 31 -4 33l2 4c-1.33301 2 -2 3.66699 -2 5h2l-2 4l2 7c-1.33301 2.66699 -2 4.66699 -2 6h2l-2 4v3c0 1.33301 0.666992 2 2 2c0 1.33301 -0.666992 2 -2 2l2 9c0 1.33301 -0.666992 5 -2 11h2c0 1.33301 -0.666992 2 -2 2l2 13c0 2.66699 -0.666992 5 -2 7
c0 1.33301 0.666992 2 2 2l-2 19v24c0 2.66699 -0.666992 5 -2 7c1.33301 2 2 4.66699 2 8v9c0 5.33301 -0.666992 10.333 -2 15l2 9l-2 17c0 0.666992 0.666992 1 2 1l-2 10v3c-0 2 1.33301 9 4 21v57c0 8.66699 -0.666992 22.334 -2 41.001z" />
    <glyph glyph-name="m" unicode="m" horiz-adv-x="258" 
d="M7 682c5.33301 0 9.66699 -7.99902 13 -23.999c3.33301 -3.33301 11 -21.333 23 -54c16.667 -26.667 25 -44.334 25 -53.001v-6c5.33301 0 8 -3.66699 8 -11h4c11.333 10 32.666 53 63.999 129c3.33301 11.333 7 17.666 11 18.999h4c6 -5.33301 9 -11.666 9 -18.999
c-2 0 -3 -1 -3 -3v-8c0 -15.333 -2 -44.333 -6 -87c1.33301 -8 2 -14.667 2 -20h-2l2 -4c0 -1.33301 -0.666992 -2 -2 -2l4 -44c-1.33301 -4.66699 -2.66602 -7 -3.99902 -7c1.33301 -2.66699 2 -4.66699 2 -6c0 -4 -0.666992 -8.33301 -2 -13l2 -9
c-1.33301 -16.667 -2 -30.334 -2 -41.001c0 -1.33301 0.666992 -3 2 -5l-2 -4c1.33301 -8.66699 2 -16 2 -22l-2 -8c0 -0.666992 0.666992 -1 2 -1l-2 -10v-24c0 -1.33301 -0.666992 -2 -2 -2l2 -3v-6c0 -1.33301 -0.666992 -2 -2 -2c1.33301 -2 2 -3.66699 2 -5l-2 -4
c2.66699 -6 4 -10.333 4 -13c-1.33301 -6.66699 -2 -12.334 -2 -17.001l2 -7c0 -1.33301 -0.666992 -2 -2 -2l2 -9v-20c0 -3.33301 0.666992 -6 2 -8l-2 -4c1.33301 -45.333 3.33301 -77.333 6 -96h-2l2 -3v-39l1 -19h-1l1 -3v-13c0 -1.33301 -0.333008 -2 -1 -2l3 -8
c0 -1.33301 -0.666992 -3 -2 -5c2.66699 -24.667 4 -41.334 4 -50.001l-5 -4h-2c-5.33301 0 -8 8 -8 24h2c0 1.33301 -0.666992 2 -2 2l-3 100h1c-0.666992 2 -1 3.66699 -1 5c0 26.667 -1.33301 45.334 -4 56.001c1.33301 2.66699 2 4.66699 2 6
c0 0.666992 -0.666992 2.33398 -2 5.00098l2 7c-1.33301 22 -2.66602 33.333 -3.99902 34c1.33301 2 2 4.33301 2 7c0 3.33301 -0.666992 8.33301 -2 15l2 13c-1.33301 6.66699 -2 11.667 -2 15c0 1.33301 0.666992 2 2 2l-2 9v87c0 1.33301 0.666992 2 2 2l-2 3
c0 1.33301 0.666992 2 2 2l-2 4v7c0 4 0.666992 6 2 6l-2 9v39c0 2.66699 0.666992 5 2 7c-1.33301 2.66699 -2 5.33398 -2 8.00098h2l-2 3v8c0 1.33301 0.666992 2 2 2l-2 3l2 4c-1.33301 2 -2 4.33301 -2 7h2l-2 4v6c0 10 -0.666992 18 -2 24c1.33301 7.33301 2 16 2 26v5
c0 2.66699 0.666992 5.33398 2 8.00098l-2 3l2 10l-2 9c2.66699 14 4 28.667 4 44v2h-2c-10 -26 -20 -47 -30 -63c0 -13.333 -13 -36.666 -39 -69.999h-3c-4 4.66699 -12.667 22 -26 52c-23.333 50.667 -36.333 77.667 -39 81h-2l2 -4v-22c0 -1.33301 -0.666992 -2 -2 -2
c1.33301 -2 2 -3.66699 2 -5l2 -30l-2 -4l2 -3c0 -1.33301 -0.666992 -2 -2 -2l2 -9v-13c0 -1.33301 0.666992 -2 2 -2c-1.33301 -13.333 -2.66602 -20 -3.99902 -20c1.33301 -2.66699 2 -4.66699 2 -6l-2 -4c0 -1.33301 0.666992 -2 2 -2l-2 -13v-37
c0 -2.66699 0.666992 -5 2 -7l-2 -4c1.33301 -22.667 2.66602 -34.334 3.99902 -35.001c-1.33301 -10.667 -2 -19.334 -2 -26.001v-31c0 -1.33301 -0.666992 -2 -2 -2l2 -4v-5c0 -2.66699 -0.666992 -5.33398 -2 -8.00098c1.33301 -2 2 -4.33301 2 -7v-6l-2 -3l4 -2
c0 -1.33301 -0.666992 -3.33301 -2 -6c0.666992 -9.33301 2 -14 4 -14l-2 -10v-5l2 -11c0 -1.33301 -0.666992 -2 -2 -2l2 -13v-11c0 -1.33301 -0.666992 -2 -2 -2l3 -11l-1 -9c0 -8 1 -20 3 -36c0 -0.666992 -0.666992 -1 -2 -1l2 -10v-26c0 -2.66699 0.666992 -5 2 -7
c0 -1.33301 -0.666992 -2 -2 -2c4 -16 6 -39.333 6 -70h-2c2.66699 -5.33301 4 -9.66602 4 -12.999h-2l2 -4c0 -8 1 -31.333 3 -70l-3 -2h-2c-4.66699 0 -7.66699 8 -9 24l1 4c-1.33301 11.333 -2.33301 18.666 -3 21.999c0 1.33301 0.666992 2 2 2l-2 9v6
c-2.66699 73.333 -5.33398 119.333 -8.00098 138h2l-2 4v15c0 2.66699 -0.666992 5 -2 7c1.33301 2.66699 2 4.66699 2 6l-2 13h2l-3 18l1 4c-0.666992 2.66699 -1 4.66699 -1 6h1l-1 3v34l-2 12h2l-2 4v11c0 8.66699 -0.666992 13.667 -2 15
c1.33301 8.66699 2 15.334 2 20.001v49c0 2.66699 0.666992 5 2 7l-2 4c-1.33301 38 -2 62.667 -2 74c0 10 1.33301 24.667 4 44l-6 96h2l-2 4v4c0 4 0.666992 9.33301 2 16l-2 4c0.666992 8.66699 3 13 7 13z" />
    <glyph glyph-name="n" unicode="n" horiz-adv-x="241" 
d="M6 695h2.99902c10 -7.33301 20.333 -27 31 -59l122 -230h2l-2 9v34c0 4.66699 -0.666992 8 -2 10l2 11v27c0 0.666992 0.666992 1 2 1c-2.66699 5.33301 -4 12.333 -4 21v4c0 1.33301 0.666992 2 2 2l-3 23l1 7c-0.666992 10.667 -1 19 -1 25h1
c-0.666992 2 -1 3.66699 -1 5c0 3.33301 0.333008 6 1 8c-0.666992 6.66699 -1 12.334 -1 17.001v4c0 0.666992 0.333008 1 1 1c0 1.33301 -0.333008 2 -1 2l1 19v2c-2 21.333 -3 33.333 -3 36v8c0 1.33301 1.66699 3 5 5c2 0 6 -4.33301 12 -13l-2 -9
c0 -1.33301 0.666992 -3.33301 2 -6c0 -1.33301 -0.666992 -2 -2 -2l2 -9c-1.33301 -28.667 -2 -50.334 -2 -65.001l2 -9l-2 -4c1.33301 -2 2 -4.33301 2 -7c0 -1.33301 -0.666992 -2 -2 -2l2 -4c1.33301 -34.667 2 -63.667 2 -87v-4c0 -1.33301 -0.666992 -2 -2 -2l2 -3
v-14c0 -4.66699 0.333008 -9.66699 1 -15l-3 -22c0 -6 0.666992 -14.333 2 -25c-1.33301 -25.333 -2 -48 -2 -68c1.33301 -8.66699 2 -13.667 2 -15h-2l2 -4v-7c0 -1.33301 -0.666992 -2 -2 -2c0 -1.33301 0.666992 -2 2 -2l-2 -19v-15c0 -5.33301 0.666992 -10.333 2 -15
l-4 -36l2 -4l-2 -4l2 -11c0 -1.33301 -0.666992 -2 -2 -2l2 -4v-9c0 -1.33301 -0.666992 -2 -2 -2l2 -4v-19c0 -0.666992 -0.666992 -1 -2 -1l2 -4v-21c0 -2.66699 -0.666992 -5 -2 -7c1.33301 -2.66699 2 -5.33398 2 -8.00098v-4c0 -1.33301 -0.666992 -2 -2 -2
c0 -1.33301 0.666992 -2 2 -2c-2.66699 -24 -4 -45.333 -4 -64l-2 -4c0 -0.666992 0.666992 -1 2 -1c-0.666992 -16.667 -3.33398 -25 -8.00098 -25h-3c-4 0 -6 10 -6 30c2.66699 0 4 1.33301 4 4v21c0 1.33301 0.666992 2 2 2c0 1.33301 -0.666992 2 -2 2
c1.33301 12 3 21.333 5 28c-1.33301 4 -2.33301 6 -3 6l1 13v2l-1 13h1c0 1.33301 -0.333008 2 -1 2l1 9v57c0 1.33301 0.666992 2 2 2l-2 3v84c0 0.666992 0.666992 1 2 1l-2 4v2c0 1.33301 0.666992 2 2 2l-2 4v66c0 1.33301 0.666992 2 2 2l-2 4c1.33301 8 2 14.667 2 20
c-25.333 38 -58 96.667 -98 176c-17.333 25.333 -33.666 60 -48.999 104h-2v-21c0 -1.33301 -0.666992 -2 -2 -2l2 -4v-30c0 -1.33301 -0.666992 -2 -2 -2l2 -4v-9c0 -28.667 1.33301 -46.334 4 -53.001c0 -1.33301 -0.666992 -2 -2 -2l2 -9v-6
c0 -1.33301 -0.666992 -2 -2 -2l2 -4v-60c0 -1.33301 -0.666992 -2 -2 -2c2.66699 -7.33301 4 -23.666 4 -48.999v-23l2 -11l-2 -4l2 -11h-2c0 -1.33301 0.666992 -2 2 -2c-1.33301 -11.333 -2.66602 -17 -3.99902 -17l2 -4v-11c0 -5.33301 0.666992 -12.333 2 -21
c0 -1.33301 -0.666992 -2 -2 -2l2 -9v-6c0 -10 -0.666992 -22 -2 -36l2 -3l-2 -12v-2l2 -13h-2l2 -4v-11c0 -8.66699 0.666992 -22.667 2 -42h-2c0 -0.666992 0.666992 -1 2 -1c-2.66699 -9.33301 -4 -15.666 -4 -18.999l2 -27h-2l2 -3v-10
c0 -4.66699 -0.666992 -10.334 -2 -17.001c0 -1.33301 0.666992 -2 2 -2l-2 -13v-19c0 -6 -0.666992 -12.333 -2 -19c1.33301 -4.66699 2 -10.334 2 -17.001v-9c0 -2.66699 -1.33301 -4 -4 -4h-2c-2 0 -4.33301 6.33301 -7 19c1.33301 34.667 2 63.667 2 87v49
c0 1.33301 0.333008 2 1 2l-1 3v2c0 1.33301 0.333008 2 1 2l-1 4c0 1.33301 0.333008 2 1 2l-1 9v6c0 2.66699 0.333008 5.33398 1 8.00098c-0.666992 2 -1 3.66699 -1 5h1c0 1.33301 -0.333008 2 -1 2l1 19v2c0 10.667 -0.333008 22 -1 34
c0.666992 4.66699 1 9.66699 1 15l-1 9h1c-0.666992 2.66699 -1 4.66699 -1 6s0.333008 2 1 2l-1 9v16l-2 18h2l-2 4v12c0 0.666992 0.666992 1 2 1c0 1.33301 -0.666992 2 -2 2c0.666992 14 1.66699 21 3 21c-2 4 -3 7.66699 -3 11v63c0 2.66699 -0.666992 5 -2 7
c1.33301 2.66699 2 5.33398 2 8.00098v9l-2 10h2c0 1.33301 -0.666992 2 -2 2l2 9v23l-2 11l2 4c-1.33301 2 -2 3.66699 -2 5s0.666992 2 2 2c-4 24.667 -6 41.667 -6 51v12c0 2.66699 0.666992 5 2 7c-1.33301 2 -2 4.66699 -2 8l2 3l-2 4
c1.33301 5.33301 2 9.66602 2 12.999l-2 4c1.33301 2.66699 2 5.33398 2 8.00098s-0.666992 5 -2 7c0 1.33301 0.666992 2 2 2l-2 13v23c0 2 2 4 6 6z" />
    <glyph glyph-name="o" unicode="o" horiz-adv-x="241" 
d="M89 704c27.333 0 48.333 -51.668 63 -155.001h-2c2 -4.66699 4.33301 -27.667 7 -69h-2c0 -1.33301 0.666992 -2 2 -2c-1.33301 -12.667 -2.33301 -20.667 -3 -24l3 -7c0 -1.33301 -0.666992 -2 -2 -2l6 -29h-2l2 -4c0 -1.33301 -0.666992 -2 -2 -2l2 -9v-11l-2 -4
c2.66699 -0.666992 4 -2 4 -4c-1.33301 -6.66699 -2 -10.334 -2 -11.001l2 -7c-1.33301 -2.66699 -2 -4.66699 -2 -6c1.33301 -2 2 -3.66699 2 -5s-0.666992 -2 -2 -2l2 -13v-9c0 -1.33301 -0.666992 -2 -2 -2l2 -4c0 -1.33301 -0.666992 -2 -2 -2l2 -9v-6
c0 -0.666992 -0.666992 -1 -2 -1l2 -4v-2c0 -1.33301 -0.666992 -2 -2 -2l2 -4v-22l2 -11c-1.33301 -2 -2 -3.66699 -2 -5s0.666992 -2 2 -2l-2 -13v-22c0 -1.33301 -0.666992 -2 -2 -2l2 -4c0 -1.33301 -0.666992 -2 -2 -2c0 -1.33301 0.666992 -2 2 -2l-2 -9v-18
c0 -1.33301 -0.666992 -2 -2 -2l2 -4c0 -1.33301 -0.666992 -2 -2 -2c0 -1.33301 0.666992 -2 2 -2c-2 -26 -4 -39 -6 -39c0 -0.666992 0.666992 -1 2 -1l-2 -10v-11c0 -43.333 -14 -78.333 -42 -105c-16 -8.66699 -27.667 -13.667 -35 -15
c-25.333 0 -41.333 9.33301 -48 28c-9.33301 10 -17.333 41.333 -24 94c0 1.33301 0.333008 2 1 2l-1 9c-1.33301 30 -2 46.667 -2 50h2l-2 4l2 11c0 1.33301 -0.666992 2 -2 2c0 1.33301 0.666992 3 2 5l-4 56h2l-2 4v37c0 0.666992 0.666992 1 2 1l-2 4v28
c0 10 0.666992 21.667 2 35c0 1.33301 -0.666992 2 -2 2l2 9v6c0 4 -0.666992 9.33301 -2 16c1.33301 2.66699 2 4.66699 2 6c-1.33301 2 -2 4.33301 -2 7h2c0 1.33301 -0.666992 2 -2 2c0 1.33301 0.666992 3.33301 2 6c-2.66699 16 -4 32 -4 48v11
c0 1.33301 0.666992 2 2 2l-2 3v2c0 2.66699 0.666992 5.33398 2 8.00098l-2 3c8 84.667 16.667 137.334 26 158.001c17.333 36.667 38.333 55 63 55zM33 629.999l1.99707 -3.99609c-4 -13.333 -7 -20 -9 -20l2 -4c-5.33301 -32.667 -9 -50.334 -11 -53.001
c0 -1.33301 0.666992 -2 2 -2l-2 -9v-2l2 -4c-2.66699 0 -4.66699 -5.66699 -6 -17c0 -0.666992 0.666992 -1 2 -1l-2 -13v-32c0 -1.33301 -0.666992 -2 -2 -2l2 -3v-13l2 -13h-2l2 -4v-13c0 -4.66699 0.666992 -10.334 2 -17.001c-1.33301 -2 -2 -3.66699 -2 -5
c1.33301 0 2 -0.666992 2 -2l-4 -2l2 -4v-27c0 -1.33301 -0.666992 -2 -2 -2l2 -4v-13c0 -1.33301 -0.666992 -2 -2 -2l2 -3v-32c0 -1.33301 -0.666992 -2 -2 -2c0.666992 -4.66699 2 -7 4 -7l-2 -9v-2c0 -2.66699 0.666992 -5.33398 2 -8.00098l-2 -3
c1.33301 -6.66699 2 -12.334 2 -17.001v-2c0 -1.33301 -0.666992 -2 -2 -2c1.33301 -2.66699 2.66602 -8 3.99902 -16h-2c0 -1.33301 0.666992 -2 2 -2l-2 -7l2 -10h-2c0 -1.33301 0.666992 -2 2 -2l-2 -9c1.33301 -2 2 -3.66699 2 -5h-2l2 -4
c0 -2.66699 -0.666992 -5 -2 -7c0 -1.33301 0.666992 -2 2 -2l-2 -13c0 -35.333 3.66699 -73 11 -113l-2 -4c4.66699 -18.667 13.334 -36.334 26.001 -53.001l4 1c8.66699 -3.33301 16.667 -5 24 -5c20.667 8 34.667 19 42 33c17.333 34 26 97.667 26 191v11
c0 1.33301 0.666992 2 2 2c0 0.666992 -0.666992 1 -2 1l2 10v44c0 2.66699 0.666992 5.33398 2 8.00098c-1.33301 2 -2 3.66699 -2 5h2l-2 4v2c0 0.666992 0.666992 1 2 1l-2 4v22c0 21.333 -1.33301 38 -4 50h2c-1.33301 3.33301 -3.66602 27.333 -6.99902 72
c0.666992 2.66699 1 4.66699 1 6s-0.333008 2 -1 2l1 9v19c0 0.666992 0.666992 1 2 1l-2 4v2c0 13.333 -1.66699 26.333 -5 39h2c-10.667 66 -23 112.333 -37 139c-9.33301 0.666992 -15.666 1.66699 -18.999 3c-9.33301 0 -22.666 -12.333 -39.999 -37
c0 -6.66699 -3.33301 -14 -10 -22z" />
    <glyph glyph-name="p" unicode="p" horiz-adv-x="196" 
d="M17 705c1.33301 -2.66699 1.99805 -4.6709 1.99805 -6.00391c29.333 0 54 -18.333 74 -55c14.667 -34 26.334 -75.333 35.001 -124c0 -2.66699 -0.666992 -4 -2 -4l2 -18v-15c0 -34.667 -2 -63.667 -6 -87c0 -1.33301 0.666992 -2 2 -2
c0 -15.333 -7.33301 -40.666 -22 -75.999c-21.333 -30.667 -40.666 -46 -57.999 -46l-27 -11v-15c0 -1.33301 -0.666992 -2 -2 -2l2 -3v-23c0 -4 0.666992 -7 2 -9l-2 -11v-9c0 -4 0.666992 -7.33301 2 -10l-2 -11c0 -4 0.666992 -9.33301 2 -16l-2 -4
c0 -1.33301 0.666992 -2 2 -2c-1.33301 -12 -2 -21.333 -2 -28v-24c0 -2.66699 -0.666992 -5 -2 -7c1.33301 -2 2 -4.33301 2 -7v-2c0 -5.33301 -0.666992 -8 -2 -8l2 -13v-22l-2 -11l2 -4c-1.33301 -13.333 -3.33301 -20 -6 -20c0 2 -1.66699 4 -5 6l-4 -2
c0 4.66699 -0.666992 7 -2 7l2 9v6c0 14 0.666992 24 2 30c-1.33301 11.333 -2 23 -2 35v7c0.666992 24.667 2 37 4 37l-2 9v10c0 4.66699 0.666992 7 2 7l-2 13v131c0 1.33301 0.666992 2 2 2c-1.33301 2.66699 -2 4.66699 -2 6c0 3.33301 0.666992 5 2 5l-2 19v27
c0 1.33301 0.666992 2 2 2l-2 4v2c0 1.33301 0.666992 2 2 2l-2 3v4c0 2.66699 0.666992 5.33398 2 8.00098l-2 3l2 4c-1.33301 4.66699 -2 9 -2 13l2 4c-1.33301 2 -2 4.33301 -2 7v7c0 1.33301 0.666992 2 2 2l-2 4v46c0 12.667 0.666992 31.334 2 56.001h1l-1 3v61
c0 3.33301 -0.666992 6 -2 8c0 1.33301 0.666992 2 2 2c0 1.33301 -0.666992 7.33301 -2 18c1.33301 32 3 49.333 5 52l-2 4v9c0 1.33301 0.666992 2 2 2l-2 3c0.666992 2.66699 4 5.33398 10 8.00098zM19.998 684.996l-0.00195312 -2.00098
c0 -15.333 -1 -29.666 -3 -42.999l2 -4l-2 -3c1.33301 -2.66699 2 -4.66699 2 -6l-2 -4l2 -3c0 -1.33301 -0.666992 -2 -2 -2l2 -9v-39c0 -1.33301 -0.666992 -2 -2 -2l2 -4v-27c0 -1.33301 -0.666992 -2 -2 -2l2 -4v-7c0 -1.33301 -0.666992 -2 -2 -2l2 -4v-6
c0 -2.66699 -0.666992 -5 -2 -7c0 -1.33301 0.666992 -2 2 -2l-2 -9v-33c0 -5.33301 0.666992 -12.333 2 -21c-1.33301 -2 -2 -3.66699 -2 -5c1.33301 -8 2 -16 2 -24v-6c0 -1.33301 -0.666992 -2 -2 -2l2 -3v-13c0 -4.66699 -0.666992 -8 -2 -10l2 -11v-20
c0 -2.66699 -0.666992 -5 -2 -7c1.33301 -2.66699 2 -4.66699 2 -6h-2l2 -4v-5c0 -1.33301 -0.666992 -2 -2 -2l2 -4c0 -1.33301 -0.666992 -2 -2 -2l2 -3l-2 -11c0 -1.33301 0.666992 -2 2 -2l-2 -10v-12h2c32.667 10 49 18 49 24c12.667 6.66699 24 25 34 55
c4 18.667 6.33301 28 7 28c0 1.33301 -0.666992 2 -2 2l6 48c0 1.33301 -0.666992 2 -2 2c2.66699 14 4 33.667 4 59l-2 4c0 0.666992 0.666992 1 2 1c-2 18 -4.66699 33.667 -8 47h2c-3.33301 8 -7.66602 24.667 -12.999 50c-19.333 58 -42.666 87 -69.999 87h-6z" />
    <glyph glyph-name="q" unicode="q" horiz-adv-x="234" 
d="M87 682c37.333 0 61.334 -29.6631 72.001 -88.9961c1.33301 -10 2.66602 -16 3.99902 -18l-2 -4c1.33301 -6.66699 2 -11.667 2 -15l-2 -3c1.33301 -2.66699 2 -5.33398 2 -8.00098h-2c1.33301 -2 2 -3.66699 2 -5c-2.66699 -4 -4 -7.66699 -4 -11l2 -10h-2l4 -18l-2 -4
c1.33301 -16.667 2 -28.334 2 -35.001l-2 -7c1.33301 -2.66699 2 -4.66699 2 -6h-2c1.33301 -2 2 -3.66699 2 -5l-2 -4c1.33301 -2 2 -4.66699 2 -8h-2l2 -3v-32c0 -2.66699 0.666992 -5 2 -7c-1.33301 -2 -2 -4.33301 -2 -7v-28c0 -2.66699 0.666992 -5.33398 2 -8.00098
c-1.33301 -2 -2 -4.33301 -2 -7v-4c0 -2.66699 0.666992 -5 2 -7l-2 -4l2 -4c-1.33301 -2 -2 -4.33301 -2 -7l2 -4c0 -0.666992 -0.666992 -1 -2 -1l2 -13v-8c0 -1.33301 -0.666992 -2 -2 -2c0 -1.33301 0.666992 -2 2 -2l-2 -12c0 -30 -1.33301 -58.667 -4 -86
c0 -0.666992 0.666992 -1 2 -1c-2.66699 -22.667 -4.66699 -34 -6 -34l2 -9v-6c0 -4.66699 -0.666992 -11.334 -2 -20.001c0 -1.33301 0.666992 -2 2 -2c-1.33301 -26 -3 -40 -5 -42l2 -4c-6.66699 -24.667 -13.667 -39.334 -21 -44.001
c8.66699 -31.333 14.334 -50 17.001 -56c-1.33301 -2 -2 -3.66699 -2 -5c4 0 9 -13.667 15 -41l-4 -2h-5c-10 12.667 -15 24.334 -15 35.001c-2 1.33301 -7.66699 20 -17 56h-2c0 -2.66699 -6 -6.33398 -18 -11.001v-2l-4 2h-9c-24 0 -44.333 11.667 -61 35
c-12.667 39.333 -21.334 86 -26.001 140c0 1.33301 0.666992 2 2 2c-1.33301 6.66699 -2 11.667 -2 15c0 6.66699 0.666992 17 2 31c-1.33301 2.66699 -2 4.66699 -2 6c1.33301 2 2 4.33301 2 7l-2 8c1.33301 2 2 3.66699 2 5c-1.33301 2.66699 -2 4.66699 -2 6
s0.666992 2 2 2l-2 13v20c0 1.33301 0.666992 2 2 2l-2 4v16c0 2.66699 -0.666992 5.33398 -2 8.00098l2 3c-1.33301 12.667 -2 22 -2 28h2l-2 4v7c0 1.33301 0.666992 2 2 2c-1.33301 2.66699 -2 4.66699 -2 6l2 13l-2 3l2 4c0 1.33301 -0.666992 2 -2 2
c1.33301 33.333 3.33301 61 6 83c0 1.33301 -0.666992 2 -2 2c7.33301 83.333 19 141.333 35 174c11.333 20.667 27.333 31 48 31zM80.001 669.004l-20.998 -11.001c-11.333 -18 -22.333 -49.333 -33 -94l2 -4l-2 -4c0 -0.666992 0.666992 -1 2 -1
c-5.33301 -35.333 -9 -58.333 -11 -69l2 -4v-1c0 -1.33301 -0.666992 -2 -2 -2c0 -1.33301 0.666992 -2 2 -2c-2.66699 -17.333 -4.66699 -50 -6 -98c1.33301 -2.66699 2 -4.66699 2 -6h-2l2 -3v-43c0 -10 0.666992 -21.667 2 -35c-1.33301 -2.66699 -2 -4.66699 -2 -6
l2 -11l-2 -3l2 -4c-1.33301 -8.66699 -2 -16 -2 -22l2 -4c-1.33301 -2 -2 -4.33301 -2 -7v-2c0 -5.33301 0.666992 -8 2 -8l-2 -13v-18l2 -22h-2l7 -48h-2c12 -59.333 19.667 -89 23 -89c18.667 -14.667 34 -22 46 -22c9.33301 0.666992 18.666 3.66699 27.999 9
c-11.333 23.333 -21.333 49 -30 77c-4.66699 18 -7 28.667 -7 32v9c0 2 1.66699 4 5 6c5.33301 -2 8 -4 8 -6v-2c0 -1.33301 -0.666992 -2 -2 -2c12 -41.333 23.667 -75 35 -101c12 16 18 37 18 63h2l-2 3v6c0 1.33301 0.666992 2 2 2c0 1.33301 -0.666992 2 -2 2l2 9v11
c0 22 1.33301 40.333 4 55c-1.33301 2.66699 -2 4.66699 -2 6l4 2l-2 4c0 0.666992 0.666992 1 2 1c-1.33301 2.66699 -2 4.66699 -2 6c0 21.333 1.33301 38.666 4 51.999c-1.33301 2 -2 4.33301 -2 7v8c0 0.666992 0.666992 1 2 1l-2 4l2 4c-1.33301 2 -2 3.66699 -2 5
c1.33301 4.66699 2 7.33398 2 8.00098l-2 7c0 2.66699 0.666992 4 2 4c-1.33301 12 -2 21.333 -2 28v37c0 0.666992 0.666992 1 2 1l-2 4v13c0 12 -0.666992 26.667 -2 44l2 4c-1.33301 6.66699 -2 12.334 -2 17.001v7c0 8 0.666992 16 2 24
c-1.33301 4.66699 -2 9.66699 -2 15h2c0 1.33301 -0.666992 2 -2 2l4 31c-2.66699 0 -4 1.33301 -4 4v37c0 20 -7.33301 45.333 -22 76c-8.66699 13.333 -22.334 20 -41.001 20c-2.66699 -1.33301 -4.66699 -2 -6 -2c0 1.33301 -0.333008 2 -1 2z" />
    <glyph glyph-name="r" unicode="r" 
d="M24 688c28.667 -4.66699 47.666 -12.6689 56.999 -24.002c27.333 -32 41 -63.333 41 -94c2.66699 0 5.66699 -16.667 9 -50h-1l3 -8c-1.33301 -2 -2 -4.33301 -2 -7c1.33301 0 2 -0.666992 2 -2l-3 -2c0.666992 -2.66699 1.66699 -9.33398 3 -20.001
c0 -1.33301 -0.666992 -2 -2 -2l2 -9c0 -21.333 -1 -32 -3 -32c0 -0.666992 0.333008 -1 1 -1c0 -4.66699 -2.33301 -14 -7 -28c1.33301 -2.66699 2 -4.66699 2 -6c-2.66699 -1.33301 -9 -16.666 -19 -45.999c-2.66699 -0.666992 -10 -10.667 -22 -30
c-19.333 -14.667 -31.666 -22 -36.999 -22v-2c6.66699 -12.667 16 -35.334 28 -68.001c4 0 17 -34 39 -102c5.33301 -8 20 -41.333 44 -100c-1.33301 0 -2 -0.666992 -2 -2c2 0 6.33301 -8 13 -24c-2 -4.66699 -3.66699 -7 -5 -7c-7.33301 4 -11 7.66699 -11 11
c-8 20 -26.667 64.333 -56 133c-22 63.333 -43 115.333 -63 156l-18 -2c0 -5.33301 -0.666992 -8 -2 -8l2 -3l-2 -4c1.33301 -2.66699 2 -4.33398 2 -5.00098c0 -1.33301 -0.666992 -3.33301 -2 -6l2 -7c-1.33301 -12.667 -2 -22 -2 -28c0 -2.66699 0.666992 -4 2 -4l-2 -9
v-41c0 -2.66699 -0.666992 -5 -2 -7c1.33301 -2 2 -4.66699 2 -8v-13c0 -0.666992 -0.666992 -1 -2 -1c2.66699 -4.66699 4 -8.66699 4 -12v-49l2 -19h-2c2 -4 3 -7.66699 3 -11v-4l-1 -3c3.33301 0 5 -16.333 5 -49l-7 -5c0 2.66699 -2.66699 4 -8 4v3
c0 4.66699 -0.666992 10.334 -2 17.001c0 1.33301 0.666992 2 2 2c-2 20 -3 40.333 -3 61l1 4c-2 5.33301 -3 15 -3 29v61c0 2.66699 -0.666992 5.33398 -2 8.00098c0 0.666992 0.666992 1 2 1c0 1.33301 -0.666992 3.33301 -2 6c1.33301 16 2 29 2 39v9
c0 1.33301 0.666992 2 2 2l-2 4v11c0 1.33301 0.666992 2 2 2c-2.66699 4.66699 -4 8.33398 -4 11.001c1.33301 12.667 2 22.334 2 29.001c-2.66699 0 -4 1.33301 -4 4c4 4.66699 6 14.667 6 30c0 0.666992 -0.666992 4.33398 -2 11.001l3 2c0 0.666992 -0.333008 1 -1 1
l1 19v18c0 1.33301 0.666992 2 2 2l-2 4l2 30c0 0.666992 -0.666992 1 -2 1l2 10v37c0.666992 8.66699 2 13 4 13l-2 3v24c0 1.33301 0.666992 2 2 2l-2 4v11c0 1.33301 0.666992 2 2 2l-2 4l2 12l-2 10c0 1.33301 0.666992 2 2 2
c-1.33301 13.333 -2.66602 21.666 -3.99902 24.999l2 4l-2 9h2l-2 4v2c0 2.66699 0.666992 5 2 7c-1.33301 2.66699 -2 4.66699 -2 6l2 4l-2 3l2 11c0 3.33301 -0.666992 6 -2 8c1.33301 4.66699 2.66602 7 3.99902 7l-4 19c1.33301 12 6.33301 18 15 18zM25.999 672.998
l-2.00195 -9v-41c0 -2.66699 0.666992 -5 2 -7c-1.33301 -2 -2 -4.33301 -2 -7v-6c0 -2.66699 0.666992 -5 2 -7l-2 -4l2 -9l-2 -4l2 -11c0 -1.33301 -0.666992 -2 -2 -2l2 -4v-9c0 -1.33301 -0.666992 -2 -2 -2l4 -16c-1.33301 -12.667 -2.66602 -19 -3.99902 -19
c1.33301 -2 2 -3.66699 2 -5l-2 -4l2 -4l-2 -7c0 -1.33301 0.666992 -2 2 -2c-1.33301 -13.333 -2.66602 -20 -3.99902 -20l2 -4c0 -1.33301 -0.666992 -2 -2 -2l2 -4v-3c0 -1.33301 -0.666992 -2 -2 -2l2 -4c0 -1.33301 -0.666992 -2 -2 -2c0 -1.33301 0.666992 -2 2 -2
l-4 -51l2 -4c-1.33301 -4 -2.33301 -6 -3 -6c0.666992 -3.33301 1.66699 -5 3 -5c-2 -28.667 -3.66699 -43 -5 -43c0 -1.33301 0.666992 -2 2 -2l-2 -18v-7c1.33301 0 3 -0.666992 5 -2c32 8.66699 53.667 22.667 65 42c20 38 30 68.333 30 91h1l-1 4l1 3
c0 1.33301 -0.333008 2 -1 2l1 13v15c0 1.33301 0.666992 2 2 2l-2 3c0 78 -15.333 134.333 -46 169c-16 10.667 -31.333 16 -46 16z" />
    <glyph glyph-name="s" unicode="s" horiz-adv-x="210" 
d="M63 678l9.00293 -0.000976562c20.667 -6.66699 36 -17.667 46 -33l10 -20c-1.33301 -15.333 -3.33301 -23 -6 -23c-5.33301 0 -9.66602 10.667 -12.999 32c-13.333 19.333 -28 29 -44 29c0 1.33301 -1.33301 2 -4 2c-18.667 -2.66699 -28 -17.334 -28 -44.001v-20
c0 -3.33301 -0.666992 -6 -2 -8c1.33301 -1.33301 2.66602 -9.33301 3.99902 -24h-2c1.33301 -2 2.66602 -7.66699 3.99902 -17h-2c4 -14.667 7.66699 -33.667 11 -57c4.66699 -12 8 -26 10 -42h-2c3.33301 -7.33301 9.33301 -31 18 -71l21 -77h-2
c4.66699 -14.667 13.334 -53 26.001 -115h-2c3.33301 -5.33301 7.66602 -25.666 12.999 -60.999h-2c3.33301 -15.333 5.66602 -32 6.99902 -50c0 -42 -11.667 -69.333 -35 -82c-4.66699 -3.33301 -13.334 -5.66602 -26.001 -6.99902c-16 0 -33.667 10 -53 30
c-6.66699 10 -13 33.333 -19 70h2l-2 4v5c0 16.667 3 26.667 9 30c2 0 4 -2 6 -6v-3c0 -8.66699 -1.33301 -13 -4 -13c2.66699 -19.333 4.66699 -30.666 6 -33.999l-2 -3c7.33301 -28 18.333 -47.333 33 -58c10.667 -4.66699 18 -7 22 -7l10 2v-2c10 0 21.667 12.333 35 37
c2 11.333 3 20.666 3 27.999v1c-2 36 -5 61.333 -9 76l2 4c-24.667 116.667 -45.667 206 -63 268c-12 48.667 -21.667 100.667 -29 156l1 18l-1 26c0 39.333 14.667 59 44 59z" />
    <glyph glyph-name="t" unicode="t" horiz-adv-x="241" 
d="M-14 690l0.999023 -0.00195312l12 -2l3 2c12.667 -1.33301 19 -2.33301 19 -3c1.33301 0 2 0.333008 2 1c14.667 -2 22 -3.66699 22 -5l3 2h2c1.33301 0 2 -0.666992 2 -2l4 2h5c1.33301 0 2 -0.666992 2 -2c5.33301 2.66699 9 4 11 4c2.66699 -1.33301 4.66699 -2 6 -2
l4 2l9 -2c0.666992 0 3 0.666992 7 2c1.33301 0 2 -0.666992 2 -2l9 2h15c2.66699 0 5.33398 -0.666992 8.00098 -2c2 1.33301 4.33301 2 7 2s5 -0.666992 7 -2l4 2c11.333 -3.33301 17 -6.66602 17 -9.99902c-3.33301 -6 -9 -9 -17 -9c0 2.66699 -1.33301 4 -4 4
c-3.33301 0 -5 -0.666992 -5 -2l-9 2h-41l-9 -2c0 1.33301 -0.666992 2 -2 2c-2.66699 -6.66699 -4 -21 -4 -43v-15c4 -4.66699 6 -12 6 -22h-2c1.33301 -8.66699 2.33301 -13 3 -13l-1 -9c0 -5.33301 0.333008 -12 1 -20l-1 -4l1 -11v-11c0 -1.33301 -0.333008 -2 -1 -2
c2 -2.66699 3.66699 -15 5 -37c-1.33301 -2.66699 -2 -4.66699 -2 -6c1.33301 -2 2 -4.33301 2 -7h-2l2 -4v-2c0 -0.666992 -0.666992 -1 -2 -1l2 -4c0 -1.33301 -0.666992 -2 -2 -2l2 -4c0 -1.33301 -0.666992 -2 -2 -2l2 -3c0 -1.33301 -0.666992 -2 -2 -2l2 -4
c0 -1.33301 -0.666992 -2 -2 -2c0 -0.666992 0.666992 -1 2 -1l-2 -13v-2l2 -19h-2l2 -3c-3.33301 -34 -5 -57.667 -5 -71v-13l1 -22h-1c0 -1.33301 0.333008 -2 1 -2c-0.666992 -10.667 -1 -16.667 -1 -18c0.666992 -72.667 1 -118.334 1 -137.001l2 -4l-2 -4
c0 -1.33301 0.666992 -3 2 -5l-2 -9c1.33301 -7.33301 2 -12.333 2 -15h-2l2 -4c0 -1.33301 -0.666992 -2 -2 -2c0 -1.33301 0.666992 -2 2 -2l-3 -74c0.666992 -3.33301 1 -10.666 1 -21.999h-6c-3.33301 0 -5 3 -5 9c0 2.66699 -0.333008 4 -1 4l1 13v24l-1 13h1l-1 4v15
c0 0.666992 0.333008 1 1 1c0 1.33301 -0.333008 2 -1 2l1 10c0 3.33301 -0.333008 5 -1 5l1 9v24c0 20 -1 33 -3 39l2 4l-2 11v2c0 1.33301 0.666992 2 2 2l-2 3v45l2 11c-2.66699 4.66699 -4 9 -4 13h2c0 1.33301 -0.666992 2 -2 2c1.33301 64.667 3 118.334 5 161.001v24
c0 1.33301 0.666992 2 2 2l-2 3v35l-1 10h1l-1 3v10c0 2.66699 0.333008 5 1 7c0 1.33301 -0.333008 2 -1 2c0 1.33301 0.333008 3 1 5c0 3.33301 -1 12 -3 26h2l-4 15l2 9c-2.66699 30 -4.66699 61.667 -6 95c-2 0 -9.33301 -0.666992 -22 -2c-27.333 2 -41 3.66699 -41 5
l-3 -1c-12.667 2 -19 4.33301 -19 7v4c0 1.33301 2 3 6 5z" />
    <glyph glyph-name="u" unicode="u" horiz-adv-x="251" 
d="M13 695l2.00098 0.000976562l5 -6c-1.33301 -34 -3 -52.333 -5 -55l2 -4c0 -1.33301 -0.666992 -2 -2 -2l4 -42c-1.33301 -44 -2 -83.667 -2 -119v-2c0 -0.666992 -0.666992 -1 -2 -1c0 -1.33301 0.666992 -2 2 -2c-1.33301 -6.66699 -2 -10.334 -2 -11.001
c1.33301 -11.333 2 -18.333 2 -21h-2c1.33301 -7.33301 2.66602 -11 3.99902 -11l-2 -7c1.33301 -20 2 -31.667 2 -35l-2 -17c0 -1.33301 0.666992 -2 2 -2l-2 -9v-15c0 -1.33301 -0.666992 -2 -2 -2c1.33301 -2 2 -3.66699 2 -5c0 -8.66699 1.66699 -40.334 5 -95.001
l-2 -11c2.66699 0 4.66699 -4.33301 6 -13c0 -1.33301 -0.666992 -2 -2 -2l6 -31h-2c2 -4.66699 3 -11.334 3 -20.001h-1l1 -4c0 -1.33301 -0.333008 -2 -1 -2l1 -4l-1 -7c0.666992 -10 1.66699 -16 3 -18l-2 -4l2 -11v-4c0 -1.33301 -0.666992 -2 -2 -2
c2 -6.66699 4.66699 -26.334 8 -59.001c10.667 -23.333 24.667 -35 42 -35c6.66699 -1.33301 14.334 -2 23.001 -2c32 11.333 48 32.333 48 63c2 0 3.66699 8.66699 5 26h2l-2 3c2.66699 12.667 4 25 4 37v4c0 1.33301 0.666992 2 2 2l-2 4c0 1.33301 0.666992 2 2 2
c-1.33301 2 -2 3.66699 -2 5l2 4c0 1.33301 -0.666992 2 -2 2l2 9v20c0 2.66699 -0.666992 5.33398 -2 8.00098c1.33301 2 2 4.33301 2 7v24c0 2.66699 -0.666992 5.33398 -2 8.00098c0.666992 4.66699 2 12.667 4 24c0 0.666992 -0.666992 1 -2 1c0.666992 10 2 15 4 15
c-1.33301 2.66699 -2 4.66699 -2 6l2 3l-2 4l2 8c0 0.666992 -0.666992 1 -2 1l2 13v28c0 2.66699 -0.666992 5.33398 -2 8.00098c1.33301 2 2 4.33301 2 7v2c0 3.33301 -0.666992 5 -2 5l2 10v31l-2 9h2l-2 4l2 4l-4 20c1.33301 2.66699 2 4.66699 2 6
c-2.66699 0 -4 1 -4 3v4c0 1.33301 0.666992 2 2 2c-1.33301 2.66699 -3.33301 19.334 -6 50.001c0 1.33301 0.666992 2 2 2l-2 9v5l2 4c-2.66699 0 -4 1.33301 -4 4v9c0 1.33301 0.666992 2 2 2c-2 18 -3.66699 28.333 -5 31c1.33301 2.66699 2 4.66699 2 6
c-1.33301 14.667 -3.33301 22 -6 22l2 9c0 3.33301 -0.666992 8.33301 -2 15l4 32c0 0.666992 -0.666992 1 -2 1l2 10v18c0.666992 7.33301 2.33398 11 5.00098 11h4c4 0 6 -2.33301 6 -7c-1.33301 -13.333 -2.66602 -20 -3.99902 -20c0 -1.33301 0.666992 -2 2 -2l-4 -35
c1.33301 -10.667 2.66602 -28.667 3.99902 -54c0 -1.33301 -0.666992 -2 -2 -2l4 -37c-1.33301 -2.66699 -2 -4.33398 -2 -5.00098c2 -13.333 5.66699 -51 11 -113v-39c0 -1.33301 -0.666992 -2 -2 -2l2 -4v-15c0 -2.66699 0.666992 -5 2 -7l-4 -15l4 -16
c0 -1.33301 -0.666992 -2 -2 -2c0 -1.33301 0.666992 -3.33301 2 -6l-4 -48c0 -1.33301 0.666992 -2 2 -2l-2 -9v-55c0 -3.33301 -0.666992 -6 -2 -8c1.33301 -2 2 -4.33301 2 -7v-13c0 -1.33301 -0.666992 -2 -2 -2l2 -4c-0.666992 -18.667 -2 -28 -4 -28l2 -3l-2 -8l2 -3
c-10.667 -74 -21.667 -111 -33 -111c-6.66699 -8 -18 -13.667 -34 -17v2l-3 -2h-11c-36 5.33301 -54 15.333 -54 30c-8.66699 2.66699 -14.334 29 -17.001 79c0 1.33301 0.666992 2 2 2c-2 50.667 -7 97 -15 139c0 1.33301 0.666992 2 2 2l-5 55h2l-2 4v18
c0 6 0.666992 12.333 2 19c-1.33301 4.66699 -2 10 -2 16v10c0 1.33301 0.666992 2 2 2l-2 3v8c0 1.33301 0.666992 2 2 2l-2 3v4c0 1.33301 0.666992 2 2 2l-2 3c0 1.33301 0.666992 2 2 2c-2 4 -4 10.333 -6 19l2 9v20c0 3.33301 -0.666992 6 -2 8
c0 1.33301 0.666992 2 2 2l-2 9v2c0 2.66699 0.666992 5 2 7c0 1.33301 -0.666992 2 -2 2l2 13v22c0 1.33301 0.666992 2 2 2l-2 4c0 1.33301 0.666992 2 2 2c0 0.666992 -0.666992 1 -2 1c1.33301 17.333 2.66602 28 3.99902 32c0 1.33301 -0.666992 2 -2 2l2 9v2l-2 11
l2 4l-2 3c0 1.33301 0.666992 2 2 2l-4 43c2.66699 16.667 4 27 4 31c0 1.33301 -0.666992 2 -2 2l2 9v22c0 2 2.33301 4.66699 7 8zM181.001 269.001h6v-1c0 -2.66699 -1.33301 -4 -4 -4l-2 4v1z" />
    <glyph glyph-name="v" unicode="v" horiz-adv-x="265" 
d="M186 688l8.00293 -6.00293c0 -32 -12.333 -115.333 -37 -250c-4 -26 -7.33301 -43.333 -10 -52c0 -1.33301 0.666992 -2 2 -2c-10 -54 -17 -113.667 -21 -179c-2 -6.66699 -4.66699 -22.667 -8 -48v-8c0 -1.33301 -0.666992 -2 -2 -2l2 -4
c-2.66699 -8.66699 -4.66699 -13 -6 -13c0 -1.33301 0.666992 -2 2 -2c-2.66699 -16.667 -4.33398 -25 -5.00098 -25l1 -4c-4 -29.333 -6.33301 -44.333 -7 -45c0 -1.33301 0.666992 -2 2 -2c0 -12 -3.33301 -21.667 -10 -29l2 -4c0 -10 -4 -17.667 -12 -23
c-11.333 8 -17 19 -17 33c0 16.667 -2 41.334 -6 74.001h2c-2 4.66699 -4 13.667 -6 27h2c-1.33301 2.66699 -2 4.66699 -2 6c0 11.333 -2 34.333 -6 69c1.33301 2.66699 2 5.33398 2 8.00098c-10 60 -17.667 122 -23 186c2.66699 0 4 1.33301 4 4
c-2.66699 0 -4 1.33301 -4 4v14l-2 13h2l-2 4v8c0 1.33301 0.666992 2 2 2c-1.33301 4.66699 -3.33301 20 -6 46h2l-2 4v4c0 8.66699 -9 67 -27 175v7c0.666992 2.66699 2 4 4 4h4c2.66699 0 5.66699 -14 9 -42h-1c3.33301 -5.33301 9.66602 -43.666 18.999 -114.999v-4
c2.66699 -2.66699 4 -5 4 -7c4 -89.333 7 -138.666 9 -147.999h-1c0.666992 -2.66699 1 -4.66699 1 -6c0 -18 3.33301 -47.667 10 -89h-2c1.33301 -2 2.66602 -7.66699 3.99902 -17c-1.33301 -2.66699 -2 -4.66699 -2 -6c2.66699 -0.666992 4 -2 4 -4v-4
c0 -4 -0.666992 -7.33301 -2 -10c4 -17.333 7.33301 -40.333 10 -69l-2 -4c2.66699 -11.333 4 -18 4 -20l-2 -4c2 -8 4.66699 -23.333 8 -46l-2 -4c2 -12 4.33301 -33.333 7 -64c4.66699 0 9.33398 20.667 14.001 62c4 13.333 10.333 53.333 19 120
c5.33301 63.333 10.666 106.666 15.999 129.999l-2 8c2 5.33301 4 13.666 6 24.999c0 1.33301 -0.666992 2 -2 2c0 8.66699 10.333 68.667 31 180c0 22 2.66699 36.333 8 43l-2 4c4.66699 37.333 7.66699 56 9 56l-2 4c0 2.66699 0.666992 5.33398 2 8.00098
c0 1.33301 -0.666992 2 -2 2c1.33301 16.667 4 25 8 25z" />
    <glyph glyph-name="w" unicode="w" horiz-adv-x="293" 
d="M4 673l2 -0.000976562c3.33301 0 7 -12.333 11 -37l-2 -3c1.33301 -2.66699 2 -5.33398 2 -8.00098c0 -1.33301 -0.666992 -2 -2 -2l2 -3c0 -2.66699 -0.666992 -4 -2 -4c1.33301 -18.667 3 -36.667 5 -54h-1l1 -3c1.33301 -31.333 2.66602 -50 3.99902 -56h-2l2 -3v-2
c0 -14 1.33301 -25.667 4 -35h-2c1.33301 -2.66699 2.66602 -8.33398 3.99902 -17.001h-2c2 -4 3.66699 -14 5 -30h-2l2 -3v-6c0 -2.66699 -0.666992 -5 -2 -7c2.66699 -6 4 -14 4 -24v-6c0 -31.333 1.33301 -56.666 4 -75.999h-2l2 -4v-5c0 -8 1.33301 -16.667 4 -26h-2
c0 -1.33301 0.666992 -2 2 -2l3 -129h-2l4 -8c0 -2 -0.666992 -3 -2 -3c2 -24 4 -36 6 -36c0 -0.666992 -0.666992 -1 -2 -1l2 -10c0 -2.66699 -0.666992 -5 -2 -7c4 -6.66699 6 -14 6 -22c-1.33301 0 -2 -0.666992 -2 -2h3c8.66699 32.667 15.667 60.334 21 83.001l-2 4
c18.667 73.333 28 124.333 28 153l9 8h2l5 -4l-2 -7c17.333 -84 37.333 -155 60 -213h3c0 1.33301 -0.666992 2 -2 2l2 11c-1.33301 24.667 -2 46.334 -2 65.001v3c0 1.33301 0.666992 2 2 2c-1.33301 2.66699 -2 4.66699 -2 6l2 7c-1.33301 2.66699 -2 4.66699 -2 6l2 3
l-2 8c1.33301 17.333 2.66602 27 3.99902 29c0 1.33301 -0.666992 2 -2 2l2 9v2l-2 19h2c0 1.33301 -0.666992 2 -2 2c1.33301 53.333 3.33301 92.666 6 117.999l-2 4c2.66699 27.333 4 50.666 4 69.999h2l-2 4c0 1.33301 0.666992 2 2 2l-2 3c0 1.33301 0.666992 2 2 2
l-2 4c4.66699 44.667 7.66699 82.334 9 113.001h2c0 1.33301 -0.666992 2 -2 2l2 9v22c0 1.33301 0.666992 2 2 2c0 1.33301 -0.666992 2 -2 2l2 9v28c0 4 1 12.667 3 26c-0.666992 2 -1 3.66699 -1 5c4 2.66699 7.66699 4 11 4l1 -4v-4l-1 -11
c0 -0.666992 0.333008 -1 1 -1c-2 -10.667 -4.33301 -42.334 -7 -95.001h-2l2 -4c0 -0.666992 -0.666992 -1 -2 -1c0 -1.33301 0.666992 -2 2 -2l-4 -24l2 -4c-1.33301 -11.333 -2.33301 -18.666 -3 -21.999c0 -1.33301 0.333008 -2 1 -2c-3.33301 -14 -5 -33.667 -5 -59v-8
c0 -0.666992 -0.666992 -1 -2 -1c1.33301 -2.66699 2 -4.66699 2 -6c-2.66699 -34.667 -4 -55.667 -4 -63h-2c0 -1.33301 0.666992 -2 2 -2c-1.33301 -26 -2.66602 -44.333 -3.99902 -55c1.33301 -2.66699 2 -4.66699 2 -6c-1.33301 -2 -2 -3.66699 -2 -5l2 -4
c-1.33301 -2.66699 -2 -4.66699 -2 -6c0 -3.33301 0.666992 -5 2 -5l-2 -22v-30c0 -2.66699 0.666992 -5 2 -7c-1.33301 -2.66699 -2 -5.33398 -2 -8.00098c0 -2 0.666992 -3 2 -3c-1.33301 -15.333 -2.33301 -23 -3 -23c0 -1.33301 0.333008 -2 1 -2l-1 -7
c0.666992 -74 1 -116 1 -126l-1 -3c0.666992 0 1.66699 -12 3 -36l-7 -5c-4 0 -10.667 20.333 -20 61c-6.66699 12.667 -18.667 47.334 -36 104.001c-0.666992 0 -1 0.333008 -1 1v2c0 1.33301 0.333008 2 1 2c-8.66699 26.667 -14 45.667 -16 57
c-1.33301 0 -2 0.666992 -2 2l2 4c-1.33301 2.66699 -2 4.66699 -2 6h-2c-8.66699 -50.667 -21 -112 -37 -184c-9.33301 -38 -16 -57 -20 -57h-2l-9 7c0 -0.666992 -0.666992 -1 -2 -1c2 8.66699 3 13.334 3 14.001l-1 4l1 4c-2 31.333 -5 59 -9 83h2l-2 4v9
c0 1.33301 0.666992 2 2 2l-2 4c-1.33301 38.667 -2.66602 61.334 -3.99902 68.001l2 4l-2 3c1.33301 10.667 2 18.667 2 24l-2 8h2c-2 12 -5 41 -9 87h2l-2 3v32c0 22 -3.66699 65 -11 129h2c-1.33301 3.33301 -2.66602 9.66602 -3.99902 18.999h2l-2 4v11
c0 1.33301 0.666992 2 2 2c-2.66699 5.33301 -5.66699 36 -9 92l2 4l-2 11l2 4c-4 12.667 -6 25 -6 37z" />
    <glyph glyph-name="x" unicode="x" horiz-adv-x="258" 
d="M152 677l3.00098 0.000976562c2 0 4 -1.66699 6 -5c-7.33301 -18 -14.666 -41.667 -21.999 -71c-18.667 -52.667 -37.334 -130.334 -56.001 -233.001l2 -4l-2 -3l13 -71c2 -1.33301 5.66699 -13.666 11 -36.999h-2c2.66699 -4 4 -7 4 -9l-2 -3
c10 -30.667 17 -55.334 21 -74.001c1.33301 0 2 -0.666992 2 -2l-2 -4c2 0 4.33301 -7.33301 7 -22l9 -30h-2c4.66699 -13.333 9 -31 13 -53c-0.666992 0 -1 -0.666992 -1 -2c1.33301 0 6 -14.333 14 -43c-0.666992 0 -1 -0.666992 -1 -2c0.666992 0 1 -0.666992 1 -2l-3 -1
c-10.667 0 -17 12.667 -19 38c-6 38 -17 84.333 -33 139c-21.333 80 -32 126.333 -32 139v7c0 2.66699 -1 4 -3 4c-5.33301 -25.333 -9 -39.666 -11 -42.999l1 -3c-4.66699 -14 -12 -56 -22 -126c-13.333 -72.667 -25 -125.667 -35 -159l-4 -2
c-4.66699 5.33301 -7 8.33301 -7 9c16 50 35 145.667 57 287l15 61l-2 4l2 3c-8.66699 32.667 -18.334 79.667 -29.001 141h1c-4.66699 12.667 -17 68.667 -37 168l4 2h4c2.66699 0 6.33398 -8 11.001 -24c0 -1.33301 -0.666992 -2 -2 -2l2 -3v-2
c0 -1.33301 -0.666992 -2 -2 -2c17.333 -65.333 34.666 -147.333 51.999 -246h4v2c4.66699 36.667 10.667 66.667 18 90l-2 4c14.667 64 27 108.333 37 133c6 29.333 12.333 46.666 19 51.999z" />
    <glyph glyph-name="y" unicode="y" horiz-adv-x="241" 
d="M4 681l2.00293 -0.00195312c3.33301 0 8.66602 -18 15.999 -54c4 -4 15.333 -41 34 -111c9.33301 -19.333 19.666 -52.666 30.999 -99.999h2c14.667 80 33.667 156 57 228c2.66699 8.66699 4.66699 13 6 13c0 1.33301 -0.666992 2 -2 2c2.66699 13.333 5 20 7 20h4
c2.66699 -0.666992 4 -2 4 -4v-15c-28.667 -78 -49.667 -158.667 -63 -242c-3.33301 0 -6.33301 -24 -9 -72l1 -4l-1 -3c0.666992 -2.66699 1 -5.33398 1 -8.00098l-3 -2c1.33301 -2.66699 2.33301 -9.33398 3 -20.001h-1l1 -4c0 -2 -0.333008 -3 -1 -3l1 -13v-41
c0 -5.33301 -0.333008 -12 -1 -20l1 -4l-1 -4l1 -9l-1 -4l1 -3l-1 -4c0 -1.33301 0.333008 -2 1 -2l-1 -9v-8l1 -13h-1l1 -3l-1 -11c0 -1.33301 0.333008 -2 1 -2l-1 -10v-18c0 -1.33301 -0.666992 -2 -2 -2c0 -1.33301 0.666992 -2 2 -2l-2 -9v-28
c0 -4 -0.666992 -9.33301 -2 -16c0 -1.33301 0.666992 -2 2 -2l-2 -9c1.33301 -16 2 -24.667 2 -26h-2c0.666992 -3.33301 2 -11.333 4 -24c-1.33301 -2.66699 -2 -4.66699 -2 -6h-4c-3.33301 0 -7 1.33301 -11 4c1.33301 10.667 2.66602 16 3.99902 16l-2 4v7
c0 6 -0.666992 12.333 -2 19c1.33301 4.66699 2 10.334 2 17.001c0 0.666992 -0.666992 1 -2 1c2.66699 14 4 35 4 63l-2 4c1.33301 1.33301 2.33301 12 3 32l-1 18h1c0 1.33301 -0.333008 2 -1 2c1.33301 12.667 2.33301 20 3 22c-1.33301 2 -2 4.33301 -2 7h2l-2 4v21
c0 4.66699 -0.333008 9.33398 -1 14.001l3 32c-1.33301 4.66699 -2 9.66699 -2 15h2c0 0.666992 -0.666992 1 -2 1c-0.666992 29.333 -1 51 -1 65v21c0 0.666992 0.333008 1 1 1c-19.333 69.333 -39 135.333 -59 198c0 4 -3.66699 15.667 -11 35
c-7.33301 26.667 -11 45.334 -11 56.001z" />
    <glyph glyph-name="z" unicode="z" horiz-adv-x="238" 
d="M6 688c10 -2.66699 21 -4.00195 33 -4.00195c2.66699 0 7.66699 0.666992 15 2c12 -1.33301 18 -2.66602 18 -3.99902l4 2h65c2 0 3 -1.66699 3 -5c-1.33301 -2.66699 -2 -4.66699 -2 -6c2.66699 -1.33301 4.66699 -2 6 -2c-12 -56 -24.333 -125.667 -37 -209
c-26 -127.333 -42 -211 -48 -251c-23.333 -83.333 -38 -139.666 -44 -168.999c0 -1.33301 0.333008 -2 1 -2c-1.33301 -11.333 -3 -18.666 -5 -21.999c1.33301 0 2 -0.666992 2 -2l3 2c10 -3.33301 36 -5 78 -5h54c7.33301 -1.33301 11 -3.33301 11 -6v-4l-8 -7
c-12.667 1.33301 -20.667 2.66602 -24 3.99902l-3 -2l-4 2l-9 -2v2l-4 -2h-13c-2.66699 0 -5 0.666992 -7 2c-2.66699 -1.33301 -5.33398 -2 -8.00098 -2c-1.33301 0 -3 0.666992 -5 2c-1.33301 -0 -2 -0.666992 -2 -2l-9 2l-63 2c-1.33301 2 -2.66602 7.33301 -3.99902 16
c2 4.66699 5 22 9 52l26 81c0 1.33301 0.666992 2 2 2c0 1.33301 -0.666992 2 -2 2c17.333 76.667 26 120 26 130l32 151c2 14 3.66699 21 5 21c0 1.33301 -0.666992 2 -2 2c2.66699 13.333 5.33398 20.666 8.00098 21.999l-2 3c6 28.667 14.667 83.667 26 165
c3.33301 6.66699 5 13.334 5 20.001v2h-28c-0.666992 0 -1 0.666992 -1 2c-1.33301 0 -2 -0.666992 -2 -2c-1.33301 0 -5 0.666992 -11 2c-2 0 -10.667 -0.666992 -26 -2c-11.333 2.66699 -18.333 4 -21 4l-7 -2c-2 1.33301 -4.33301 2 -7 2
c-2.66699 -1.33301 -4.66699 -2 -6 -2v2c-2.66699 -1.33301 -4.33398 -2 -5.00098 -2c-12.667 1.33301 -19 4 -19 8v1c0 1.33301 2 3.33301 6 6z" />
    <glyph glyph-name="braceleft" unicode="{" horiz-adv-x="175" 
d="M80 740l3 -6c0 -5.33301 -11 -15 -33 -29l-19 -45l2 -3c-5.33301 -12 -9.66602 -36 -12.999 -72c0 -1.33301 0.666992 -2 2 -2l-2 -13v-6l2 -9h-2c0 -1.33301 0.666992 -2 2 -2l-2 -9v-8c0 -3.33301 0.666992 -5 2 -5l-2 -9c0 -17.333 1.33301 -32.333 4 -45l-2 -3
c0 -1.33301 0.666992 -2 2 -2l-2 -13v-8c0 -50.667 -3 -81.334 -9 -92.001c7.33301 -8 14 -29 20 -63l6 -54h-2l2 -3v-8c0 -13.333 1.33301 -25 4 -35h-2l2 -4v-2c0 -2.66699 -0.666992 -5 -2 -7c1.33301 -2 2 -4.33301 2 -7v-6c0 -1.33301 -0.666992 -2 -2 -2l2 -3
c-1.33301 -40 -2 -63 -2 -69c0 -12 1 -23 3 -33c0 -1.33301 -0.333008 -2 -1 -2c0 -19.333 14.667 -42 44 -68c13.333 -2.66699 20 -8.33398 20 -17.001c-1.33301 0 -2 -0.666992 -2 -2c-20.667 0 -43.334 21.667 -68.001 65c-6 16 -9 37 -9 63c1.33301 30 2 47 2 51h1
c0 1.33301 -0.333008 2 -1 2c0.666992 10.667 1 18.667 1 24c0 19.333 -1.66699 44 -5 74c0 1.33301 0.666992 2 2 2c-5.33301 46 -12.666 77.667 -21.999 95c-2.66699 0 -4.66699 3 -6 9c7.33301 22 11 40.333 11 55l-2 4c1.33301 11.333 2.66602 17 3.99902 17l-2 3v30
c0 1.33301 0.666992 2 2 2l-2 4c0 3.33301 0.666992 5 2 5l-2 19v90c0 4.66699 0.666992 10.334 2 17.001l-2 4c6.66699 38.667 16 72.334 28 101.001c16 16.667 29.667 26.667 41 30z" />
    <glyph glyph-name="bar" unicode="|" horiz-adv-x="98" 
d="M14 788l14 -12.0049c-3.33301 -15.333 -5 -45.666 -5 -90.999v-79c0 -32 -2.33301 -68.333 -7 -109c1.33301 -2.66699 2 -6 2 -10h-2l2 -5v-4c0 -2 -0.666992 -3 -2 -3l2 -4v-17c0 -3.33301 -0.666992 -6.66602 -2 -9.99902c1.33301 -2.66699 2 -5.66699 2 -9v-10
c0 -3.33301 -0.666992 -6.33301 -2 -9c2 -8 3 -22.333 3 -43c-2 -18 -4.33301 -56.333 -7 -115c1.33301 -2.66699 2 -5 2 -7c-1.33301 -2.66699 -2 -5.66699 -2 -9l2 -5l-2 -5c1.33301 -2.66699 2 -5 2 -7h-2l2 -5c0 -4.66699 -0.666992 -7 -2 -7
c1.33301 -18.667 2 -32 2 -40v-29c0 -28 0.666992 -63 2 -105c-1.33301 -2.66699 -2 -5 -2 -7c1.33301 -6.66699 3 -33 5 -79c-0.666992 -14 -1.66699 -21 -3 -21l2 -5c0 -26.667 1 -56 3 -88h-2l2 -5c0 -2 -1.66699 -4.33301 -5 -7h-4c-1.33301 0 -3 2.33301 -5 7v3
c0 1.33301 0.666992 2 2 2l-2 5c0 15.333 -0.666992 34.333 -2 57c0 1.33301 0.666992 2 2 2l-2 12v31c0 2 0.666992 3 2 3l-2 4c0 2 0.666992 3 2 3l-2 12v9c0 18.667 -1 31.334 -3 38.001c1.33301 3.33301 2 6 2 8c-1.33301 14 -2 22.667 -2 26l2 12
c0 1.33301 -0.666992 2 -2 2l2 12v9l-2 17h2l-2 5v86c0 6.66699 -0.666992 15.334 -2 26.001c1.33301 2.66699 2 5.66699 2 9l-2 17l2 5c0 1.33301 -0.666992 2 -2 2l2 12v43c0 6.66699 1 13 3 19c-0.666992 8.66699 -1 16 -1 22c0 9.33301 1.66699 26 5 50
c-2.66699 6 -4 14.667 -4 26v19c0 1.33301 0.666992 2 2 2c0 2 -0.666992 3 -2 3l2 12v28c0 2 0.666992 3 2 3l-2 4v31c0.666992 8 2 12 4 12l-2 5v5c0 6.66699 0.666992 15.334 2 26.001c0 1.33301 -0.666992 2 -2 2l2 12v48c0 7.33301 0.333008 15.333 1 24l-1 12
c0.666992 26 1 51.333 1 76c0 2 -0.333008 4.33301 -1 7l3 19c-1.33301 2.66699 -2 6 -2 10z" />
    <glyph glyph-name="braceright" unicode="}" horiz-adv-x="178" 
d="M68 710c12 -28.667 21.335 -62.334 28.002 -101.001l-2 -4c1.33301 -6.66699 2 -12.334 2 -17.001v-90l-2 -19c1.33301 0 2 -1.66699 2 -5l-2 -4c1.33301 0 2 -0.666992 2 -2v-30l-2 -3c1.33301 0 2.66602 -5.66699 3.99902 -17l-2 -4c0 -14.667 3.66699 -33 11 -55
c-1.33301 -6 -3 -9 -5 -9c-10 -17.333 -17.333 -49 -22 -95c0.666992 0 1 -0.666992 1 -2c-3.33301 -30 -5 -54.667 -5 -74c0 -5.33301 0.666992 -13.333 2 -24c-1.33301 0 -2 -0.666992 -2 -2h2c0 -4 0.666992 -21 2 -51c-0.666992 -26 -4 -47 -10 -63
c-24 -43.333 -46.667 -65 -68 -65c0 1.33301 -0.666992 2 -2 2c0 8.66699 6.66699 14.334 20 17.001c30 26 45 48.667 45 68c-1.33301 0 -2 0.666992 -2 2c2.66699 10 4 21 4 33c0 6 -0.666992 29 -2 69l2 3c-1.33301 0 -2 0.666992 -2 2v6c0 2.66699 0.666992 5 2 7
c-1.33301 2 -2 4.33301 -2 7v2l2 4h-2c2 10 3 21.667 3 35v8l2 3h-2l6 54c6 34 12.667 55 20 63c-6 10.667 -9 41.334 -9 92.001v8l-2 13c1.33301 0 2 0.666992 2 2l-2 3c2.66699 12.667 4 27.667 4 45l-2 9c1.33301 0 2 1.66699 2 5v8l-2 9c1.33301 0 2 0.666992 2 2h-2
l2 9v6l-2 13c1.33301 0 2 0.666992 2 2c-2.66699 36 -7 60 -13 72l2 3l-19 45c-22 14 -33 23.667 -33 29l4 6c11.333 -3.33301 24.666 -13.333 39.999 -30z" />
    <glyph glyph-name="asciitilde" unicode="~" horiz-adv-x="224" 
d="M124 359l3.99805 -0.000976562c2 0 3.66699 -4.33301 5 -13c0 -1.33301 -0.666992 -2 -2 -2l2 -9c-8.66699 -34.667 -22 -52 -40 -52c-14.667 0 -26 17.333 -34 52c-4 4.66699 -10.667 8.33398 -20 11.001c-16 -6.66699 -24 -17.667 -24 -33
c-1.33301 0 -2.66602 -3.66699 -3.99902 -11c2.66699 -0.666992 4 -2 4 -4c-1.33301 -10 -4 -15 -8 -15h-1c-4 1.33301 -6 5 -6 11v6c0 20.667 10.333 39.667 31 57h6c22.667 0 36.334 -15.333 41.001 -46c6 -10 11.333 -15 16 -15c18.667 11.333 28 25 28 41
c-2.66699 10 -4 16 -4 18z" />
    <glyph glyph-name="exclamdown" unicode="&#xa1;" horiz-adv-x="98" 
d="M7 692h13.001c2.66699 -0.666992 4 -2 4 -4v-11c-2 -4.66699 -6.33301 -7 -13 -7h-5c-2 0 -4 1.66699 -6 5v2c1.33301 9.33301 3.66602 14.333 6.99902 15zM15.001 612l1.99902 0.00195312c1.33301 0 3 -1.66699 5 -5v-6c0 -1.33301 -0.666992 -2 -2 -2l2 -3v-2
c0 -1.33301 -0.666992 -2 -2 -2l2 -4v-9c0 -28 1.33301 -45.333 4 -52c0 -1.33301 -0.666992 -2 -2 -2l2 -9v-5c0 -1.33301 -0.666992 -2 -2 -2l2 -4v-59c0 -1.33301 -0.666992 -2 -2 -2c2.66699 -7.33301 4 -23.333 4 -48v-22l2 -11l-2 -4l2 -11h-2
c0 -1.33301 0.666992 -2 2 -2c-1.33301 -11.333 -2.66602 -17 -3.99902 -17l2 -3v-11c0 -5.33301 0.666992 -12.333 2 -21c0 -1.33301 -0.666992 -2 -2 -2l2 -9v-5c0 -10 -0.666992 -22 -2 -36l2 -3l-2 -11v-2l2 -13h-2l2 -4v-11c0 -8.66699 0.333008 -22.334 1 -41.001h-1
c0 -1.33301 0.333008 -2 1 -2c-2 -8.66699 -3 -14.667 -3 -18l2 -26h-2l2 -4v-9c0 -4.66699 -0.666992 -10.334 -2 -17.001c0 -0.666992 0.666992 -1 2 -1l-2 -13v-19c0 -6 -0.666992 -12 -2 -18c1.33301 -4.66699 2 -10.334 2 -17.001v-9c0 -2.66699 -1.33301 -4 -4 -4h-2
c-2 0 -4.33301 6.33301 -7 19c1.33301 40 2 71.333 2 94v39c0 1.33301 0.666992 2 2 2l-2 3v2c0 1.33301 0.666992 2 2 2l-2 4c0 1.33301 0.666992 2 2 2l-2 9v5c0 2.66699 0.666992 5.33398 2 8.00098c-1.33301 2 -2 3.66699 -2 5h2c0 1.33301 -0.666992 2 -2 2l2 19v1
c0 10.667 -0.666992 22 -2 34c1.33301 4.66699 2 9.66699 2 15l-2 9h2c-1.33301 2 -2 3.66699 -2 5s0.666992 2 2 2l-2 9v15l-2 19h2l-2 3v4c0 1.33301 0.666992 2 2 2l-2 4v2c0 0.666992 0.666992 1 2 1c0 1.33301 -0.666992 2 -2 2c0.666992 14 2 21 4 21
c-2.66699 4 -4 7.66699 -4 11v61c0 2.66699 -0.666992 5 -2 7c1.33301 2 2 4.66699 2 8v5l-2 13h2c0 1.33301 -0.666992 2 -2 2l2 9v22l-2 11l2 4c-1.33301 2.66699 -2 4.66699 -2 6s0.666992 2 2 2c-4 24 -6 40.667 -6 50v11c0 2.66699 0.666992 5 2 7
c0 1.33301 -0.666992 2 -2 2c1.33301 12 3.33301 18 6 18z" />
    <glyph glyph-name="cent" unicode="&#xa2;" horiz-adv-x="319" 
d="M102 749c-1.33301 -10 -1.99902 -15.332 -1.99902 -15.999c0 -1.33301 0.666992 -2 2 -2l-2 -13v-39c22 -12.667 33 -29.334 33 -50.001l-3 -2h-2c-8.66699 16 -15.667 26.667 -21 32c-0.666992 0 -3.66699 2.33301 -9 7l-2 -13v-44c0 -3.33301 -0.666992 -6 -2 -8
c1.33301 -2 2 -3.66699 2 -5h-2l2 -4v-7c0 -1.33301 -0.666992 -2 -2 -2l2 -4v-11c0 -1.33301 -0.666992 -2 -2 -2l2 -4v-11c0 -1.33301 -0.666992 -2 -2 -2l2 -3v-52l2 -9l-4 -2l2 -4v-30c0 -0.666992 -0.666992 -1 -2 -1l2 -4v-4c0 -1.33301 -0.666992 -2 -2 -2l2 -3v-32
c0 -4.66699 -0.666992 -9.66699 -2 -15c1.33301 -4.66699 2 -9.33398 2 -14.001v-15c0 -1.33301 -0.666992 -2 -2 -2l2 -4v-2c0 -0.666992 -0.666992 -1 -2 -1l2 -4l-2 -8c0 -0.666992 0.666992 -1 2 -1l-2 -10v-1c0 -4 0.666992 -6 2 -6l-2 -9v-45
c0 -1.33301 -0.333008 -2 -1 -2l1 -3v-26c0 -16 2 -63.667 6 -143v-35l2 -9h-2l2 -4v-40h3c21.333 12 35.666 29.667 42.999 53c0.666992 20 3.66699 30 9 30c2 -1.33301 4.66699 -2 8 -2v-9l-19 -54c-16.667 -19.333 -30.667 -29 -42 -29
c0 -7.33301 0.333008 -11.666 1 -12.999c-0.666992 -13.333 -1.66699 -21.333 -3 -24c1.33301 -2.66699 2 -5.33398 2 -8.00098c0 -1.33301 -0.666992 -2 -2 -2l2 -3v-2c0 -2.66699 -2 -4 -6 -4c-4.66699 2 -7 4 -7 6v5l3 22c0 5.33301 -1 13 -3 23h-4
c-26 0 -46.333 26.333 -61 79c-13.333 32.667 -20 67.334 -20 104.001h1c0 1.33301 -0.333008 2 -1 2l-4 90c1.33301 2.66699 2 4.66699 2 6l-2 3c0 1.33301 0.666992 2 2 2l-2 8c0 12.667 -0.666992 26 -2 40c2.66699 41.333 4 83.333 4 126h2
c-1.33301 2.66699 -2 4.66699 -2 6c2 65.333 5.66699 103.333 11 114l-2 4c0 30 13 62.667 39 98l31 9h6c0 4 0.666992 6 2 6c0 1.33301 -0.666992 2 -2 2l2 13v18c0 1.33301 0.666992 2 2 2l-2 4v2c0 1.33301 0.666992 2 2 2l2 17zM15.001 483.001l2 -4.00195v-7
c0 -1.33301 -0.666992 -2 -2 -2l2 -4v-9c0 -1.33301 -0.666992 -2 -2 -2l2 -4c0 -1.33301 -0.666992 -2 -2 -2l2 -12c0 -3.33301 -0.666992 -8.33301 -2 -15l2 -11l-2 -4l2 -11v-6c0 -1.33301 -0.666992 -2 -2 -2c1.33301 -2 2 -3.66699 2 -5
c-1.33301 -4 -2.66602 -6 -3.99902 -6l2 -3c0 -6 -0.666992 -25.333 -2 -58c1.33301 -10.667 2 -17.334 2 -20.001h-2l2 -4c0 -3.33301 -0.666992 -7.66602 -2 -12.999c1.33301 -8 2 -14.667 2 -20c0 -1.33301 -0.666992 -3.33301 -2 -6l4 -20l-2 -4
c1.33301 -19.333 2.66602 -32.333 3.99902 -39h-2l2 -3v-11c0 -40.667 5.33301 -73.334 16 -98.001c16.667 -47.333 31.667 -71 45 -71c0 -2 4.33301 -3 13 -3v13c0 32 -1.33301 52.333 -4 61c1.33301 2 2 4.33301 2 7c0 4 -0.666992 7 -2 9l2 11v6l-2 18h2
c-1.33301 2.66699 -2 4.66699 -2 6c0 4 -1.33301 32.333 -4 85v9c0 2.66699 -0.666992 5.33398 -2 8.00098l2 3c0 2.66699 -0.666992 9.66699 -2 21c1.33301 26.667 2 46.334 2 59.001c-1.33301 2.66699 -2 4.66699 -2 6h2l-2 3v8c0 0.666992 0.666992 1 2 1
c0 1.33301 -0.666992 2 -2 2l2 13v11c0 4 -0.666992 6 -2 6l2 9v126c0 2.66699 -0.666992 5 -2 7c1.33301 2.66699 2 5.33398 2 8.00098v13c0 4 -0.666992 9.33301 -2 16c1.33301 2.66699 2 4.66699 2 6s-0.666992 2 -2 2l2 13v27l-2 12l2 3
c0 1.33301 -0.666992 3.33301 -2 6l4 39c-1.33301 2 -2 5 -2 9v4c-23.333 0 -39.333 -16 -48 -48c-3.33301 0 -7 -15.667 -11 -47c-5.33301 -55.333 -9 -86 -11 -92z" />
    <glyph glyph-name="sterling" unicode="&#xa3;" horiz-adv-x="238" 
d="M85 680c33.333 -12 49.9971 -28.667 49.9971 -50l-4 -1l-14 18c-12 12.667 -24.333 19 -37 19h-8c-25.333 0 -42 -22.333 -50 -67c-1.33301 -4.66699 -2 -10.334 -2 -17.001v-26c0 -0.666992 -0.666992 -1 -2 -1c0 -1.33301 0.666992 -2 2 -2
c-1.33301 -38 -2 -65.667 -2 -83v-13l2 -10l-3 -2l1 -3v-11c0 -1.33301 -0.333008 -2 -1 -2l1 -4c-2.66699 -16 -4.33398 -24 -5.00098 -24l2 -4v-18c0 -1.33301 -0.666992 -2 -2 -2l2 -4v-37h2c16 0 32.667 -1 50 -3c4.66699 0.666992 9 1 13 1
c12 -0.666992 18 -2.33398 18 -5.00098v-4c0 -2 -1.33301 -3 -4 -3h-14c-10.667 0 -19 0.333008 -25 1c-7.33301 -0.666992 -15.666 -1 -24.999 -1h-17l2 -10v-20c0 -1.33301 -0.666992 -2 -2 -2l2 -4v-13c0 -0.666992 -0.666992 -1 -2 -1l2 -4c0 -4 -0.666992 -6 -2 -6
l2 -9v-30c0 -2.66699 0.666992 -5 2 -7c-1.33301 -2 -2 -4.33301 -2 -7v-4l2 -11l-2 -4c1.33301 -10.667 2 -19.334 2 -26.001v-3c0 -1.33301 -0.666992 -2 -2 -2l2 -4v-2c0 -2.66699 -0.666992 -5 -2 -7c2 -6 3 -13.333 3 -22l-1 -4c0.666992 -2 1 -4.66699 1 -8
c0 -1.33301 -0.333008 -3 -1 -5l3 -28h-2l2 -4c-0.666992 -20.667 -1.66699 -31 -3 -31l1 -4v-2l-1 -3c1.33301 0 8 1 20 3c8 0 23.333 -13.333 46 -40c10 -8.66699 20 -13 30 -13c18 0 31 13 39 39c-1.33301 6 -2 12 -2 18h2l-2 4c0 2 2.33301 3.66699 7 5
c4 -4 6.66699 -13 8 -27h-2c1.33301 -2.66699 2 -4.66699 2 -6c-11.333 -32 -31.666 -48 -60.999 -48c-9.33301 0 -29.666 17.333 -60.999 52h-6c-6.66699 0 -14.667 -5.66699 -24 -17h-4c-2.66699 2.66699 -5 4 -7 4l4 48c0 1.33301 -0.666992 2 -2 2l2 9v33l-2 10h2l-2 3
v23c0 8 -0.666992 21.333 -2 40h2l-2 4c0 1.33301 0.666992 2 2 2c-1.33301 2 -2 3.66699 -2 5c0 9.33301 -0.666992 31 -2 65h2c0 1.33301 -0.666992 2 -2 2c0 2.66699 0.666992 5 2 7c-1.33301 18.667 -2 32.334 -2 41.001c0 1.33301 0.666992 7.66602 2 18.999
c-4 0 -6 0.333008 -6 1c-5.33301 -2 -15 -3 -29 -3h-8l-3 -2c0 2 -2 5 -6 9v6c0.666992 2 2 3 4 3h7c2.66699 0 5.33398 -0.666992 8.00098 -2c0.666992 0 1 0.666992 1 2l10 -2h22l-2 23v13c0 0.666992 0.666992 1 2 1c0 1.33301 -0.666992 2 -2 2l2 10v7
c0 4.66699 -0.666992 10.334 -2 17.001l2 3l-2 4c4 16.667 6 26.667 6 30c-1.33301 17.333 -2 32 -2 44h2c0 1.33301 -0.666992 2 -2 2l3 92c-0.666992 2.66699 -1 5.33398 -1 8.00098c2 16.667 5.66699 31.334 11 44.001c-1.33301 0 -2 0.666992 -2 2
c7.33301 14.667 12.333 22 15 22c10.667 14.667 29 22 55 22z" />
    <glyph glyph-name="currency" unicode="&#xa4;" horiz-adv-x="203" 
d="M4 475l1.99902 -0.00195312c9.33301 -9.33301 24 -29.666 44 -60.999l13 3c6.66699 -1.33301 12.667 -5 18 -11h2c4.66699 10.667 17 31.667 37 63v4h8c2 0 3.66699 -4.33301 5 -13c-4 0 -9 -5.66699 -15 -17c-1.33301 0 -11 -14.667 -29 -44c12 -14.667 18 -29 18 -43
c0 -17.333 -4.33301 -34.333 -13 -51c20 -33.333 30 -51.333 30 -54v-2c0 -2 -2 -3.66699 -6 -5l2 -4v-2h-3c-13.333 30 -24.666 48.667 -33.999 56c-2.66699 -6.66699 -8.66699 -10 -18 -10h-2c-4 0 -8.33301 2 -13 6c-1.33301 -0.666992 -10 -13 -26 -37v-2l2 -4l-9 -5
c-5.33301 1.33301 -8 3 -8 5c10 14 20.667 32.667 32 56c-10 14 -15 27 -15 39h2l-2 3v34c0.666992 8 5 17 13 27c-26 38.667 -39 60.334 -39 65.001c0.666992 2.66699 2 4 4 4zM36.999 354.998l0.000976562 -13c9.33301 -31.333 19.666 -47 30.999 -47
c9.33301 0 18 13 26 39c1.33301 4.66699 2 9.66699 2 15v7c0 1.33301 0.666992 2 2 2c-6 20 -16.333 35 -31 45l-4 2c-17.333 0 -26 -16.667 -26 -50z" />
    <glyph glyph-name="yen" unicode="&#xa5;" horiz-adv-x="300" 
d="M14 688c4.66699 0 11.6699 -21.333 21.0029 -64c13.333 -44 37.666 -104.333 72.999 -181c4 -10 6 -17 6 -21h4c0 2.66699 11 26.667 33 72c9.33301 15.333 30.333 71 63 167c0.666992 15.333 3.33398 23 8.00098 23h2c2 0 3 -1.66699 3 -5
c-11.333 -51.333 -24.333 -92 -39 -122c-18 -52.667 -36.333 -94 -55 -124c-6 -14.667 -9 -23 -9 -25v-4c0 -2.66699 1 -4 3 -4c3.33301 0 6 0.666992 8 2c5.33301 -0.666992 8 -2 8 -4l4 2h8c1.33301 0 2 -0.666992 2 -2c1.33301 0 2 0.666992 2 2
c10.667 -0.666992 16 -2 16 -4l3 2h4c7.33301 0 16.666 0.666992 27.999 2c2.66699 -1.33301 4.66699 -2 6 -2v-8c0 -2 -2 -4 -6 -6h-12c-1.33301 0 -2 0.666992 -2 2c-2.66699 -1.33301 -4.66699 -2 -6 -2l-31 -2c-4.66699 2.66699 -11.334 4.66699 -20.001 6
c-11.333 0 -17 -3.66699 -17 -11c0 -5.33301 -0.666992 -8 -2 -8c0 -1.33301 0.666992 -2 2 -2l-2 -14c0 -3.33301 0.666992 -8.66602 2 -15.999l-2 -8l2 -11h-2c1.33301 -2.66699 2 -4.66699 2 -6l-2 -14c1.33301 -2 2 -4.66699 2 -8c12.667 -1.33301 22.334 -2 29.001 -2
h53c5.33301 0 13.666 1.33301 24.999 4l6 -8v-4c0 -2 -1.33301 -3 -4 -3h-74c-1.33301 0 -2 0.333008 -2 1l-4 -1c-1.33301 0 -2 0.333008 -2 1l-14 -1h-15v-57c0 -1.33301 -0.666992 -2 -2 -2l2 -4c0 -4 -0.666992 -6 -2 -6l2 -20v-21c0 -3.33301 0.666992 -6 2 -8
c-1.33301 -2.66699 -2 -5.33398 -2 -8.00098c0 -11.333 0.666992 -31 2 -59c0 -1.33301 -0.666992 -3.33301 -2 -6l6 -68l-2 -4c1.33301 -2.66699 2 -4.66699 2 -6c-2 -5.33301 -4 -8 -6 -8h-4c-3.33301 -0 -5.33301 3.33301 -6 10h2c-1.33301 2.66699 -2 4.66699 -2 6
c1.33301 4 2.66602 6 3.99902 6c-2.66699 22.667 -4 50 -4 82c0 2.66699 -0.666992 4 -2 4l2 10v47c0 7.33301 -0.666992 17.666 -2 30.999c0 1.33301 0.666992 2 2 2l-2 8c1.33301 18 2 29 2 33l-2 4c0.666992 2 2 11.333 4 28c-1.33301 2 -2 4.33301 -2 7h-16l-12 2
l-13 -3c-1.33301 0 -2 0.333008 -2 1l-28 -3v2c-1.33301 0 -2 -0.666992 -2 -2l-10 2c-9.33301 -1.33301 -14.333 -2 -15 -2c-6.66699 1.33301 -10 3 -10 5v2c0 1.33301 2.66699 3.33301 8 6l10 -2h9c3.33301 0 6 0.666992 8 2l4 -2c22.667 2.66699 41 4 55 4h14v87
c0 1.33301 0.666992 2 2 2c-1.33301 2 -2 5 -2 9c-8 -1.33301 -12 -2.66602 -12 -3.99902l-10 2h-45c-1.33301 0 -2 0.666992 -2 2l-21 -4c-13.333 2 -20 4.66699 -20 8v2c0.666992 2.66699 2 4 4 4h33c3.33301 0 6 0.666992 8 2c2.66699 -1.33301 4.66699 -2 6 -2l10 2v-2
c1.33301 0 2 0.666992 2 2l10 -2h21c3.33301 0 6 0.666992 8 2c2 -1.33301 4.66699 -2 8 -2v2l-57 135c-28.667 68.667 -43 119 -43 151z" />
    <glyph glyph-name="brokenbar" unicode="&#xa6;" horiz-adv-x="121" 
d="M0 31c1.33301 3.33301 2.66504 9.66309 3.99805 18.9961c0 1.33301 -0.666992 3 -2 5l4 41c-1.33301 4.66699 -2 9.66699 -2 15v3c0 2.66699 1 4 3 4l-3 8l2 3l-2 10h2c0 0.666992 -0.666992 1 -2 1l2 10v16c0 1.33301 0.333008 2 1 2c-0.666992 2.66699 -1 4.66699 -1 6
l1 3l-1 4l1 4c0 1.33301 -0.333008 2 -1 2l1 9v22c0 2.66699 -0.333008 5 -1 7c0.666992 10 2.33398 15 5.00098 15h2c6 -3.33301 9 -5.66602 9 -6.99902s-0.666992 -2 -2 -2c0 -1.33301 0.666992 -2 2 -2c-2 -14 -3 -24.333 -3 -31c0.666992 -2.66699 1 -4.66699 1 -6
c-2 -5.33301 -3 -10.666 -3 -15.999c0 -2.66699 1 -6.66699 3 -12l-1 -3c0 -1.33301 0.333008 -2 1 -2c-2 -15.333 -3 -37.666 -3 -66.999l2 -3c-1.33301 -11.333 -2.66602 -17 -3.99902 -17l2 -4c-1.33301 -30 -2 -46.667 -2 -50c1.33301 -15.333 2 -23.333 2 -24
c-2 -18.667 -4.66699 -28 -8 -28c-2 0 -4.33301 2.66699 -7 8c0 2.66699 0.666992 5 2 7c-1.33301 10.667 -2 19.334 -2 26.001v4c0 1.33301 0.666992 2 2 2zM1.99902 453.997c1.33301 6.66699 2 11.665 2 14.998c0 1.33301 -0.666992 3.33301 -2 6c1.33301 2 2 4.33301 2 7
c0 4.66699 -0.666992 10.334 -2 17.001c0 0.666992 0.666992 4.33398 2 11.001c0 0.666992 -0.666992 5.66699 -2 15c1.33301 15.333 2.33301 23.666 3 24.999c0 1.33301 -0.333008 2 -1 2l1 19v9c0 14 0.666992 32 2 54c-1.33301 2 -2 3.66699 -2 5l2 4
c-1.33301 2.66699 -2 4.66699 -2 6l2 3c-1.33301 2.66699 -2 4.66699 -2 6h2l-2 3v10c0 1.33301 0.666992 2 2 2l-2 3l2 11c-1.33301 2.66699 -2 5.33398 -2 8.00098l4 7c-2.66699 4 -4 7.66699 -4 11v17c0.666992 2.66699 2 4 4 4c1.33301 0 2 -0.666992 2 -2l4 2h5v-4
c0 -6 0.666992 -12.333 2 -19c-0.666992 -7.33301 -2 -11 -4 -11l2 -3v-4c0 -1.33301 -0.666992 -2 -2 -2l2 -4l-2 -16l2 -13l-2 -13l2 -17l-2 -9c1.33301 -2 2 -4.33301 2 -7h-2l2 -4c0 -1.33301 -0.666992 -2 -2 -2c0 -1.33301 0.666992 -2 2 -2l-2 -18v-28
c0 -1.33301 -0.333008 -2 -1 -2c0 -1.33301 0.333008 -2 1 -2c-1.33301 -28 -2.33301 -42 -3 -42l2 -11v-10c0 -2.66699 -0.666992 -5 -2 -7l2 -4c0 -1.33301 -0.666992 -2 -2 -2l2 -9c0 -17.333 -2 -26 -6 -26h-4c-2 0 -3.66699 3.66699 -5 11z" />
    <glyph glyph-name="section" unicode="&#xa7;" horiz-adv-x="326" 
d="M103 724l11 -4.00586l4 1c19.333 -2.66699 41 -10.667 65 -24c18 -13.333 27 -24 27 -32l9 -20v-12c0 -5.33301 -2.33301 -8.66602 -7 -9.99902h-5v9c0 32 -15.333 53.667 -46 65c-12 7.33301 -32.667 13 -62 17c-25.333 -4.66699 -40.666 -11 -45.999 -19
c-7.33301 -11.333 -14.333 -27.666 -21 -48.999c2.66699 0 4 -1 4 -3v-16c0 -2 -0.666992 -4 -2 -6c1.33301 -1.33301 2 -3 2 -5c0 -1.33301 -0.666992 -2 -2 -2c0.666992 -13.333 11.667 -37.333 33 -72c10.667 -24.667 34.334 -56.667 71.001 -96c0 -2 7 -12 21 -30
c10 -18 15 -27.333 15 -28c17.333 -33.333 28.333 -59.666 33 -78.999h-2l4 -11c0 -0.666992 -0.666992 -1 -2 -1c3.33301 -11.333 5 -20.666 5 -27.999v-1l-3 -4c2 0 3.66699 -2.66699 5 -8c-3.33301 -18 -17.666 -38.667 -42.999 -62c-20.667 -11.333 -48 -17 -82 -17
c-4 0 -15.333 4.66699 -34 14c14 -24.667 39 -57.334 75 -98.001c12 -14.667 29.667 -46 53 -94l10 -37h-2c1.33301 -1.33301 2.66602 -5.66602 3.99902 -12.999c-1.33301 0 -2 -0.333008 -2 -1c2.66699 0 5 -5.33301 7 -16l-2 -3l2 -9c-2 0 -3 -1 -3 -3
c2 0 3 -0.666992 3 -2v-2c0 -20 -16 -43 -48 -69c-18 -7.33301 -40.333 -12.333 -67 -15h-5c-30.667 8.66699 -51 22.334 -61 41.001c-16 19.333 -24 40 -24 62v1h1c-2 5.33301 -3 8.66602 -3 9.99902c1.33301 4 3.66602 6 6.99902 6c5.33301 0 8 -6.66699 8 -20v-19
c3.33301 -16.667 16.666 -35.334 39.999 -56.001c9.33301 -3.33301 18.333 -7.66602 27 -12.999c1.33301 0 2 0.333008 2 1c1.33301 0 3 -0.333008 5 -1c40.667 0 69.667 12 87 36c3.33301 0 8.66602 8.66699 15.999 26c-1.33301 0 -2 0.333008 -2 1c2 0 3 1 3 3v22
c0 0.666992 0.666992 1 2 1c-2 4.66699 -4.33301 14 -7 28h2c-15.333 48.667 -32 85.334 -50 110.001c-19.333 30 -39.666 55.667 -60.999 77c-16.667 22.667 -32 49.334 -46 80.001c-12 12 -18 30.333 -18 55h2c-2 5.33301 -3.66699 8 -5 8c12 54 27.333 81 46 81
c0 1.33301 8 4 24 8l4 -2c6.66699 2 11 3 13 3c0 -2.66699 13.333 -5.66699 40 -9l27 -13l26 -17v1c-9.33301 24 -26.666 55.667 -51.999 95l-19 23c-30.667 32 -55.667 69 -75 111c-10.667 18 -16.334 32 -17.001 42v26c0 1.33301 0.666992 2 2 2l-2 3l2 3l-2 2l7 25l-2 3
c11.333 27.333 23.333 41 36 41c11.333 4.66699 24 7 38 7c0 0.666992 0.666992 1 2 1zM20 260.994c11.333 -31.333 27.001 -52.667 47.001 -64c13.333 -6.66699 22.333 -10 27 -10c54.667 0 90 22.667 106 68v16c-6 38.667 -13 58 -21 58c-10 12 -29.333 23 -58 33l-27 4
c-36.667 0 -58.334 -12.333 -65.001 -37c-6 -16 -9 -38.667 -9 -68z" />
    <glyph glyph-name="dieresis" unicode="&#xa8;" horiz-adv-x="220" 
d="M-4 660l1.00098 1c-0.666992 1.33301 -1 3 -1 5c9.33301 11.333 17.666 17 24.999 17h4c11.333 -3.33301 17 -8 17 -14c1.33301 0 2 -3 2 -9h-1l1 -3c0 -6 -6.33301 -11.667 -19 -17h-4c-8 0 -16 5 -24 15c0 2 -0.333008 3.66699 -1 5zM98.001 665
c0 8 5.66602 14 16.999 18h9c6.66699 -3.33301 12.334 -9.33301 17.001 -18l-1 -4v-8c-6 -9.33301 -12.333 -14 -19 -14c-14.667 2 -22 9.33301 -22 22c-0.666992 0 -1 1.33301 -1 4z" />
    <glyph glyph-name="copyright" unicode="&#xa9;" horiz-adv-x="817" 
 />
    <glyph glyph-name="ordfeminine" unicode="&#xaa;" horiz-adv-x="316" 
 />
    <glyph glyph-name="guillemotleft" unicode="&#xab;" horiz-adv-x="238" 
d="M65 402c1.33301 0 2.99902 -1.66699 4.99902 -5v-2c0 -4.66699 -17.667 -30 -53 -76c26.667 -14.667 48 -29 64 -43l-5 -7c-4 0.666992 -19 10 -45 28c-17.333 8.66699 -27.666 14.667 -30.999 18v4c14 15.333 34.333 42.333 61 81zM144.999 402
c1.33301 0 2.99902 -1.66699 4.99902 -5v-2c0 -4.66699 -17.667 -30 -53 -76c26.667 -14.667 48 -29 64 -43l-5 -7c-4 0.666992 -19 10 -45 28c-17.333 8.66699 -27.666 14.667 -30.999 18v4c14 15.333 34.333 42.333 61 81z" />
    <glyph glyph-name="logicalnot" unicode="&#xac;" horiz-adv-x="290" 
d="M194 354l5.99805 -11.0029v-13c0 -6.66699 -1.33301 -21.667 -4 -45c0 -10 1.33301 -23.333 4 -40l-6 -4h-5c-2.66699 0 -4 1.33301 -4 4v16l-2 23h2l-2 3v4c0.666992 2.66699 2 4 4 4c0 1.33301 -0.666992 3 -2 5c1.33301 8.66699 2 15.667 2 21v7
c0 1.33301 0.666992 2 2 2c-1.33301 2 -2 5.66699 -2 11l-4 -2h-13c-1.33301 0 -2 0.666992 -2 2l-3 -2h-8c-1.33301 0 -2 0.666992 -2 2l-3 -2h-13l-13 -2v2c-3.33301 -1.33301 -9.66602 -2.66602 -18.999 -3.99902v2c-20 -3.33301 -54.333 -5.66602 -103 -6.99902l-4 5v2
c0 2.66699 4.33301 5.33398 13 8.00098c8.66699 -1.33301 15.334 -2 20.001 -2h19l13 2v-2c2 1.33301 3.66699 2 5 2c24 0 42.667 1.66699 56 5c1.33301 0 2 -0.666992 2 -2c18.667 2.66699 40.667 4.66699 66 6z" />
    <glyph glyph-name="registered" unicode="&#xae;" horiz-adv-x="817" 
 />
    <glyph glyph-name="macron" unicode="&#xaf;" horiz-adv-x="398" 
d="M290 687l6.00098 -7c-2 0 -4.33301 -3 -7 -9l-13 2h-4l-9 -2v2c-2.66699 -1.33301 -4.66699 -2 -6 -2c-35.333 -0.666992 -53 -2 -53 -4l-10 2h-27c-4.66699 0 -10.334 0.666992 -17.001 2c-2.66699 -1.33301 -4.66699 -2 -6 -2v2l-3 -2h-8c-1.33301 0 -2 0.666992 -2 2
l-3 -2c-2 0 -12 0.666992 -30 2c-0.666992 0 -4.33398 -0.666992 -11.001 -2c-2 1.33301 -4.33301 2 -7 2s-4 -0.666992 -4 -2l-13 2h-19c-4.66699 0 -9.33398 -0.666992 -14.001 -2c-5.33301 1.33301 -10.333 2 -15 2h-11c-2.66699 0 -4 1 -4 3l6 10l9 -2h9
c4 0 6 0.666992 6 2l9 -2h20c1.33301 0 2 -0.666992 2 -2l4 2c2 0 3 -0.666992 3 -2l13 2h2c5.33301 0 12.333 -0.666992 21 -2l3 2l10 -2c10.667 1.33301 16.667 2 18 2l7 -2c2.66699 1.33301 6 2 10 2c1.33301 0 2 -0.666992 2 -2l3 2h2c1.33301 0 2 -0.666992 2 -2l4 2
h13c2.66699 0 5 -0.666992 7 -2c2 1.33301 4.33301 2 7 2h2c2.66699 0 5.33398 -0.666992 8.00098 -2c2.66699 0.666992 9.33398 2 20.001 4l9 -2c22.667 2.66699 35 4 37 4v-2z" />
    </font>
</defs>
</svg>
