<?xml version="1.0" standalone="no"?>
<!DOCTYPE svg PUBLIC "-//W3C//DTD SVG 1.1//EN" "http://www.w3.org/Graphics/SVG/1.1/DTD/svg11.dtd" >
<svg>
<metadata>
Created by FontForge 20090914 at Sat Aug 17 20:44:30 2013
 By www-data
Copyright (c) Galdino Otten, 2012
</metadata>
<defs>
<font id="TopModern" horiz-adv-x="541" vert-adv-y="2048" >
  <font-face 
    font-family="Top Modern"
    font-weight="400"
    font-stretch="normal"
    units-per-em="2048"
    panose-1="0 0 0 0 0 0 0 0 0 0"
    ascent="1638"
    descent="-410"
    x-height="1023"
    cap-height="1433"
    bbox="-149 -399 2495 1695"
    underline-thickness="150"
    underline-position="-141"
    unicode-range="U+0020-U+2019"
  />
<missing-glyph horiz-adv-x="1157" vert-adv-y="1844" 
d="M634 541c117.333 -53.333 180 -125.333 188 -216c5.33301 -56.667 -8.66699 -103 -42 -139c-33.333 -35.333 -82 -57 -146 -65v420zM404 1154c26 35.333 66.334 57.667 121.001 67v-357c-92.667 47.333 -142.334 109.333 -149.001 186c-4 39.333 5.33301 74 28 104z
M977.001 615.001c-69.333 74 -175.333 137.999 -318 191.999c-6 2 -14.333 5 -25 9v409c76 -6 142.333 -24 199 -54v-100h224v288c-10 5.33301 -93.667 30.333 -251 75c-53.333 15.333 -110.666 25 -171.999 29v232h-109v-232c-136 -9.33301 -243 -53.666 -321 -132.999
c-78 -80 -111.667 -180.667 -101 -302c18 -195.333 158.667 -343 422 -443v-465c-70.667 6.66699 -138.334 25 -203.001 55v106h-224v-288c176.667 -58.667 319 -95.667 427 -111v-235h109v231c169.333 8 294.333 61.667 375 161c68 82.667 96.667 183 86 301
c-10 110 -49.333 201.667 -118 275z" />
    <glyph glyph-name=".notdef" horiz-adv-x="1157" vert-adv-y="1844" 
d="M634 541c117.333 -53.333 180 -125.333 188 -216c5.33301 -56.667 -8.66699 -103 -42 -139c-33.333 -35.333 -82 -57 -146 -65v420zM404 1154c26 35.333 66.334 57.667 121.001 67v-357c-92.667 47.333 -142.334 109.333 -149.001 186c-4 39.333 5.33301 74 28 104z
M977.001 615.001c-69.333 74 -175.333 137.999 -318 191.999c-6 2 -14.333 5 -25 9v409c76 -6 142.333 -24 199 -54v-100h224v288c-10 5.33301 -93.667 30.333 -251 75c-53.333 15.333 -110.666 25 -171.999 29v232h-109v-232c-136 -9.33301 -243 -53.666 -321 -132.999
c-78 -80 -111.667 -180.667 -101 -302c18 -195.333 158.667 -343 422 -443v-465c-70.667 6.66699 -138.334 25 -203.001 55v106h-224v-288c176.667 -58.667 319 -95.667 427 -111v-235h109v231c169.333 8 294.333 61.667 375 161c68 82.667 96.667 183 86 301
c-10 110 -49.333 201.667 -118 275z" />
    <glyph glyph-name="space" unicode=" " horiz-adv-x="578" vert-adv-y="1844" 
 />
    <glyph glyph-name="exclam" unicode="!" horiz-adv-x="487" vert-adv-y="1844" 
d="M112 1445l23 -1087h191l46 1087h-260zM337 36c-26.667 -26 -58.334 -39 -95.001 -39c-37.333 0 -69 13 -95 39s-39 57.667 -39 95c0 36.667 13 68.334 39 95.001c26 26 57.667 39 95 39c36.667 0 68.334 -13 95.001 -39c26 -26.667 39 -58.334 39 -95.001
c0 -37.333 -13 -69 -39 -95z" />
    <glyph glyph-name="quotedbl" unicode="&#x22;" horiz-adv-x="569" vert-adv-y="1844" 
d="M112 1035h123v392h-123v-392zM312 1035h123v392h-123v-392z" />
    <glyph glyph-name="numbersign" unicode="#" horiz-adv-x="1575" vert-adv-y="1844" 
d="M933 1366v-393h-259v393h-151v-393h-393v-151h393v-259h-393v-151h393v-393h151v393h259v-393h151v393h393v151h-393v259h393v151h-393v393h-151zM674 822h259v-259h-259v259z" />
    <glyph glyph-name="dollar" unicode="$" horiz-adv-x="1157" vert-adv-y="1844" 
d="M650 615c100.667 -46 154.668 -108 162.001 -186c4 -48.667 -8.33301 -88.667 -37 -120c-28.667 -30.667 -70.334 -49.667 -125.001 -57v363zM451.001 1143c22.667 30.667 57.667 50.334 105 59.001v-309c-80 41.333 -123 94.666 -129 159.999
c-3.33301 34.667 4.66699 64.667 24 90zM945.001 679c-59.333 63.333 -150.666 118.334 -273.999 165.001c-4.66699 2 -11.667 4.66699 -21 8v353c65.333 -5.33301 122.666 -21 171.999 -47v-86h192v248c-8.66699 4.66699 -80.667 26.334 -216 65.001
c-46 13.333 -95.333 21.666 -148 24.999v200h-94v-200c-118 -8 -210.333 -46.333 -277 -115c-67.333 -69.333 -96.333 -156 -87 -260c15.333 -168.667 136.666 -296 363.999 -382v-401c-61.333 6 -120 21.667 -176 47v91h-192v-247c152 -51.333 274.667 -83.333 368 -96
v-203h94v199c146 7.33301 253.667 53.666 323 138.999c58.667 71.333 83.334 158 74.001 260c-8.66699 94.667 -42.667 173.667 -102 237z" />
    <glyph glyph-name="percent" unicode="%" horiz-adv-x="1526" vert-adv-y="1844" 
d="M458 67l765 1222h-187l-765 -1222h187zM398 1183c40 0 74.333 -14 103 -42c28 -28.667 42 -63.334 42 -104.001c0 -40 -14 -74.333 -42 -103l-1 -1c-28.667 -27.333 -62.667 -41 -102 -41c-40.667 0 -75.334 14 -104.001 42c-28 28.667 -42 63 -42 103
c0 40.667 14 75.334 42 104.001c28.667 28 63.334 42 104.001 42zM611 820l2 2l7 7v1c54.667 58 82 127 82 207c0 84.667 -29.667 156.667 -89 216s-131 89 -215 89s-156 -29.667 -216 -89c-59.333 -60 -89 -132 -89 -216s29.667 -155.667 89 -215s131.333 -89 216 -89
c80 0 149.667 27.667 209 83zM1134 210c-40.667 0 -75.001 14.333 -103.001 43c-28.667 28.667 -43 63 -43 103s13.667 74.333 41 103l1 1c28.667 28 63.334 42 104.001 42c40 0 74.333 -14.333 103 -43c28.667 -28 43 -62.333 43 -103c0 -40 -14.333 -74.333 -43 -103
s-63 -43 -103 -43zM917.999 572l-2 -2.00098c-58 -59.333 -87 -130.666 -87 -213.999c0 -84 29.667 -155.667 89 -215c60 -59.333 132 -89 216 -89c83.333 0 155 29.667 215 89l3 3c57.333 59.333 86 130 86 212c0 84 -29.667 156 -89 216c-59.333 59.333 -131 89 -215 89
s-156 -29.667 -216 -89z" />
    <glyph glyph-name="ampersand" unicode="&#x26;" horiz-adv-x="1421" vert-adv-y="1844" 
d="M543 892l-73.001 71.999c-32.667 32.667 -49 72 -49 118s16.333 85.333 49 118s72 49 118 49c46.667 0 86.334 -16.333 119.001 -49s49 -72 49 -118c0 -47.333 -16.667 -86.666 -50 -117.999c-26.667 -26 -71 -51.333 -133 -76c-6 -2 -12.333 -4.66699 -19 -8z
M558.999 611.999c100 -99.333 227 -212 381 -338c-86.667 -164.667 -204.334 -249.334 -353.001 -254.001h-15c-78 0 -142.333 23.667 -193 71c-39.333 38 -65.666 85.667 -78.999 143c-13.333 60.667 -10 122.334 10 185.001c30.667 99.333 95.667 182 195 248z
M1285 230.999l-122.002 96.002c23.333 59.333 54 150 92 272c30.667 100 54 171.667 70 215l15 40l-170 64l-14 -40c-18 -48 -43.333 -124 -76 -228c-28 -90.667 -50 -158 -66 -202c-108.667 90.667 -219 191.334 -331 302.001c8.66699 4.66699 18.667 9.66699 30 15
c76 37.333 127.667 71.333 155 102c46 51.333 69 123 69 215c0 96.667 -34 179 -102 247s-150.333 102 -247 102c-96 0 -178 -34 -246 -102l-2 -2c-66.667 -68 -100 -149.667 -100 -245c0 -62.667 12 -115.334 36 -158.001c14 -26 41 -58 81 -96
c10 -10.667 18.333 -19 25 -25c-122.667 -88.667 -204.667 -198.334 -246 -329.001c-29.333 -94.667 -33.666 -188 -12.999 -280c21.333 -93.333 65 -171.333 131 -234c86 -81.333 192 -122 318 -122h1h16c214.667 5.33301 380 111.666 496 318.999l93 -73l3 -2
c39.333 -31.333 71 -58.333 95 -81l31 -29l124 133l-32 29c-29.333 27.333 -64.666 57.333 -105.999 90z" />
    <glyph glyph-name="parenleft" unicode="(" vert-adv-y="1844" 
d="M107 670c0 -385.333 26.667 -638.331 80 -758.998c38.667 -87.333 93 -159 163 -215l62 -49v279l-8 10c-23.333 31.333 -41.333 65.666 -54 102.999c-24.667 73.333 -37 283.666 -37 630.999s12.333 558 37 632c12.667 38 30.667 72.333 54 103l8 10v280l-62 -50
c-70 -56 -124.333 -127.667 -163 -215c-53.333 -120.667 -80 -374 -80 -760z" />
    <glyph glyph-name="parenright" unicode=")" vert-adv-y="1844" 
d="M332 1430c-38.667 87.333 -93 158.998 -163 214.998l-62 50v-280l8 -10c22.667 -30.667 40.334 -65 53.001 -103c25.333 -74 38 -284.667 38 -632s-12.667 -557.666 -38 -630.999c-12.667 -37.333 -30.334 -71.666 -53.001 -102.999l-8 -10v-279l62 49
c70 56 124.333 127.667 163 215c53.333 120.667 80 373.667 80 759c0 386 -26.667 639.333 -80 760z" />
    <glyph glyph-name="asterisk" unicode="*" horiz-adv-x="1024" vert-adv-y="1844" 
d="M431 1404v-163l-98 114l-102 -88l126 -147h-210v-135h210l-126 -147l102 -88l98 114v-163h135v163l98 -114l102 88l-126 147h210v135h-210l126 147l-102 88l-98 -114v163h-135z" />
    <glyph glyph-name="plus" unicode="+" horiz-adv-x="1596" vert-adv-y="1844" 
d="M723 1380v-588h-588v-162h588v-588h162v588h588v162h-588v588h-162z" />
    <glyph glyph-name="comma" unicode="," horiz-adv-x="578" vert-adv-y="1844" 
d="M302 267c-30.667 30.667 -67.667 45.999 -111 45.999c-44 0 -81.333 -15.333 -112 -46s-46 -68 -46 -112c0 -42 14.667 -78.333 44 -109c30 -30.667 66 -46.667 108 -48l-24 -109h97l66 168c2 4.66699 5 15.334 9 32.001c10 21.333 15 43.333 15 66
c0 44 -15.333 81.333 -46 112z" />
    <glyph glyph-name="hyphen" unicode="-" horiz-adv-x="1077" vert-adv-y="1844" 
d="M110 584h781v175h-781v-175z" />
    <glyph glyph-name="period" unicode="." horiz-adv-x="578" vert-adv-y="1844" 
d="M327 17c-29.333 -30 -65 -45 -107 -45s-77.667 15 -107 45c-29.333 29.333 -44 64.666 -44 105.999c0 42 14.667 77.667 44 107s65 44 107 44s77.667 -14.667 107 -44s44 -65 44 -107c0 -41.333 -14.667 -76.666 -44 -105.999z" />
    <glyph glyph-name="slash" unicode="/" horiz-adv-x="569" vert-adv-y="1844" 
d="M60 -264h-209l616 1795h210z" />
    <glyph glyph-name="zero" unicode="0" horiz-adv-x="1494" vert-adv-y="1844" 
d="M747 1242c119.333 0 221.667 -43.667 307 -131c84.667 -87.333 127 -192 127 -314v-165c0 -122 -42.333 -226.667 -127 -314c-85.333 -87.333 -187.666 -131 -306.999 -131s-221.333 43.667 -306 131c-85.333 87.333 -128 192 -128 314v165c0 122 42.333 226.667 127 314
c85.333 87.333 187.666 131 306.999 131v0zM747.001 1461c-178 0 -330.333 -65 -457 -195s-190 -286.333 -190 -469v-165c0 -182.667 63.333 -339 190 -469s279 -195 457 -195v0c178 0 330.333 65 457 195s190 286.333 190 469v165c0 182.667 -63.333 339 -190 469
s-279 195 -457 195z" />
    <glyph glyph-name="one" unicode="1" horiz-adv-x="692" vert-adv-y="1844" 
d="M326 1429l-226 -168v-254l185 137v-953h-102v-198h409v198h-103v1238h-163z" />
    <glyph glyph-name="two" unicode="2" horiz-adv-x="1142" vert-adv-y="1844" 
d="M844 203h-409.001l37 39c184 196 315.667 348 395 456c114 156 171 282 171 378c0 98.667 -35 182.667 -105 252c-70 70 -154 105 -252 105h-168c-112 0 -207.667 -39.667 -287 -119l-1 -1c-55.333 -56 -91.666 -122 -108.999 -198l-16 -74h207l12 43
c10 32.667 27 61 51 85c40 40 87.667 60 143 60h168c42 0 78 -15 108 -45s45 -66 45 -108c0 -98.667 -190.667 -352.667 -572 -762l-102 -111l-34 -1v-203h916v314h-198v-110z" />
    <glyph glyph-name="three" unicode="3" horiz-adv-x="1193" vert-adv-y="1844" 
d="M972 1103c-4 88 -37.3301 163.333 -99.9971 226c-68.667 68.667 -151.334 103 -248.001 103h-402v-309h195v108h207c41.333 0 76.666 -14.667 105.999 -44c63.333 -63.333 57.666 -156 -17.001 -278c-53.333 12 -107.333 15.667 -162 11l-55 -5v-196l67 8
c11.333 1.33301 22.666 2 33.999 2c82 0 151.667 -27.333 209 -82c57.333 -54 86 -119 86 -195c0 -76.667 -28.667 -142 -86 -196s-127 -81 -209 -81c-81.333 0 -150.666 27 -207.999 81c-26 24.667 -46.667 53 -62 85l-16 35h-211l30 -81
c25.333 -67.333 64.666 -126.333 117.999 -177c96.667 -91.333 213 -137 349 -137c136.667 0 253.334 45.667 350.001 137c97.333 92 146 203.333 146 334c0 130 -48.667 241 -146 333c-16 15.333 -32.667 29.333 -50 42c54 96 79 188 75 276z" />
    <glyph glyph-name="four" unicode="4" horiz-adv-x="1311" vert-adv-y="1844" 
d="M497 1443l-397 -1040v-119h754v-84h-108v-208h431v208h-109v84h143v214h-143v772h-214v-772h-483l348 945h-222z" />
    <glyph glyph-name="five" unicode="5" horiz-adv-x="1288" vert-adv-y="1844" 
d="M358 972l0.000976562 249.998h548v-118h214v339h-214v0c-65.333 0 -169.333 -0.333008 -312 -1c-182 -1.33301 -312.333 -2 -391 -2h-66v-689h498c96.667 0 167 -12 211 -36c53.333 -29.333 90.666 -84.333 111.999 -165c6.66699 -24.667 10 -49.667 10 -75
c0 -83.333 -31.333 -154.666 -94 -213.999c-63.333 -60 -139.666 -90 -228.999 -90s-165.333 29.667 -228 89c-28.667 27.333 -51.334 58.666 -68.001 93.999l-17 38h-232l33 -89c27.333 -73.333 70.333 -137.666 129 -192.999c106 -100.667 233.667 -151 383 -151
c150 0 278 50.333 384 151s159 222.334 159 365.001c0 144 -49.667 263 -149 357c-99.333 93.333 -225.333 140 -378 140h-303z" />
    <glyph glyph-name="six" unicode="6" horiz-adv-x="1335" vert-adv-y="1844" 
d="M674 155c-94.667 0 -176.334 33.334 -245.001 100.001c-70.667 69.333 -107 154 -109 254c-2.66699 100.667 30 187 98 259c68 71.333 150.667 108 248 110h8c94.667 0 176 -33.333 244 -100c71.333 -68.667 108 -153.334 110 -254.001c2 -100 -31 -186 -99 -258
c-67.333 -72 -149.666 -109 -246.999 -111h-8zM551 1056c-96 -36 -180.332 -105.667 -252.999 -209c4.66699 78 24.667 148 60 210c16.667 28 36.334 53.667 59.001 77c68 70.667 150 110.667 246 120l30 2h8c83.333 0 157.333 -27.333 222 -82l29 -24l203 79l-68 67
c-1.33301 2 -2.66602 3.66699 -3.99902 5l-5 5c-106 100.667 -231.667 151 -377 151h-12l-39 -2c-148.667 -13.333 -274.667 -73.666 -378 -180.999c-114.667 -118.667 -170.334 -259.667 -167.001 -423l7 -304v-7c2.66699 -20 5.66699 -38 9 -54
c22.667 -122 47.667 -205.667 75 -251l31 -52l4 -5c19.333 -26.667 38.666 -49 57.999 -67c107.333 -104.667 235.666 -157 384.999 -157h12c154 3.33301 284 61.333 390 174c106 112 157.333 245.333 154 400c-3.33301 155.333 -60.333 286.666 -171 393.999
c-108 105.333 -236.333 158 -385 158c-34 2 -75 -6 -123 -24z" />
    <glyph glyph-name="seven" unicode="7" horiz-adv-x="1351" vert-adv-y="1844" 
d="M146 1434l1 -393l210 1v177l504 2l-761 -1226l255 1l792 1277l104 166z" />
    <glyph glyph-name="eight" unicode="8" horiz-adv-x="1277" vert-adv-y="1844" 
d="M766 1223c34.667 -34 52 -75 52 -123s-17.333 -89 -52 -123s-77 -51 -127 -51s-92.667 17 -128 51c-34.667 34 -52 75 -52 123s17.333 89 52 123c35.333 34 78 51 128 51s92.333 -17 127 -51zM586 155c-78.667 0 -145.667 27.667 -201 83c-56 56 -84 123.333 -84 202
c0 78 28 145 84 201c55.333 56 122.333 84 201 84h106c78 0 145 -28 201 -84s84 -123 84 -201c0 -78.667 -28 -145.667 -84 -201c-56 -56 -123 -84 -201 -84h-106zM1019 1100c0 104 -37.3311 192.667 -111.998 266c-74 72.667 -163.333 109 -268 109s-194 -36.333 -268 -109
c-75.333 -73.333 -113 -162 -113 -266c0 -90 29 -169.333 87 -238c-36.667 -21.333 -70.334 -47 -101.001 -77l-1 -2c-95.333 -95.333 -143 -209.666 -143 -342.999c0 -132.667 47 -246.667 141 -342l2 -1c94.667 -95.333 209 -143 343 -143h106
c133.333 0 247.666 47.667 342.999 143l3 3c92.667 94.667 139 208 139 340c0 133.333 -47.333 247.666 -142 342.999c-30.667 30.667 -65 57 -103 79c58 68.667 87 148 87 238z" />
    <glyph glyph-name="nine" unicode="9" horiz-adv-x="1325" vert-adv-y="1844" 
d="M689 1265c94 -6 173.333 -44.667 238 -116c66 -73.333 97 -160 93 -260c-4.66699 -100 -43 -184 -115 -252c-72.667 -66.667 -157.667 -98 -255 -94h-7c-94.667 6.66699 -174 45.334 -238 116.001c-66.667 73.333 -97.667 160 -93 260c4 100.667 42.333 184.667 115 252
c72 67.333 156.667 98.666 254 93.999h8zM754 358c98 30 186.34 94.332 265.007 192.999c-9.33301 -78 -33.666 -146.667 -72.999 -206c-18 -26.667 -39.333 -51.334 -64 -74.001c-72 -65.333 -156.333 -99.666 -253 -102.999c-10 -0.666992 -20 -0.666992 -30 0h-7
c-84 6 -156.667 38.333 -218 97l-26 25l-208 -66l63 -71c1.33301 -2 2.66602 -3.66699 3.99902 -5l4 -5c99.333 -107.333 221.666 -165.666 366.999 -174.999l12 -1c12.667 -0.666992 25.667 -1 39 -1c149.333 4 279.333 56.333 390 157
c121.333 110.667 185.666 247.667 192.999 411l13 304v6c-1.33301 20.667 -3 39 -5 55c-14.667 123.333 -34.334 208.666 -59.001 255.999l-28 53l-3 5c-18.667 28 -36.667 51.667 -54 71c-100.667 111.333 -225.334 172 -374.001 182h-12
c-154 6.66699 -287.667 -42.666 -401 -147.999c-112.667 -105.333 -172.334 -235.333 -179.001 -390s41.666 -289.334 144.999 -404.001c100.667 -111.333 225.667 -171.666 375 -180.999c33.333 -5.33301 74.666 -0.333008 123.999 15z" />
    <glyph glyph-name="colon" unicode=":" horiz-adv-x="588" vert-adv-y="1844" 
d="M348 875c-29.333 -30 -65 -45 -107 -45s-77.667 15 -107 45c-29.333 29.333 -44 64.666 -44 105.999c0 42 14.667 77.667 44 107s65 44 107 44s77.667 -14.667 107 -44s44 -65 44 -107c0 -41.333 -14.667 -76.666 -44 -105.999zM348 197
c-29.333 -29.333 -65 -44 -107 -44s-77.667 14.667 -107 44c-29.333 30 -44 65.667 -44 107c0 42 14.667 77.667 44 107s65 44 107 44s77.667 -14.667 107 -44s44 -65 44 -107c0 -41.333 -14.667 -77 -44 -107z" />
    <glyph glyph-name="semicolon" unicode=";" horiz-adv-x="588" vert-adv-y="1844" 
d="M306 267c-30.667 30.667 -67.667 45.999 -111 45.999c-44 0 -81.333 -15.333 -112 -46s-46 -68 -46 -112c0 -42 14.667 -78.333 44 -109c30 -30.667 66 -46.667 108 -48l-24 -109h97l66 168c2 4.66699 5 15.334 9 32.001c10 21.333 15 43.333 15 66
c0 44 -15.333 81.333 -46 112zM301 582.999c-29.333 -30 -64.666 -45 -105.999 -45c-42 0 -77.667 15 -107 45c-29.333 29.333 -44 64.666 -44 105.999c0 42 14.667 77.667 44 107s65 44 107 44c41.333 0 76.666 -14.667 105.999 -44c30 -29.333 45 -65 45 -107
c0 -41.333 -15 -76.666 -45 -105.999z" />
    <glyph glyph-name="less" unicode="&#x3c;" horiz-adv-x="1191" vert-adv-y="1844" 
d="M96 528v164l908 580v-287l-592 -375l592 -372v-285z" />
    <glyph glyph-name="equal" unicode="=" horiz-adv-x="1327" vert-adv-y="1844" 
d="M178 256v248h1095v-248h-1095zM178 673v248h1095v-248h-1095z" />
    <glyph glyph-name="greater" unicode="&#x3e;" horiz-adv-x="1208" vert-adv-y="1844" 
d="M96 -47v285l592 372l-592 375v287l908 -580v-164z" />
    <glyph glyph-name="question" unicode="?" horiz-adv-x="992" vert-adv-y="1844" 
d="M288 -76c-72 0 -119.667 45.667 -143 137v81c0 80.667 49 131 147 151c96.667 0 151 -53 163 -159v-60c0 -69.333 -41.667 -119.333 -125 -150h-42zM207 1203v-108.999c0 -22.667 -8 -42.334 -24 -59.001c-16 -16 -35.667 -24 -59 -24h-76c-22.667 0 -42 8 -58 24
s-24 35.667 -24 59v264c0 35.333 22.667 64.333 68 87h482c165.333 0 298 -75 398 -225c43.333 -64.667 65 -142.667 65 -234c0 -186.667 -96.667 -327.667 -290 -423c-42 -21.333 -106.333 -32 -193 -32h-77v-129c0 -22.667 -8 -42.334 -24 -59.001
c-16 -16 -35.667 -24 -59 -24h-72c-22.667 0 -42.334 8 -59.001 24c-16 16.667 -24 36.334 -24 59.001v292c0 30 12 52.667 36 68c16 10 33 15 51 15l249 -4c82 -1.33301 149.667 44.334 203 137.001c6 16.667 11.667 43.667 17 81c-2 81.333 -47.333 145.666 -136 192.999
c-25.333 12.667 -65.666 19 -120.999 19h-273z" />
    <glyph glyph-name="at" unicode="@" horiz-adv-x="2048" vert-adv-y="1844" 
d="M943 1012c-91.333 0 -163.999 -50 -217.999 -150c-10 -31.333 -15 -51 -15 -59v-84c6 -44 33 -92.333 81 -145c47.333 -37.333 99.333 -56 156 -56c105.333 0 182.333 60 231 180l10 74c-1.33301 52.667 -24.333 107.667 -69 165c-50.667 50 -109.334 75 -176.001 75z
M1263 1653l13.9961 12.0039c182.667 -24.667 346 -106 490 -244c109.333 -105.333 180.666 -235.333 213.999 -390l13 -112c0 -146.667 -48 -278.334 -144 -395.001c-102 -98.667 -195.333 -156.667 -280 -174c-68.667 -14.667 -147 -22 -235 -22h-60
c-35.333 0 -64.333 23 -87 69v156l12 24l32 -95l93 29c-48.667 -89.333 -136.334 -155 -263.001 -197c-33.333 -6.66699 -59.666 -10 -78.999 -10h-80c-68.667 0 -149.667 32.333 -243 97c-114.667 107.333 -172 228 -172 362c0 186.667 86.667 326 260 418
c56 30 111.667 45 167 45h52c129.333 0 242 -58.333 338 -175c19.333 -24 29 -46.667 29 -68l-103 64l-31 -94l-12 24v40c-19.333 3.33301 -35.666 12.666 -48.999 27.999c-12.667 15.333 -19 33.333 -19 54v51c9.33301 50.667 37 76 83 76h207
c50.667 -9.33301 76 -37 76 -83v-44c0 -22.667 -7.66699 -42 -23 -58c-15.333 -15.333 -34.333 -23.666 -57 -24.999v-470c31.333 3.33301 69 9 113 17c72.667 23.333 125.667 54 159 92c65.333 77.333 98 154.666 98 231.999v48c0 77.333 -37.667 170 -113 278
c-138 162 -315.333 243 -532 243c-416 0 -691 -158 -825 -474c-26.667 -88 -40 -167.667 -40 -239c0 -31.333 8.33301 -90.333 25 -177c34 -119.333 85 -213.333 153 -282c86.667 -88 169.334 -146 248.001 -174c102 -37.333 187 -56 255 -56h42l30 -8h13l12 8h59
c140.667 0 290.334 53.333 449.001 160h64l118 -129c-229.333 -172.667 -465.666 -256.667 -708.999 -252c-58 1.33301 -117.667 11.666 -179 30.999c-166.667 28 -284.667 62.667 -354 104c-194 115.333 -326 280.666 -396 495.999c-29.333 88.667 -44 168.334 -44 239.001
v92c0 135.333 42 274.666 126 417.999c110 186 282.333 318.333 517 397c54 18 159 39.667 315 65v-9h24v-79l-89 74c6.66699 1.33301 11.667 2 15 2c46 7.33301 100.333 11 163 11h12c72.667 0 115.334 -2.66699 128.001 -8v-13z" />
    <glyph glyph-name="A" unicode="A" horiz-adv-x="1229" vert-adv-y="1844" 
d="M344 1428v-188h59l-314 -1044h-91v-206h263l106 352h464l107 -352h288v206h-116l-371 1232h-395zM599 1112l162 -536h-323z" />
    <glyph glyph-name="B" unicode="B" horiz-adv-x="1136" vert-adv-y="1844" 
d="M375 208v412.001h228c56 0 104 -20.333 144 -61s60 -89.667 60 -147c0 -50.667 -16.333 -95.334 -49 -134.001c-32 -38 -72.333 -61.333 -121 -70h-262zM660 894.001c-36 -37.333 -79.667 -56.001 -131 -56.001h-154v383h154c51.333 0 95 -18.667 131 -56
s54 -82.666 54 -135.999c0 -52.667 -18 -97.667 -54 -135zM893 904c30 53.333 44.999 110.668 44.999 172.001c0 93.333 -32.333 174.333 -97 243c-64 68 -142.333 105.333 -235 112v3h-542v-213h76v-1013h-76v-213h620c104.667 0 194.334 38.667 269.001 116
c74.667 78 112 171.667 112 281c0 92 -27.667 174 -83 246c-53.333 71.333 -122 117.666 -206 138.999c49.333 32.667 88.333 75 117 127z" />
    <glyph glyph-name="C" unicode="C" horiz-adv-x="1373" vert-adv-y="1844" 
d="M1321 380h-206.001v-92l-4 -2c-89.333 -52 -186.666 -78 -291.999 -78c-149.333 0 -271 50.333 -365 151c-90.667 98 -136 220.333 -136 367s45.333 269 136 367c94 100.667 215.667 151 365 151c106.667 0 205.334 -27 296.001 -81v-91h206v200l-5 3
c-142 121.333 -307.667 182 -497 182c-208.667 0 -386.667 -71.333 -534 -214s-221 -315 -221 -517s73.667 -374.333 221 -517s325.333 -214 534 -214c159.333 0 326.666 61.667 501.999 185v200z" />
    <glyph glyph-name="D" unicode="D" horiz-adv-x="1427" vert-adv-y="1844" 
d="M372 204v1016h262c145.333 -3.33301 263.333 -54.333 354 -153c88 -95.333 132 -213.666 132 -354.999s-44 -259.666 -132 -354.999c-90.667 -98.667 -208.667 -149.667 -354 -153h-262zM1162 1211c-141.333 138 -313 210.667 -515 218v0h-600v-209h90v-1016h-90v-209
h600v1c202 6.66699 373.667 79.334 515 218.001s212 304.667 212 498s-70.667 359.666 -212 498.999z" />
    <glyph glyph-name="E" unicode="E" horiz-adv-x="1000" vert-adv-y="1844" 
d="M40 1438v-213h77v-1012h-77v-213h911v358h-206v-145h-393v453h290v-63h206v340h-206v-63h-290v345h393v-92h206v305h-911z" />
    <glyph glyph-name="F" unicode="F" horiz-adv-x="1129" vert-adv-y="1844" 
d="M1034 1128v305h-938v-213h83v-1019h-83v-206h401v206h-83v462h312v-63h205v338h-205v-62h-312v344h415v-92h205z" />
    <glyph glyph-name="G" unicode="G" horiz-adv-x="1486" vert-adv-y="1844" 
d="M1417 995l0.00195312 357.001h-205v-22c-128 84.667 -269.333 127 -424 127c-207.333 0 -384.666 -71 -531.999 -213c-146.667 -142.667 -220 -314.667 -220 -516c0 -200.667 73.333 -372.334 220 -515.001c147.333 -142 324.666 -213 531.999 -213
c154.667 -0 296 42.333 424 127l40 -127h185v771h-689v-222h464v-167l-119 -84l-14 -8c-88.667 -52 -185.334 -78 -290.001 -78c-149.333 0 -271 50.333 -365 151c-90 97.333 -135 219.333 -135 366c0 146 45 267.667 135 365c94 100.667 215.667 151 365 151
c81.333 0 155 -12 221 -36c93.333 -34 160.666 -89.333 201.999 -166v-48h205z" />
    <glyph glyph-name="H" unicode="H" horiz-adv-x="1486" vert-adv-y="1844" 
d="M977 1435v-205h83v-331h-621v331h83v205h-399v-205h83v-1020h-83v-205h399v205h-83v477h621v-477h-83v-205h399v205h-83v1020h83v205h-399z" />
    <glyph glyph-name="I" unicode="I" horiz-adv-x="473" vert-adv-y="1844" 
d="M35 1433v-206h83v-1025h-83v-206h401v206h-83v1025h83v206h-401z" />
    <glyph glyph-name="J" unicode="J" horiz-adv-x="1056" vert-adv-y="1844" 
d="M581 1433l0.000976562 -203.999h82v-855c0 -48.667 -16 -90.334 -48 -125.001c-32 -34 -71.333 -51 -118 -51c-46 0 -85.333 17.333 -118 52c-32.667 34 -49 75.667 -49 125v218h-270v-204h61v-26c0 -105.333 38 -195 114 -269c75.333 -74 166.666 -111 273.999 -111
c106.667 0 197.667 37 273 111c76 74 114 163.667 114 269v866h82v204h-397z" />
    <glyph glyph-name="K" unicode="K" horiz-adv-x="1160" vert-adv-y="1844" 
d="M65 1438v-206h83v-1026h-83v-206h401v206h-83v378l432 -544l30 -40h271v206h-144l-402 515l383 507h136v206h-244l-156 -206h3l-309 -409v413h83v206h-401z" />
    <glyph glyph-name="L" unicode="L" horiz-adv-x="1000" vert-adv-y="1844" 
d="M32 1439v-206h83v-1026h-83v-206h937v364h-206v-158h-413v1026h83v206h-401z" />
    <glyph glyph-name="M" unicode="M" horiz-adv-x="1729" vert-adv-y="1844" 
d="M1271 1435l-409 -1122l-408 1122h-414v-205h83v-1024h-83v-206h400v206h-83v851l385 -1057h241l384 1057v-851h-83v-206h400v206h-83v1024h83v205h-413z" />
    <glyph glyph-name="N" unicode="N" horiz-adv-x="1327" vert-adv-y="1844" 
d="M869 1445v-207h83v-998l-439 1205h-463v-207h83v-1031h-83v-207h403v207h-84v986l435 -1193h467v207h-83v1031h83v207h-402z" />
    <glyph glyph-name="O" unicode="O" horiz-adv-x="1656" vert-adv-y="1844" 
d="M996 196c-8 -2.66699 -19 -6.00195 -33 -10.002c-14 -3.33301 -25 -5.66602 -33 -6.99902v-1c-145.333 -32.667 -276 -10.667 -392 66c-112.667 74 -188 182.333 -226 325s-27 274 33 394c62.667 124.667 165 209 307 253v0c7.33301 2.66699 18.333 6 33 10l33 8v0
c145.333 32.667 276 10.667 392 -66c112.667 -73.333 188 -181.666 226 -324.999c38.667 -142.667 27.667 -274 -33 -394c-62.667 -124 -165 -208.333 -307 -253v0zM632 1441c-2 -0.666992 -3.33398 -1.33301 -4.00098 -2c-1.33301 0 -3 -0.333008 -5 -1
c-2 0 -3.66699 -0.333008 -5 -1c-209.333 -56 -368.666 -175.333 -477.999 -358s-137 -375.334 -83 -578.001c54.667 -202.667 175 -356 361 -460c186.667 -103.333 384.334 -127 593.001 -71c1.33301 0.666992 3 1 5 1c2 0.666992 3.66699 1.33398 5 2.00098
c0.666992 0 2 0.333008 4 1s3.66699 1 5 1c209.333 56 368.666 175.333 477.999 358c109.333 183.333 137 376.333 83 579c-54.667 202 -175 355 -361 459c-186 103.333 -383.667 127 -593 71c-1.33301 0 -3 -0.333008 -5 -1z" />
    <glyph glyph-name="P" unicode="P" horiz-adv-x="1100" vert-adv-y="1844" 
d="M362 830l-0.000976562 399h281c52.667 -8 96.667 -31.333 132 -70c35.333 -39.333 52.333 -84.333 51 -135c-3.33301 -84 -51.666 -141.667 -144.999 -173c-46 -15.333 -92 -22.333 -138 -21h-181zM49.999 1443v-214h77v-1016h-77v-213h386v213h-74v411h4
c216.667 -9.33301 364 -2 442 22c72 22.667 131.333 73.667 178 153c45.333 76 68 157.667 68 245c0 110.667 -37.333 204.667 -112 282c-74.667 78 -164.667 117 -270 117h-622z" />
    <glyph glyph-name="Q" unicode="Q" horiz-adv-x="1612" vert-adv-y="1844" 
d="M1086 471c-28.667 -38 -73 -82.001 -133 -132.001c-16.667 -14 -34.667 -25.333 -54 -34c9.33301 -21.333 21.666 -53 36.999 -95c-12.667 -3.33301 -23 -5.66602 -31 -6.99902v-1c-142 -32 -270 -10.333 -384 65c-110 72 -184 178 -222 318
c-37.333 140 -26.333 269 33 387c61.333 122 161.666 204.667 300.999 248v0c8 2.66699 18.667 5.66699 32 9c13.333 4 24.333 6.66699 33 8v0c142 32 270 10.667 384 -64c110 -72.667 184 -179 222 -319c26.667 -101.333 27.334 -199.333 2.00098 -294
s-74.666 -173.667 -147.999 -237c-26 62.667 -50 112 -72 148zM1295 52.999c-16.667 15.333 -32.333 36.001 -47 62.001c130 90 223.333 207.667 280 353c58 149.333 66.333 300.333 25 453c-53.333 198.667 -171.333 348.667 -354 450c-182 102 -375.667 125.333 -581 70
c4 1.33301 1 0.666016 -9 -2.00098c-0.666992 -0.666992 -2.33398 -1 -5.00098 -1c-2 -0.666992 -3.33301 -1.33398 -4 -2.00098c-205.333 -54.667 -361.666 -171.667 -468.999 -351s-134.333 -368.333 -81 -567s171.333 -348.667 354 -450
c182 -101.333 375.667 -124.666 581 -69.999c1.33301 0.666992 3 1 5 1c2 0.666992 3.33301 1.33398 4 2.00098c9.33301 2 12.333 2.66699 9 2c2.66699 0.666992 10 3 22 7c32 -56 69.667 -103.333 113 -142c112 -99.333 227.333 -120 346 -62c-14.667 44 -39 127 -73 249
c-46 -28.667 -84.667 -29.334 -116 -2.00098z" />
    <glyph glyph-name="R" unicode="R" horiz-adv-x="1200" vert-adv-y="1844" 
d="M372 1221l263.001 0.000976562c49.333 -8.66699 90.333 -31.334 123 -68.001c33.333 -37.333 49 -80.333 47 -129c-2.66699 -80 -47.334 -135 -134.001 -165c-44 -14.667 -87.333 -21.667 -130 -21h-169v383zM1014 184.001l-339.001 433c64.667 4 112.334 11 143.001 21
c72 22 131.333 72.667 178 152c45.333 76 68 158 68 246c0 110 -37.333 203.667 -112 281c-74.667 78 -164.667 117 -270 117h-622v-213h77v-1016h-77v-214h386v214h-74v410h4h6l474 -597l30 -40h271v206h-143z" />
    <glyph glyph-name="S" unicode="S" horiz-adv-x="1000" vert-adv-y="1844" 
d="M857 662c-64 68.667 -162.332 128 -294.999 178c-96.667 36 -163.667 70 -201 102c-36.667 32 -57.334 73 -62.001 123c-4 44 8.33301 81 37 111c35.333 36 89.333 54 162 54c84.667 0 160 -17.333 226 -52v-92h207v266c-9.33301 5.33301 -86.666 28.666 -231.999 69.999
c-66.667 19.333 -138.334 29 -215.001 29c-140 0 -250.667 -37.667 -332 -113c-81.333 -76 -116.666 -173.667 -105.999 -293c17.333 -188 156.666 -328.333 417.999 -421c92 -33.333 157 -69.666 195 -108.999c32 -32 50 -72.667 54 -122
c5.33301 -59.333 -12 -106.333 -52 -141s-97.333 -52 -172 -52c-82.667 0 -162.667 17.667 -240 53v99h-207v-267c216 -72 367.667 -108 455 -108c172.667 0 300 47 382 141c68.667 78 97.667 174.333 87 289c-8.66699 102 -45 187 -109 255z" />
    <glyph glyph-name="T" unicode="T" horiz-adv-x="1151" vert-adv-y="1844" 
d="M50 1433v-285h205v80h208v-1023h-83v-205h399v205h-82v1023h207v-80h206v285h-1060z" />
    <glyph glyph-name="U" unicode="U" horiz-adv-x="1257" vert-adv-y="1844" 
d="M824 1433l-0.00195312 -200.001h81v-841c0 -41.333 -12 -77.666 -36 -108.999s-54.333 -51.333 -91 -60c-8 -2 -57 -3 -147 -3c-91.333 0 -143.666 1 -156.999 3c-36.667 6.66699 -67 26 -91 58s-36 69 -36 111v841h81v200h-390v-200h81v-852c0 -94.667 32 -177 96 -247
c62.667 -70 141.334 -111 236.001 -123c118.667 -14.667 235.667 -14.667 351 0c94 12 172.667 53 236 123c63.333 70.667 95 153 95 247v852h81v200h-390z" />
    <glyph glyph-name="V" unicode="V" horiz-adv-x="1452" vert-adv-y="1844" 
d="M1138 1438l-416 -1141l-415 1141h-287v-206h127l449 -1232h253l449 1232h133v206h-293z" />
    <glyph glyph-name="W" unicode="W" horiz-adv-x="2542" vert-adv-y="1844" 
d="M2202 1436l-414 -1140l-415 1140h-240l-408 -1121l-408 1121h-287v-206h127l448 -1230h239l409 1122l408 -1122h253l448 1230h133v206h-293z" />
    <glyph glyph-name="X" unicode="X" horiz-adv-x="1141" vert-adv-y="1844" 
d="M841 1433v-2h-1l-272 -504l-273 506h-275v-207h150l272 -504l-275 -510h-147v-207h271v2h1l272 504l274 -506h274v207h-150l-272 503l276 511h146v207h-271z" />
    <glyph glyph-name="Y" unicode="Y" horiz-adv-x="1155" vert-adv-y="1844" 
d="M854 1433v-2h-1l-273 -506l-275 508h-275v-208h151l278 -516v-501h-83v-208h404v208h-84v498h2l281 519h147v208h-272z" />
    <glyph glyph-name="Z" unicode="Z" horiz-adv-x="1053" vert-adv-y="1844" 
d="M26 1438v-343h206v137h460l-666 -1232h1012v343h-206v-137h-460l666 1232h-1012z" />
    <glyph glyph-name="bracketleft" unicode="[" vert-adv-y="1844" 
d="M130 1661v-2014h287v201h-110v1612h110v201h-287z" />
    <glyph glyph-name="backslash" unicode="\" horiz-adv-x="569" vert-adv-y="1844" 
d="M-149 1531h209l617 -1795h-210z" />
    <glyph glyph-name="bracketright" unicode="]" vert-adv-y="1844" 
d="M130 1661v-201h110v-1612h-110v-201h287v2014h-287z" />
    <glyph glyph-name="asciicircum" unicode="^" horiz-adv-x="828" vert-adv-y="1844" 
d="M347 1251l-293 -307h169l171 169l169 -169h169l-292 307h-93z" />
    <glyph glyph-name="underscore" unicode="_" horiz-adv-x="1077" vert-adv-y="1844" 
d="M-103 -207h1398v126h-1398v-126z" />
    <glyph glyph-name="a" unicode="a" horiz-adv-x="1308" vert-adv-y="1844" 
d="M356 286c-66 63.333 -99 139.666 -99 228.999s33 165.666 99 228.999c65.333 63.333 144.333 95 237 95s172 -31.667 238 -95c65.333 -63.333 98 -139.666 98 -228.999s-32.667 -165.666 -98 -228.999c-66 -63.333 -145.333 -95 -238 -95s-171.667 31.667 -237 95z
M1234 832v198h-301v-83c-100 76.667 -213.333 115 -340 115c-153.333 0 -284.333 -53.333 -393 -160c-108.667 -107.333 -163 -236.333 -163 -387s54.333 -279.667 163 -387c108.667 -106.667 239.667 -160 393 -160c126.667 0 240 38.333 340 115v-85h301v197h-78v637h78z
" />
    <glyph glyph-name="b" unicode="b" horiz-adv-x="1300" vert-adv-y="1844" 
d="M448 290c-68 64.667 -102 142.667 -102 234s34 169.666 102 234.999c68 64.667 150 97 246 97s178 -32.333 246 -97c68 -65.333 102 -143.666 102 -234.999s-34 -169.333 -102 -234c-68 -65.333 -150 -98 -246 -98s-178 32.667 -246 98zM342 967v434h-312v-202h81v-1002
h-81v-202h312v86c103.333 -78 220.666 -117 351.999 -117c158.667 0 294.334 54.667 407.001 164c112.667 110 169 242 169 396c0 154.667 -56.333 286.667 -169 396s-248.334 164 -407.001 164c-131.333 0 -248.666 -39 -351.999 -117z" />
    <glyph glyph-name="c" unicode="c" horiz-adv-x="1118" vert-adv-y="1844" 
d="M886 1032l-0.000976562 -56.999c-90 55.333 -188.333 83 -295 83c-152.667 0 -283 -52.667 -391 -158c-108.667 -105.333 -163 -232.333 -163 -381s54.333 -275.667 163 -381c108 -105.333 238.333 -158 391 -158c103.333 0 199 26 287 78
c86 50.667 152.667 118.667 200 204h-289c-59.333 -41.333 -125.333 -62 -198 -62c-92 0 -170.667 31 -236 93c-65.333 62.667 -98 138 -98 226s32.667 163.333 98 226c65.333 62 144 93 236 93c54 0 105 -11.667 153 -35c34.667 -18.667 67 -40.334 97 -65.001
c8.66699 -6.66699 18.334 -15 29.001 -25c8.66699 -7.33301 14 -12 16 -14h194v333h-194z" />
    <glyph glyph-name="d" unicode="d" horiz-adv-x="1300" vert-adv-y="1844" 
d="M606 192c-96 0 -178 32.667 -246 98c-68 64.667 -102 142.667 -102 234s34 169.666 102 234.999c68 64.667 150 97 246 97s178 -32.333 246 -97c68 -65.333 102 -143.666 102 -234.999s-34 -169.333 -102 -234c-68 -65.333 -150 -98 -246 -98zM606 1084
c-158.667 0 -294.334 -54.667 -407.001 -164s-169 -241.333 -169 -396c0 -154 56.333 -286 169 -396c112.667 -109.333 248.334 -164 407.001 -164c131.333 0 248.666 39 351.999 117v-86h312v202h-82v1002h82v202h-312v-434c-103.333 78 -220.666 117 -351.999 117z" />
    <glyph glyph-name="e" unicode="e" horiz-adv-x="1215" vert-adv-y="1844" 
d="M762 805c49.333 -25.333 90 -59.667 122 -103l-615 -89c22.667 67.333 64 122.333 124 165c61.333 43.333 130.333 65 207 65c57.333 0 111.333 -12.667 162 -38zM405 234.999c-57.333 37.333 -99.333 86.334 -126 147.001l899 129
c-5.33301 83.333 -22 158.666 -50 225.999v0c-45.333 100 -115 180.333 -209 241c-96.667 62.667 -203 94 -319 94c-159.333 0 -295.333 -55 -408 -165c-112.667 -109.333 -169 -241.333 -169 -396s56.333 -286.667 169 -396c112.667 -110 248.667 -165 408 -165
c109.333 0 210.333 28 303 84c90 54.667 159.667 127.667 209 219h-294c-63.333 -49.333 -136 -74 -218 -74c-71.333 0 -136.333 18.667 -195 56z" />
    <glyph glyph-name="f" unicode="f" horiz-adv-x="494" vert-adv-y="1844" 
d="M475 1408c-103.333 -2.66699 -188 -31.333 -254 -86c-70 -58 -105 -135.333 -105 -232v-15h-77v-197h77v-680h-78v-198h378v198h-78v680h136v197h-136v29c0 38.667 13 64 39 76c10 4.66699 42.667 11 98 19v209z" />
    <glyph glyph-name="g" unicode="g" horiz-adv-x="1236" vert-adv-y="1844" 
d="M335 291c-64.667 62.667 -97 137.667 -97 225c0 88 32.333 163 97 225c65.333 62 144 93 236 93s170.333 -31 235 -93c65.333 -62 98 -137 98 -225c0 -87.333 -32.667 -162.333 -98 -225c-64.667 -62 -143 -93 -235 -93s-170.667 31 -236 93zM1207 830v193.999h-299v-83
c-99.333 74.667 -211.666 112 -336.999 112c-152 0 -282 -52.333 -390 -157c-108 -105.333 -162 -232 -162 -380l17 -132c30.667 -117.333 95.334 -213.666 194.001 -288.999c100 -77.333 213.667 -116 341 -116c125.333 0 237.666 37.667 336.999 113v-65
c-0.666992 -128.667 -90.334 -200.667 -269.001 -216c-138.667 -12.667 -245.334 -1.66699 -320.001 33v92l-225 -3l31 -246c161.333 -57.333 324 -86 488 -86c144 0 258.333 28.667 343 86c106.667 71.333 164.334 186 173.001 344v0v799h78z" />
    <glyph glyph-name="h" unicode="h" horiz-adv-x="1290" vert-adv-y="1844" 
d="M1168 194v283c4 110 4 183.333 0 220c-24.667 247.333 -127.667 387 -309 419c-149.333 26 -307 -18 -473 -132v412h-355v-201h126v-1001h-61v-193h392v193h-82v492c0 21.333 25 51 75 89c52.667 40.667 109 70.667 169 90c71.333 22.667 131.333 22.667 180 0
c58.667 -28 95 -87.667 109 -179v-492h-81v-193h392v193h-82z" />
    <glyph glyph-name="i" unicode="i" horiz-adv-x="529" vert-adv-y="1844" 
d="M34 1024v-195h122v-632h-122v-195h467v195h-122v827h-345zM346 1147c25.333 27.333 38 60.333 38 99c0 39.333 -12.667 72.666 -38 99.999c-26 27.333 -57.333 41 -94 41s-67.667 -13.667 -93 -41c-26 -27.333 -39 -60.666 -39 -99.999c0 -38.667 13 -71.667 39 -99
c25.333 -28 56.333 -42 93 -42s68 14 94 42z" />
    <glyph glyph-name="j" unicode="j" horiz-adv-x="418" vert-adv-y="1844" 
d="M332 1131c24.667 26.667 37 59 37 97s-12.333 70.333 -37 97c-25.333 26.667 -55.666 40 -90.999 40s-65.666 -13.333 -90.999 -40s-38 -59 -38 -97s12.667 -70.333 38 -97s55.666 -40 90.999 -40s65.666 13.333 90.999 40zM35 1012l-0.000976562 -190.001h123v-797
c0.666992 -13.333 -4.66602 -28.666 -15.999 -45.999c-22 -34 -62 -59.333 -120 -76v-200c92 18 158.333 34.667 199 50c72.667 27.333 120 64.333 142 111c11.333 23.333 18 77 20 161v987h-348z" />
    <glyph glyph-name="k" unicode="k" horiz-adv-x="1104" vert-adv-y="1844" 
d="M33 1401v-201h126v-994h-126v-201h355v526l381 -487l29 -39h265v201h-140l-374 477l303 267h134v202h-239l-359 -335v584h-355z" />
    <glyph glyph-name="l" unicode="l" horiz-adv-x="543" vert-adv-y="1844" 
d="M33 1396v-202h126v-996h-126v-202h482v202h-126v1198h-356z" />
    <glyph glyph-name="m" unicode="m" horiz-adv-x="1958" vert-adv-y="1844" 
d="M1852 178v277c3.33301 108 3.33301 179.667 0 215c-13.333 131.333 -50 230 -110 296c-53.333 59.333 -122.333 91 -207 95c-75.333 4.66699 -157.666 -12 -246.999 -50c-81.333 -34.667 -157 -81.334 -227 -140.001c-60 134 -163.667 197.333 -311 190
c-124 -6 -252 -57 -384 -153v121h-347v-197h123v-206c-2 -12 -3 -22.333 -3 -31v-417h-79v-189h383v189h-77v424c10 36.667 39.667 77.667 89 123c50.667 46 105 79.333 163 100c66 24 121.667 25 167 3c53.333 -25.333 86.666 -81.666 99.999 -168.999v-481h-79v-189h383
v189h-79v277c2 60 2.66699 112.667 2 158c14 38 46 78.333 96 121c51.333 44 105 75.333 161 94c64 22 118 21.667 162 -1c51.333 -26.667 83.333 -82.667 96 -168v-481h-79v-189h383v189h-79z" />
    <glyph glyph-name="n" unicode="n" horiz-adv-x="1253" vert-adv-y="1844" 
d="M1125 188l0.000976562 275c4 107.333 4 178.666 0 213.999c-12 122.667 -45 217 -99 283c-48 58.667 -111 93 -189 103c-138.667 18 -289 -31.667 -451 -149v119h-345v-196h122v-203c-2 -11.333 -3 -22 -3 -32v-414h-79v-188h382v188h-77v421
c10 36.667 39.667 77.334 89 122.001c50 46 104 79.333 162 100c65.333 24 120.666 25 165.999 3c52.667 -25.333 85.667 -81.333 99 -168v-478h-79v-188h382v188h-80z" />
    <glyph glyph-name="o" unicode="o" horiz-adv-x="1200" vert-adv-y="1844" 
d="M351 749c-68 -64.667 -102 -142.667 -102 -234s34 -169.333 102 -234c67.333 -64 149 -96 245 -96c95.333 0 176.666 32 243.999 96c68 64.667 102 142.667 102 234s-34 169.333 -102 234c-67.333 64.667 -148.666 97 -243.999 97c-96 0 -177.667 -32.333 -245 -97z
M190 121c-112 108.667 -168 240 -168 394s56 285.333 168 394c112 109.333 247.333 164 406 164c158 0 293 -54.667 405 -164c112 -108.667 168 -240 168 -394s-56 -285.333 -168 -394c-112 -109.333 -247 -164 -405 -164c-158.667 0 -294 54.667 -406 164z" />
    <glyph glyph-name="p" unicode="p" horiz-adv-x="1257" vert-adv-y="1844" 
d="M908 290c-65.333 -62.667 -144.333 -94 -237 -94s-171.667 31.333 -237 94s-98 138 -98 226s32.667 163.333 98 226s144.333 94 237 94s171.667 -31.333 237 -94s98 -138 98 -226s-32.667 -163.333 -98 -226zM1063 898c-108 105.333 -238.667 158 -392 158
c-126 0 -239.333 -37.667 -340 -113v83h-300v-194h79v-966h-79v-195h300v418c100.667 -75.333 214 -113 340 -113c153.333 0 284 52.667 392 158c108.667 106 163 233.333 163 382s-54.333 276 -163 382z" />
    <glyph glyph-name="q" unicode="q" horiz-adv-x="1257" vert-adv-y="1844" 
d="M251 516c0 88 32.667 163.333 98 226c66 62.667 145 94 237 94c92.667 0 171.667 -31.333 237 -94s98 -138 98 -226s-32.667 -163.333 -98 -226s-144.333 -94 -237 -94c-92 0 -171 31.333 -237 94c-65.333 62.667 -98 138 -98 226zM31 516
c0 -148.667 54.333 -276 163 -382c108.667 -105.333 239.334 -158 392.001 -158c126.667 0 240 37.667 340 113v-418h300v195h-78v966h78v194h-300v-83c-100 75.333 -213.333 113 -340 113c-152.667 0 -283.334 -52.667 -392.001 -158
c-108.667 -106 -163 -233.333 -163 -382z" />
    <glyph glyph-name="r" unicode="r" horiz-adv-x="956" vert-adv-y="1844" 
d="M380 1026l-222.002 -0.000976562v0h-118v-194h118v-645h-78v-187h379v187l-79 -3v397c0.666992 6.66699 1.66699 14.667 3 24c4.66699 34.667 20 72 46 112c27.333 41.333 58 73 92 95c38.667 24.667 74.334 31 107.001 19c38 -13.333 68 -51 90 -113l214 77
c-25.333 86.667 -62.333 152.334 -111 197.001c-44 40 -94.667 60.333 -152 61c-53.333 0.666992 -106.333 -15 -159 -47c-51.333 -32 -94.666 -74.667 -129.999 -128v148z" />
    <glyph glyph-name="s" unicode="s" horiz-adv-x="800" vert-adv-y="1844" 
d="M665 484c-48 51.333 -120.999 95.333 -218.999 132c-68.667 26 -115.334 50 -140.001 72c-21.333 18.667 -33.333 43.334 -36 74.001c-2.66699 24.667 4 45.334 20 62.001c20.667 23.333 55 35 103 35c52 0 99.667 -10 143 -30v-73h185v220l-9 5
c-13.333 7.33301 -61 22.333 -143 45c-14.667 4 -23.667 6.33301 -27 7c-49.333 14 -102.333 21 -159 21c-114.667 0 -203 -33.667 -265 -101c-51.333 -56.667 -73.333 -126.334 -66 -209.001c13.333 -142 117 -247.667 311 -317c62 -22 105.333 -45.333 130 -70
c20.667 -20.667 32.667 -47 36 -79c2.66699 -31.333 -5 -57 -23 -77c-24.667 -26.667 -64.334 -40 -119.001 -40c-52 0 -103 10.333 -153 31v77h-185v-223l13 -4c156 -52 266.333 -78 331 -78c126 0 220.333 34.333 283 103c55.333 60 79 134.667 71 224
c-7.33301 77.333 -34.666 141.666 -81.999 192.999z" />
    <glyph glyph-name="t" unicode="t" horiz-adv-x="557" vert-adv-y="1844" 
d="M384 884l139.001 0.000976562v198h-139v328h-226v-328h-121v-198h121v-566c0 -96.667 35.667 -174 107 -232c67.333 -54.667 154 -83.334 260 -86.001v210c-56.667 7.33301 -90.334 13.333 -101.001 18c-26.667 12 -40 37.333 -40 76v580z" />
    <glyph glyph-name="u" unicode="u" horiz-adv-x="1248" vert-adv-y="1844" 
d="M110 836l-0.00292969 -276.001c-3.33301 -107.333 -3.33301 -178.666 0 -213.999c12.667 -124 46 -219 100 -285c48.667 -58.667 112 -93 190 -103c139.333 -18.667 290 31.333 452 150v-120h347v196h-123v205c2 11.333 3 22 3 32v415h79v189h-383v-189h77v-422
c-9.33301 -37.333 -38.666 -78.333 -87.999 -123c-51.333 -46 -105.666 -79.333 -162.999 -100c-66 -24 -121.667 -25 -167 -3c-53.333 25.333 -86.666 81.333 -99.999 168v480h80v189h-383v-189h79z" />
    <glyph glyph-name="v" unicode="v" horiz-adv-x="1021" vert-adv-y="1844" 
d="M730 1030l-218 -619l-219 619h-263v-197h108l225 -636h-39v-197h376v197h-39l224 636h109v197h-264z" />
    <glyph glyph-name="w" unicode="w" horiz-adv-x="1638" vert-adv-y="1844" 
d="M1329 1023l-225 -787l-226 787h-143l-218 -761l-217 761h-263v-242h108l224 -781h297l141 492l140 -492h313l224 781h108v242h-263z" />
    <glyph glyph-name="x" unicode="x" horiz-adv-x="1182" vert-adv-y="1844" 
d="M835 1025l-244 -453l-243 453h-304v-173h142l174 -342l-174 -342h-142v-173h304l243 453l244 -453h304v173h-142l-174 342l174 342h142v173h-304z" />
    <glyph glyph-name="y" unicode="y" horiz-adv-x="1072" vert-adv-y="1844" 
d="M767 1025l-236 -738l-236 738h-284v-186h117l277 -825l-131 -391h216l444 1216h117v186h-284z" />
    <glyph glyph-name="z" unicode="z" horiz-adv-x="895" vert-adv-y="1844" 
d="M41 1035v-316h190v127h302l-612 -845h906v316h-189v-127h-327l613 845h-883z" />
    <glyph glyph-name="braceleft" unicode="{" horiz-adv-x="566" vert-adv-y="1844" 
d="M174 1212v-229.001c0 -90 -10.333 -152 -31 -186c-6 -10 -13.667 -18 -23 -24l-17 -11v-185l17 -11c9.33301 -6 17 -14 23 -24c20.667 -34 31 -95.667 31 -185v-231c0 -148 17.333 -248 52 -300c30 -45.333 80.333 -72.333 151 -81l42 -6v180l-16 11
c-5.33301 4 -9.66602 8.66699 -12.999 14c-15.333 24.667 -23 82.334 -23 173.001v228c0 110.667 -10.333 190.667 -31 240c-14 34 -34.667 61.667 -62 83c27.333 22.667 48 50.667 62 84c20.667 49.333 31 129.333 31 240v229c0 90.667 8 148.667 24 174
c3.33301 4.66699 7.66602 9 12.999 13l15 11v182l-42 -5c-70 -8.66699 -120.333 -36.667 -151 -84c-34.667 -52 -52 -152 -52 -300z" />
    <glyph glyph-name="bar" unicode="|" horiz-adv-x="548" vert-adv-y="1844" 
d="M178 -353h164v1855h-164v-1855z" />
    <glyph glyph-name="braceright" unicode="}" horiz-adv-x="557" vert-adv-y="1844" 
d="M296 1512c-30 47.333 -80.334 75.334 -151.001 84.001l-42 5v-182l16 -11c5.33301 -4 9.33301 -8.33301 12 -13c16.667 -25.333 25 -83.333 25 -174v-229c0 -110.667 10.333 -190.667 31 -240c13.333 -33.333 33.666 -61.333 60.999 -84c-26.667 -21.333 -47 -49 -61 -83
c-20.667 -49.333 -31 -129.333 -31 -240v-228c0 -90.667 -8 -148.334 -24 -173.001c-3.33301 -5.33301 -7.66602 -10 -12.999 -14l-16 -11v-180l42 6c70.667 8.66699 121.334 35.667 152.001 81c34 52 51 152 51 300v231c0 89.333 10.667 151 32 185c6 10 13.667 18 23 24
l16 11v185l-16 11c-9.33301 6 -17.333 14 -24 24c-20.667 34 -31 96 -31 186v229c0 148 -17.333 248 -52 300z" />
    <glyph glyph-name="asciitilde" unicode="~" horiz-adv-x="1706" vert-adv-y="1844" 
d="M1057 830c-37.333 0 -92.334 13.001 -165.001 39.001l-12 4c-4 2 -6.66699 3 -8 3c-4 2 -8.33301 3.66699 -13 5c-78.667 28.667 -143 43 -193 43c-43.333 0 -88.333 -8.66699 -135 -26c-18 -6.66699 -36.667 -15 -56 -25l-15 -7v-154l40 23
c20.667 11.333 40 20.666 58 27.999c38 16 74 24 108 24c40.667 0 99 -13.667 175 -41l16 -6c5.33301 -2 10.333 -4 15 -6c75.333 -26.667 137 -40 185 -40c44.667 0 90.334 8.66699 137.001 26c14 5.33301 27.667 11 41 17l15 8v152l-39 -22c-16 -8 -31 -15 -45 -21
c-38 -16 -74.333 -24 -109 -24z" />
    <glyph glyph-name="quoteleft" unicode="&#x2018;" horiz-adv-x="784" vert-adv-y="1844" 
d="M419 1035h123l-107 392h-183z" />
    <glyph glyph-name="quoteright" unicode="&#x2019;" horiz-adv-x="547" vert-adv-y="1844" 
d="M178 1030h123v392h-123v-392z" />
    </font>
</defs>
</svg>
